<?xml version="1.0" encoding="UTF-8"?>
<svg id="Calque_1" xmlns="http://www.w3.org/2000/svg" version="1.1" viewBox="0 0 167.8 152.68">
  <!-- Generator: Adobe Illustrator 30.0.0, SVG Export Plug-In . SVG Version: 2.1.1 Build 123)  -->
  <defs>
    <style>
      .st0 {
        fill: #fff;
      }

      .st1 {
        fill: #ee9919;
      }

      .st2 {
        fill: #010101;
      }

      .st3 {
        fill: #fdcf32;
      }
    </style>
  </defs>
  <path class="st3" d="M156.45,152.68H11.35c-6.27,0-11.35-6.58-11.35-14.7V14.75C0,6.63,5.08.05,11.35.05h145.11c7.74,0,11.35,3.67,11.35,14.7v123.22c0,8.12-5.08,14.7-11.35,14.7Z"/>
  <path class="st1" d="M166.27,25.35v-14.02c0-6.26-5-11.33-11.16-11.33H12.43C6.26,0,1.27,5.07,1.27,11.33v13.75l165,.27Z"/>
  <path class="st0" d="M156.45,5.05c3.58,0,4.39,1,4.7,1.37.75.92,1.65,3.12,1.65,8.33v123.22c0,5.17-2.97,9.7-6.35,9.7H11.35c-3.38,0-6.35-4.53-6.35-9.7V14.75c0-5.17,2.97-9.7,6.35-9.7h145.11M156.45.05H11.35C5.08.05,0,6.63,0,14.75v123.22C0,146.1,5.08,152.68,11.35,152.68h145.11c6.27,0,11.35-6.58,11.35-14.7V14.75c0-11.03-3.61-14.7-11.35-14.7h0Z"/>
  <path class="st2" d="M156.45,3.05c6.32,0,8.35,2.84,8.35,11.7v123.22c0,6.34-3.82,11.7-8.35,11.7H11.35c-4.53,0-8.35-5.36-8.35-11.7V14.75c0-6.34,3.82-11.7,8.35-11.7h145.11M156.45.05H11.35C5.08.05,0,6.63,0,14.75v123.22C0,146.1,5.08,152.68,11.35,152.68h145.11c6.27,0,11.35-6.58,11.35-14.7V14.75c0-8.06-1.59-14.7-11.35-14.7h0Z"/>
  <g>
    <g>
      <path class="st0" d="M39.97,19.92v-9.07h2.89c.91,0,1.72.17,2.4.51.69.34,1.23.85,1.61,1.51.38.66.57,1.48.57,2.44,0,1.51-.43,2.68-1.29,3.46-.85.77-2.04,1.16-3.55,1.16h-2.63ZM42.76,17.92c1.59,0,2.33-.82,2.33-2.57,0-.88-.18-1.53-.55-1.92-.36-.39-.88-.59-1.59-.59h-.7v5.08h.52Z"/>
      <path class="st2" d="M42.85,11.1c.88,0,1.64.16,2.29.48.65.32,1.15.79,1.51,1.41.36.62.54,1.39.54,2.31,0,1.45-.4,2.54-1.21,3.27-.8.73-1.93,1.1-3.39,1.1h-2.38v-8.57h2.64M41.99,18.17h.77c1.72,0,2.58-.94,2.58-2.82,0-.95-.2-1.65-.61-2.09-.41-.44-1-.67-1.78-.67h-.95v5.58M42.85,10.6h-3.14v9.57h2.88c1.57,0,2.83-.41,3.72-1.23.91-.83,1.37-2.05,1.37-3.64,0-1-.2-1.87-.6-2.56-.41-.7-.99-1.25-1.72-1.61-.71-.35-1.56-.53-2.51-.53h0ZM42.49,13.08h.45c.64,0,1.1.17,1.41.5.32.35.48.94.48,1.76,0,1.6-.64,2.32-2.08,2.32h-.27v-4.58h0Z"/>
    </g>
    <g>
      <path class="st0" d="M53.89,19.92l-.61-2.04h-2.69l-.61,2.04h-2.46l3.14-9.1h2.54l3.15,9.1h-2.46ZM52.7,15.85l-.51-1.67-.25-.85-.11.39c-.06.22-.11.38-.14.47l-.5,1.66h1.52Z"/>
      <path class="st2" d="M53.02,11.06l2.98,8.6h-1.92l-.61-2.04h-3.06l-.61,2.04h-1.92l2.97-8.6h2.18M50.85,16.1h2.19l-.61-1.99c-.04-.14-.09-.31-.15-.52-.06-.21-.13-.42-.19-.64-.06-.22-.11-.4-.15-.56-.04.16-.09.36-.16.59-.07.24-.13.46-.19.67-.06.21-.1.36-.14.45l-.6,1.99M53.37,10.56h-2.89l-.12.34-2.97,8.6-.23.66h2.99l.11-.36.51-1.68h2.32l.51,1.68.11.36h2.99l-.23-.66-2.98-8.6-.12-.34h0ZM51.52,15.6l.41-1.35s0-.02.01-.03c0,0,0,.02,0,.03l.42,1.35h-.84Z"/>
    </g>
    <g>
      <polygon class="st0" points="56.12 19.92 56.12 18.47 57.15 17.99 57.15 12.77 56.12 12.29 56.12 10.85 60.45 10.85 60.45 12.29 59.42 12.77 59.42 17.99 60.45 18.47 60.45 19.92 56.12 19.92"/>
      <path class="st2" d="M60.2,11.1v1.03l-1.02.48v5.54l1.02.48v1.03h-3.83v-1.03l1.02-.48v-5.54l-1.02-.48v-1.03h3.83M60.7,10.6h-4.83v1.85l.29.13.74.35v4.91l-.74.35-.29.13v1.85h4.83v-1.85l-.29-.13-.74-.35v-4.91l.74-.35.29-.13v-1.85h0Z"/>
    </g>
    <g>
      <polygon class="st0" points="61.39 19.92 61.39 10.85 63.66 10.85 63.66 17.92 67.08 17.92 67.08 19.92 61.39 19.92"/>
      <path class="st2" d="M63.41,11.1v7.07h3.41v1.5h-5.19v-8.57h1.78M63.91,10.6h-2.78v9.57h6.19v-2.5h-3.41v-7.07h0Z"/>
    </g>
    <g>
      <polygon class="st0" points="69.77 19.92 69.77 16.45 66.81 10.85 69.32 10.85 70.9 14.06 72.5 10.85 74.99 10.85 72.04 16.39 72.04 19.92 69.77 19.92"/>
      <path class="st2" d="M74.58,11.1l-2.79,5.23v3.34h-1.77v-3.28l-2.79-5.29h1.93l1.74,3.53,1.75-3.53h1.92M75.41,10.6h-3.06l-.14.28-1.31,2.62-1.3-2.62-.14-.28h-3.07l.39.73,2.73,5.18v3.65h2.77v-3.71l2.73-5.12.39-.74h0Z"/>
    </g>
    <g>
      <path class="st0" d="M83.29,19.92l-2-3.29h-.56v3.29h-2.28v-9.07h2.7c1.2,0,2.1.23,2.69.69.61.47.92,1.19.92,2.13,0,.43-.08.81-.24,1.14-.16.32-.37.6-.64.82-.18.15-.37.29-.57.4l2.58,3.89h-2.58ZM81.05,14.65c.53,0,.9-.08,1.11-.25.19-.15.29-.38.29-.69s-.09-.53-.29-.66c-.23-.15-.61-.22-1.14-.22h-.29v1.82h.33Z"/>
      <path class="st2" d="M81.15,11.1c1.15,0,1.99.21,2.54.64.55.42.82,1.07.82,1.93,0,.39-.07.73-.22,1.03-.15.29-.34.54-.58.74-.24.2-.5.37-.77.5l2.47,3.73h-1.98l-2-3.29h-.95v3.29h-1.78v-8.57h2.45M80.48,14.9h.58c.59,0,1.01-.1,1.27-.3.25-.2.38-.5.38-.89s-.14-.7-.41-.87c-.27-.17-.7-.26-1.28-.26h-.54v2.32M81.15,10.6h-2.95v9.57h2.78v-3.29h.17l1.86,3.05.15.24h3.19l-.51-.78-2.18-3.28c.13-.09.26-.18.38-.29.29-.25.53-.55.7-.9.18-.36.27-.78.27-1.25,0-1.02-.34-1.8-1.01-2.33-.64-.5-1.57-.74-2.84-.74h0ZM80.98,13.08h.04c.63,0,.9.11,1.01.18.05.03.17.11.17.45,0,.31-.11.43-.19.49-.09.07-.34.19-.96.19h-.08v-1.32h0Z"/>
    </g>
    <g>
      <polygon class="st0" points="86.22 19.92 86.22 10.85 91.56 10.85 91.56 12.83 88.5 12.83 88.5 14.22 91.35 14.22 91.35 16.21 88.5 16.21 88.5 17.92 91.56 17.92 91.56 19.92 86.22 19.92"/>
      <path class="st2" d="M91.31,11.1v1.49h-3.06v1.88h2.85v1.49h-2.85v2.21h3.06v1.5h-4.84v-8.57h4.84M91.81,10.6h-5.84v9.57h5.84v-2.5h-3.06v-1.21h2.85v-2.49h-2.85v-.88h3.06v-2.49h0Z"/>
    </g>
    <g>
      <path class="st0" d="M99.03,19.92l-1.19-4.69c-.02-.09-.05-.23-.09-.41l-.05-.25c-.02.09-.13.57-.15.67l-1.18,4.68h-2.42l-2.27-9.07h2.27l1.12,4.87c.05.18.1.42.15.7,0,.02,0,.05.01.07,0-.01,0-.03,0-.04.05-.27.1-.47.14-.62l1.27-4.98h2.07l1.27,4.99c.04.14.09.34.14.61,0,.02,0,.04.01.06,0-.03.17-.78.17-.78l1.12-4.88h2.27l-2.27,9.07h-2.42Z"/>
      <path class="st2" d="M103.39,11.1l-2.14,8.57h-2.03l-1.14-4.5c-.02-.09-.05-.22-.09-.4-.04-.18-.07-.37-.12-.58-.04-.21-.08-.41-.11-.59-.03-.19-.06-.33-.07-.44,0,.1-.03.25-.06.44-.04.19-.07.38-.11.59-.04.2-.08.4-.12.58-.04.18-.07.32-.09.41l-1.13,4.49h-2.03l-2.14-8.57h1.75l1.07,4.68c.05.18.1.42.15.7.05.28.11.56.15.84.05.28.08.52.11.71.02-.2.06-.44.11-.71.05-.28.1-.54.15-.8.05-.26.1-.46.14-.61l1.22-4.8h1.68l1.22,4.8c.04.14.08.34.14.6s.1.54.15.82c.05.28.08.52.11.71.02-.2.06-.44.11-.71.05-.28.1-.55.16-.83.06-.28.11-.51.15-.7l1.07-4.68h1.75M104.03,10.6h-2.79l-.09.39-1,4.38-1.12-4.4-.1-.38h-2.46l-.1.38-1.12,4.4-1-4.38-.09-.39h-2.79l.16.62,2.14,8.57.09.38h2.81l.1-.38,1.04-4.11,1.04,4.11.1.38h2.8l.09-.38,2.14-8.57.16-.62h0Z"/>
    </g>
    <g>
      <path class="st0" d="M109.41,19.92l-.61-2.04h-2.69l-.61,2.04h-2.46l3.14-9.1h2.54l3.15,9.1h-2.46ZM108.22,15.85l-.51-1.67-.25-.85-.11.39c-.06.22-.11.38-.14.47l-.5,1.66h1.51Z"/>
      <path class="st2" d="M108.54,11.06l2.98,8.6h-1.92l-.61-2.04h-3.06l-.61,2.04h-1.92l2.97-8.6h2.18M106.37,16.1h2.19l-.61-1.99c-.04-.14-.09-.31-.15-.52-.06-.21-.13-.42-.19-.64s-.11-.4-.15-.56c-.04.16-.09.36-.16.59-.07.24-.13.46-.19.67-.06.21-.1.36-.14.45l-.6,1.99M108.89,10.56h-2.89l-.12.34-2.97,8.6-.23.66h2.99l.11-.36.51-1.68h2.32l.51,1.68.11.36h2.99l-.23-.66-2.98-8.6-.12-.34h0ZM107.04,15.6l.41-1.35s0-.02.01-.03c0,0,0,.02,0,.03l.42,1.35h-.84Z"/>
    </g>
    <g>
      <path class="st0" d="M117.17,19.92l-2-3.29h-.56v3.29h-2.28v-9.07h2.7c1.2,0,2.1.23,2.69.69.61.47.92,1.19.92,2.13,0,.43-.08.81-.24,1.14-.16.32-.37.6-.64.82-.18.15-.37.29-.57.4l2.58,3.89h-2.58ZM114.93,14.65c.53,0,.9-.08,1.11-.25.19-.15.29-.38.29-.69s-.09-.53-.29-.66c-.23-.15-.61-.22-1.14-.22h-.29v1.82h.33Z"/>
      <path class="st2" d="M115.02,11.1c1.15,0,1.99.21,2.54.64.55.42.82,1.07.82,1.93,0,.39-.07.73-.22,1.03-.15.29-.34.54-.58.74-.24.2-.5.37-.77.5l2.47,3.73h-1.98l-2-3.29h-.95v3.29h-1.78v-8.57h2.45M114.35,14.9h.58c.59,0,1.01-.1,1.27-.3.25-.2.38-.5.38-.89s-.14-.7-.41-.87c-.27-.17-.7-.26-1.28-.26h-.54v2.32M115.02,10.6h-2.95v9.57h2.78v-3.29h.17l1.86,3.05.15.24h3.19l-.51-.78-2.18-3.28c.13-.09.26-.18.38-.29.29-.25.53-.55.7-.9.18-.36.27-.78.27-1.25,0-1.02-.34-1.8-1.01-2.33-.64-.5-1.57-.74-2.84-.74h0ZM114.85,13.08h.04c.63,0,.9.11,1.01.18.05.03.17.11.17.45,0,.31-.11.43-.19.49-.09.07-.34.19-.96.19h-.08v-1.32h0Z"/>
    </g>
    <g>
      <path class="st0" d="M120.1,19.92v-9.07h2.89c.91,0,1.72.17,2.4.51.69.34,1.23.85,1.61,1.51.38.66.57,1.48.57,2.44,0,1.51-.43,2.68-1.29,3.46-.85.77-2.04,1.16-3.55,1.16h-2.63ZM122.89,17.92c1.59,0,2.33-.82,2.33-2.57,0-.88-.18-1.53-.55-1.92s-.88-.59-1.59-.59h-.7v5.08h.51Z"/>
      <path class="st2" d="M122.98,11.1c.88,0,1.64.16,2.29.48.65.32,1.15.79,1.51,1.41.36.62.54,1.39.54,2.31,0,1.45-.4,2.54-1.21,3.27s-1.93,1.1-3.39,1.1h-2.38v-8.57h2.64M122.13,18.17h.77c1.72,0,2.58-.94,2.58-2.82,0-.95-.2-1.65-.61-2.09-.41-.44-1-.67-1.78-.67h-.95v5.58M122.98,10.6h-3.14v9.57h2.88c1.57,0,2.83-.41,3.72-1.23.91-.83,1.37-2.05,1.37-3.64,0-1-.2-1.87-.6-2.56-.41-.7-.98-1.25-1.72-1.61-.71-.35-1.56-.53-2.51-.53h0ZM122.63,13.08h.45c.64,0,1.1.17,1.41.5.32.35.48.94.48,1.76,0,1.6-.64,2.32-2.08,2.32h-.27v-4.58h0Z"/>
    </g>
  </g>
</svg>