<?xml version="1.0" encoding="UTF-8"?>
<svg id="Calque_1" xmlns="http://www.w3.org/2000/svg" version="1.1" viewBox="0 0 167.46 117.57">
  <!-- Generator: Adobe Illustrator 30.0.0, SVG Export Plug-In . SVG Version: 2.1.1 Build 123)  -->
  <defs>
    <style>
      .st0 {
        fill: #3b8aca;
      }

      .st1 {
        fill: #fff;
      }

      .st2 {
        fill: #f0f8fb;
      }

      .st3 {
        fill: #010101;
      }
    </style>
  </defs>
  <g>
    <path class="st2" d="M11.33,1.5h144.81c5.42,0,9.83,4.4,9.83,9.83v94.92c0,5.42-4.4,9.83-9.83,9.83H11.33c-5.42,0-9.83-4.4-9.83-9.83V11.33C1.5,5.9,5.9,1.5,11.33,1.5Z"/>
    <path class="st3" d="M156.13,3c4.59,0,8.33,3.73,8.33,8.33v94.92c0,4.59-3.73,8.33-8.33,8.33H11.33c-4.59,0-8.33-3.73-8.33-8.33V11.33C3,6.73,6.73,3,11.33,3h144.81M156.13,0H11.33C5.07,0,0,5.07,0,11.33v94.92C0,112.5,5.07,117.57,11.33,117.57h144.81c6.26,0,11.33-5.07,11.33-11.33V11.33C167.46,5.07,162.39,0,156.13,0h0Z"/>
  </g>
  <g>
    <path class="st0" d="M167.46,25.35v-14.02C167.46,5.07,162.39,0,156.13,0H11.33C5.07,0,0,5.07,0,11.33v13.75l167.46.27Z"/>
    <path class="st1" d="M156.13,5c3.49,0,6.33,2.84,6.33,6.33v94.92c0,3.49-2.84,6.33-6.33,6.33H11.33c-3.49,0-6.33-2.84-6.33-6.33V11.33c0-3.49,2.84-6.33,6.33-6.33h144.81M156.13,0H11.33C5.07,0,0,5.07,0,11.33v94.92C0,112.5,5.07,117.57,11.33,117.57h144.81c6.26,0,11.33-5.07,11.33-11.33V11.33c0-6.26-5.07-11.33-11.33-11.33h0Z"/>
    <path class="st3" d="M156.13,3c4.59,0,8.33,3.73,8.33,8.33v94.92c0,4.59-3.73,8.33-8.33,8.33H11.33c-4.59,0-8.33-3.73-8.33-8.33V11.33C3,6.73,6.73,3,11.33,3h144.81M156.13,0H11.33C5.07,0,0,5.07,0,11.33v94.92C0,112.5,5.07,117.57,11.33,117.57h144.81c6.26,0,11.33-5.07,11.33-11.33V11.33C167.46,5.07,162.39,0,156.13,0h0Z"/>
    <g>
      <g>
        <path class="st1" d="M61.24,20.24v-4.31c0-.27,0-.59.02-.94v-.1s-1.76,5.36-1.76,5.36h-2.03l-1.59-5.18c.01.35.02.66.02.95v4.23h-2.12v-9.07h2.91l1.87,6.04,1.98-6.04h2.9v9.07h-2.19Z"/>
        <path class="st3" d="M63.19,11.42v8.57h-1.69v-4.06c0-.27,0-.58.02-.94.01-.35.02-.69.04-1,.01-.32.02-.55.03-.71h-.05l-2.21,6.71h-1.67l-2.06-6.72h-.05c0,.16.02.4.04.72.02.32.03.66.05,1.03.02.36.02.69.02.99v3.98h-1.62v-8.57h2.47l2.03,6.55h.04l2.15-6.55h2.47M63.69,10.92h-3.33l-.11.34-1.68,5.12-1.58-5.11-.11-.35h-3.34v9.57h2.62v-3.69l1.03,3.34.11.35h2.4l.11-.34,1.2-3.64v3.98h2.69v-9.57h0Z"/>
      </g>
      <g>
        <polygon class="st1" points="65.1 20.24 65.1 11.17 70.53 11.17 70.53 13.16 67.41 13.16 67.41 14.54 70.31 14.54 70.31 16.53 67.41 16.53 67.41 18.24 70.53 18.24 70.53 20.24 65.1 20.24"/>
        <path class="st3" d="M70.28,11.42v1.49h-3.12v1.88h2.9v1.49h-2.9v2.21h3.12v1.5h-4.93v-8.57h4.93M70.78,10.92h-5.93v9.57h5.93v-2.5h-3.12v-1.21h2.9v-2.49h-2.9v-.88h3.12v-2.49h0Z"/>
      </g>
      <g>
        <path class="st1" d="M73.96,20.36c-.94,0-1.79-.18-2.53-.54l-.14-.07v-2.23l.35.15c.4.17.82.33,1.25.48.41.14.82.21,1.22.21.38,0,.65-.07.79-.19.14-.12.2-.27.2-.47,0-.15-.05-.27-.15-.38-.13-.13-.31-.26-.53-.38-.25-.13-.53-.27-.84-.42-.21-.1-.43-.22-.66-.35-.25-.14-.49-.32-.71-.53-.24-.22-.43-.48-.58-.79-.15-.31-.23-.69-.23-1.12,0-.84.29-1.51.87-1.99.56-.46,1.33-.7,2.28-.7.47,0,.92.06,1.34.16.42.11.85.26,1.3.46l.23.1-.78,1.87-.23-.09c-.38-.16-.72-.28-1.03-.36-.29-.08-.59-.12-.89-.12-.28,0-.49.06-.63.18-.13.11-.19.25-.19.44,0,.22.09.38.29.51.26.17.66.38,1.18.63.45.21.84.44,1.16.67.34.25.6.54.79.87.19.34.28.76.28,1.25,0,.83-.31,1.51-.91,2.01-.59.49-1.43.74-2.49.74Z"/>
        <path class="st3" d="M74.54,11.3c.45,0,.87.05,1.28.16.4.1.83.25,1.27.44l-.59,1.42c-.39-.16-.74-.28-1.06-.37s-.63-.13-.96-.13c-.34,0-.61.08-.79.24-.18.16-.28.37-.28.62,0,.3.14.54.41.72.27.18.68.39,1.21.65.44.21.81.42,1.12.65.31.22.55.49.71.79.17.3.25.68.25,1.13,0,.76-.27,1.37-.82,1.82-.55.45-1.33.68-2.33.68-.9,0-1.71-.17-2.42-.52v-1.69c.41.18.83.34,1.27.49.44.15.87.22,1.3.22s.77-.09.95-.26c.19-.17.28-.39.28-.65,0-.22-.07-.4-.22-.55-.15-.15-.35-.29-.59-.43-.25-.13-.53-.27-.85-.43-.2-.1-.42-.21-.65-.34-.23-.13-.45-.3-.67-.49-.21-.2-.39-.43-.52-.71-.14-.28-.2-.62-.2-1.01,0-.77.26-1.37.78-1.79.52-.43,1.23-.64,2.12-.64M74.54,10.8c-1.01,0-1.83.25-2.44.76-.64.52-.96,1.26-.96,2.18,0,.47.09.88.25,1.23.16.33.37.62.63.86.24.22.49.41.76.56.24.14.47.26.68.36.31.15.59.29.83.42.2.11.36.22.47.33.06.06.08.12.08.2,0,.12-.04.21-.12.29-.03.03-.17.13-.62.13-.37,0-.76-.07-1.14-.2-.42-.14-.83-.3-1.23-.47l-.7-.3v2.77l.28.14c.78.38,1.67.57,2.64.57,1.12,0,2.01-.27,2.65-.79.67-.55,1-1.29,1-2.2,0-.53-.11-.99-.31-1.37-.2-.37-.49-.69-.86-.95-.33-.24-.74-.48-1.2-.7-.51-.24-.9-.45-1.15-.62-.15-.1-.18-.19-.18-.3s.03-.18.1-.25c.11-.1.31-.12.46-.12.28,0,.56.04.82.11.29.08.63.2,1,.35l.46.19.19-.46.59-1.42.19-.45-.45-.2c-.46-.2-.91-.36-1.34-.47-.45-.11-.92-.17-1.4-.17h0Z"/>
      </g>
      <g>
        <path class="st1" d="M80.57,20.36c-.94,0-1.79-.18-2.53-.54l-.14-.07v-2.23l.35.15c.4.17.82.33,1.25.48.41.14.82.21,1.22.21.38,0,.65-.07.79-.19.14-.12.2-.27.2-.47,0-.15-.05-.27-.15-.38-.13-.13-.31-.26-.53-.38-.25-.13-.53-.27-.84-.42-.21-.1-.43-.22-.66-.35-.25-.14-.49-.32-.71-.53-.24-.22-.43-.48-.58-.79-.15-.31-.23-.69-.23-1.12,0-.84.29-1.51.87-1.99.56-.46,1.33-.7,2.28-.7.47,0,.92.06,1.34.16.42.11.85.26,1.3.46l.23.1-.78,1.87-.23-.09c-.38-.16-.72-.28-1.03-.36-.29-.08-.59-.12-.89-.12-.28,0-.49.06-.63.18-.13.11-.19.25-.19.44,0,.22.09.38.29.51.26.17.66.38,1.18.63.45.21.84.44,1.16.67.34.25.6.54.79.87.19.34.28.76.28,1.25,0,.83-.31,1.51-.91,2.01-.59.49-1.43.74-2.49.74Z"/>
        <path class="st3" d="M81.15,11.3c.45,0,.87.05,1.28.16.4.1.83.25,1.27.44l-.59,1.42c-.39-.16-.74-.28-1.06-.37s-.63-.13-.96-.13c-.34,0-.61.08-.79.24-.18.16-.28.37-.28.62,0,.3.14.54.41.72.27.18.68.39,1.21.65.44.21.81.42,1.12.65.31.22.55.49.71.79.17.3.25.68.25,1.13,0,.76-.27,1.37-.82,1.82-.55.45-1.33.68-2.33.68-.9,0-1.71-.17-2.42-.52v-1.69c.41.18.83.34,1.27.49.44.15.87.22,1.3.22s.77-.09.95-.26c.19-.17.28-.39.28-.65,0-.22-.07-.4-.22-.55-.15-.15-.35-.29-.59-.43-.25-.13-.53-.27-.85-.43-.2-.1-.42-.21-.65-.34-.23-.13-.45-.3-.67-.49-.21-.2-.39-.43-.52-.71-.14-.28-.2-.62-.2-1.01,0-.77.26-1.37.78-1.79.52-.43,1.23-.64,2.12-.64M81.15,10.8c-1.01,0-1.83.25-2.44.76-.64.52-.96,1.26-.96,2.18,0,.47.09.88.25,1.23.16.33.37.62.63.86.24.22.49.41.76.56.24.14.47.26.68.36.31.15.59.29.83.42.2.11.36.22.47.33.06.06.08.12.08.2,0,.12-.04.21-.12.29-.03.03-.17.13-.62.13-.37,0-.76-.07-1.14-.2-.42-.14-.83-.3-1.23-.47l-.7-.3v2.77l.28.14c.78.38,1.67.57,2.64.57,1.12,0,2.01-.27,2.65-.79.67-.55,1-1.29,1-2.2,0-.53-.11-.99-.31-1.37-.2-.37-.49-.69-.86-.95-.33-.24-.74-.48-1.2-.7-.51-.24-.9-.45-1.15-.62-.15-.1-.18-.19-.18-.3s.03-.18.1-.25c.11-.1.31-.12.46-.12.28,0,.56.04.82.11.29.08.63.2,1,.35l.46.19.19-.46.59-1.42.19-.45-.45-.2c-.46-.2-.91-.36-1.34-.47-.45-.11-.92-.17-1.4-.17h0Z"/>
      </g>
      <g>
        <path class="st1" d="M90.35,20.24l-.62-2.04h-2.75l-.62,2.04h-2.49l3.2-9.1h2.57l3.21,9.1h-2.49ZM89.14,16.18l-.52-1.67-.26-.87-.12.41c-.06.22-.11.37-.14.46l-.51,1.66h1.55Z"/>
        <path class="st3" d="M89.45,11.39l3.04,8.6h-1.96l-.62-2.04h-3.12l-.62,2.04h-1.96l3.02-8.6h2.22M87.25,16.43h2.23l-.62-1.99c-.04-.14-.09-.31-.16-.52-.06-.21-.13-.42-.19-.64-.06-.22-.12-.4-.16-.56-.04.16-.09.36-.16.59-.07.24-.13.46-.19.67-.06.21-.11.36-.14.45l-.61,1.99M89.81,10.89h-2.93l-.12.33-3.02,8.6-.23.67h3.03l.11-.35.52-1.69h2.38l.52,1.69.11.35h3.03l-.24-.67-3.04-8.6-.12-.33h0ZM87.92,15.93l.41-1.35s.01-.04.02-.06c0,.02.01.04.02.06l.42,1.35h-.87Z"/>
      </g>
      <g>
        <path class="st1" d="M97.17,20.36c-1.35,0-2.4-.41-3.14-1.21-.73-.8-1.1-1.96-1.1-3.46,0-.93.19-1.75.55-2.45.37-.7.91-1.24,1.62-1.63.7-.38,1.56-.57,2.56-.57.47,0,.94.05,1.4.15.45.1.87.23,1.25.4l.22.1-.8,1.93-.24-.12c-.25-.13-.53-.23-.85-.32-.31-.08-.65-.12-.99-.12-.48,0-.9.11-1.24.32-.35.21-.62.52-.81.91-.19.4-.29.88-.29,1.43s.07,1,.21,1.4c.14.39.34.68.63.9.28.21.66.32,1.13.32.24,0,.45-.01.62-.03.1-.01.19-.03.28-.04v-1.33h-1.62v-2.01h3.9v4.87l-.17.06c-.46.15-.94.28-1.43.37-.5.09-1.07.14-1.7.14Z"/>
        <path class="st3" d="M97.66,11.3c.46,0,.9.05,1.34.14.44.1.84.22,1.2.38l-.6,1.45c-.26-.14-.56-.25-.9-.34s-.69-.13-1.06-.13c-.53,0-.99.12-1.37.36-.39.24-.69.58-.9,1.01-.21.44-.32.95-.32,1.54,0,.56.08,1.06.23,1.49.15.43.39.77.72,1.01.33.24.76.37,1.28.37.26,0,.47-.01.65-.04.18-.02.35-.05.5-.08v-1.79h-1.62v-1.51h3.4v4.44c-.45.15-.91.27-1.4.36-.48.09-1.03.13-1.65.13-1.28,0-2.26-.38-2.95-1.13-.69-.75-1.03-1.85-1.03-3.29,0-.9.17-1.67.52-2.33.35-.66.85-1.16,1.52-1.52.66-.36,1.48-.54,2.44-.54M97.66,10.8c-1.04,0-1.94.2-2.67.6-.75.41-1.33.99-1.72,1.73-.39.73-.58,1.59-.58,2.56,0,1.56.39,2.78,1.16,3.63.78.86,1.9,1.29,3.32,1.29.64,0,1.23-.05,1.74-.14.51-.09,1-.22,1.47-.38l.34-.12v-5.3h-4.4v2.51h1.62v.87s-.04,0-.06,0c-.16.02-.35.03-.59.03-.42,0-.75-.09-.98-.27-.25-.19-.43-.44-.55-.78-.13-.38-.2-.82-.2-1.32s.09-.96.27-1.32c.17-.35.4-.62.71-.81.31-.19.67-.29,1.11-.29.32,0,.64.04.93.12.3.08.57.18.8.3l.48.25.21-.5.6-1.45.19-.45-.45-.2c-.39-.17-.83-.31-1.3-.42-.47-.1-.96-.16-1.45-.16h0Z"/>
      </g>
      <g>
        <polygon class="st1" points="102.01 20.24 102.01 11.17 107.44 11.17 107.44 13.16 104.32 13.16 104.32 14.54 107.22 14.54 107.22 16.53 104.32 16.53 104.32 18.24 107.44 18.24 107.44 20.24 102.01 20.24"/>
        <path class="st3" d="M107.19,11.42v1.49h-3.12v1.88h2.9v1.49h-2.9v2.21h3.12v1.5h-4.93v-8.57h4.93M107.69,10.92h-5.93v9.57h5.93v-2.5h-3.12v-1.21h2.9v-2.49h-2.9v-.88h3.12v-2.49h0Z"/>
      </g>
      <g>
        <path class="st1" d="M110.87,20.36c-.94,0-1.79-.18-2.53-.54l-.14-.07v-2.23l.35.15c.4.17.82.33,1.25.48.41.14.82.21,1.22.21.38,0,.65-.07.79-.19.14-.12.2-.27.2-.47,0-.15-.05-.27-.15-.38-.13-.13-.31-.26-.53-.38-.25-.13-.53-.27-.84-.42-.21-.1-.43-.22-.66-.35-.25-.14-.49-.32-.71-.53-.24-.22-.43-.48-.58-.79-.15-.31-.23-.69-.23-1.12,0-.84.29-1.51.87-1.99.56-.46,1.33-.7,2.28-.7.47,0,.92.06,1.34.16.42.11.85.26,1.3.46l.23.1-.78,1.87-.23-.09c-.38-.16-.73-.28-1.03-.36-.29-.08-.59-.12-.89-.12-.28,0-.49.06-.63.18-.13.11-.19.25-.19.44,0,.22.09.38.29.51.26.17.66.38,1.18.63.45.21.84.44,1.16.67.34.25.6.54.79.87.19.34.28.76.28,1.25,0,.83-.31,1.51-.91,2.01-.59.49-1.43.74-2.49.74Z"/>
        <path class="st3" d="M111.45,11.3c.45,0,.87.05,1.28.16.4.1.83.25,1.27.44l-.59,1.42c-.39-.16-.74-.28-1.06-.37s-.63-.13-.96-.13c-.34,0-.61.08-.79.24-.18.16-.28.37-.28.62,0,.3.14.54.41.72.27.18.68.39,1.21.65.44.21.81.42,1.12.65.31.22.55.49.71.79.17.3.25.68.25,1.13,0,.76-.27,1.37-.82,1.82-.55.45-1.33.68-2.33.68-.9,0-1.71-.17-2.42-.52v-1.69c.41.18.83.34,1.27.49.44.15.87.22,1.3.22s.77-.09.95-.26c.19-.17.28-.39.28-.65,0-.22-.07-.4-.22-.55-.15-.15-.35-.29-.59-.43-.25-.13-.53-.27-.85-.43-.2-.1-.42-.21-.65-.34-.23-.13-.45-.3-.67-.49-.21-.2-.39-.43-.52-.71-.14-.28-.2-.62-.2-1.01,0-.77.26-1.37.78-1.79.52-.43,1.23-.64,2.12-.64M111.45,10.8c-1.01,0-1.83.25-2.44.76-.64.52-.96,1.26-.96,2.18,0,.47.09.88.25,1.23.16.33.37.62.63.86.24.22.49.41.76.56.24.14.47.26.68.36.31.15.59.29.83.42.2.11.36.22.47.33.06.06.08.12.08.2,0,.12-.04.21-.12.29-.03.03-.17.13-.62.13-.37,0-.76-.07-1.14-.2-.42-.14-.83-.3-1.23-.47l-.7-.3v2.77l.28.14c.78.38,1.67.57,2.64.57,1.12,0,2.01-.27,2.65-.79.67-.55,1-1.29,1-2.2,0-.53-.11-.99-.31-1.37-.2-.37-.49-.69-.86-.95-.33-.24-.74-.48-1.2-.7-.51-.24-.9-.45-1.15-.62-.15-.1-.18-.19-.18-.3s.03-.18.1-.25c.11-.1.31-.12.46-.12.28,0,.56.04.82.11.29.08.63.2,1,.35l.46.19.19-.46.59-1.42.19-.45-.45-.2c-.46-.2-.91-.36-1.34-.47-.45-.11-.92-.17-1.4-.17h0Z"/>
      </g>
    </g>
  </g>
</svg>