<?xml version="1.0" encoding="UTF-8"?>
<svg id="Calque_1" xmlns="http://www.w3.org/2000/svg" version="1.1" viewBox="0 0 136.89 80.29">
  <!-- Generator: Adobe Illustrator 30.0.0, SVG Export Plug-In . SVG Version: 2.1.1 Build 123)  -->
  <defs>
    <style>
      .st0 {
        fill: #fff;
      }

      .st1 {
        fill: #d3312e;
      }

      .st2 {
        fill: #010101;
      }
    </style>
  </defs>
  <rect class="st1" x="0" y="0" width="136.89" height="80.29" rx="11.92" ry="11.92"/>
  <path class="st0" d="M124.97,5c3.81,0,6.92,3.1,6.92,6.92v56.46c0,3.81-3.1,6.92-6.92,6.92H11.92c-3.81,0-6.92-3.1-6.92-6.92V11.92c0-3.81,3.1-6.92,6.92-6.92h113.06M124.97,0H11.92C5.33,0,0,5.33,0,11.92v56.46c0,6.58,5.33,11.92,11.92,11.92h113.06c6.58,0,11.92-5.33,11.92-11.92V11.92C136.89,5.33,131.55,0,124.97,0h0Z"/>
  <path class="st2" d="M124.97,3c4.92,0,8.92,4,8.92,8.92v56.46c0,4.92-4,8.92-8.92,8.92H11.92c-4.92,0-8.92-4-8.92-8.92V11.92C3,7,7,3,11.92,3h113.06M124.97,0H11.92C5.33,0,0,5.33,0,11.92v56.46C0,74.96,5.33,80.29,11.92,80.29h113.06c6.58,0,11.92-5.33,11.92-11.92V11.92c0-6.58-5.33-11.92-11.92-11.92h0Z"/>
  <g>
    <g>
      <path class="st0" d="M31.12,33.19l-.58-2.2h-2.49l-.58,2.2h-2.33l2.94-9.78h2.42l2.95,9.78h-2.33ZM30.02,28.84l-.49-1.84-.22-.85-.09.36c-.06.24-.1.4-.13.5l-.48,1.83h1.41Z"/>
      <path class="st2" d="M30.32,23.65l2.8,9.28h-1.8l-.58-2.2h-2.88l-.58,2.2h-1.8l2.79-9.28h2.05M28.28,29.09h2.06l-.58-2.15c-.04-.15-.08-.33-.14-.56-.06-.22-.12-.45-.18-.69-.06-.23-.11-.44-.14-.61-.04.17-.09.39-.15.64-.06.25-.12.5-.18.73-.06.23-.1.39-.13.49l-.56,2.15M30.69,23.15h-2.79l-.11.36-2.79,9.28-.19.64h2.86l.1-.37.48-1.83h2.11l.48,1.83.1.37h2.86l-.19-.64-2.8-9.28-.11-.36h0ZM28.93,28.59l.38-1.43.38,1.43h-.76Z"/>
    </g>
    <g>
      <path class="st0" d="M38.42,33.19l-1.88-3.55h-.5v3.55h-2.17v-9.75h2.55c1.14,0,1.99.25,2.55.75.57.51.85,1.27.85,2.27,0,.45-.08.86-.23,1.21-.15.34-.35.64-.6.88-.18.17-.36.32-.56.45l2.42,4.19h-2.44ZM36.33,27.55c.49,0,.83-.09,1.02-.26.19-.17.28-.42.28-.77s-.09-.6-.28-.74c-.21-.15-.56-.23-1.05-.23h-.26v2h.29Z"/>
      <path class="st2" d="M36.42,23.69c1.08,0,1.87.23,2.39.69.51.46.77,1.15.77,2.08,0,.42-.07.79-.2,1.11-.14.31-.32.58-.54.8-.23.22-.47.4-.73.54l2.32,4.03h-1.86l-1.88-3.55h-.9v3.55h-1.67v-9.25h2.3M35.79,27.8h.54c.55,0,.95-.11,1.19-.32.24-.22.36-.54.36-.96s-.13-.75-.38-.94c-.25-.19-.65-.28-1.2-.28h-.51v2.5M36.42,23.19h-2.8v10.25h2.67v-3.55h.1l1.74,3.28.14.27h3.03l-.43-.75-2.09-3.61c.14-.1.27-.22.4-.34.27-.26.49-.59.65-.96.16-.38.25-.82.25-1.31,0-1.08-.31-1.9-.94-2.46-.61-.54-1.52-.81-2.72-.81h0ZM36.29,25.8h0c.57,0,.81.11.91.18.12.09.18.27.18.53,0,.41-.15.54-.19.59-.08.07-.3.2-.86.2h-.04v-1.5h0Z"/>
    </g>
    <g>
      <polygon class="st0" points="41.17 33.19 41.17 23.44 46.22 23.44 46.22 25.55 43.34 25.55 43.34 27.08 46.02 27.08 46.02 29.19 43.34 29.19 43.34 31.07 46.22 31.07 46.22 33.19 41.17 33.19"/>
      <path class="st2" d="M45.97,23.69v1.61h-2.88v2.03h2.68v1.6h-2.68v2.38h2.88v1.62h-4.55v-9.25h4.55M46.47,23.19h-5.55v10.25h5.55v-2.62h-2.88v-1.38h2.68v-2.6h-2.68v-1.03h2.88v-2.61h0Z"/>
    </g>
    <g>
      <polygon class="st0" points="51.88 33.19 51.88 29.46 49.11 23.44 51.48 23.44 52.96 26.87 54.44 23.44 56.8 23.44 54.04 29.4 54.04 33.19 51.88 33.19"/>
      <path class="st2" d="M56.41,23.69l-2.62,5.65v3.6h-1.66v-3.54l-2.62-5.71h1.82l1.64,3.81,1.65-3.81h1.8M57.19,23.19h-2.92l-.13.3-1.19,2.74-1.18-2.74-.13-.3h-2.92l.33.71,2.58,5.61v3.93h2.66v-3.99l2.58-5.55.33-.71h0Z"/>
    </g>
    <g>
      <path class="st0" d="M60.82,33.32c-.9,0-1.67-.22-2.26-.64-.6-.42-1.04-1.03-1.33-1.79-.28-.74-.42-1.62-.42-2.6s.14-1.85.42-2.59c.29-.75.73-1.35,1.33-1.77.6-.42,1.36-.63,2.27-.63s1.67.21,2.26.64c.59.42,1.04,1.02,1.32,1.77.28.74.42,1.61.42,2.59s-.14,1.86-.42,2.59c-.29.76-.73,1.35-1.32,1.78-.6.43-1.36.64-2.27.64ZM60.83,25.43c-.62,0-1.05.23-1.32.7-.29.51-.44,1.24-.44,2.17s.15,1.65.44,2.16c.27.48.7.71,1.31.71s1.06-.23,1.32-.71c.29-.52.43-1.24.43-2.16s-.15-1.66-.43-2.17c-.26-.47-.69-.7-1.31-.7Z"/>
      <path class="st2" d="M60.83,23.55c.86,0,1.56.2,2.11.59.55.39.96.95,1.23,1.66.27.71.4,1.55.4,2.51s-.13,1.79-.4,2.51c-.27.71-.68,1.27-1.23,1.66-.55.4-1.26.6-2.13.6s-1.56-.2-2.12-.6c-.56-.4-.97-.95-1.24-1.67-.27-.72-.4-1.55-.4-2.51s.13-1.79.4-2.5c.27-.71.68-1.26,1.24-1.65.56-.39,1.27-.59,2.13-.59M60.82,31.42c.72,0,1.23-.28,1.54-.84.31-.56.47-1.32.47-2.29s-.16-1.74-.47-2.29c-.31-.55-.82-.83-1.53-.83s-1.22.28-1.54.83c-.32.55-.48,1.32-.48,2.29s.16,1.73.48,2.29c.32.56.83.84,1.53.84M60.83,23.05c-.96,0-1.78.23-2.42.68-.64.45-1.11,1.08-1.42,1.88-.29.76-.44,1.66-.44,2.68s.15,1.92.44,2.69c.3.81.78,1.45,1.42,1.9.64.46,1.45.69,2.41.69s1.78-.23,2.42-.69c.63-.45,1.11-1.09,1.41-1.89.29-.77.44-1.67.44-2.68s-.15-1.92-.44-2.68c-.3-.8-.78-1.44-1.41-1.89-.64-.45-1.45-.68-2.4-.68h0ZM60.82,30.92c-.52,0-.87-.19-1.09-.58-.27-.48-.41-1.16-.41-2.04s.14-1.57.41-2.04c.23-.39.58-.58,1.11-.58s.87.18,1.09.57c.27.47.4,1.16.4,2.05s-.14,1.56-.4,2.04c-.22.4-.57.58-1.1.58h0Z"/>
    </g>
    <g>
      <path class="st0" d="M69.37,33.32c-1.12,0-1.99-.34-2.58-1.02-.58-.67-.88-1.56-.88-2.64v-6.21h2.17v5.91c0,.69.11,1.18.34,1.44.22.26.54.38.99.38s.79-.13.99-.4c.21-.29.32-.77.32-1.43v-5.9h2.17v6.23c0,.67-.13,1.29-.38,1.83-.26.56-.66,1-1.18,1.32-.52.32-1.18.48-1.96.48Z"/>
      <path class="st2" d="M72.65,23.69v5.98c0,.64-.12,1.21-.36,1.73-.24.51-.6.92-1.08,1.22-.48.3-1.09.45-1.83.45-1.05,0-1.85-.31-2.39-.94-.55-.63-.82-1.45-.82-2.48v-5.96h1.67v5.66c0,.76.13,1.29.4,1.61.27.31.66.47,1.18.47s.94-.17,1.19-.51c.25-.34.37-.86.37-1.58v-5.65h1.67M73.15,23.19h-2.67v6.15c0,.75-.15,1.11-.27,1.28-.06.08-.22.3-.79.3-.37,0-.64-.1-.8-.29-.1-.12-.28-.45-.28-1.28v-6.16h-2.67v6.46c0,1.15.32,2.09.94,2.81.64.74,1.57,1.11,2.77,1.11.83,0,1.53-.18,2.09-.52.57-.35.99-.83,1.28-1.43.27-.58.41-1.23.41-1.94v-6.48h0Z"/>
    </g>
    <g>
      <path class="st0" d="M79.21,33.32c-.87,0-1.67-.2-2.36-.59l-.13-.07v-2.38l.36.18c.37.19.75.36,1.15.52.37.15.74.22,1.11.22.33,0,.58-.07.7-.2.13-.14.19-.31.19-.54,0-.17-.05-.32-.15-.44-.12-.14-.28-.28-.49-.41-.23-.14-.48-.29-.77-.45-.19-.11-.4-.23-.62-.38-.23-.15-.45-.35-.66-.57-.21-.23-.39-.52-.53-.84-.14-.33-.21-.73-.21-1.18,0-.9.27-1.61.8-2.12.53-.51,1.24-.76,2.13-.76.44,0,.86.06,1.25.18.38.12.79.28,1.21.5l.2.1-.71,2-.25-.12c-.35-.17-.67-.3-.95-.39-.26-.09-.53-.13-.81-.13-.25,0-.43.06-.55.18-.12.12-.18.29-.18.5,0,.25.09.43.28.58.24.18.61.41,1.09.68.42.23.78.48,1.08.73.31.26.55.58.72.94.17.36.26.81.26,1.32,0,.89-.28,1.61-.83,2.14-.55.53-1.33.8-2.33.8Z"/>
      <path class="st2" d="M79.75,23.56c.41,0,.81.06,1.18.17.37.11.76.27,1.17.48l-.54,1.53c-.36-.17-.69-.31-.97-.4-.29-.09-.58-.14-.89-.14s-.56.09-.73.26c-.17.17-.25.4-.25.67,0,.33.12.59.38.78s.62.42,1.12.7c.41.22.75.46,1.04.7.28.24.5.53.66.85.15.33.23.73.23,1.22,0,.82-.25,1.47-.76,1.96-.51.49-1.22.73-2.15.73-.83,0-1.58-.19-2.24-.56v-1.83c.38.19.77.36,1.17.52.4.16.8.24,1.2.24s.71-.09.88-.28.26-.42.26-.71c0-.23-.07-.43-.21-.6-.14-.16-.32-.32-.55-.46-.23-.14-.49-.3-.79-.46-.18-.1-.38-.23-.6-.37-.21-.14-.42-.32-.61-.53-.2-.21-.36-.47-.48-.77-.13-.3-.19-.66-.19-1.09,0-.83.24-1.47.72-1.94.48-.46,1.13-.69,1.96-.69M79.75,23.06c-.96,0-1.73.28-2.31.83-.58.56-.87,1.33-.87,2.3,0,.49.08.92.23,1.28.15.35.34.66.58.92.22.24.46.44.7.61.23.15.44.28.63.39.29.16.54.31.77.45.18.11.33.23.43.36.04.04.09.12.09.27,0,.21-.07.31-.13.36-.03.03-.14.12-.51.12-.33,0-.67-.07-1.02-.2-.39-.15-.76-.32-1.13-.51l-.72-.36v2.93l.25.14c.73.41,1.56.62,2.48.62,1.06,0,1.9-.29,2.5-.87.6-.58.91-1.36.91-2.32,0-.56-.09-1.04-.28-1.43-.19-.39-.45-.74-.79-1.02-.31-.26-.68-.52-1.12-.76-.47-.26-.83-.49-1.06-.66-.13-.1-.18-.21-.18-.38,0-.19.06-.27.11-.32.07-.07.2-.11.37-.11.25,0,.49.04.73.12.27.09.57.22.92.38l.5.24.19-.52.54-1.53.15-.41-.39-.2c-.43-.22-.85-.39-1.25-.51-.42-.13-.86-.19-1.32-.19h0Z"/>
    </g>
    <g>
      <path class="st0" d="M86.72,33.32c-1.12,0-1.99-.34-2.58-1.02-.58-.67-.88-1.56-.88-2.64v-6.21h2.17v5.91c0,.69.11,1.18.34,1.44.22.26.54.38.99.38s.79-.13.99-.4c.21-.29.32-.77.32-1.43v-5.9h2.17v6.23c0,.67-.13,1.29-.38,1.83-.26.55-.66,1-1.18,1.32-.52.32-1.18.48-1.96.48Z"/>
      <path class="st2" d="M90,23.69v5.98c0,.64-.12,1.21-.36,1.73-.24.51-.6.92-1.08,1.22-.48.3-1.09.45-1.83.45-1.05,0-1.85-.31-2.39-.94-.55-.63-.82-1.45-.82-2.48v-5.96h1.67v5.66c0,.76.13,1.29.4,1.61.27.31.66.47,1.18.47s.94-.17,1.19-.51c.25-.34.37-.86.37-1.58v-5.65h1.67M90.5,23.19h-2.67v6.15c0,.75-.15,1.11-.27,1.28-.06.08-.22.3-.79.3-.37,0-.64-.1-.8-.29-.1-.12-.28-.45-.28-1.28v-6.16h-2.67v6.46c0,1.15.32,2.09.94,2.81.64.74,1.57,1.11,2.77,1.11.83,0,1.53-.18,2.09-.52.57-.35.99-.83,1.28-1.43.27-.58.41-1.23.41-1.94v-6.48h0Z"/>
    </g>
    <g>
      <path class="st0" d="M96.23,33.19l-1.88-3.55h-.5v3.55h-2.17v-9.75h2.55c1.14,0,1.99.25,2.55.75.57.51.85,1.27.85,2.27,0,.46-.08.86-.23,1.21-.15.34-.35.64-.6.88-.18.17-.36.32-.56.45l2.42,4.19h-2.44ZM94.15,27.55c.49,0,.83-.09,1.02-.26.19-.17.28-.42.28-.77s-.09-.6-.28-.74c-.21-.15-.56-.23-1.05-.23h-.26v2h.29Z"/>
      <path class="st2" d="M94.24,23.69c1.08,0,1.87.23,2.39.69.51.46.77,1.15.77,2.08,0,.42-.07.79-.2,1.11-.14.31-.32.58-.54.8-.23.22-.47.4-.73.54l2.32,4.03h-1.86l-1.88-3.55h-.9v3.55h-1.67v-9.25h2.3M93.61,27.8h.54c.55,0,.95-.11,1.19-.32.24-.22.36-.54.36-.96s-.13-.75-.38-.94c-.25-.19-.65-.28-1.2-.28h-.51v2.5M94.24,23.19h-2.8v10.25h2.67v-3.55h.1l1.74,3.28.14.27h3.03l-.43-.75-2.09-3.61c.14-.1.27-.22.4-.34.27-.26.49-.59.65-.96.16-.38.25-.82.25-1.31,0-1.08-.31-1.9-.94-2.46-.61-.54-1.52-.81-2.72-.81h0ZM94.11,25.8h0c.57,0,.81.11.91.18.12.09.18.27.18.53,0,.41-.15.54-.19.59-.08.07-.3.2-.86.2h-.04v-1.5h0Z"/>
    </g>
    <g>
      <polygon class="st0" points="98.99 33.19 98.99 23.44 104.04 23.44 104.04 25.55 101.16 25.55 101.16 27.08 103.84 27.08 103.84 29.19 101.16 29.19 101.16 31.07 104.04 31.07 104.04 33.19 98.99 33.19"/>
      <path class="st2" d="M103.79,23.69v1.61h-2.88v2.03h2.68v1.6h-2.68v2.38h2.88v1.62h-4.55v-9.25h4.55M104.29,23.19h-5.55v10.25h5.55v-2.62h-2.88v-1.38h2.68v-2.6h-2.68v-1.03h2.88v-2.61h0Z"/>
    </g>
    <g>
      <path class="st0" d="M109.59,33.36c-.33,0-.61-.11-.84-.32-.24-.22-.36-.56-.36-1.01s.12-.82.36-1.02c.23-.2.51-.3.84-.3s.6.1.83.3c.24.21.36.55.36,1.02s-.12.79-.36,1.01c-.23.21-.51.32-.83.32ZM108.57,30.12v-.72c0-.47.09-.88.26-1.2.17-.32.46-.65.86-.99.32-.26.54-.49.67-.67.11-.16.17-.35.17-.57,0-.2-.05-.34-.17-.43-.13-.1-.32-.16-.57-.16-.28,0-.56.05-.83.15-.29.11-.59.25-.89.43l-.25.15-.78-1.84.18-.11c.38-.24.79-.44,1.23-.6.45-.16.94-.23,1.47-.23.83,0,1.5.24,1.97.72s.71,1.09.71,1.82c0,.38-.05.72-.16,1.01s-.27.56-.48.8c-.2.23-.45.47-.74.73-.21.17-.37.32-.48.45-.09.1-.16.2-.18.29-.03.1-.05.22-.05.37v.62h-1.93Z"/>
      <path class="st2" d="M109.91,23.56c.77,0,1.36.22,1.79.65.42.43.64.98.64,1.64,0,.35-.05.66-.14.92-.1.26-.24.5-.43.72-.19.22-.43.46-.72.71-.21.18-.38.34-.5.47-.12.13-.2.25-.24.38-.04.12-.06.27-.06.45v.38h-1.43v-.47c0-.43.08-.79.23-1.09.15-.29.42-.6.8-.92.33-.28.57-.52.71-.72.14-.2.22-.44.22-.72s-.09-.49-.26-.63c-.17-.14-.42-.21-.73-.21s-.62.06-.92.17c-.3.11-.61.26-.93.45l-.59-1.39c.36-.23.75-.42,1.17-.57.42-.15.88-.22,1.38-.22M109.59,30.96c.26,0,.48.08.66.24.18.16.28.44.28.83s-.09.65-.28.82c-.18.17-.41.25-.66.25s-.49-.08-.68-.25c-.18-.17-.28-.44-.28-.82s.09-.68.28-.83c.18-.16.41-.24.68-.24M109.91,23.06c-.56,0-1.08.08-1.55.25-.46.16-.89.37-1.28.62l-.35.23.16.39.59,1.39.22.53.49-.3c.29-.17.57-.31.85-.41.25-.09.5-.14.75-.14.13,0,.31.02.41.1.02.02.08.06.08.24s-.04.31-.12.43c-.08.11-.26.32-.63.62-.43.37-.73.72-.92,1.07-.19.36-.29.81-.29,1.32v.97h2.43v-.88c0-.16.02-.25.04-.29.01-.03.04-.1.13-.2.1-.11.26-.26.45-.42.31-.27.57-.52.77-.76.23-.26.41-.56.52-.87.12-.31.18-.68.18-1.09,0-.8-.26-1.47-.78-2-.52-.53-1.24-.8-2.14-.8h0ZM109.59,30.46c-.39,0-.73.12-1,.36-.3.26-.45.66-.45,1.21s.15.92.44,1.19c.28.25.62.38,1.01.38s.73-.13,1-.38c.29-.27.44-.67.44-1.19s-.15-.96-.45-1.21c-.28-.24-.61-.36-.99-.36h0Z"/>
    </g>
  </g>
</svg>