<?xml version="1.0" encoding="UTF-8"?>
<svg id="Calque_1" xmlns="http://www.w3.org/2000/svg" version="1.1" viewBox="0 0 175.55 198.74">
  <!-- Generator: Adobe Illustrator 30.0.0, SVG Export Plug-In . SVG Version: 2.1.1 Build 123)  -->
  <defs>
    <style>
      .st0 {
        fill: #010101;
      }

      .st1 {
        fill: #3986c7;
      }

      .st2 {
        fill: #f2f2f2;
      }

      .st3 {
        fill: #ddeffc;
      }
    </style>
  </defs>
  <g id="Box_x5F_wallet_x5F_pop-up">
    <path class="st1" d="M168.67,0H6.88C3.08,0,0,3.08,0,6.88v184.99c0,3.8,3.08,6.88,6.88,6.88h161.8c3.8,0,6.88-3.08,6.88-6.88V6.88c0-3.8-3.08-6.88-6.88-6.88h-.01Z"/>
    <path class="st3" d="M163.72,27.29H11.83c-3.57,0-6.46,2.56-6.46,5.72v153.93c0,3.16,2.89,5.72,6.46,5.72h151.9c3.57,0,6.46-2.56,6.46-5.72V33.01c0-3.16-2.89-5.72-6.46-5.72h0Z"/>
    <path class="st2" d="M168.67,4c1.59,0,2.88,1.29,2.88,2.88v184.99c0,1.59-1.29,2.88-2.88,2.88H6.88c-1.59,0-2.88-1.29-2.88-2.88V6.88c0-1.59,1.29-2.88,2.88-2.88h161.8M168.67,0H6.88C3.08,0,0,3.08,0,6.88v184.99c0,3.8,3.08,6.88,6.88,6.88h161.8c3.8,0,6.88-3.08,6.88-6.88V6.88c0-3.8-3.08-6.88-6.88-6.88h-.01Z"/>
    <path class="st0" d="M168.67,2c2.69,0,4.88,2.19,4.88,4.88v184.99c0,2.69-2.19,4.88-4.88,4.88H6.88c-2.69,0-4.88-2.19-4.88-4.88V6.88c0-2.69,2.19-4.88,4.88-4.88h161.8M168.67,0H6.88C3.08,0,0,3.08,0,6.88v184.99c0,3.8,3.08,6.88,6.88,6.88h161.8c3.8,0,6.88-3.08,6.88-6.88V6.88c0-3.8-3.08-6.88-6.88-6.88h-.01Z"/>
  </g>
</svg>