<?xml version="1.0" encoding="UTF-8"?>
<svg id="Calque_1" xmlns="http://www.w3.org/2000/svg" version="1.1" viewBox="0 0 628.02 143.25">
  <!-- Generator: Adobe Illustrator 30.0.0, SVG Export Plug-In . SVG Version: 2.1.1 Build 123)  -->
  <defs>
    <style>
      .st0 {
        fill: #fff;
      }

      .st1 {
        fill: #010202;
      }

      .st2 {
        fill: #305b88;
      }

      .st3 {
        fill: #3a87c7;
      }
    </style>
  </defs>
  <g id="Text_x5F_wallet">
    <g>
      <rect class="st2" x="4.48" y="19.37" width="617.09" height="115.95" rx="22.42" ry="22.42"/>
      <rect class="st3" x="4.48" y="7.29" width="617.09" height="115.12" rx="22.36" ry="22.36"/>
      <path class="st1" d="M592.71,7.88c15.94,0,28.9,12.96,28.9,28.9v69.64c0,15.94-12.96,28.9-28.9,28.9H35.32c-15.94,0-28.9-12.96-28.9-28.9V36.78c0-15.94,12.96-28.9,28.9-28.9h557.39M589.37,0H38.65C17.3,0,0,17.03,0,38.04v67.17c0,21.01,17.3,38.04,38.65,38.04h550.72c21.35,0,38.65-17.03,38.65-38.04V38.04c0-21.01-17.3-38.04-38.65-38.04h0Z"/>
    </g>
    <g>
      <path class="st1" d="M283.34,74.16h4.46c-.64-5.67-1.32-12.66-1.96-20.97-1.32,9.56-2.14,16.55-2.5,20.97Z"/>
      <path class="st1" d="M214.1,38.74l7.1,56.52h178.51v-39.97h7.52v-16.55h-193.13Z"/>
    </g>
    <g>
      <path class="st0" d="M270.29,42.03l-5.78,49.97h-16.23c-1.5-7.67-2.78-16.41-3.92-26.21-.53,4.21-1.71,12.95-3.64,26.21h-16.12l-5.81-49.97h12.63l1.39,17.44,1.32,16.87c.46-8.74,1.68-20.15,3.6-34.28h13.48c.18,1.46.64,6.95,1.43,16.48l1.43,19.01c.75-12.09,1.96-23.93,3.64-35.49h12.63l-.04-.04Z"/>
      <path class="st0" d="M294.68,42.03l7.42,49.97h-13.27l-.71-8.99h-4.64l-.78,8.99h-13.45l6.63-49.97h18.8ZM287.8,74.16c-.64-5.67-1.32-12.66-1.96-20.97-1.32,9.56-2.14,16.55-2.5,20.97h4.46Z"/>
      <path class="st0" d="M317.33,42.03v39.98h7.92v9.99h-20.9v-49.97h12.98Z"/>
      <path class="st0" d="M341.37,42.03v39.98h7.92v9.99h-20.9v-49.97h12.98Z"/>
      <path class="st0" d="M352.39,42.03h21.69v9.99h-8.67v9.49h8.13v9.52h-8.13v10.99h9.52v9.99h-22.54v-49.97Z"/>
      <path class="st0" d="M404,42.03v9.99h-7.7v39.98h-12.98v-39.98h-7.7v-9.99h28.39Z"/>
    </g>
  </g>
</svg>