<?xml version="1.0" encoding="UTF-8"?>
<svg id="Calque_1" xmlns="http://www.w3.org/2000/svg" version="1.1" viewBox="0 0 21.09 27.54">
  <!-- Generator: Adobe Illustrator 30.0.0, SVG Export Plug-In . SVG Version: 2.1.1 Build 123)  -->
  <defs>
    <style>
      .st0 {
        fill: #b7d271;
      }

      .st1 {
        fill: #cfde8d;
      }

      .st2 {
        fill: #17a148;
      }

      .st3 {
        fill: #fff;
      }

      .st4 {
        fill: #61b34b;
      }

      .st5 {
        fill: #010101;
      }

      .st6 {
        fill: #149f4d;
      }

      .st7 {
        fill: #85bd46;
      }

      .st8 {
        fill: #197b38;
      }
    </style>
  </defs>
  <g id="Currency_x5F_emerald">
    <g>
      <path class="st3" d="M10.53,26.79c-.39,0-.77-.11-1.11-.34l-3.81-2.52-3.72-2.78c-.22-.17-.41-.37-.55-.59-.29-.42-.46-.96-.47-1.52l-.11-5.27.11-5.29c0-.4.09-.76.23-1.08.17-.4.44-.76.79-1.02l3.69-2.76,3.84-2.53c.36-.23.73-.34,1.12-.34.06,0,.11,0,.17,0,.32.01.67.13.98.34l3.8,2.5,3.72,2.79c.35.26.63.63.81,1.07.13.31.21.66.22,1.03l.11,5.26-.11,5.3c0,.46-.13.91-.34,1.3-.17.31-.4.59-.67.8l-3.69,2.76-3.84,2.54c-.31.21-.66.32-1.01.34-.02,0-.08,0-.13,0Z"/>
      <path class="st5" d="M10.53,1.5s.07,0,.11,0c.22,0,.43.08.63.21l3.8,2.51,3.69,2.76c.24.18.44.44.56.75.1.24.15.5.16.77l.11,5.26-.11,5.27c0,.34-.09.67-.25.95-.12.23-.28.42-.47.57l-3.69,2.75-3.8,2.52c-.2.13-.41.2-.63.21-.04,0-.07,0-.11,0-.25,0-.48-.07-.71-.22l-3.8-2.52-3.69-2.75c-.14-.11-.27-.24-.37-.39-.22-.31-.34-.7-.35-1.12l-.11-5.27.11-5.26c0-.28.06-.55.17-.79.12-.3.31-.55.55-.73l3.69-2.76,3.8-2.51c.22-.14.46-.22.71-.22M10.24,20.12s-.02,0-.03,0c0,0,.02,0,.03,0M10.72,20.13s0,0-.01,0c-.03,0-.05.01-.08.01,0,0,0,0,0,0,0,0,0,0,.01,0,0,0,0,0,0,0,.02,0,.04,0,.07-.01,0,0,0,0,.01,0M10.53,0c-.53,0-1.05.16-1.52.45l-3.82,2.52-.04.02-.04.03-3.69,2.76c-.45.33-.8.79-1.03,1.34-.18.41-.28.86-.29,1.34L0,13.73v.03S0,13.8,0,13.8l.11,5.27c.01.7.22,1.38.62,1.94.17.26.41.52.7.74l3.69,2.76.03.03.04.02,3.8,2.52c.48.31,1.01.47,1.54.47.07,0,.13,0,.2,0,.48-.03.95-.19,1.37-.47l3.79-2.51.04-.02.03-.03,3.69-2.75c.37-.28.67-.64.9-1.07.26-.47.41-1.04.42-1.62l.11-5.27v-.03s0-.03,0-.03l-.11-5.26c-.01-.47-.11-.91-.28-1.32-.21-.54-.58-1.02-1.04-1.36l-3.68-2.76-.04-.03-.04-.02L12.09.47c-.41-.27-.88-.43-1.36-.46-.07,0-.13,0-.2,0h0Z"/>
    </g>
    <g id="Currency_x5F_emerald1" data-name="Currency_x5F_emerald">
      <path class="st4" d="M6.12,17.18l-4.16,2.97c-.22-.31-.34-.7-.35-1.12l-.11-5.27.11-5.26c0-.28.06-.55.17-.79l4.18,2.93c-.1.25-.16.51-.17.79l-.05,2.33.05,2.33c0,.4.13.79.33,1.09Z"/>
      <path class="st1" d="M10.64,1.5v5.88c-.28-.02-.56.05-.81.21l-1.68,1.11-1.63,1.21c-.24.18-.42.43-.55.73L1.78,7.72c.12-.3.31-.55.55-.73l3.69-2.76,3.8-2.51c.26-.16.53-.24.81-.21Z"/>
      <path class="st0" d="M19.31,7.73l-4.16,2.98c-.12-.32-.32-.6-.57-.79l-1.63-1.21-1.68-1.11c-.2-.13-.41-.2-.63-.21V1.5c.22,0,.43.08.63.21l3.8,2.51,3.69,2.76c.24.18.44.44.56.75Z"/>
      <path class="st2" d="M19.59,13.77l-.11,5.27c0,.34-.09.67-.25.95l-4.18-2.94c.15-.28.24-.61.25-.95l.05-2.33-.05-2.33c0-.25-.05-.5-.14-.72l4.16-2.98c.1.24.15.5.16.77l.11,5.26Z"/>
      <path class="st8" d="M19.22,19.99c-.12.23-.28.42-.47.57l-3.69,2.75-3.8,2.52c-.2.13-.41.2-.63.21v-5.88c.22,0,.43-.08.63-.21l1.68-1.11,1.63-1.22c.2-.15.36-.34.46-.57l4.18,2.94Z"/>
      <path class="st6" d="M10.64,20.15v5.88c-.28.02-.56-.05-.81-.21l-3.8-2.52-3.69-2.75c-.14-.11-.27-.24-.37-.39l4.16-2.97c.11.16.24.31.39.43l1.63,1.22,1.68,1.11c.26.16.53.24.81.21Z"/>
      <path class="st7" d="M12.94,8.71l1.63,1.22c.43.33.71.9.72,1.52l.05,2.33-.05,2.33c-.01.62-.28,1.19-.72,1.52l-1.63,1.22-1.68,1.11c-.45.3-.99.3-1.44,0l-1.68-1.11-1.63-1.22c-.43-.33-.71-.9-.72-1.52l-.05-2.33.05-2.33c.01-.62.28-1.19.72-1.52l1.63-1.22,1.68-1.11c.45-.3.99-.3,1.44,0l1.68,1.11Z"/>
    </g>
  </g>
</svg>