<?xml version="1.0" encoding="UTF-8"?>
<svg id="Calque_1" xmlns="http://www.w3.org/2000/svg" version="1.1" viewBox="0 0 60.01 62.93">
  <!-- Generator: Adobe Illustrator 30.0.0, SVG Export Plug-In . SVG Version: 2.1.1 Build 123)  -->
  <defs>
    <style>
      .st0 {
        fill: #010101;
      }

      .st1 {
        fill: #fdcf32;
        stroke: #010101;
        stroke-miterlimit: 10;
      }

      .st2 {
        fill: #eb5849;
      }
    </style>
  </defs>
  <rect class="st1" x="6.37" y="25.9" width="48.94" height="34.43" rx="2.63" ry="2.63"/>
  <rect class="st1" x="2" y="17.42" width="56.01" height="14.52" rx="2.63" ry="2.63"/>
  <g>
    <path class="st2" d="M12.84,16.92c-.75-.65-4.49-4.06-4.03-7.67.3-2.35,2.32-4.37,5.99-6.02.61-.27,1.28-.41,1.99-.41,5.33,0,11.52,7.64,11.58,7.72l.15.19h4.75l.15-.2c.06-.08,6-8.02,10.91-8.02.67,0,1.3.15,1.87.46,3.46,1.85,5.86,5.19,5.85,8.11,0,2.32-1.51,4.34-4.33,5.85H12.84Z"/>
    <path class="st0" d="M44.34,3c.6,0,1.13.13,1.63.4,3.3,1.77,5.6,4.92,5.59,7.67,0,2.13-1.34,3.93-3.95,5.35H13.03c-.94-.83-4.13-3.92-3.72-7.11.28-2.16,2.19-4.05,5.7-5.62.55-.24,1.15-.37,1.78-.37,5.08,0,11.13,7.46,11.19,7.53l.3.37h5.25l.3-.4c1.61-2.18,6.64-7.82,10.51-7.82M44.34,2c-5.22,0-11.31,8.22-11.31,8.22h-4.26s-6.35-7.9-11.98-7.9c-.75,0-1.48.14-2.19.46-13,5.82-1.94,14.64-1.94,14.64h35.2c8.35-4.37,4.11-11.95-1.41-14.9-.67-.36-1.38-.52-2.1-.52h-.01Z"/>
  </g>
  <g>
    <polygon class="st2" points="26.4 16.92 29.09 10.72 32.73 10.72 36.04 16.92 26.4 16.92"/>
    <path class="st0" d="M32.43,11.22l2.78,5.19h-8.05l2.26-5.19h3.01M33.03,10.22h-4.26l-3.13,7.19h11.24l-3.85-7.19h0Z"/>
  </g>
  <g>
    <polygon class="st2" points="23.75 60.42 23.7 16.95 37.03 16.89 37.08 60.37 37.03 60.42 23.75 60.42"/>
    <path class="st0" d="M36.58,17.39v42.53h-12.39V17.39h12.39M37.03,16.39h-13.27c-.31,0-.56.25-.56.56v43.42c0,.31.25.56.56.56h13.27c.31,0,.56-.25.56-.56V16.95c0-.31-.25-.56-.56-.56h0Z"/>
  </g>
  <path d="M44.35,2c.72,0,1.43.16,2.1.52,5.52,2.95,9.76,10.53,1.41,14.9h7.52c1.45,0,2.63,1.18,2.63,2.63v9.26c0,1.45-1.18,2.63-2.63,2.63h-.07v25.76c0,1.45-1.18,2.63-2.63,2.63h-15.09v.04c0,.31-.25.56-.56.56h-13.27c-.31,0-.56-.25-.56-.56v-.04h-14.2c-1.45,0-2.63-1.18-2.63-2.63v-25.76h-1.74c-1.45,0-2.63-1.18-2.63-2.63v-9.26c0-1.45,1.18-2.63,2.63-2.63h8.03S1.6,8.6,14.6,2.78c.71-.32,1.44-.46,2.19-.46,5.63,0,11.98,7.9,11.98,7.9h4.26s6.09-8.22,11.31-8.22h0M44.35,0h0c-5.17,0-10.44,5.92-12.29,8.22h-2.35c-1.9-2.18-7.41-7.9-12.91-7.9-1.06,0-2.07.21-3.01.64-4.53,2.03-7.03,4.71-7.45,7.98-.31,2.46.67,4.72,1.85,6.48h-3.56c-2.55,0-4.63,2.08-4.63,4.63v9.26c0,2.47,1.94,4.49,4.37,4.62v23.77c0,2.55,2.08,4.63,4.63,4.63h13.12c.44.38,1.02.6,1.64.6h13.27c.63,0,1.2-.23,1.65-.6h14c2.55,0,4.63-2.08,4.63-4.63v-24.18c1.59-.73,2.7-2.34,2.7-4.21v-9.26c0-2.55-2.08-4.63-4.63-4.63h-2.14c1.02-1.54,1.32-3.08,1.32-4.34.02-4.47-3.59-8.41-7.17-10.32-.93-.5-1.96-.76-3.04-.76h0Z"/>
</svg>