<?xml version="1.0" encoding="UTF-8"?>
<svg id="Calque_1" xmlns="http://www.w3.org/2000/svg" version="1.1" viewBox="0 0 163.37 238.05">
  <!-- Generator: Adobe Illustrator 30.0.0, SVG Export Plug-In . SVG Version: 2.1.1 Build 123)  -->
  <defs>
    <style>
      .st0 {
        fill: #66b00e;
      }

      .st1 {
        fill: #addf2e;
      }

      .st2 {
        fill: #78bc0d;
      }

      .st3 {
        fill: #023a10;
      }

      .st4 {
        fill: #318012;
      }
    </style>
  </defs>
  <g>
    <path d="M119.75,29.11c-.48-.55-1.27-7.83-2.41-10.09-2.23-4.44-11.69-10.59-16.51-11.49-3.23-.6-7.9.85-9.24.29s-3.35-3.84-5.07-4.98c-8.72-5.75-19.45-2.04-26.51,4.4-1.14,1.04-2.59,4.05-3.09,4.13-1.67.27-4.24-1.57-6.08-1.84-10.83-1.64-25.58,6.49-26.22,18.35-.07,1.34,1.25,4.11.96,4.41-.13.14-2.55.11-3.72.78-5.48,3.13-9.7,11.36-9.25,17.62.24,3.46,3.09,6.98,3.06,11.13-.02,3.19-1.71,4.65-2.04,7.04-1.06,7.71.95,17.67,8.23,21.65,2.31,1.26,6.43,1.58,6.67,1.83.23.24-.04,4.67.28,6.23,1.6,7.87,11.99,16.7,20.29,15.77,2.15-.24,4.84-2.07,5.83-1.89,1.34.25,3.93,4.12,5.74,5.26,6.73,4.25,18.31,3.51,24.84-.97,1.74-1.19,5.62-6.19,6.7-6.37,1.56-.27,2.54,2.26,4.06,2.74,6.93,2.16,19.3-3.6,22.04-10.56,1.15-2.94,1.01-8.31,1.7-9.3.44-.64,8.11-2.5,10.49-4.51,5.95-5.01,6.83-13.41,5.81-20.67-.49-3.5-3.28-7.78-3.51-9.45-.25-1.76,2.62-4.76,2.84-7.82.41-5.88-3.51-14.34-8.04-18.01-2.4-1.94-7.55-3.34-7.83-3.67Z"/>
    <path class="st3" d="M119.75,29.11c.28.33,5.43,1.73,7.83,3.67,4.54,3.66,8.45,12.13,8.04,18.01-.21,3.06-3.08,6.06-2.84,7.82s3.03,5.95,3.51,9.45c1.01,7.26.14,15.65-5.81,20.67-2.39,2.01-10.05,3.87-10.49,4.51-.69.99-.54,6.36-1.7,9.3-2.74,6.97-15.11,12.72-22.04,10.56-1.52-.47-2.5-3.01-4.06-2.74-1.08.19-4.96,5.18-6.7,6.37-6.53,4.49-18.11,5.22-24.84.97-1.81-1.14-4.4-5.01-5.74-5.26-.99-.19-3.68,1.65-5.83,1.89-8.3.92-18.68-7.9-20.29-15.77-.32-1.56-.05-5.99-.28-6.23-.24-.25-4.36-.57-6.67-1.83-7.28-3.98-9.3-13.94-8.23-21.65.33-2.39,2.01-3.85,2.04-7.04.03-4.14-2.81-7.66-3.06-11.13-.44-6.26,3.77-14.49,9.25-17.62,1.17-.67,3.59-.64,3.72-.78.29-.31-1.03-3.07-.96-4.41.63-11.86,15.38-19.98,26.22-18.35,1.84.28,4.41,2.11,6.08,1.84.51-.08,1.96-3.09,3.09-4.13,7.06-6.44,17.79-10.15,26.51-4.4,1.72,1.14,3.78,4.44,5.07,4.98s6.01-.89,9.24-.29c4.82.89,14.28,7.05,16.51,11.49,1.14,2.26,1.93,9.53,2.41,10.09ZM59.56,17.3c-4.96.24-7.23-3.27-12.51-3.09-6.42.21-13.98,4.88-15.81,11.27-.83,2.87-.35,10.08-.79,10.7-.35.48-7.58,1.06-6.68,6.46.09.55,4.35,9.06,4.96,10,1.25,1.91,4.45,5.18,6.76,3.59.54-.37,1.8-10.83,4.07-7.92,1.51,3.84-1.22,12.4.5,15.05.56.87,2.35.79,2.5.97,1.62,2-1.96,2.11-2.5,2.93-1.68,2.58.31,12.71-.42,16.5-.24,1.22-2.9-.09-3.12,1.07-.81,4.22,2.18,9.9,6.65,10.5,3.05.41,4.23-1.98,6.85-2.07,1.05-.04,9.96,1.91,10.33,2.28,1.05,1.03.94,6.18,1.49,8.01,3.48,11.65,19.84,10.63,26.75,2.28,2.47-2.99,2.02-8.12,5.99-6.02,3.29,1.75,3.43,6.64,9.96,3.96,8.48-3.48,7.25-11.81,7.03-19.46,18.33,4.18,27.26-19.8,10.02-28.01-2.16-3.15,6.91-1.78,7.89-4.62.54-1.56-1.13-8.16-1.92-9.65-.59-1.11-1.92-.63-1.99-.72-.39-.55-.29-1.92-1.42-3.03-3.63-3.58-7.3-5.77-12.58-5.98,4.57-12.31-4-20.41-15.99-19.99-.66.02-1.34-.06-2,0l-1,1c-1.4.27-4-.38-5,0,.16-7.87-9.48-8.96-15.45-7.94-5.24.89-10.36,7.66-12.55,11.94Z"/>
    <path class="st4" d="M59.56,17.3c-.18.35.26,1.49-.02,2.29-.31.88-2.67.97-2.75,3.35-.09,2.58,3.1,4.9,2.8,7.83-.23,2.22-3.45,3.61-3.98,7.1-.32,2.1.45,9.86,1.15,11.74,1.18,3.2,6.02,1.98,6.92,3.29.68.99,2.26,9.17,3.16,11.63.52,1.43,2,2.15,2.51,3.49.58,1.55-.24,3.91.67,5.33.73,1.15,3.68,1.15,4.98,2.05,1.87,1.29,2.03,6.17,4.06.9,1.47,2.21,3.16,6.37,6.19,6.78.65.09,11.4-3.42,12.39-4.21,3.25-2.57,3.14-6.81,2.93-10.57,5.43,2.83,13.92,4.3,18.45-1.04,3.45-4.06-1.06-13.37.54-14.97.32-.33,4.77.24,6,0v-10.99c.07.09,1.4-.39,1.99.72.79,1.49,2.46,8.09,1.92,9.65-.98,2.83-10.05,1.47-7.89,4.62,17.23,8.22,8.3,32.19-10.02,28.01.22,7.65,1.45,15.98-7.03,19.46-6.54,2.68-6.67-2.21-9.96-3.96-3.96-2.1-3.51,3.03-5.99,6.02-6.91,8.35-23.27,9.37-26.75-2.28-.55-1.83-.44-6.98-1.49-8.01-.38-.37-9.28-2.32-10.33-2.28-2.61.1-3.8,2.48-6.85,2.07-4.47-.6-7.46-6.28-6.65-10.5.22-1.16,2.88.16,3.12-1.07.73-3.79-1.26-13.92.42-16.5.54-.82,4.12-.93,2.5-2.93-.14-.17-1.93-.1-2.5-.97-1.72-2.65,1.01-11.22-.5-15.05-2.27-2.9-3.54,7.55-4.07,7.92-2.3,1.59-5.5-1.68-6.76-3.59-.62-.94-4.87-9.45-4.96-10-.91-5.4,6.33-5.97,6.68-6.46.44-.62-.03-7.83.79-10.7,1.84-6.39,9.4-11.05,15.81-11.27,5.28-.18,7.55,3.34,12.51,3.09Z"/>
    <path class="st0" d="M87.56,13.3c-.35.13-4.37,4.98-4.73,5.76-.98,2.15-1.82,6.61-.35,8.59.24.33,6.46,4.24,6.83,4.39,2.07.85,7.36,1.41,9.71,1.27,8.17-.47,11.97-3.81,6.54-11.52-3.06-4.34-10.05-4.35-10-9.5,11.99-.42,20.56,7.68,15.99,19.99,5.28.21,8.95,2.39,12.58,5.98,1.13,1.11,1.03,2.48,1.42,3.03v10.99c-1.24.24-5.68-.32-6,0-1.59,1.6,2.91,10.9-.54,14.97-4.53,5.34-13.02,3.87-18.45,1.04.21,3.76.32,8-2.93,10.57-.99.79-11.74,4.3-12.39,4.21-3.03-.41-4.72-4.57-6.19-6.78-2.03,5.27-2.18.39-4.06-.9-1.31-.9-4.25-.9-4.98-2.05-.91-1.42-.08-3.78-.67-5.33-.51-1.34-1.98-2.06-2.51-3.49-.9-2.46-2.48-10.64-3.16-11.63-.9-1.31-5.74-.09-6.92-3.29-.69-1.88-1.47-9.64-1.15-11.74.53-3.49,3.75-4.88,3.98-7.1.3-2.93-2.88-5.25-2.8-7.83.08-2.37,2.43-2.47,2.75-3.35.28-.8-.16-1.94.02-2.29,2.19-4.28,7.31-11.05,12.55-11.94,5.97-1.02,15.61.08,15.45,7.94Z"/>
    <path class="st2" d="M95.56,12.3c-.05,5.15,6.95,5.16,10,9.5,5.43,7.71,1.63,11.05-6.54,11.52-2.35.14-7.64-.42-9.71-1.27-.38-.15-6.59-4.07-6.83-4.39-1.47-1.98-.63-6.44.35-8.59.36-.79,4.38-5.63,4.73-5.76,1-.38,3.6.27,5,0,.31-.06.76-.98,1-1,.66-.06,1.34.02,2,0Z"/>
    <path class="st0" d="M92.56,13.3l1-1c-.24.02-.69.94-1,1Z"/>
  </g>
  <g>
    <path d="M87.09,163.73c-.4-.47-.96-4.57-1.63-6.15-3.67-8.67-9.62-8.51-15.86-11.78s-6.49-7.87-15.89-6.06c-3.04.58-5.96,3.93-7.71,4.25-1.9.35-4.62-1.59-7.76-1.21-5.23.63-6.48,5.25-8.43,5.81-1.23.35-2.43-.6-3.73-.48-3.95.38-9.65,5.35-11.19,9.46-.95,2.54-.39,4.18-.89,5.85-.36,1.21-1.92,1.45-2.59,2.4-3.73,5.34-6.28,11.91-5.23,18.86.38,2.52,2.36,5.08,2.53,7.1.24,2.87-1.16,6.67-.63,10.54.94,6.86,6.39,12.54,12.05,14.56,1.28.46,3.07.03,4.09.71.6.4,2.77,5.63,4.34,7.28,3.47,3.63,10.46,5.29,14.7,2.98.75-.41.45-1.43.5-1.47,1.67-1.27,1.01,1.57,1.75,2.33,2.8,2.85,14.46,2.99,17.73,1.02,1.57-.95,2.86-4,4.76-4.59,2.71-.84,5.78,1.53,10.3-1.24,3.46-2.12,5.54-9.29,5.99-9.6.6-.41,2.65,0,3.96-.48,6.69-2.42,10.03-10.61,9.25-18.1-.24-2.28-1.78-5.27-1.84-7.13-.06-1.76,1.13-3.21,1.35-5.23.81-7.42-2.24-14.11-7.34-18.43-.79-.67-2.28-.81-2.62-1.2Z"/>
    <path class="st3" d="M87.09,163.73c.34.4,1.83.54,2.62,1.2,5.1,4.32,8.15,11.01,7.34,18.43-.22,2.02-1.41,3.46-1.35,5.23.06,1.86,1.6,4.85,1.84,7.13.79,7.49-2.56,15.68-9.25,18.1-1.31.47-3.36.07-3.96.48-.45.31-2.53,7.48-5.99,9.6-4.52,2.77-7.59.4-10.3,1.24-1.9.59-3.18,3.64-4.76,4.59-3.27,1.97-14.93,1.83-17.73-1.02-.75-.76-.08-3.6-1.75-2.33-.06.04.24,1.06-.5,1.47-4.24,2.32-11.23.65-14.7-2.98-1.57-1.64-3.74-6.87-4.34-7.28-1.02-.68-2.81-.25-4.09-.71-5.66-2.02-11.11-7.7-12.05-14.56-.53-3.87.87-7.68.63-10.54-.17-2.02-2.15-4.58-2.53-7.1-1.06-6.95,1.49-13.52,5.23-18.86.67-.96,2.23-1.2,2.59-2.4.5-1.67-.06-3.31.89-5.85,1.53-4.11,7.24-9.08,11.19-9.46,1.3-.12,2.5.83,3.73.48,1.95-.56,3.2-5.18,8.43-5.81,3.14-.38,5.86,1.55,7.76,1.21,1.76-.32,4.68-3.67,7.71-4.25,9.4-1.81,9.45,2.68,15.89,6.06s12.19,3.11,15.86,11.78c.67,1.58,1.23,5.69,1.63,6.15ZM47.81,147.93c-.98.95-.3,1-2.02,1.52-2.03-3.6-7.5-2.69-10.32-.78-.62.42-.39,1.45-.46,1.54-.14.17-1.85-.41-1.35,1.52-.09.06.09.71,0,.76-.17.09-.45-.07-.67,0-3.38.98-3.23-1.04-5.66-.77-3.32.36-8.3,5.17-9.02,8.94-.53,2.82.49,3.74.52,4.78.02.51,0,1.02,0,1.52-.74.08-1.36.43-2.02.76-2.52,1.25-4.64,5.33-5.73,8.38-2.82,7.92,1.21,8.67,2.21,14.26.72,4.08-.48,9.28,2.81,12.83.95,1.02,2.45.96,2.64,1.19.93,1.16-2.06,8.8,4.34,6.59.81-.28,5.05-4.73,5.87-3.65-.77,9.08,6.44,13.66,13.79,12.14,2.55-.53,3.86-3.79,4.13-3.82,3.52-.33,3.27,7.51,8.08,8.38,5.32.96,10.84-.57,11.09-7.56,3,.43,4.28,3.47,8.08,2.27.37-1.03-2.76-.73-1.35-2.27.39-.43,4.53-.06,5.28-2.83.58-2.15-1.73-8.07.46-8.6,1.23-.29,2.15,2.43,3.5,2.88,10.7,3.58,12.24-12.51,8.96-20.4h2.03c-1.08-7.08-.22-21.62-9.44-20.56-1.47-6.26-1.06-9.33-6.07-13.71-3.78-3.3-7.45-4.35-12.13-4.57-2.4-7.03-8.67-6.93-14.16-4.19-2.13,1.06-2.18,2.28-3.37,3.43Z"/>
    <path class="st0" d="M18.83,166.97c0,.25,0,.51,0,.76-.43.04-1.73,1.47-2.02,0,.66-.33,1.29-.68,2.02-.76Z"/>
    <path class="st0" d="M59.95,152.5c-1.61,1.9-3.07,6.06-1.19,8.19,1.23,1.39,3.19.22,3.92.6.86.44,2.68,4.46,4.34,5.68,4.45,3.26,14.01,1.68,12.17-6.11-.45-1.9-2.81-4.48-3.07-5.71-.09-.44,1.94-.27,1.35-1.89,5,4.38,4.6,7.45,6.07,13.71.91,3.88,2.52,8.81,2.04,13.35-.18,1.7-1.85,8.1-2.75,9.07-2.49,2.7-5.37,1.25-7.61,2.06-2.05.75-7.16,13.19-11.56,1.41-2.06,1.09-2.55,4.33-3.23,5.11-.39.44-1.51.4-2.15.96-7.29,6.46-14.63,6.89-20.18-2.33-.58-.96-.87-3.45-1.14-3.66-.92-.74-7.27,1.95-10.96-.18-1.48-.86-6.9-9.08-6.49-9.79.08-.14,1.74-.34,2-1.16-4.12-3.12-2.54-9.08-2.68-14.09,1.2-.12,2.44.08,3.64.01,1.47-2.47-.38-2.43-1.98-3.01-1.22-.44-1.86-1.82-1.66.71-.03-1.03-1.05-1.96-.52-4.78.72-3.77,5.7-8.58,9.02-8.94,2.42-.27,2.28,1.75,5.66.77-.04.99,1.27,1.17,1.35.38l-.67-.38c.09-.05-.09-.7,0-.76,1.74-1.18,1.15-1.33,1.35-1.52,2.15-2.04,4.96-1.77,7.72-1.49,1.45.15.89,1.38,3.07.73,1.72-.52,1.04-.57,2.02-1.52,1.15,1.44,3.11.35,4.71,1.15,2.84,1.42,1.63,3.79,7.42,3.42Z"/>
    <path class="st4" d="M83.54,166.97c9.21-1.06,8.36,13.48,9.44,20.56h-2.03c3.28,7.89,1.74,23.99-8.96,20.4-1.34-.45-2.27-3.18-3.5-2.88-2.19.52.12,6.44-.46,8.6-.74,2.77-4.88,2.4-5.28,2.83-1.42,1.54,1.72,1.23,1.35,2.27-3.79,1.2-5.08-1.84-8.08-2.27-.25,6.99-5.77,8.53-11.09,7.56-4.81-.87-4.56-8.71-8.08-8.38-.27.03-1.58,3.29-4.13,3.82-7.35,1.52-14.56-3.06-13.79-12.14-.82-1.08-5.06,3.37-5.87,3.65-6.4,2.21-3.4-5.43-4.34-6.59-.19-.23-1.69-.17-2.64-1.19-3.29-3.55-2.09-8.75-2.81-12.83-.99-5.59-5.03-6.34-2.21-14.26,1.09-3.05,3.21-7.13,5.73-8.38.3,1.47,1.59.04,2.02,0,.15,5.01-1.44,10.97,2.68,14.09-.27.82-1.92,1.01-2,1.16-.41.7,5,8.93,6.49,9.79,3.69,2.13,10.04-.56,10.96.18.27.21.56,2.7,1.14,3.66,5.56,9.22,12.89,8.79,20.18,2.33.64-.57,1.76-.52,2.15-.96.68-.77,1.18-4.02,3.23-5.11,4.4,11.79,9.51-.66,11.56-1.41,2.24-.82,5.12.64,7.61-2.06.9-.97,2.57-7.37,2.75-9.07.48-4.54-1.13-9.47-2.04-13.35Z"/>
    <path class="st4" d="M18.83,165.45c-.2-2.54.44-1.15,1.66-.71,1.6.58,3.46.54,1.98,3.01-1.2.07-2.45-.13-3.64-.01,0-.25,0-.51,0-.76,0-.51.02-1.02,0-1.52Z"/>
    <path class="st1" d="M77.48,153.26c.59,1.62-1.44,1.45-1.35,1.89.25,1.22,2.62,3.8,3.07,5.71,1.84,7.8-7.72,9.37-12.17,6.11-1.66-1.22-3.48-5.24-4.34-5.68-.73-.38-2.69.79-3.92-.6-1.88-2.13-.42-6.29,1.19-8.19.22-.01.46.04.67,0,.4-.08.9-.61,1.35-.76,1.02-.13.81.28,1.35-.76h2.69c.38-1.4-.62-1.37-.67-1.52-.07-.22.08-.54,0-.76,4.68.22,8.36,1.27,12.13,4.57Z"/>
    <path class="st2" d="M65.34,148.69c.08.22-.07.54,0,.76-2.86-.55-1.68.87-2.02,1.52-.54,1.04-.33.63-1.35.76-.1.01-.72-1.18-1.35.76-.21.04-.45-.01-.67,0-5.79.37-4.58-2-7.42-3.42-1.6-.8-3.57.29-4.71-1.15,1.19-1.16,1.24-2.37,3.37-3.43,5.49-2.74,11.76-2.83,14.16,4.19Z"/>
    <path class="st2" d="M45.79,149.46c-2.17.66-1.61-.58-3.07-.73-2.76-.28-5.57-.55-7.72,1.49-.2.19.39.35-1.35,1.52-.5-1.94,1.2-1.35,1.35-1.52.07-.09-.15-1.12.46-1.54,2.82-1.91,8.29-2.82,10.32.78Z"/>
    <path class="st2" d="M33.66,152.5l.67.38c-.08.79-1.39.61-1.35-.38.23-.07.51.09.67,0Z"/>
    <path class="st0" d="M65.34,149.46c.05.15,1.05.12.67,1.52h-2.69c.34-.65-.84-2.07,2.02-1.52Z"/>
    <path class="st0" d="M61.97,151.74c-.45.16-.95.68-1.35.76.63-1.94,1.25-.75,1.35-.76Z"/>
  </g>
  <g>
    <path d="M115.12,46.19c-.19-.18-1.38-4.26-2.43-5.91-8.75-13.73-16.66-13.79-27.45-7.26-1.65,1-3.57,4.24-4.8,4.25-1.32,0-4.84-5.26-7.08-6.59-8.96-5.32-22.57-1.15-30.82,6.33-2.69,2.44-4.76,6.63-6.82,8.55-10.43,9.64-17.96,9.91-26.98,27.06-11.03,20.96-13.02,68.32,2.26,84.72,2.72,2.92,10.14,4.7,10.79,5.78.33.54,2.49,10.37,4.05,13.93,6.37,14.59,20.96,22.51,31.5,20.75,3.61-.6,10.13-5.76,12.83-5.52,2.41.21,4.16,3.85,6.13,4.92,10.21,5.52,26.52,5.6,36.8,0,2.99-1.63,5.62-5.86,8.45-7.38,5.34-2.86,9.68-1.26,15.21-6.85,3.55-3.6,5.89-11.32,7.7-13.22,3.09-3.25,7.83-4.17,11.45-10.04,8.13-13.2,8.67-44.86,6.13-62.21-3.62-24.63-19.66-48.84-34.89-52.17-2.96-.64-11.5,1.37-12.02.86Z"/>
    <path class="st3" d="M115.12,46.19c.52.51,9.06-1.51,12.02-.86,15.23,3.32,31.27,27.54,34.89,52.17,2.55,17.34,2.01,49-6.13,62.21-3.62,5.87-8.36,6.79-11.45,10.04-1.8,1.9-4.14,9.62-7.7,13.22-5.52,5.6-9.87,3.99-15.21,6.85-2.83,1.51-5.46,5.74-8.45,7.38-10.28,5.61-26.59,5.53-36.8,0-1.97-1.07-3.72-4.71-6.13-4.92-2.71-.23-9.23,4.92-12.83,5.52-10.54,1.76-25.13-6.17-31.5-20.75-1.55-3.56-3.72-13.38-4.05-13.93-.65-1.07-8.07-2.86-10.79-5.78-15.28-16.4-13.29-63.76-2.26-84.72,9.02-17.16,16.55-17.42,26.98-27.06,2.07-1.91,4.14-6.11,6.82-8.55,8.24-7.48,21.86-11.65,30.82-6.33,2.24,1.33,5.76,6.6,7.08,6.59,1.23,0,3.15-3.26,4.8-4.25,10.79-6.53,18.7-6.46,27.45,7.26,1.05,1.65,2.25,5.73,2.43,5.91ZM47.76,43.4c-6.78,3.69-5.8,6.24-9.85,10.79-4.83,5.43-7.71,1.17-11.32,13.69-1.06-11.71-9.64,5.16-11.44,9.29-7.83,17.93-4.02,36.27,2.44,53.12,5.02.88,9.36,6.06,14.53,4.93,1.18,4.63-1.89,10.1-1.9,12.94,0,.92,1.42.78,1.88,1.92,5.82,14.72,9.04,19.26,19.69,23.59,5.49,2.23,9.77,4.92,15.03.12,1.77-1.62,3.27-5.47,4.56-6.21,3.04-1.73,1.94,2.66,3.57,5.81,2.07,3.98,5.19,4.54,7.49,6.71.53.5.83,2.96,1.74,3.9,6.62,6.84,23.5,2.2,29.39-5.91,1.77-2.44,3.51-8.95,5.07-10.02.9-.61,9.34.55,13.6-1.78,8.04-4.39,11.96-10.01,10.31-24.95,11.06,7.09,15.05-20.36,14.65-34.19-.27-9.34-2.8-16.33-5.45-23.97-1.6-4.6-1.95-6.86-4.6-10.71-.27-.39-.37-1.77-.95-2.26-.71-.6-1.45-.5-1.81-.8l-2.94-11.96c-7.25-4.99-9.82-8.2-18.73-7.99-3.99.09-7.06,4.79-10.09-2.99-.98,5.1-1.16,1.64-2.3,1.53-1.18-3.87-3.21-5.97-5.52-7.65-6.48-4.7-13.43-3.89-20.02-.33-1.24.67-1.89,3.27-2.06,3.39-.31.21-1.31.02-1.84,0-3.07-.14-5.12-4.05-8.23-5.44-7.13-3.19-18.95-2.83-24.9,5.44Z"/>
    <path class="st0" d="M47.76,43.4c4.89-2.66,11.02-4.91,16.15-4.66,4.17.2,14.55,1.39,15.16,9.25l1.82-4.58c.53.02,1.53.21,1.84,0,4.09,18.52,14.35,21.04,24.93,16.18,2.52-1.16,1.83-3.99,2.68-5.46.2-.35,2.39-.26,2.3-3.06,1.18.67,2.87,7.08,3.23,9.18,1.8,10.71-.13,19.38,7.64,26.33,7.63,6.83,10.91.28,18.13-1.84-1.11,7.45,2.08,14.94,3.68,21.43-2.21-1.19-2.88,2.35,0,1.53.29,3.73,1.4,5.82,3.68,6.12.29,3.23.1,4.74-.66,7.65-1.5,5.75-5.61-.07-6.67,1.61-.18.29.23,2.86-.27,4.02-.32.74-6.71,12.66-7.19,13.39-3.56,5.38-14.8,13.26-19.21,7.67-2.59-3.28-1.91-13.47-5.05-8.23-8.57,14.27-9.1,18.34-22.83,13.29-4.64-1.71-16.5-8.17-15.42-17.97-3.12,1.78-3.78,6.49-7.52,8.14-13.6,6-24.9-11.45-23.77-34.16-2.2-.15-3.07,3.41-5.25,4.26-4.44,1.72-6.81.73-9.32-5.28-5.02-12.01-2.77-28.02.77-40.3s6.48-8.27,11.32-13.69c4.05-4.55,3.07-7.1,9.85-10.79Z"/>
    <path class="st0" d="M145.32,107.67c-.11-.1.11-1.47,0-1.53.02.08.87-.21.9.77l-.9.77Z"/>
    <path class="st4" d="M151.76,83.19c2.65,7.64,5.19,14.62,5.45,23.97.4,13.84-3.59,41.28-14.65,34.19,1.65,14.94-2.28,20.55-10.31,24.95-4.26,2.33-12.71,1.16-13.6,1.78-1.56,1.07-3.3,7.59-5.07,10.02-5.89,8.11-22.77,12.75-29.39,5.91-.91-.94-1.21-3.4-1.74-3.9-2.3-2.17-5.43-2.73-7.49-6.71-1.63-3.15-.54-7.54-3.57-5.81-1.29.73-2.79,4.59-4.56,6.21-5.27,4.81-9.54,2.11-15.03-.12-10.64-4.33-13.86-8.87-19.69-23.59-.45-1.15-1.88-1-1.88-1.92,0-2.85,3.08-8.31,1.9-12.94-5.16,1.13-9.51-4.05-14.53-4.93-6.47-16.85-10.27-35.19-2.44-53.12,1.8-4.13,10.38-21,11.44-9.29-3.53,12.28-5.79,28.29-.77,40.3,2.51,6.01,4.88,7.01,9.32,5.28,2.18-.84,3.04-4.41,5.25-4.26-1.13,22.71,10.17,40.16,23.77,34.16,3.74-1.65,4.4-6.36,7.52-8.14-1.08,9.8,10.78,16.26,15.42,17.97,13.73,5.05,14.27.98,22.83-13.29,3.14-5.24,2.47,4.96,5.05,8.23,4.41,5.58,15.65-2.29,19.21-7.67.49-.74,6.87-12.65,7.19-13.39.5-1.16.09-3.73.27-4.02,1.06-1.68,5.16,4.14,6.67-1.61.76-2.91.95-4.41.66-7.65,8.48,1.1,1.55-23.48,2.76-30.61Z"/>
    <path class="st1" d="M104.82,40.34c.32,4.63,3.58,6.89,4.6,9.18.32.72.3,3.5.92,4.59-.85,1.47-.16,4.31-2.68,5.46-10.58,4.86-20.84,2.34-24.93-16.18.17-.12.82-2.72,2.06-3.39,6.6-3.57,13.54-4.38,20.02.33Z"/>
    <path class="st2" d="M145.32,106.14c.11.06-.11,1.43,0,1.53-2.88.82-2.21-2.72,0-1.53Z"/>
    <path class="st2" d="M151.76,83.19c-1.21,7.13,5.72,31.71-2.76,30.61-2.28-.3-3.4-2.39-3.68-6.12l.9-.77c-.03-.97-.88-.69-.9-.77-1.6-6.48-4.79-13.97-3.68-21.43.14-.97.63-1.09.92-1.53.49-.75,2.03-.8,2.51-1.9.94-2.16.35-6.84,2.09-8.82,2.65,3.85,3,6.11,4.6,10.71Z"/>
    <path class="st4" d="M110.35,47.99c1.14.12,1.32,3.58,2.3-1.53,3.03,7.78,6.1,3.09,10.09,2.99,8.91-.2,11.48,3,18.73,7.99l2.94,11.96c-1.22-1-2.56-1.11-4.6-3.06-7.27-6.95-10.98-13.67-20.73-11.87l-3.2,5.75c-.35-2.1-2.05-8.5-3.23-9.18.1,2.79-2.09,2.7-2.3,3.06-.62-1.09-.6-3.87-.92-4.59.37-.23.85-1.54.92-1.53Z"/>
    <path class="st2" d="M80.9,43.4l-1.82,4.58c-.61-7.85-10.99-9.05-15.16-9.25-5.13-.25-11.26,2-16.15,4.66,5.95-8.27,17.77-8.64,24.9-5.44,3.11,1.39,5.16,5.31,8.23,5.44Z"/>
    <path class="st0" d="M144.4,69.41c.36.3,1.1.2,1.81.8.58.49.68,1.87.95,2.26-1.74,1.98-1.15,6.65-2.09,8.82-.48,1.1-2.02,1.14-2.51,1.9,3.33-8.07-3.15-9.59-2.76-16.83,2.04,1.95,3.38,2.07,4.6,3.06Z"/>
    <path class="st0" d="M110.35,47.99c-.07,0-.55,1.3-.92,1.53-1.03-2.29-4.29-4.56-4.6-9.18,2.31,1.68,4.34,3.79,5.52,7.65Z"/>
    <path class="st1" d="M139.8,66.35c-.39,7.25,6.09,8.77,2.76,16.83-.29.44-.78.56-.92,1.53-7.23,2.13-10.5,8.67-18.13,1.84-7.77-6.95-5.83-15.61-7.64-26.33l3.2-5.75c9.75-1.8,13.46,4.92,20.73,11.87Z"/>
  </g>
  <g>
    <path d="M110.42,111.98c-.21-.22-.38-3.77-1.67-5.84-9.38-15.17-34.59-14.01-45-.08-1.27,1.7-2.35,5.71-2.62,5.89-.33.22-5.67.83-7.83,1.67-11.53,4.5-20.94,21.42-9.95,30.92,9.37,8.1,17.56-1.03,20.34-.36.52.12,4.88,6.24,7.26,7.76,8.07,5.15,18.93,5.41,27.05.37,3.02-1.87,4.46-6.2,4.9-6.29,2.32-.49,6.34,2.77,9.9,3.09,20.69,1.85,28.51-24.01,11.37-33.39-3.54-1.94-13.26-3.23-13.76-3.74Z"/>
    <path class="st3" d="M110.42,111.98c.5.52,10.22,1.8,13.76,3.74,17.14,9.38,9.31,35.24-11.37,33.39-3.55-.32-7.58-3.58-9.9-3.09-.44.09-1.88,4.42-4.9,6.29-8.12,5.03-18.98,4.78-27.05-.37-2.38-1.52-6.74-7.64-7.26-7.76-2.78-.66-10.97,8.46-20.34.36-10.99-9.51-1.58-26.43,9.95-30.92,2.16-.84,7.5-1.45,7.83-1.67.27-.18,1.35-4.19,2.62-5.89,10.41-13.93,35.62-15.09,45,.08,1.28,2.07,1.45,5.62,1.67,5.84ZM77.29,101.1c-8.1,2.3-10.99,8.92-10.01,16.99-2.1.23-.47-3.4-1-4-.24-.28-6.61,1.02-7.26,1.24-.57.2-7.31,5.85-7.63,6.37-1.43,2.27-1.42,11.08,0,12.29s14.33-.16,16.89-1.89c.59,14.46,16.91,17.6,27.71,10.2,2.69-1.84,5.22-7.05,5.86-7.19,2.7-.59,6.73,8.24,13.81,5.82,1.17-.4,1.32-2.09,1.97-2.47,1.33-.78,7.39-3.45,7.66-4.07,1.1-2.54,1.7-10.23-.5-12.3-.98-.93-10.32-3.72-12.13-3.89-7.15-.67-7.07,1.3-15.38-1.1,12.3-6.84,1.39-16.04-8.49-17-3.48-.34-8.16.05-11.51,1Z"/>
    <path class="st4" d="M77.29,101.1c2.85,1.73,3.03,4.98,5,7.5,4.58,5.86,8.28,6.56,15,8.5,8.31,2.41,8.23.43,15.38,1.1,1.82.17,11.15,2.96,12.13,3.89,2.19,2.07,1.6,9.76.5,12.3-.27.63-6.33,3.29-7.66,4.07-.65.38-.8,2.07-1.97,2.47-7.08,2.42-11.11-6.42-13.81-5.82-.65.14-3.18,5.35-5.86,7.19-10.8,7.4-27.11,4.26-27.71-10.2-2.56,1.73-15.52,3.05-16.89,1.89s-1.43-10.01,0-12.29c.32-.52,7.06-6.17,7.63-6.37.64-.22,7.01-1.52,7.26-1.24.53.6-1.1,4.22,1,4-.98-8.07,1.91-14.7,10.01-16.99Z"/>
    <path class="st0" d="M77.29,101.1c3.35-.95,8.03-1.34,11.51-1,9.88.96,20.79,10.16,8.49,17-6.71-1.95-10.41-2.65-15-8.5-1.97-2.52-2.16-5.77-5-7.5Z"/>
  </g>
  <g>
    <path d="M121.1,209.9c.82-4.15,2.12-5.82.99-10.59-.9-3.81-3.62-6.47-4.68-9.52-.75-2.15-.37-5.26-1.39-8.2-4.4-12.65-19.67-21.78-32.82-21.84-3.46-.02-5.74,2.06-6.76,2.14-.26.02-3.17-1.43-4.3-1.68-10.16-2.24-21.94,5.21-14.75,15.71-5.6,2.25-7.77,10.39-6.3,15.76,3.42,12.43,15.8,22.53,28.69,22.98,1.71.06,6.83-1.08,7.82.17.39.49.46,4.25,1.82,5.82,1.6,1.84,3.79.9,5.2,3.1,2.13,3.31-2.01,12.54,6.07,14.1,8.53,1.64,19.54-6.65,21.68-14.79,1.31-4.99-2.01-9.46-1.28-13.15Z"/>
    <path class="st3" d="M121.1,209.9c-.73,3.7,2.59,8.17,1.28,13.15-2.14,8.14-13.15,16.43-21.68,14.79-8.09-1.56-3.95-10.79-6.07-14.1-1.41-2.2-3.6-1.26-5.2-3.1-1.36-1.57-1.43-5.32-1.82-5.82-.99-1.25-6.11-.11-7.82-.17-12.89-.45-25.27-10.55-28.69-22.98-1.48-5.37.69-13.51,6.3-15.76-7.18-10.49,4.59-17.95,14.75-15.71,1.13.25,4.04,1.7,4.3,1.68,1.01-.08,3.29-2.15,6.76-2.14,13.15.06,28.42,9.19,32.82,21.84,1.02,2.94.64,6.05,1.39,8.2,1.06,3.05,3.78,5.71,4.68,9.52,1.13,4.77-.17,6.44-.99,10.59ZM101.98,169.08c-1.26-.91-4.68-3.53-5.7-1.91-.46-.26-1.03-.2-1.21-.3-7.68-4.08-11.99-5.18-19.87-.75-1.52-1.04-2.95-2.92-4.47-3.78-3.3-1.86-4.04.72-5.79,1.87-2.22,1.47-4.14.79-4.71,4.52-.64,4.16,5.28,5.91,5.44,6.88-1.98,1.84-8.78,7.1-8.93,9.57-.05.74,1.35,1.43,1.78,2.3.61,1.27.24,4.68.65,5.89,1.75,5.17,9.86,12.57,15.22,13.63l14.42-2.99c1.21,1.03.11,3.48.36,4.72.67,3.41,5.24,5,8.32,4.07,1.01,2.51,2.79,4.84,3.94,7.21.64,1.33-.03,4.01,2.37,2.58l-2.12,7.74c.05,2.36,3.3,1.81,4.86,1.55,5.72-.95,7.71-2.32,11.31-7.27,2.14-2.93,2.31-5.67,1.46-9.23-.49-2.04-1.93-5.14-3.38-6.66.4-.9.9.49,1.42.05.14-.12,2.21-2.7,2.33-2.89,1.06-1.78.47-3.75-.08-5.55-.2-.64.71-1.22-1.3-1.31.51-1.39-1.2-2.75-1.47-3.44-1.63-4.18-1.87-5.61-2.64-9.88-1.05-5.88-4.5-9.94-8.81-13.73-1.08-.95-2.27-2.07-3.41-2.89Z"/>
    <path class="st4" d="M95.07,166.88l-.66,1.64c-.12-.05-1.7.35-2.57.07-2.01-.64-3.36-2.22-5.68-1.57-.4,1.67,1.66,3.79,1.68,4.02.03.38-1.36,1.21-1.36,1.71,0,.43,1.94.91.68,1.7-1.03.64-4.24.45-5.46,1.06-1.12.55-1.69,1.58-3,2.07-1.05.39-7.35-.45-5.16,3.17,1.77,2.93,10.55,2,10.64,3.27-2.98,2.48-3.34,5.27-1.62,8.65s3.81,5.4,7.75,5.65c2.67.17,6.38-2.24,7.86-.28.18.24-.63,3.55.42,5.2.87,1.37,4.95,4.21,4.97,4.54.02.28-2.26,2.11-1.83,3.62.71,2.5,4.23,5.49,6.78,6.01.75.15,6.04.42,6.38.19.67-.44,2.57-3.47,2.41-4.1-.57-2.26-4.72-3.56-4.83-4.06-.05-.2.67-1.22.69-1.84.06-1.42-.96-2.4.01-3.38,1.05.72,1.94,1.77,2.98,2.53.31-.02,2.27-2.83,2.31-3.48.06-1.06-1.98-.63-.91-3.78.1-.29.72-.38.75-.44,2.01.09,1.1.66,1.3,1.31.55,1.8,1.14,3.77.08,5.55-.11.19-2.19,2.77-2.33,2.89-.52.44-1.02-.95-1.42-.05,1.45,1.51,2.89,4.62,3.38,6.66.85,3.56.68,6.3-1.46,9.23-3.61,4.94-5.59,6.32-11.31,7.27-1.56.26-4.81.81-4.86-1.55l2.12-7.74c-2.4,1.43-1.73-1.25-2.37-2.58-1.14-2.37-2.92-4.7-3.94-7.21-3.08.93-7.65-.66-8.32-4.07-.24-1.24.85-3.69-.36-4.72l-14.42,2.99c-5.37-1.06-13.47-8.46-15.22-13.63-.41-1.22-.04-4.63-.65-5.89-.42-.87-1.82-1.56-1.78-2.3.15-2.46,6.95-7.73,8.93-9.57-.16-.97-6.08-2.72-5.44-6.88.57-3.73,2.49-3.05,4.71-4.52,1.75-1.16,2.49-3.74,5.79-1.87,1.52.86,2.95,2.74,4.47,3.78-.71.4-4.21,2.38-4.39,2.57-3.6,3.79,5.1,9.65,8.75,5.14.51-.63,1.13-3.24.96-3.98-.51-2.17-3.51-2.49-5.32-3.72,7.87-4.43,12.18-3.33,19.87.75Z"/>
    <path class="st2" d="M116.83,195.59c-1.53-1.53-1.19-1.07-2.36.19-1.78-1.24-3.42-3.37-5.31-4.35-1.35-.7-2.72-.08-4.16-.02-.31.01-.38-1.27-2.13.34-2.1,1.94-2.55,5.74.88,3.73.8,1.94,2.62,4.44,4.21,5.83,1.7,1.48,3.05,1.37,4.37,2.18.3.19.55.52.85.72-.97.98.05,1.96-.01,3.38-.03.62-.74,1.63-.69,1.84.12.5,4.26,1.81,4.83,4.06.16.63-1.74,3.65-2.41,4.1-.34.23-5.63-.04-6.38-.19-2.56-.52-6.08-3.51-6.78-6.01-.43-1.51,1.85-3.34,1.83-3.62-.02-.34-4.09-3.18-4.97-4.54-1.05-1.65-.24-4.96-.42-5.2-1.48-1.96-5.19.45-7.86.28-3.95-.25-6-2.19-7.75-5.65s-1.36-6.17,1.62-8.65c-.09-1.27-8.87-.33-10.64-3.27-2.19-3.62,4.12-2.79,5.16-3.17,1.31-.48,1.88-1.51,3-2.07,1.22-.6,4.43-.42,5.46-1.06,1.26-.79-.68-1.27-.68-1.7,0-.5,1.39-1.33,1.36-1.71-.02-.23-2.08-2.35-1.68-4.02,2.31-.65,3.67.93,5.68,1.57.86.27,2.45-.12,2.57-.07,2.92,1.2,5.26,5.63,7.36,7.71.59-2.35,4.84-1.92,3.61-4.26,4.31,3.79,7.75,7.85,8.81,13.73.77,4.27,1.01,5.7,2.64,9.88Z"/>
    <path class="st0" d="M116.83,195.59c.27.69,1.98,2.05,1.47,3.44-.02.07-.65.16-.75.44-1.07,3.15.97,2.72.91,3.78-.04.65-1.99,3.46-2.31,3.48-1.04-.76-1.93-1.81-2.98-2.53-.3-.21-.55-.53-.85-.72,2.25-1.68,1.05-3.42,1.91-5.7.25-.66,1.36-.66-.13-1.57.09-.15.24-.3.36-.43,1.18-1.26.83-1.72,2.36-.19Z"/>
    <path class="st0" d="M105.39,171.97c1.22,2.34-3.03,1.91-3.61,4.26-2.1-2.08-4.44-6.52-7.36-7.71l.66-1.64c.18.1.75.03,1.21.3,1.59.91,3.22,1.99,4.62,3.19l1.08-1.28c1.14.82,2.33,1.94,3.41,2.89Z"/>
    <path class="st4" d="M101.98,169.08l-1.08,1.28c-1.4-1.2-3.03-2.28-4.62-3.19,1.02-1.62,4.44,1,5.7,1.91Z"/>
    <path class="st2" d="M75.2,166.13c1.81,1.23,4.8,1.55,5.32,3.72.18.75-.45,3.36-.96,3.98-3.65,4.51-12.35-1.35-8.75-5.14.18-.18,3.68-2.17,4.39-2.57Z"/>
    <path class="st1" d="M114.47,195.78c-.12.13-.27.28-.36.43-.55.87-1.17.69.13,1.57-.85,2.28.34,4.02-1.91,5.7-1.32-.81-2.67-.7-4.37-2.18-1.59-1.39-3.41-3.89-4.21-5.83-.75-1.81-1.01-2.84,1.25-4.06,1.44-.06,2.81-.68,4.16.02,1.89.98,3.53,3.1,5.31,4.35Z"/>
    <path class="st0" d="M105,191.41c-2.26,1.22-2,2.26-1.25,4.06-3.43,2.01-2.98-1.79-.88-3.73,1.75-1.61,1.82-.33,2.13-.34Z"/>
    <path class="st2" d="M114.11,196.21c1.49.91.38.91.13,1.57-1.3-.88-.68-.7-.13-1.57Z"/>
  </g>
</svg>