<?xml version="1.0" encoding="UTF-8"?>
<svg id="Calque_1" xmlns="http://www.w3.org/2000/svg" version="1.1" viewBox="0 0 925.23 624.03">
  <!-- Generator: Adobe Illustrator 30.0.0, SVG Export Plug-In . SVG Version: 2.1.1 Build 123)  -->
  <defs>
    <style>
      .st0 {
        fill: #a63a00;
      }

      .st1 {
        fill: #fea610;
      }

      .st2 {
        fill: #1f1108;
      }

      .st3 {
        fill: #a99880;
      }

      .st4 {
        fill: #fdf9ee;
      }

      .st5 {
        fill: #fd7701;
      }
    </style>
  </defs>
  <path class="st2" d="M302.47,440.75c-13.99.04-28.01-.03-42,0l8.46,48.04c1.63,2.55,18.32.97,24.98,10.02,3.57,4.86,10.44,31.22,10.61,37.5.16,5.68-5.12,7.99-9.85,9.13-18.19,4.39-41.86,4.19-60.69,5.31-5.25.31-11.76,1.87-16.97,2.03-14.08.45-26.09-3.79-39.53-7.04l.95,5.54c8.61,3.05,19.3,4.24,27.58,7.42,3.21,1.23,7.02,3.06,9.31,5.69,4.36,5.03,11.07,28.66,1.42,32.11-35.19,7.3-81.02,30.12-116.8,27.27-18.01-1.44-74.05-18.81-91.74-26.26-11.15-4.7-8.63-12.98-5.67-23.22,5.94-20.52,26.52-16.9,43.03-24.22l28.2-118.55c1.12-8.24,4.04-11.15,8.2-16.78,1.79-2.42,3.92-22.19,4.83-27.19,6.98-38.24,14.37-76.51,20.69-114.81-22.33-2.65-27.26-19.79-27.04-39.54.24-21.59,1.07-47.5,3.06-68.94.68-7.29,3.93-17.5,10.63-21.37,1.07-.61,8.15-3.15,8.85-3.15h28.5v-21.5c0-3.49,5.38-9.19,9-10-39.64-29.65-23.54-93.32,23.22-105.78,55.13-14.7,100.72,38.93,73.96,88.96-2.02,3.78-13,15.76-13.2,16.81-.44,2.33,1.09,1.34,2.52,1.48,2.13.22,4.07-.21,6.26.69,7.05,2.89,2.65,25.76,5.24,28.33h456c.2-13.75-3.29-31.8,16-31.5-19.22-16.42-25.53-41.91-17.93-65.94,20.75-65.63,132.78-50.51,120.66,31.67-2.36,15.98-9.1,23.35-20.08,33.68-.85.8-.9.71-.64,2.08,15.23-.55,9.48,20.34,11.48,30.1,18.5,1.66,32.22-1.65,36.36,20.57,4.05,21.69,6.26,60.6,6.22,82.81-.02,14.77-6.92,28.01-22.82,30.27-3.63.52-13-1.23-13.26,2.75l27.03,136.78c5.85,3.66,9.1,6.06,11.47,12.76,7.24,20.42,10,45.85,16.03,66.97,1.3,2.65,7.6,1.99,11.05,2.95,9.77,2.73,12.78,9.41,15.74,18.26,1.51,4.54,4.86,15.26,5.49,19.54,1.73,11.81-10.52,10.27-18.78,10.25-1.14,1.22,2.39,7.06,3.65,7.84,3.95,2.45,16.51,4.27,21.89,6.12,11.59,3.98,15.85,6.44,19,19,4.62,18.44,2.95,19.06-13.54,24.53-33.98,11.28-85.08,28.46-119.63,20.63-26.76-6.06-53.63-16.42-80.06-23.94-12.67-1.91-5.24-28.4-.35-33.45,5.79-5.99,32.72-10.99,41.41-13.64l3.6-16.06c-5.55-.86-13.07-2.1-16.98-6.52-1.69-1.91-2.63-6.66-4.65-7.35-4.63-1.59-13.9.78-18.8.88-14.04.29-33.41,1.28-46.94-.15-7.69-.81-48.63-11.78-54.87-15.13-2.7-1.45-5.85-4.96-5.7-8.17,3.74-9.63,4.07-26.75,13.92-32.14,5.61-3.07,11.71-2.32,17.57-4.4l4.47-24.05c-21.25,2.04-43.07.71-64.53.96-4.15.05-8.72,1-13.46,1.04-6.45-1.67-15.55-1.67-22,0-26.92.18-54.42,0-81,0-13.82,0-27.69-.19-41.51-.02-1.69.02-4.45-.64-5.49,1.02-20.65,0-41.35,0-62,0-14.82,0-29.69-.17-44.51-.02-1.69.02-4.45-.64-5.49,1.02ZM175.47,108.75c49.33,15.76,78.65-46.32,48.51-82.01-22.11-26.18-70.79-23.34-87.51,6.01-.7,1.22-1.46,2.7-2,4-4.07,5.35-6.54,14.38-7,21-.99,14.37,3.69,30.72,15,40,.29.37.7.65,1,1s.67.67,1,1,.64.7,1,1c.97.82,1.65.76,2,1,2.28,1.56,3.18,2.84,6.32,4.18,5,2.13,14.85,5.01,20.16,4.86,2.86-.08.23-1.14,1.52-2.04ZM750.47,108.75c18.99.21,31.08,1.41,43.98-14.52,23.62-29.18,7.99-75.76-28.78-84.18-22.19-5.08-50.01,4.58-60.2,25.7-.8.15-2.72,4.24-3.18,5.33-6.81,16.3-4.3,39.94,8.18,52.67.3.36.69.65,1,1,1.49,2.45,3.78,4.28,6,6,11.23,8.72,19.54,7.85,33,8ZM727.47,114.75c-.18,0-1.57-1.04-3.38-1.07-6.62-.11-13.07.45-19.62,1.07v22.5c0,1.48,3,1.48,3,0v-18c0-5.5,15.11-2.67,18.43-2.54.77.03,1.39-.95,1.57-.96,7.14-.29,4.84,2.22,6,3-1.45,3.29-1.57,27.29-.42,28.11,1.58.61,3.19.81,4.87.93,13.57.95,36.66,1.15,50.09,0,1.67-.14,4.89-.19,5.46-2.05,1.66-1.04,1-3.8,1.02-5.49.05-4.59.86-19.77-.18-22.85-.98-2.91-5.47-2.5-7.84-2.66-1.75-1.58-3.94-.96-6-1-4.65-.1-9.35,0-14,0-5.99-.01-12.01-.04-18,0-.67,0-1.33,0-2,0-3.79.5-8.96-1.2-12,1-2.33-.04-4.67.03-7,0ZM169.47,116.75c-1.53-.07-2.75-1.6-3.67-1.65-4.6-.26-23.74-1.95-25.17,2.32-.58,1.73-.43,19.11.33,20.35,1.69,2.78,17.04,4.96,21,6,1.58-1.02-.77-1.24-1.48-1.5-5.3-1.96-11.33-3.2-16.99-3.52-.47-6.17-1.46-13.19-.05-19.31.09-.39,4.27-2.67,4.54-2.67h19.5c.58,1.4-1,3-1,3.5v27c0,.11,1.39,1.5,1.5,1.5h59c1.1,0,1.43-2.44,1.55-3.45.6-5.11.62-19.52-.05-24.55s-3.87-5.51-8.51-5.99c-11.58-1.19-34.24-.97-46.01-.04-1.77.14-3.44.35-4.48,2.02ZM254.47,149.75c-4.17.04-13.14-.81-16.41-.05-1.24.29-.35,1.64-.59,2.05-1.53,2.65-4.45,5.45-7.56,5.94-11.91,1.89-34.35.14-47.44.06-8.68-.05-17.51-.9-26-1l-4.66-7.04c-12.43.29-24.92-.24-37.34.04-.33,0-.67,0-1,0-8.62.25-17.9-1.51-19.76,9.74-2.08,12.57-.81,27.94-1.2,40.8-.44,14.22-2.22,29.13-1.04,43.46,2.06,24.99,29.95,20.73,48,21,.67,0,1.33,0,2,0,7.65.11,15.35-.05,23,0,30.31.19,60.69-.05,91,0,.33,0,.67,0,1,0,29.32.05,58.68-.02,88,0,30.32.03,60.68.06,91,0,1,0,2,0,3,0,22.98-.04,46.02.07,69,0,2,0,4,0,6,0,.33,0,.67,0,1,0,1,0,2,0,3,0,.33,0,.67,0,1,0,3.33-.01,6.67.01,10,0,31.39-.12,62.77-.14,94-1,.67-.02,1.33.02,2,0,1.68,1.09,3.54.98,5.45,1.04,26.5.83,53.2-.82,79.55-1.04,1.86,1.68,7.14,1.68,9,0,21.32-.16,42.69.18,64,0,11.98-.1,38.97,2.35,48-4,3.97-2.79,2.62-2.53,4-6,3.8-9.55.58-17.37,0-28-.09-1.62,0-9.84,0-10-1.13-19.39-1.52-38.94-4.25-58.25-2.02-6.03-6.49-6.76-11.75-7.75-3.92-.74-13.22-2.03-17-1-1.69.46-1.48,3.99-3,5-1.15.55-1.97,1.77-3.53,1.95-17.41,2.04-36.6,1.18-53.98.06-4.29-.28-11,.96-14.49-1.01-4.44-2.51-3.65-5.19-11.51-5.99-22.73-2.29-52.87.05-76.49-.01-29.98-.08-60.03-.21-90,0-15.31.11-30.7-.3-46,0l-248,1ZM518.47,274.75c-76.31.25-152.74-.12-229,0-17.01.03-41.58-2.03-57.56-.04-.97.12-2.33-.33-2.44,1.04l11.88,66.42c.79,1.16,10.8.55,13.12.58,21.44.32,43.06.28,64.51.02,1.69-.02,4.45.64,5.49-1.02h107c35.14,0,70.37.45,105.51.02,1.69-.02,4.45.64,5.49-1.02,21.01-.1,42.22-.72,63-1h41c5.99-.04,12.02.03,18,0l11.99-66c-30.63.18-61.5-.22-92,0l-66,1ZM677.47,321.75c-.81,5.22-3.69,11.25-3,17h43c-.4-3.62-.58-7.39-1-11-1.65-14.13-4.56-28.33-5.99-42.51-.27-2.64.84-9.81-.95-11.05-3.61-.34-23.33-1.4-24.62.5-2.34,13.92-5.11,27.78-7.31,41.72-.29,1.84.11,3.76-.13,5.34ZM722.47,305.75c.69,11.77,3.61,23.46,6,35,.76,3.68,2.33,7.74,3,11,3.56,17.24,7.11,36.37,11,55,3.21,15.37,6.72,30.68,10,46,2.07,9.67,2.94,24.51,6.19,33.31.72,1.95,5.23,2.48,6.68,1.55,1.85-1.19,8.99-37.53,10.13-42.86,1.21-5.67,3.1-9.77,3-16,2.82-2.62,3.84-8.73,6.74-11.03,1.86-1.47,14.62-5.97,16.76-5.97h25.5c-.43-6.47-2.04-12.85-3.31-19.19s-3.43-12.62-4.69-18.81c-3.93-19.23-8.06-38.75-12-58-2.36-11.54-4.79-23.54-7-35-.29-1.49.37-6.64,0-7.01h-83.01c.99,10.82,2.88,21.46,5,32.01ZM108.47,323.75c-2.4,13.64-4.67,27.33-7,41s-6.9,28.87-7.9,41.64c-.68,8.7,4.87,4.49,10.36,4.32,11.73-.37,24.42-1.24,34.49,5.59.56,2.11,4.58,6.36,5.05,7.45,4.34,10.04,9.97,34.28,13,46,1.33,5.13,1.43,12.43,3.48,18.02.99,2.7,5.11,4.35,6.52,2.98,1.23-1.2-3.58-18.12-4-21-.09-.64.09-1.36,0-2,0-.05.1-.27,0-1-1.94-13.57-3.02-27.43-5-41-2.58-17.63-6.54-35.37-9-53-1.75-12.51-3.46-25.41-5-38-2.44-19.93-4.67-39.88-5-60h-22c-2.87,16.28-5.14,32.72-8,49ZM219.47,280.75c-.28-1.33.35-5.64,0-6.01l-73.01,1c.88,12.48,2.48,24.97,4.15,37.36,1.24,9.22,3.57,18.5,4.86,27.64,3.08,21.9,5.7,43.99,9,66,3,20.01,5.3,40.31,10,60,.99,8.45.76,17.35,3.95,25.55,9.61,1.06,21.61,6.38,31.05,6.45,5.15-.21,10.39.28,15.54.04,7.95-.36,19.11-1,26.85-2.15,3.08-.46,6.33-1.13,8.13-3.91-2.87-19.47-7.83-38.68-11.52-57.97-3.82-19.95-7.24-40.04-11-60-3.95-20.99-8.09-42.01-12-63-1.95-10.47-3.8-20.6-6-31ZM677.47,350.75c-1.33.01-2.67,0-4,0-26.97.2-54.16.82-81,1-29.31.19-58.68-.09-88,0-44.14.13-88.37-.56-132.51-.02-1.69.02-4.45-.64-5.49,1.02-.67,0-1.33,0-2,0-.95-1.61-4.99-1.64-6,0-36.55-.16-75.75-1.68-112,0-1.02.05-4.07-.44-4.01.51,3.67,21.29,8.64,42.39,13.01,63.49,1.09,5.25,2.1,10.6,1.99,16.01,24.01-.2,47.99-.86,72.01-1.01,32.48-.19,65.02.42,97.51.02,1.69-.02,4.45.64,5.49-1.02,24.3.27,48.7.13,73,0,29.68-.16,59.33-.65,89-1,8.65-.1,17.35.12,26,0,17.26-.24,34.66-.75,52-1,4.41-.06,9.44-.96,13-1,.18,0,1.57,1.1,3.38,1.07,15.58-.21,31.06-1.22,46.62-1.07,1.34-4.47-1.43-8.64-2-12-1.44-8.5-3.25-16.58-5-25-1.94-9.35-3.14-19.77-5.45-29.05-.82-3.28-1.25-6.75-4.02-8.98-6.93-5.56-31.72-2.05-41.53-1.97ZM76.47,466.75c-.09.33-.74,1.02-1,2-3.67,13.93-6.61,28.01-10,42-4.31,17.79-8.65,35.63-13.04,53.41.11.96,1.95.47,2.04.59.15.2-.15,1.89.53,2.93,1.7,2.62,13.92,5.35,17.47,6.07,24.45,4.97,49.61,4.78,74,0,5.2-1.02,23.26-3.79,24.02-9.55-3.59-18.09-9.4-35.66-14.02-53.45-3.64-14.02-7.25-28.16-11-42-3.52-13-5.82-28.38-10.7-40.8-1.79-4.54-2.17-3.9-5.3-6.2-1.35-.99-1.08-1.79-3.75-2.74-8.3-2.94-29.83-3.04-36.77,2.71-6.27,5.2-10.48,35.94-12.47,45.03ZM790.47,428.75c-5.7,12.25-6.99,26.92-10,40-3.06,13.29-5.83,26.75-9,40-.32,1.33-1.82,2.89-1,5-.13.28-.85.58-1,1-3.79,10.34-9.84,36.94-11,48-.02.2-1.1.71-.86,2.21.85,5.47,14.11,7.78,18.86,8.79,23.27,4.91,47.59,5.08,71,1,4.33-.75,22.89-4.97,24.98-7.51.51-.62,1.07-1.11,1.06-2.01-3.38-17.72-8.76-35.01-13.04-52.48-3.42-13.95-6.47-28.07-10-42-2.38-9.38-7.34-36.6-11.02-43.22-.7-1.26-2.74-1.85-3.98-2.78-.36-.27-.63-.72-1-1,.07-.27-.01-.66,0-1,.02-.62.22-1.24-.15-1.82-2.41-2.83-24.25-2.64-28.85-2.18-8.83.88-11.49,2.46-15,10ZM677.47,436.75c-4.71.8-22.46-1.5-25,1-1.9,1.87-.56,3.41-1,5-2.02,7.28-3.51,14.57-5,21.97,8.74,2.02,18.64,7.13,27.51,8.02,12.56,1.26,26.72-1.69,39.36-2.11,2.82-7.58,2.37-15.91,3.13-23.88.02-.2.95-1.11,1.04-2.42.2-2.84-.2-5.75-.04-8.59-11.81,1.11-26.13-1.46-37.61-.05-1.51.18-2.26,1.05-2.39,1.06ZM738.42,435.8l-9.07.53-3.89,34.41c9.73-1.46,15.24,4.34,20.99,11l-8.04-45.95ZM734.46,485.75c.1-10.3-7.8-8.85-15.23-7.73-15.53,2.33-34.89,4.17-51.01,1.48-9.37-1.57-27.41-9.92-35.21-9.78-10.5.19-11.03,6.66-12.87,15.22-1.12,5.21-4.65,12.43,3.31,11.82-.08-3.14,3.44-20.38,5.59-20.92,2.67-.67,27.67,10.04,33.37,8.96,1.37,3.47-1.87,22.67-.85,23.86.36.42,10.51,2.51,10.89,2.1l2-25.01h60ZM764.47,494.76l-8.3-1.03c.18,1.75-5.5,2.19-3.69,4.01.37.38,9.43,2.23,10.41,2.09.83-.12,1.32-4.05,1.58-5.07ZM201.47,505.75c-6.94-2.58-26.29-7.51-33.76-8.74-1.06-.17-4.19-.84-4.25.25l2.14,9.36,33.84,7.16,2.04,26.96c4.99.51,9.37,1.18,14.49.99,23.4-.86,48.29-6.51,71.94-7.05,6.14-.94,4.22-4.39,3.56-8.94-1.92-13.28-2.42-29.45-20.46-25.95-2.1.41-3.27,2.28-5.24,2.75-5.44,1.32-15.76,1.72-21.81,2.19-14.12,1.11-28.33,1.04-42.49,1.01ZM869.47,505.75c.11,3.14,5.05,26,6.1,26.9.8.69,8-.27,9.91.09.83-.83-4.02-20.32-5-23-.4-1.1-.39-2.17-1.12-3.38-.56-.94-1.4-1.12-1.88-1.62-.31-.32-.66-.77-1-1-3.2-2.13-5.78-2.23-8.99-4l1.99,6ZM38.47,561.75c-3.63.16-22.36,5.55-23.79,7.24-.48.57-.07,1.39-.21,1.76-1.25,3.38-4.54,13.63-1.41,15.91,27.62,7.55,57.09,20.97,85.41,25.09,10.74,1.56,16.63.58,27.03-1.47,20.12-3.96,41.52-11.13,60.97-17.53,1.9-.47,4.09-.55,6-1,6.33-1.5,12.45-4.02,18.9-5.09,0-5.37-1.17-15.18-5.99-18.33-2.7-1.76-24.72-8.63-25.91-7.58,4.28,11.54-5.31,12.05-13,15.99-11.4.4-22.86,4.58-34,6-2.27.29-6.2.88-8,1-8.24.56-19.72.49-28,0-16.7-.99-33.64-4.81-50-9,1.49-2.92-2.42-3.99-2.67-7.63-.15-2.13,1.28-4.94.67-7.37-.47-.53-4.86,1.53-5.99,2ZM724.47,566.75c-1.63.64-3.75.3-5.97,1.58-2.59,1.49-.96,2.28-1.03,2.42-2.71,4.95-3.8,9.13-3.92,14.91,21.94,6.73,43.71,14.73,65.92,20.59,7.31,1.93,15.61,4.4,23,5.5s10.87.96,18,0c14.59-1.96,32.57-7.11,47-11,15.68-4.23,31.19-9.82,46.86-14.14,1.14-1.79-2.8-16.51-4.56-17.93-1.38-1.11-25.31-8.9-26.3-7.94.27,8.77,1.01,10.34-7.02,13.49-9.34,3.66-33.82,8.56-43.98,9.51-1.31.12-2.68-.07-4,0-8.73.49-20.3.54-29,0-14.88-.92-29.59-4.58-44-8l-6.83-5.7.83-10.29c-1.07-1.08-19.45,4.2-22.34,5.2-1.31.45-2.14,1.59-2.66,1.8Z"/>
  <path class="st0" d="M694.47,138.75H238.47h456Z"/>
  <path class="st3" d="M352.47,439.75c-1.04,1.66-3.8,1-5.49,1.02-14.83.16-29.69-.06-44.51-.02,1.04-1.66,3.79-1,5.49-1.02,14.83-.16,29.7.02,44.51.02Z"/>
  <path class="st3" d="M461.47,438.75c-1.04,1.66-3.79,1-5.49,1.02-13.83.17-27.7-.02-41.51-.02,1.04-1.66,3.79-1,5.49-1.02,13.83-.17,27.7.02,41.51.02Z"/>
  <path class="st3" d="M564.47,438.75c-7.32.07-14.68-.05-22,0,6.45-1.67,15.55-1.67,22,0Z"/>
  <path class="st4" d="M726.47,154.75c-.13,1.8-.91,3.12-2,4.5-14.5,18.42-34.2,34.69-49,53.5-2.69,1.26-4.12,4.11-6,6-.33.33-.67.66-1,1-1.62,1.66-3.35,3.33-5,5-.33.34-.67.66-1,1s-.67.66-1,1c-.99,1-2,1.99-3,3-.66.67-1.34,1.33-2,2s-1.33,1.33-2,2-1.33,1.33-2,2c-.33.33-.67.67-1,1-2.33,2.33-4.64,4.68-7,7-.66.65-1.34,1.38-2,2-1.98,1.87-3.16,2.61-5,5-.28.36-.72.63-1,1-1.06.14-2.1.4-3,1-1.04-1.66-3.79-1-5.49-1.02-28.88-.3-57.84.79-86.51,1.02.19-.61.98-1.5,1-2,3.35-1.93,5.4-5.36,8-8,.33-.34.67-.66,1-1,6.72-7,13.37-14,20-21,.32-.34.67-.66,1-1,1.92-2.02,4.04-3.92,6-6,.32-.34.68-.66,1-1,3.38-3.6,6.84-7.21,10-11,14.32-13.62,30.55-30.13,43.51-44.99,2.02-2.31,4.11-5.26,5.49-8.01,23.62.07,53.76-2.28,76.49.01,7.87.79,7.07,3.48,11.51,5.99Z"/>
  <path class="st4" d="M548.47,148.75c-.64,2.47-2.83,5.11-4.49,7.01-13.81,15.81-43.51,45.99-43.51,45.99,0,0-5.43,5.3-8,8-.95,1-2.01,1.98-3,3-.33.34-.67.66-1,1s-.67.66-1,1c-2.3,2.37-4.68,4.67-7,7-.33.33-.67.67-1,1s-.67.67-1,1-.67.67-1,1c-1.33,1.34-2.66,2.67-4,4-.33.33-.67.67-1,1-2,1.98-4,4.04-6,6-.34.33-.66.67-1,1s-.66.67-1,1-.66.67-1,1c-1.7,1.65-3.28,3.37-5,5-.34.32-.66.68-1,1-1.94,1.81-4.4,4.67-6,6-.51.42-2.75.14-3,2-.33,0-.67,0-1,0-11.49.02-87.14-1.42-91,1v-1c2.12-.49,7.13-7.12,9-9,3.6-2.02,6.99-6.09,10-9,2.39-2.32,4.65-4.69,7-7l1-1c.68-.67,1.33-1.34,2-2,2.02-1.99,4-4.02,6-6,.34-.33.67-.67,1-1,3.33-3.29,7.4-5.97,10-10,1.51-1.37,2.91-1.78,4-4l1-1,50.02-52.48c13.83-1.25-1.77-1.6,12.08-1.9,1.81-.04,32.72.39,32.9.38,15.3-.3,30.69.11,46,0Z"/>
  <path class="st4" d="M254.47,149.75c39.31-.35,78.69.25,118,.01-2.68,2.76-4.66,6-7,8.99-2.67,1.32-4.09,3.96-6,6-.6.64-1.35,1.34-2,2l-2,2c-.33.34-.66.67-1,1l-1,1c-.35.32-.66.69-1,1-.98.89-2.53,1.32-3,3-2.46,1.81-3.17,3.2-5,5l-3,3c-.34.33-.66.67-1,1l-3,3c-.33.33-.67.66-1,1l-3,3c-.33.34-.67.66-1,1-1.74,1.76-3.19,2.96-5,5-.31.35-.69.64-1,1l-2,2c-.47.39-.61.52-1,1l-2,2c-.35.32-.66.69-1,1l-3,3c-.35.32-.66.69-1,1-1.19,1.08-2.07,2.15-3,3-.35.32-.66.68-1,1-10.56,9.81-20.38,20.28-31,30-1.1,1-2.21,2.31-3,3-1.96,1.7-6.67,3.38-8,7v1c-1,0-2,0-3,0-5.37.01-11.07-.05-16.46-.04-24.51.05-49.04.05-73.54.04,1.77-3.88,5.21-5.93,8-9,.31-.35.67-.67,1-1s.69-.65,1-1c22.13-16.45,49.46-44.72,70.01-64.49,8.83-8.49,17.19-17.49,25.98-26.02l-46,.5c.24-.41-.65-1.76.59-2.05,3.27-.76,12.24.09,16.41.05Z"/>
  <path class="st1" d="M638.47,148.75c-1.38,2.75-3.47,5.7-5.49,8.01-12.96,14.85-29.2,31.37-43.51,44.99-3.54,3.37-8.1,6.26-10,11-.32.34-.68.66-1,1l-6,6c-.33.34-.68.66-1,1-7.49,6.24-14.23,13.12-20,21-.33.34-.67.66-1,1l-8.91,7.18c-.01.51.92.71.91.82-.02.5-.81,1.39-1,2-.33,0-.67,0-1,0-30.64.24-61.35-.07-92,0,.25-1.86,15.66-14.67,16-15l1-1c.34-.33,1-1,1-1l6-6,1-1,4-4s.67-.67,1-1l1-1c.33-.33,1-1,1-1l7-7s.67-.66,1-1l1-1c.99-1.02,3-3,3-3l8-8s29.71-30.18,43.51-45.99c1.66-1.9,3.85-4.54,4.49-7.01,29.97-.21,60.02-.08,90,0Z"/>
  <path class="st1" d="M502.47,148.75c-.18,0-27.69-.04-29.5,0-13.85.3-1.65.26-15.48,1.52l-50.02,52.48-.98-1.02c-.17.62.17,1.63-.02,2.02-1.09,2.22-2.49,2.63-4,4-.48.43-1.87.51-2.67,1.3-2.28,2.24-4.87,6.28-7.33,8.7-.33.33-.66.67-1,1l-6,6c-.67.66-1.32,1.33-2,2-.34.33-.66.67-1,1-2.35,2.31-4.61,4.68-7,7-4.36,1.93-6.84,5.82-10,9-1.87,1.88-6.88,8.51-9,9-28.65.04-57.35-.06-86,0v-1c3.57.21,7.18-3.8,8-7,.79-.69,1.9-2,3-3,1.96.02,2.78-1.35,4.02-2.48,9.43-8.67,18.94-17.57,26.98-27.52.34-.32.65-.68,1-1,2.2.42,2.34-1.28,3-3,.34-.31.65-.68,1-1,1.15-1.05,2.08-2.15,3-3,.34-.31.65-.68,1-1,1.15-1.05.43-.06,2-2,.39-.48.53-.61,1-1,.19-.15,1.36.32,1.84-.16s.01-1.66.16-1.84c.31-.36.69-.65,1-1,2.85-.08,4.03-2.69,5-5,.33-.34.67-.66,1-1,.98-1,2-2,3-3,.33-.34.67-.67,1-1,.99-.99,2.01-2.04,3-3,.34-.33.66-.67,1-1,1.01-.99,2-2.02,3-3,1.83-1.8,2.54-3.19,5-5,1.26-.92,3.55-.42,3-3,.34-.31.65-.68,1-1s.66-.67,1-1,.67-.66,1-1c.66-.67,1.33-1.31,2-2s1.4-1.36,2-2c2.29-.02,4.4-3.96,6-6,2.34-2.99,4.32-6.23,7-8.99-39.31.24-78.69-.36-118-.01l248-1Z"/>
  <path class="st1" d="M798.47,153.75c2.35-1.12,3.31-2.92,3.7-3.02,2.18-.55,19.54-.03,20.29,1.03-.43,2.75-4.67,6.69-7,7.99-.05.03-.43-.96-.83-.91-1.17,4.46-7.5,4.95-8.17,9.91-2.66,2.7-5.33,5.33-8,8-5.5,1.87-8.3,8-12,12-.67.66-1.32,1.33-2,2-2.13-.24-2.24-.13-2,2-.34.33-.66.67-1,1-6.82,3.71-11.6,10.56-17,16-2.54,2.56-6.04,6.02-9,9-3.63,3.65-7.34,7.38-11,11-.66.66-1.34,1.34-2,2l-2,2c-.66.68-1.35,1.33-2,2l-1,1c-.68.69-1.31,1.32-2,2l-1,1c-.34.33-.66.67-1,1-3.3.94-4.94,3.63-7,6-1.38,1.58-2.75,3.31-4,5-.33,0-.67,0-1,0-28.32.06-56.68-.04-85,0,.28-.37.72-.64,1-1,2.54.43,3.25-3.36,5-5,.66-.62,1.34-1.35,2-2,3.66-.41,5.09-4.35,7-7,.33-.33.67-.67,1-1,2.13.24,2.24.13,2-2,.67-.67,1.34-1.33,2-2l2-2c1-1.01,2.01-2,3-3l1-1c.33-.34.67-.66,1-1,2.54.43,3.25-3.36,5-5,.33-.34.67-.67,1-1,3.08-.68,4.18-3.68,6-6,14.8-18.82,34.5-35.08,49-53.5,1.09-1.38,1.86-2.7,2-4.5,3.49,1.97,10.2.73,14.49,1.01,17.39,1.12,36.57,1.98,53.98-.06,1.56-.18,2.38-1.4,3.53-1.95Z"/>
  <path class="st1" d="M237.47,151.75l46-.5c-8.79,8.53-17.15,17.53-25.98,26.02-20.55,19.77-47.89,48.04-70.01,64.49-.38.28-.68.66-1,1-.33.33-.69.65-1,1-3.63,2.07-8.39,5.16-10,9-.63.11-1.48-.16-2,0h-37c-.15-.57.16-1.43,0-2l-4.88-23.62-.9-19.18c11.27-9.21,21.19-20.53,31.77-30.72,6.56-6.32,14.52-11.8,20.01-19.49,13.09.08,35.54,1.83,47.44-.06,3.11-.49,6.03-3.29,7.56-5.94Z"/>
  <path class="st4" d="M358.47,352.75c2,0,4,0,6,0,.67,0,1.33,0,2,0,15.63.07,31.72.88,47,1-2.71.16-4.78,4.93-7,7-19.57,18.28-38.93,38.14-59,56-.45.4-2.74.88-4,2h-86c.36,1.23.77,6.74,1,7.01.29.34,5.12-3.36,3.99,5h62.5s8.5-3,8.5-3c-1.43,1.2-3.13,2.25-4,4-24.02.14-48,.8-72.01,1.01.1-5.41-.91-10.76-1.99-16.01l63.99-61.99-72.99-2.01c36.25-1.68,75.45-.16,112,0ZM259.97,426.75v1c.65-.33.65-.67,0-1ZM259.97,429.75v1c.65-.33.65-.67,0-1Z"/>
  <path class="st4" d="M592.47,351.75c-4.33,1.4-7.46,4.24-10,8h82c.22,1.76-2.26.95-3.49,1-24.66,1.02-50.22-.32-75.02-.02-1.69.02-4.45-.64-5.49,1.02-20.05,17.46-38.7,36.67-58,55-.66.34-1.35.63-2,1h-82c19.09-18.91,39.53-36.49,58-56,3.08-3.25,4.81-3.27,7-8,.26-.57,1.03-1.13,1-2,29.32-.09,58.69.19,88,0Z"/>
  <path class="st4" d="M818.47,149.75c5.27.99,9.73,1.72,11.75,7.75,2.72,19.32,3.12,38.86,4.25,58.25-.71,2.79-5.41,5.67-8,8-9.96,8.97-19.43,18.62-29,28-.67,0-1.33,0-2,0-24.32-.05-48.68-.05-73,0,1.25-1.69,2.62-3.42,4-5,2.19-.4,4.98-4.04,7-6,.34-.33.66-.67,1-1s.66-.67,1-1c.69-.68,1.32-1.31,2-2,.33-.34.67-.66,1-1,.65-.67,1.34-1.32,2-2s1.34-1.34,2-2,1.34-1.34,2-2l11-11c2.96-2.98,6.46-6.44,9-9,5.92-4.67,11.58-10.64,17-16,.34-.33.66-.67,1-1,.67-.66,1.33-1.35,2-2s1.33-1.34,2-2c4.02-3.98,8.03-8.02,12-12,2.67-2.67,5.34-5.3,8-8,2.99-3.03,6.18-5.83,9-9,2.33-1.3,6.56-5.24,7-7.99-.75-1.06-18.11-1.58-20.29-1.03-.4.1-1.35,1.9-3.7,3.02,1.52-1.01,1.31-4.54,3-5,4.86,2.26,11.57.43,17,1Z"/>
  <path class="st4" d="M677.47,350.75c-.56,3.23,1.63,1.71,3.5,1.95,3.63.45,6.17-.04,8.9.07.63.03.56,1.68,1.36,1.91,9.33,2.7,12.95,1.55,12.11,13.44-.64,9.01-5.85,40.99-8.87,48.63-28.98.05-58.02-.07-87,0,19.03-18.28,39.16-35.52,57-55,3.27-3.57,6.7-6.07,9-11,1.33,0,2.67.01,4,0Z"/>
  <path class="st3" d="M201.47,505.75c.15.06.22,1.59,2.49,1.98,11.36,1.99,55.43-1.74,65.3-5.89,2.76-1.16,10.67-.73,13.52.09,5.7,1.65,3.54,20.34,8.69,23.81.66,4.55,2.58,8-3.56,8.94-23.65.54-48.55,6.19-71.94,7.05-5.12.19-9.5-.48-14.49-.99l-2.04-26.96-33.84-7.16-2.14-9.36c.06-1.09,3.19-.43,4.25-.25,7.48,1.23,26.82,6.15,33.76,8.74Z"/>
  <path class="st4" d="M237.47,374.75c-3.28.15-6.25,2.1-9,3-11.17,3.67-20.28,7.15-31,12-3.03,1.37-5.21,2.63-8,4-3.18-17.41-6.25-34.79-9.25-52.25-.49-2.88-2.6-7.92-2.75-10.75-.03-.51.86-1.35,1-2,3.07.61,5.11-2.17,7-3,10.42-4.58,23.3-9.7,34-13,1.44-.44,4.31.53,6-1,3.91,20.99,8.05,42.01,12,63Z"/>
  <path class="st5" d="M155.47,511.75c-5.14,4.05.22,2.08,1.05,3.63,3.21,17.1,9.73,33.52,12.02,50.76-.26.95-16.45,4.68-18.9,5.32-1.74.45-3.76-.61-3.17,2.28-24.39,4.78-49.55,4.97-74,0h13.99s-1.99-1.99-1.99-1.99h15s.99-53.01.99-53.01c15.3,1.53,23.24.15,38-2,1.13,15.89,2.88,32.15,5.93,47.59,1.46,1.06,12.47-1.25,12.95-3.16l-10.05-45.29c-.91-.41-1.89-.1-2.83-.14l11-4Z"/>
  <path class="st5" d="M858.47,513.75c2.72,1.18-.99.83-1.05,1.51-.26,2.78,2.56,3.92,3.57,6.47s2.62,9.1,3.39,11.8c1.31,4.58,7.62,29.03,7.11,31.72-.28,1.46-.47,1.62-1.69,2.35-2.35,1.41-15.1,4.04-18.99,5.06-1.76.46-3.96-1.07-3.35,2.1-23.41,4.08-47.73,3.91-71-1l7.51-.02-.52-2.97,19.99.98,3.01-51.99c10.87,1,25.22-.07,36-2l5.03,46.97c1.02.98,10.88-2,12.99-2.49l-11.01-45.49c1.67-.38,6.18-2.22,9-3Z"/>
  <path class="st4" d="M807.47,315.75c3.94,19.25,8.07,38.77,12,58-2.08,1.74-5.51,1.32-8,2-12.05,3.26-21.12,9.26-32,14-2.3,1-5.21,1.73-8,3l-12-55c.34-.19.64-1.79,1-2,1.05-.61,2.73-1.33,4-2,10.34-5.42,25.04-11.97,36-16,2.21-.81,4.73-1.33,7-2Z"/>
  <path class="st0" d="M722.47,305.75c-2.12-10.54-4.01-21.18-5-32h83.01c.36.36-.29,5.51,0,7h-7c-11.14,0-24.13-.87-35,0-3.27.26-7.03.1-7.09,4.48,3.28,16.78,4.42,34.07,9.09,50.52-.36.21-.66,1.81-1,2-3.24,1.79-5.97,2.1-8.23,5.25l-19.77,8.75c-.67-3.26-2.24-7.32-3-11,1.87-.97.81-3.5.55-5.04-1.72-10.12-4.57-20.1-6.55-29.96Z"/>
  <path class="st1" d="M175.47,108.75c-18.27-5.84-31.86-25.3-33-44-.95-15.61,1.2-28.78,11.49-41.01l13.5-10.98c-7.7,1.39-14.02,6-20.73,9.65l-10.27,10.34C153.19,3.4,201.87.56,223.98,26.74c30.14,35.69.81,97.77-48.51,82.01ZM150.47,56.75c-1.17,26.76,17.16,46.43,44.53,44.04,29.93-2.62,40.52-42.86,24.47-65.04-22.79-31.5-67.35-16.79-69,21Z"/>
  <path class="st1" d="M750.47,108.75c-6.99-3.73-19.37-6.67-24.55-12.95-6.85-8.29-12.96-22.25-13.45-33.05-.69-15.37,4.68-32.82,16.47-43.03l9.52-6.96c-1.74-.28-3.12.21-4.72.77-7.82,2.76-16.79,8.65-22.27,14.73-2.76,3.06-4.02,7.13-6.01,7.49,10.19-21.12,38.01-30.78,60.2-25.7,36.77,8.42,52.4,55,28.78,84.18-12.89,15.93-24.99,14.73-43.98,14.52ZM778.47,26.75c-.44-.39-.43-2.06-1.71-3.04-1.1-.85-5.93-2.81-7.49-3.26-37.25-10.66-61.38,33.12-40.8,62.3,29.17,41.35,84.14,5.2,63.71-41.26-.66-1.5-.15-3.27-2.71-2.74-.69-1.31-1.32-1.95-2-3-.05-3.33-5.65-9.01-9-9Z"/>
  <path class="st1" d="M246.47,352.75l72.99,2.01-63.99,61.99c-4.37-21.1-9.34-42.19-13.01-63.49-.05-.95,2.99-.47,4.01-.51Z"/>
  <path class="st4" d="M248.47,434.75c3.69,19.3,8.65,38.5,11.52,57.97-1.81,2.78-5.05,3.45-8.13,3.91-7.73,1.15-18.9,1.79-26.85,2.15-5.15.23-10.39-.25-15.54-.04,8.5.07,26.23-1.92,35.49-3.01,1.87-.22,13.04-1.5,13.52-1.99,1.93-1.98-3.1-4.65-1.5-6.97-2.57,1.42-6.23,2.5-9.12,2.87-7.6.97-19.27,1.89-26.9,2.09-3.17.09-11.26.5-13.5-1.48-1.57-1.39-6.12-31.73-6.99-36.51-.06-.32.06-.68,0-1,3.01-.41,5.76-3.02,8-4,10.25-4.49,21.26-8.77,32-12,2.63-.79,5.17-1.96,8-2Z"/>
  <path class="st0" d="M148.47,372.75c2.46,17.63,6.42,35.37,9,53-4.47,1.04-9.63-.79-14-2-.47-1.09-4.49-5.34-5.05-7.45-10.07-6.83-22.77-5.96-34.49-5.59-5.49.17-11.04,4.38-10.36-4.32,1-12.77,5.69-28.66,7.9-41.64,14.83,7.98,30.42,9.73,47,8Z"/>
  <path class="st4" d="M145.47,468.75c3.75,13.84,7.36,27.98,11,42-.37.28-.64.72-1,1l-11,4c-2.85-.12-3.94.7-6,1-14.76,2.15-22.7,3.53-38,2-6.78-.68-9.67-1.54-16-3l15.99,2c1.23-13.16.42-26.38,1-39.55.06-1.47.98-2.88,1.01-3.45,12.77.89,17.98-.34,30-3,1.74-.38,2.84-.4,5-1s4.84-.57,7-2h1Z"/>
  <path class="st0" d="M72.47,512.75c4.04,1.24,7.89,2.05,12,3,6.33,1.46,9.22,2.32,16,3l-.99,53.01h-15s1.99,1.98,1.99,1.98h-13.99c-3.55-.71-15.78-3.44-17.47-6.06-.68-1.05-.37-2.73-.53-2.93l12-54c1.88,1.05,3.98,1.38,6,2Z"/>
  <path class="st4" d="M850.47,470.75c3.53,13.93,6.58,28.05,10,42-.8-.05-1.55.87-2,1-2.82.78-7.33,2.62-9,3s-4.71.59-7,1c-10.78,1.93-25.13,3-36,2-4.85-.45-12.16-2.57-17-4l1.99-3.99c-.24,6.33,10.53,4.68,15.01,6,1.36-13.64-.1-27.62,3-41,11.49.85,17.53-.63,28-3,4.11-.93,8.81-.69,13-3Z"/>
  <path class="st0" d="M120.47,217.75c.08.99-1.03,2.56-1,3-9.19,7.03-17.64,15.2-27,22,.44-27.44,1.47-54.98,3.19-82.31,1.63-5.59,14.12-5.27,14.72-5.83.22-.21.63-3.94,3.09-4.86.33,0,.67,0,1,0,.6,8.51,2.27,17.01,2.99,25.51,1.19,14.1,1.92,28.34,3.01,42.49Z"/>
  <path class="st0" d="M155.47,340.75c-1.28-9.14-3.61-18.43-4.86-27.64-1.67-12.39-3.27-24.88-4.15-37.36l73.01-1c.35.36-.29,4.68,0,6.01-2.19,1.39-4.19.06-6,0-10.03-.35-24.29-.94-34,0-6.55.63-6.04,3.47-7.07,9.49l6.07,38.51c-.14.65-1.03,1.49-1,2-7.81,1.48-14.12,8.07-22,10Z"/>
  <path class="st3" d="M143.47,334.75c1.54,12.59,3.25,25.49,5,38-16.58,1.73-32.17-.02-47-8,2.33-13.67,4.6-27.36,7-41,11.15,5.06,22.65,9.92,35,11Z"/>
  <path class="st3" d="M759.47,337.75l12,55c-9.71,4.42-20.05,7.91-29,14-3.89-18.63-7.44-37.76-11-55l19.77-8.75c2.27-3.15,4.99-3.47,8.23-5.25Z"/>
  <path class="st3" d="M716.47,446.75c-.75,7.97-.31,16.29-3.13,23.88-12.65.42-26.8,3.38-39.36,2.11-8.87-.89-18.77-6-27.51-8.02,1.49-7.4,2.98-14.68,5-21.97,21.33,2.63,43.65,6.68,65,4Z"/>
  <path class="st3" d="M177.47,330.75c.16,2.82,2.26,7.86,2.75,10.75,3,17.46,6.07,34.85,9.25,52.25-9.11,4.48-14.49,7.77-23,13-.32.2-1.42-.13-2,0-3.3-22.01-5.92-44.1-9-66,7.88-1.93,14.19-8.52,22-10Z"/>
  <path class="st0" d="M716.47,327.75l-39-6c.24-1.58-.16-3.5.13-5.34,2.2-13.94,4.97-27.8,7.31-41.72,1.29-1.91,21.01-.85,24.62-.5,1.79,1.25.68,8.41.95,11.05,1.43,14.18,4.34,28.38,5.99,42.51Z"/>
  <path class="st0" d="M108.47,323.75c2.86-16.28,5.13-32.72,8-49h22c.33,20.12,2.56,40.07,5,60-12.35-1.08-23.85-5.94-35-11Z"/>
  <path class="st5" d="M156.47,156.75c8.49.1,17.32.95,26,1-5.49,7.69-13.45,13.17-20.01,19.49-10.59,10.19-20.5,21.51-31.77,30.72l.9,19.18,4.88,23.62c-4.37-15.94-6.83-24.89-8-42s-.09-34.2-2-51c10.02-.9,19.93-1.12,30-1Z"/>
  <path class="st0" d="M721.47,570.75c4.05,3.08,9.4,3.52,14,5,.49.16,1.15.73,2,1,18.17,5.7,36.52,10.44,55,15,4.42,1.09,8.98,3.85,14,3-1.72,5.54-1.17,11.89-4,17-7.39-1.1-15.69-3.57-23-5.5-22.21-5.86-43.98-13.86-65.92-20.59.12-5.78,1.2-9.96,3.92-14.91,1.32-.1,2.69.14,4,0Z"/>
  <path class="st0" d="M19.47,571.75c8.04,2.16,15.83,5.27,24,7-.05.48.03.79.51.99.4.19,1.03-.13,1.49,0,1.62.5,3.29.9,5,1-.05.48.03.79.52.99.39.2,1.04-.15,1.48.01,13.77,5.07,31.52,9.46,46,12,.49.09,1.77,1.49,3,1-1.39,5.56-1.66,11.43-3,17-28.31-4.12-57.78-17.54-85.41-25.09-3.14-2.29.16-12.53,1.41-15.91,1.95-.45,3.4.57,5,1Z"/>
  <path class="st0" d="M771.47,392.75c.5,11.74,6.82,24.45,7,36,.1,6.23-1.79,10.33-3,16l-23,8c-3.28-15.32-6.79-30.63-10-46,8.95-6.09,19.29-9.58,29-14Z"/>
  <path class="st5" d="M820.47,611.75c-.84-1.99-5.54-.54-6.01-1-.84-.82,2.05-12.55,1-15.01,32.23-4.52,63.57-14.92,94.98-22.98l3.03,12.98c-14.96,3.93-29.91,8.15-44.63,12.9-1.93.62-3.38-.95-1.37,2.11-14.43,3.89-32.41,9.04-47,11Z"/>
  <path class="st5" d="M129.47,421.75c-.05,1.11-.91,3.12-1,4-.02.31,2.47,35.31,4,46-12.02,2.66-17.23,3.89-30,3,.49-12.82.88-25.69,1.07-38.54.16-1.36-.27-1.35-1.27-1.78-1.32-.56-16.05-4.17-16.75-3.67-2.46,12.13-5.86,24.04-9.04,35.98,1.99-9.09,6.2-39.83,12.47-45.03,6.94-5.75,28.47-5.65,36.77-2.71,2.67.95,2.41,1.74,3.75,2.74ZM121.43,422.81c-1.43-2.31-20.31-.94-23.95.5-3.38,1.33-2.71,3.34.23,4.69,2.62,1.2,22.94-1.37,23.76-2.25.1-.11.12-2.67-.05-2.93Z"/>
  <path class="st3" d="M169.47,116.75c8.21.38,53.35-1.25,56.41.91,1.22.86-.47,3.86,2.59,3.09.67,5.03.65,19.45.05,24.55-.12,1.01-.46,3.45-1.55,3.45h-59c-.11,0-1.5-1.39-1.5-1.5v-27c0-.5,1.58-2.1,1-3.5h-19.5c-.26,0-4.45,2.28-4.54,2.67-1.4,6.12-.42,13.15.05,19.31,5.66.32,11.69,1.57,16.99,3.52.71.26,3.06.48,1.48,1.5-3.96-1.04-19.31-3.23-21-6-.75-1.24-.91-18.61-.33-20.35,1.43-4.27,20.57-2.58,25.17-2.32.92.05,2.13,1.58,3.67,1.65ZM181.47,117.75v1h34v-1h-34ZM193.2,123.98c-11.45,2.37-9.77,19.08.04,22.49,5.01,1.74,13.1,1.49,16.08-3.38,7.16-11.69-4.48-21.52-16.12-19.11Z"/>
  <path class="st5" d="M186.47,592.75c-19.62,4.86-40.29,11.91-59.77,15.73-4.29.84-10.5,2-14.73,2.29-2.09.14-1.28-.02-1.51-1.49-.67-4.42,1.72-9,1.01-13.53,32.24-4.83,63.92-15.11,95.04-23.59,1.37.96,3.86,12.33,2.87,13.5-.47.55-11.47,2.76-13.94,3.6-1.61.55-3.54-.18-2.96,2.49-1.91.45-4.1.53-6,1Z"/>
  <path class="st3" d="M728.47,390.75c-.38.23-.69.86-1,1-5.62,2.55-10.21,8.61-14.99,12.51-5.08,4.15-11.2,7.22-15.34,12.21l-2.67.28c-1.85,4.67-6.09,6.9-9,11-3.56.04-8.59.94-13,1-1.04-1.66-3.79-1-5.49-1.02-14.12-.18-28.99-.45-43.06.02-1.93.06-4.01-1.02-3.45,2-8.65.12-17.35-.1-26,0l12-13c.33,0,.67,0,1,0,28.98-.07,58.02.05,87,0,3.02-7.64,8.23-39.62,8.87-48.63.84-11.89-2.78-10.75-12.11-13.44-.8-.23-.73-1.88-1.36-1.91-2.73-.12-5.27.38-8.9-.07-1.87-.23-4.06,1.28-3.5-1.95,9.81-.08,34.6-3.59,41.53,1.97,2.77,2.22,3.21,5.69,4.02,8.98,2.31,9.28,3.51,19.7,5.45,29.05Z"/>
  <path class="st5" d="M805.47,418.75c4.16,2.58,22.25-.47,24.87,2.19.91.92-.37-.86,3.96-.36,1.81.21,3.35,1.46,3.96,3.18,9.22,25.85-.8,50-.8,50-10.47,2.37-16.51,3.85-28,3-.24-.02-.72-.97-1-1l2-42c-6.81.54-14.28-1.35-20-5,3.51-7.54,6.17-9.12,15-10ZM830.47,427.74c-2.11-6.01-27.67-3.81-28.99-1.98-3.57,4.97,17.76,4.14,19.49,3.98,3.25-.3,6.23-1.86,9.51-2Z"/>
  <path class="st3" d="M200.47,453.75c.87,4.78,5.42,35.12,6.99,36.51,2.24,1.98,10.33,1.56,13.5,1.48,7.63-.21,19.31-1.12,26.9-2.09,2.89-.37,6.55-1.45,9.12-2.87-1.61,2.33,3.43,4.99,1.5,6.97-.48.49-11.65,1.77-13.52,1.99-9.26,1.09-26.99,3.08-35.49,3.01-9.44-.08-21.44-5.39-31.05-6.45-3.19-8.2-2.96-17.1-3.95-25.55-.04-.33.04-.67,0-1l26-12Z"/>
  <path class="st0" d="M347.47,416.75c.48,1.31,1.9.95,3,1,27.72,1.18,57.09,0,85,0,.67,0,1.33,0,2,0-3.39,4.88-7.87,7.34-12,11-.64.57-2.03.82-2,1.99,2.99.04,6.01-.02,9,0-1.04,1.66-3.79,1-5.49,1.02-32.49.4-65.03-.21-97.51-.02.87-1.75,2.57-2.8,4-4,3.48-2.93,6.63-6.03,10-9,1.26-1.12,3.55-1.6,4-2Z"/>
  <path class="st3" d="M733.47,118.75c2.64,1.78,52.46-1.36,60.01,0-1.31,6.76,1.74,21.32,0,27.01-.57,1.86-3.79,1.91-5.46,2.05-13.43,1.15-36.52.95-50.09,0-1.69-.12-3.3-.32-4.87-.93-1.15-.82-1.03-24.82.42-28.11ZM760.2,122.98c-9.23,1.91-12.39,15.47-4.75,19.29,9.64,4.82,22.5,1.91,21.05-11.04-.9-8.1-9.35-9.69-16.3-8.25Z"/>
  <path class="st3" d="M633.47,252.75c-3.63,2.41-7.55,7.98-11,11-31.23.86-62.61.88-94,1l12-12c.33,0,.67,0,1,0,28.67-.23,57.64-1.32,86.51-1.02,1.69.02,4.45-.64,5.49,1.02Z"/>
  <path class="st1" d="M166.47,576.75c7.69-3.94,17.29-4.45,13-15.99,1.19-1.05,23.21,5.82,25.91,7.58,4.82,3.14,6,12.96,5.99,18.33-6.45,1.06-12.57,3.59-18.9,5.09-.58-2.67,1.35-1.94,2.96-2.49,2.48-.84,13.48-3.05,13.94-3.6,1-1.17-1.5-12.55-2.87-13.5-31.13,8.47-62.8,18.76-95.04,23.59.72,4.53-1.67,9.11-1.01,13.53.22,1.47-.58,1.63,1.51,1.49,4.23-.29,10.44-1.45,14.73-2.29,19.48-3.82,40.16-10.87,59.77-15.73-19.45,6.4-40.85,13.58-60.97,17.53-10.41,2.05-16.3,3.03-27.03,1.47,1.34-5.57,1.61-11.44,3-17,.95-3.79.64-3.98,5.01-5.49,6.07-2.09,18.91-4.08,25.99-5.51,10.96-2.22,23.62-2.45,34-7ZM194.46,565.76l-12.99-3.01v7s12.99-3.99,12.99-3.99Z"/>
  <path class="st0" d="M606.47,416.75l-12,13c-29.67.35-59.32.84-89,1,.32-.34.63-.71,1-1,3.86-3.02,10.82-10.2,14-12,.65-.37,1.34-.66,2-1,27.98-.05,56.02.06,84,0Z"/>
  <path class="st1" d="M832.47,583.75c10.16-.95,34.64-5.85,43.98-9.51,8.03-3.15,7.3-4.72,7.02-13.49.98-.97,24.91,6.83,26.3,7.94,1.76,1.41,5.7,16.14,4.56,17.93-15.67,4.32-31.18,9.91-46.86,14.14-2-3.06-.56-1.49,1.37-2.11,14.72-4.75,29.68-8.96,44.63-12.9l-3.03-12.98c-31.41,8.06-62.75,18.46-94.98,22.98,1.05,2.45-1.84,14.19-1,15.01.47.46,5.16-.99,6.01,1-7.13.96-10.83,1.06-18,0,2.83-5.11,2.28-11.46,4-17,.34-1.1.93-3.55,1.65-4.08,7.68-3.96,17.23-2.59,24.35-6.92Z"/>
  <path class="st3" d="M734.46,485.75h-60s-2,25.01-2,25.01c-.38.4-10.53-1.68-10.89-2.1-1.02-1.19,2.22-20.38.85-23.86-5.7,1.08-30.7-9.63-33.37-8.96-2.15.54-5.66,17.77-5.59,20.92-7.96.6-4.43-6.61-3.31-11.82,1.83-8.55,2.36-15.03,12.87-15.22,7.8-.14,25.84,8.21,35.21,9.78,16.12,2.7,35.47.86,51.01-1.48,7.42-1.12,15.33-2.56,15.23,7.73Z"/>
  <path class="st3" d="M136.47,253.75c.9,3.69,1.6,7.45,3,11-18.05-.27-45.94,3.99-48-21,.37-.27.64-.74,1-1,9.36-6.8,17.81-14.97,27-22,.2,2.75,1.72,7.36,1.99,10.51,1.11,13.02-2.29,21.3,15.01,22.49Z"/>
  <path class="st0" d="M790.47,428.75c5.72,3.64,13.19,5.53,20,5l-2,42c-.65-.06-1.35.08-2,0-3.64-.47-7.28-1.27-11-1-4.03-1.72-7.83-3.53-12-5-.98-.35-2.1-.37-3-1,3.01-13.08,4.3-27.75,10-40Z"/>
  <path class="st0" d="M540.47,252.75l-12,12c-3.33.01-6.67-.01-10,0l-.5-.98-.5.98c-1,0-2,0-3,0l-.5-.98-.5.98c-2,0-4,0-6,0h-69c-1,0-2,0-3,0l1-2c4.16-1.46,8.16-6.67,11-10,.33,0,.67,0,1,0,30.65-.07,61.36.24,92,0Z"/>
  <path class="st3" d="M267.47,252.75c-1.54,5.03-6.82,7.15-10,11-.2.24-.98.33-1,1-.33,0-.67,0-1,0-1.04-1.66-3.79-1-5.49-1.02-27.71-.34-56.12-.91-83.51-.98l9-9,2-1c24.5,0,49.03.01,73.54-.04,5.39-.01,11.09.05,16.46.04Z"/>
  <path class="st0" d="M636.47,251.75c28.32-.04,56.68.06,85,0l-10,11c-.33,0-.67,0-1,0-28.71.13-57.54.19-86,1-.67.02-1.33-.02-2,0,3.45-3.02,7.37-8.59,11-11,.9-.6,1.94-.86,3-1Z"/>
  <path class="st0" d="M727.47,391.75l5,23h-30c-.22,1.76,2.26.95,3.49,1,9.14.38,18.37-.28,27.51,0,.57,3.37,3.34,7.54,2,12-15.56-.15-31.05.85-46.62,1.07-1.81.02-3.21-1.07-3.38-1.07,2.91-4.1,7.15-6.33,9-11l2.67-.28c4.14-4.99,10.27-8.06,15.34-12.21,4.77-3.9,9.36-9.97,14.99-12.51Z"/>
  <path class="st0" d="M76.47,466.75c3.18-11.94,6.59-23.85,9.04-35.98.7-.5,15.43,3.11,16.75,3.67,1,.43,1.44.42,1.27,1.78-.19,12.85-.57,25.71-1.07,38.54-8.52-.59-14.81-3.23-22-4l-5-2c.26-.98.91-1.67,1-2Z"/>
  <path class="st1" d="M114.47,149.75c12.42-.29,24.91.24,37.34-.04l4.66,7.04c-10.07-.11-19.99.11-30,1,1.91,16.8.85,34.12,2,51-1.57,4.26-3.52,7.33-8,9-1.09-14.15-1.82-28.39-3.01-42.49-.72-8.5-2.39-17-2.99-25.51Z"/>
  <path class="st1" d="M673.47,350.75c-2.3,4.93-5.73,7.43-9,11h-84c1.04-1.66,3.79-1,5.49-1.02,24.8-.31,50.37,1.04,75.02.02,1.23-.05,3.71.76,3.49-1h-82c2.54-3.76,5.67-6.6,10-8,26.84-.18,54.03-.8,81-1Z"/>
  <path class="st1" d="M819.47,373.75c1.26,6.19,3.43,12.52,4.69,18.81s2.88,12.72,3.31,19.19h-25.5c-2.14,0-14.9,4.51-16.76,5.97-2.91,2.3-3.92,8.41-6.74,11.03-.18-11.55-6.5-24.26-7-36,2.79-1.27,5.7-2,8-3,3.33,8.34,2.84,18.21,5.01,26.99,1.56.38.55-1.42,1.71-1.96,9.11-4.25,22.29-4.98,32.27-5.04l-7-33.99c2.49-.68,5.92-.26,8-2Z"/>
  <path class="st5" d="M136.47,32.75l10.27-10.34c6.71-3.66,13.03-8.26,20.73-9.65l-13.5,10.98c-10.29,12.23-12.44,25.4-11.49,41.01-1.84.3-12.85-.63-13.01.51s.1,2.36.02,3.49l2.98-1c.09,9.99,3.91,22.11,10.01,30-11.31-9.28-15.99-25.63-15-40l2.01,1.5c-.18-7.64,2.08-15.49,4.99-22.5.54-1.3,1.3-2.78,2-4Z"/>
  <path class="st0" d="M677.47,436.75c.13-.01.88-.87,2.39-1.06,11.48-1.4,25.8,1.17,37.61.05-.16,2.84.23,5.75.04,8.59-.09,1.31-1.02,2.22-1.04,2.42-21.35,2.68-43.67-1.37-65-4,.44-1.59-.9-3.13,1-5l22.61.06c1,.43,2.21-1.04,2.39-1.06Z"/>
  <path class="st5" d="M705.47,35.75c1.99-.36,3.25-4.43,6.01-7.49,5.48-6.08,14.45-11.98,22.27-14.73,1.6-.56,2.98-1.05,4.72-.77l-9.52,6.96c-11.79,10.21-17.17,27.66-16.47,43.03-2.18,1.67-10.69.78-12,2.01-2.35,2.2,2.77,1.9,2.89,2.05,1.26,1.53-.19,10.68.3,13.2.28,1.42,5.7,12.39,6.81,13.74-12.48-12.74-14.99-36.37-8.18-52.67.45-1.09,2.38-5.18,3.18-5.33ZM702.46,73.74v-3.99h-.98v3.99h.98Z"/>
  <path class="st0" d="M142.47,64.75c1.14,18.7,14.73,38.16,33,44-1.28.9,1.35,1.95-1.52,2.04-5.31.15-15.16-2.73-20.16-4.86-3.14-1.34-4.04-2.62-6.32-4.18l-2-1c-.36-.3-.67-.67-1-1l-1-1c-.3-.35-.71-.63-1-1-6.1-7.89-9.92-20-10.01-30l-2.98,1c.08-1.13-.17-2.39-.02-3.49s11.17-.21,13.01-.51Z"/>
  <path class="st0" d="M750.47,108.75c-13.46-.15-21.77.72-33-8,1.02.03,1.33-.2.54-1.01-1.5-1.54-4.99-3.22-6.54-4.99-.31-.35-.7-.64-1-1-1.11-1.34-6.53-12.32-6.81-13.74-.49-2.52.96-11.67-.3-13.2-.12-.15-5.24.15-2.89-2.05,1.31-1.23,9.82-.34,12-2.01.49,10.8,6.6,24.76,13.45,33.05,5.18,6.28,17.56,9.22,24.55,12.95Z"/>
  <path class="st3" d="M716.47,327.75c.42,3.61.6,7.38,1,11h-43c-.69-5.75,2.19-11.78,3-17l39,6Z"/>
  <path class="st3" d="M775.47,444.75c-1.14,5.34-8.28,41.67-10.13,42.86-1.45.93-5.96.4-6.68-1.55-3.24-8.8-4.11-23.64-6.19-33.31l23-8Z"/>
  <path class="st5" d="M724.47,566.75c.62,2.04,2.55,1.87,4.17,2.33,9,2.57,17.89,4.55,26.83,6.67,14.41,3.42,29.12,7.08,44,8-2.7,1.43,1.72,1,2.49,1,7,0,14.02.09,21.02.02,1.69-.02,4.45.64,5.49-1.02,1.32-.07,2.69.12,4,0-7.12,4.32-16.67,2.95-24.35,6.92-.72.54-1.31,2.99-1.65,4.08-5.02.85-9.58-1.91-14-3l-55-15c-.85-.27-1.51-.84-2-1,2.51-.96-1.1-1.51-1.76-1.73-4.89-1.64-7.38-3.79-12.24-3.27-1.31.14-2.68-.1-4,0,.08-.14-1.56-.93,1.03-2.42,2.22-1.28,4.34-.94,5.97-1.58Z"/>
  <path class="st1" d="M237.47,374.75c3.76,19.96,7.18,40.05,11,60-2.83.04-5.37,1.21-8,2l-12-59c2.75-.9,5.72-2.85,9-3Z"/>
  <path class="st5" d="M38.47,561.75c-5.17,2.12-9.57,3.06-14.6,4.9-1.39.51-1.7-.35-1.4,2.1,8.08,1.61,16.03,3.96,24,6.01,16.36,4.19,33.3,8.01,50,9l-.52,1h29.04l-.52-1c1.8-.12,5.73-.71,8-1v1c-7.08,1.44-19.92,3.42-25.99,5.51-4.38,1.51-4.07,1.7-5.01,5.49-1.23.49-2.51-.91-3-1l-46-12c-.44-.16-1.09.19-1.48-.01-.49-.2-.57-.51-.52-.99.02-.16.87-.54,1.01-.98-1.88.23-4.82-2.1-6.01-.02-.46-.14-1.09.18-1.49,0-.48-.2-.57-.51-.51-.99.02-.16.87-.54,1.01-.98-7.03-1.3-13.68-4-20.49-6.05-1.32-.4-3.63-1.9-4.52.03-1.6-.43-3.05-1.45-5-1,.14-.37-.28-1.18.21-1.76,1.43-1.69,20.16-7.08,23.79-7.24Z"/>
  <path class="st1" d="M835.47,424.75c1.23.93,3.28,1.52,3.98,2.78,3.68,6.62,8.64,33.83,11.02,43.22-4.19,2.31-8.89,2.07-13,3l-4-34c3.25-5.34.55-9.58,2-15Z"/>
  <path class="st3" d="M157.47,425.75c1.98,13.57,3.06,27.43,5,41v1c.09.64-.09,1.36,0,2l-5.41-.77-.59.77c-3.03-11.72-8.66-35.96-13-46,4.37,1.21,9.53,3.04,14,2Z"/>
  <path class="st0" d="M834.47,253.75c-1.38,3.47-.03,3.21-4,6l-8.59,1.91c-12.5.95-24.9.9-37.41,1.09l11-11c.67,0,1.33,0,2,0,9.71.02,22.23-1.37,31-1,1.27.05,4.36,2.6,6,3Z"/>
  <path class="st1" d="M145.47,468.75h-1l-10.99-36.99c-.2,12.86,4.78,25.26,5.98,37.98l-1.99,1.02c-2.16.6-3.26.62-5,1-4.58-8.86-2.22-22.87-5.03-31.29-.39-1.16-1.91-.63-1.97-.71-1.02-1.39,2.33-5.95,2.78-7.73.53-2.12.02-4.25.22-6.27.09-.88.95-2.89,1-4,3.12,2.3,3.51,1.66,5.3,6.2,4.88,12.42,7.18,27.79,10.7,40.8Z"/>
  <path class="st0" d="M175.47,252.75v1l-9,9c-.52,0-1.54,1-2,1-7.38-.02-14.54.1-21.93-.58-2.6-.24-2.62-1.16-1.07,1.58-.67,0-1.33,0-2,0-1.4-3.55-2.1-7.31-3-11,8.05.55,30.26,1.06,37-1,.52-.16,1.37.11,2,0Z"/>
  <path class="st3" d="M876.47,503.75c.34.23.69.68,1,1l.49,4.01-5.49.98h8c.98,2.69,5.84,22.18,5,23.01-1.91-.37-9.11.59-9.91-.09-1.05-.9-5.99-23.76-6.1-26.9-.03-1,.01-2,0-2.99l6.99.99Z"/>
  <path class="st4" d="M748.47,113.75c5.08,1.68,12.99,1.67,18,0,4.65,0,9.35-.1,14,0,1.12,1.76,4.11.86,6,1,2.37.17,6.85-.25,7.84,2.66,1.04,3.08.23,18.26.18,22.85-.02,1.69.64,4.45-1.02,5.49,1.74-5.69-1.3-20.25,0-27.01-7.54-1.35-57.37,1.79-60.01,0-1.16-.78,1.14-3.29-6-3v-1c2.33.03,4.67-.04,7,0,4.24.07,8.97-.98,12-1,.67,0,1.33,0,2,0Z"/>
  <path class="st1" d="M800.47,280.75c2.21,11.46,4.64,23.46,7,35-2.27.67-4.79,1.19-7,2l-7-37h7Z"/>
  <path class="st0" d="M724.47,566.75c.52-.2,1.35-1.34,2.66-1.8,2.89-1,21.27-6.28,22.34-5.2l-.83,10.29,6.83,5.7c-8.94-2.12-17.83-4.09-26.83-6.67-1.62-.46-3.55-.29-4.17-2.33Z"/>
  <path class="st3" d="M504.47,351.75c.03.87-.74,1.43-1,2-29.92-.19-60.03.24-90,0-15.28-.12-31.37-.93-47-1,1.04-1.66,3.79-1,5.49-1.02,44.15-.55,88.37.15,132.51.02Z"/>
  <path class="st1" d="M219.47,280.75c2.2,10.4,4.05,20.53,6,31-1.69,1.53-4.56.56-6,1-3.86-9.86-3.6-21.58-6-32,1.81.06,3.81,1.39,6,0Z"/>
  <path class="st5" d="M113.47,149.75c-2.46.92-2.87,4.65-3.09,4.86-.6.56-13.1.24-14.72,5.83-1.72,27.33-2.75,54.87-3.19,82.31-.36.26-.63.73-1,1-1.18-14.33.61-29.24,1.04-43.46.39-12.86-.88-28.23,1.2-40.8,1.86-11.25,11.14-9.49,19.76-9.74Z"/>
  <path class="st0" d="M38.47,561.75c1.14-.47,5.52-2.52,5.99-2,.61,2.43-.82,5.24-.67,7.37.26,3.64,4.17,4.71,2.67,7.63-7.98-2.04-15.92-4.39-24-6.01-.3-2.44,0-1.59,1.4-2.1,5.04-1.83,9.44-2.77,14.6-4.9Z"/>
  <path class="st5" d="M710.47,262.75v1c-.33,0-.67,0-1,0-26.35.22-53.05,1.87-79.55,1.04-1.9-.06-3.77.05-5.45-1.04,28.46-.81,57.29-.87,86-1Z"/>
  <path class="st0" d="M162.47,469.75c.41,2.87,5.23,19.79,4,21-1.4,1.37-5.53-.28-6.52-2.98-2.05-5.59-2.15-12.89-3.48-18.02l.59-.77,5.41.77Z"/>
  <path class="st4" d="M291.47,525.75c-5.15-3.47-2.99-22.16-8.69-23.81-2.85-.83-10.77-1.25-13.52-.09-9.86,4.15-53.93,7.88-65.3,5.89-2.28-.4-2.34-1.93-2.49-1.98,14.16.03,28.37.1,42.49-1.01,6.05-.47,16.37-.88,21.81-2.19,1.97-.48,3.14-2.34,5.24-2.75,18.05-3.5,18.54,12.68,20.46,25.95Z"/>
  <path class="st1" d="M860.47,512.75c4.29,17.47,9.66,34.76,13.04,52.48.01.9-.54,1.39-1.06,2.01-2.09,2.54-20.66,6.76-24.98,7.51-.6-3.17,1.59-1.63,3.35-2.1,3.89-1.02,16.64-3.65,18.99-5.06,1.22-.73,1.41-.89,1.69-2.35.51-2.7-5.81-27.15-7.11-31.72-.77-2.7-2.35-9.16-3.39-11.8s-3.83-3.7-3.57-6.47c.06-.67,3.77-.33,1.05-1.51.45-.13,1.2-1.05,2-1Z"/>
  <path class="st4" d="M228.47,120.75c-3.06.76-1.37-2.24-2.59-3.09-3.06-2.15-48.21-.53-56.41-.91,1.04-1.67,2.71-1.88,4.48-2.02,11.77-.94,34.43-1.15,46.01.04,4.64.48,7.82.8,8.51,5.99Z"/>
  <path class="st0" d="M542.47,340.75c-1.04,1.66-3.79,1-5.49,1.02-35.14.44-70.38-.02-105.51-.02,1.04-1.66,3.79-1,5.49-1.02,35.16-.37,70.36.18,105.51.02Z"/>
  <path class="st1" d="M146.47,573.75c-.6-2.89,1.43-1.83,3.17-2.28,2.45-.64,18.64-4.38,18.9-5.32-2.29-17.24-8.81-33.66-12.02-50.76-.83-1.55-6.19.42-1.05-3.63.36-.28.63-.72,1-1,4.62,17.78,10.43,35.36,14.02,53.45-.76,5.76-18.82,8.53-24.02,9.55Z"/>
  <path class="st3" d="M727.47,114.75v1c-.18,0-.8.99-1.57.96-3.32-.12-18.43-2.96-18.43,2.54v18c0,1.48-3,1.48-3,0v-22.5c6.55-.63,12.99-1.19,19.62-1.07,1.81.03,3.2,1.07,3.38,1.07ZM705.47,122.75v7.99s1,0,1,0v-7.99s-1,0-1,0Z"/>
  <path class="st5" d="M166.47,406.75c2.29,19.73,5.63,39.27,8,59,.04.33-.04.67,0,1-4.7-19.69-7-39.99-10-60,.58-.13,1.68.2,2,0Z"/>
  <path class="st4" d="M436.47,262.75l-1,2c-30.32.06-60.68.03-91,0v-1c.63-.37,1.4-.58,2-1,1.67,1.14,3.55.97,5.45,1.04,23.83.83,54.59,1.58,78.09,0,2.31-.15,4.25-.27,6.46-1.05Z"/>
  <path class="st4" d="M255.47,264.75c-30.31-.05-60.69.19-91,0v-1c.46,0,1.48-1,2-1,27.39.07,55.81.64,83.51.98,1.69.02,4.45-.64,5.49,1.02Z"/>
  <path class="st4" d="M506.47,429.75c-.37.29-.68.66-1,1-24.3.13-48.7.27-73,0-2.99-.03-6.01.03-9,0-.03-1.17,1.36-1.42,2-1.99l81,1Z"/>
  <path class="st5" d="M344.47,263.75v1c-29.32-.02-58.68.05-88,0,.02-.67.8-.76,1-1h87Z"/>
  <path class="st5" d="M54.47,564.75c-.09-.12-1.93.38-2.04-.59,4.38-17.79,8.73-35.62,13.04-53.41h1l-12,54Z"/>
  <path class="st4" d="M80.47,470.75c-.57-.06-3.78.07-4.1.55l-8.88,38.4,4.98,3.04c-2.02-.62-4.12-.95-6-2h-1c3.39-13.99,6.33-28.07,10-42l5,2Z"/>
  <path class="st5" d="M769.47,514.75c1.85.96.87,3.52.56,5.05-2.63,13.26-6.79,27.66-10.1,40.92-.21.84-.33,4.61-1.46,2.03,1.16-11.06,7.21-37.66,11-48Z"/>
  <path class="st4" d="M782.47,262.75v1c-21.31.18-42.68-.16-64,0-2.66.02-5.34-.02-8,0v-1c.33,0,.67,0,1,0,23.64-.12,47.36.32,71,0Z"/>
  <path class="st5" d="M733.47,415.75c-9.14-.28-18.37.38-27.51,0-1.23-.05-3.71.76-3.49-1h30l-5-23c.31-.14.62-.77,1-1,1.75,8.42,3.56,16.5,5,25Z"/>
  <path class="st4" d="M783.47,469.75c-2.81,2.33-3.63,8.36-4.51,11.99-1.6,6.54-5.31,19.56-5.57,25.59-.1,2.21,3.73,1.1,1.09,2.43-.67-.33-1.32-.69-2-1h-1c3.17-13.25,5.94-26.71,9-40,.9.63,2.02.65,3,1Z"/>
  <path class="st0" d="M324.47,341.75c-1.04,1.66-3.79,1-5.49,1.02-21.45.27-43.08.3-64.51-.02,1.04-1.66,3.79-1,5.49-1.02,21.49-.23,43.03.02,64.51.02Z"/>
  <path class="st5" d="M507.47,264.75c-22.98.07-46.02-.04-69,0h69Z"/>
  <path class="st3" d="M584.47,273.75c-21.64.15-44.04.93-66,1l66-1Z"/>
  <path class="st5" d="M830.47,259.75c-9.03,6.35-36.02,3.9-48,4v-1c.67,0,1.33.01,2,0,12.52-.19,24.91-.14,37.41-1.09l8.59-1.91Z"/>
  <path class="st4" d="M672.47,428.75c-17.34.25-34.74.76-52,1-.56-3.02,1.53-1.94,3.45-2,14.07-.47,28.94-.19,43.06-.02,1.69.02,4.45-.64,5.49,1.02Z"/>
  <path class="st3" d="M289.47,274.75l-60,1c.11-1.37,1.47-.92,2.44-1.04,15.97-1.99,40.54.07,57.56.04Z"/>
  <path class="st5" d="M728.47,340.75c-2.39-11.54-5.31-23.23-6-35,1.98,9.86,4.84,19.85,6.55,29.96.26,1.53,1.32,4.07-.55,5.04Z"/>
  <path class="st3" d="M166.47,576.75c-10.38,4.55-23.04,4.78-34,7v-1c11.14-1.42,22.6-5.6,34-6Z"/>
  <path class="st3" d="M764.47,494.76c-.26,1.02-.75,4.95-1.58,5.07-.98.14-10.04-1.71-10.41-2.09-1.81-1.82,3.87-2.26,3.69-4.01l8.3,1.03Z"/>
  <path class="st0" d="M646.47,339.75h-41c13.64-.19,27.35.09,41,0Z"/>
  <path class="st1" d="M805.47,418.75c4.6-.46,26.44-.64,28.85,2.18.37.57.17,1.2.15,1.82-6.14,2.58-3.05-.73-4.13-1.81-2.63-2.66-20.71.39-24.87-2.19Z"/>
  <path class="st1" d="M96.47,583.75c8.28.49,19.76.56,28,0l.52,1h-29.04l.52-1Z"/>
  <path class="st1" d="M828.47,583.75c-1.04,1.66-3.8,1-5.49,1.02-7,.07-14.02,0-21.02-.02-.77,0-5.19.43-2.49-1,8.7.54,20.27.49,29,0Z"/>
  <path class="st5" d="M677.47,436.75c-.18.02-1.39,1.49-2.39,1.06l-22.61-.06c2.54-2.5,20.29-.2,25-1Z"/>
  <path class="st1" d="M134.47,36.75c-2.92,7.01-5.18,14.86-4.99,22.5l-2.01-1.5c.46-6.62,2.93-15.65,7-21Z"/>
  <path class="st5" d="M164.47,263.75v1c-7.65-.05-15.35.11-23,0-1.54-2.75-1.53-1.82,1.07-1.58,7.38.68,14.55.56,21.93.58Z"/>
  <path class="st3" d="M766.47,113.75c-5.01,1.67-12.92,1.68-18,0,5.99-.04,12.01-.01,18,0Z"/>
  <path class="st4" d="M876.47,503.75l-6.99-.99c0,.99-.04,2,0,2.99l-1.99-6c3.21,1.77,5.79,1.87,8.99,4Z"/>
  <path class="st0" d="M818.47,149.75c-5.43-.57-12.14,1.26-17-1,3.78-1.03,13.08.26,17,1Z"/>
  <path class="st4" d="M880.47,509.75h-8s5.49-.99,5.49-.99l-.49-4.01c.48.5,1.32.67,1.88,1.62.73,1.22.71,2.28,1.12,3.38Z"/>
  <path class="st3" d="M746.47,113.75c-3.03.02-7.76,1.07-12,1,3.04-2.2,8.21-.5,12-1Z"/>
  <path class="st0" d="M718.47,263.75c-1.86,1.68-7.14,1.68-9,0,.33,0,.67,0,1,0,2.66-.02,5.34.02,8,0Z"/>
  <path class="st5" d="M772.47,508.75c.69,2.47-1.44,3.76-2,5-.82-2.11.68-3.67,1-5h1Z"/>
  <path class="st3" d="M364.47,352.75c-2,0-4,0-6,0,1.01-1.64,5.05-1.61,6,0Z"/>
  <path class="st3" d="M786.47,114.75c-1.89-.14-4.88.76-6-1,2.06.04,4.25-.58,6,1Z"/>
  <path class="st5" d="M717.47,100.75c-2.22-1.72-4.51-3.55-6-6,1.55,1.77,5.04,3.45,6.54,4.99.79.81.48,1.04-.54,1.01Z"/>
  <path class="st5" d="M147.47,101.75c-.35-.24-1.03-.18-2-1l2,1Z"/>
  <path class="st5" d="M514.47,264.75c-.33,0-.67,0-1,0l.5-.98.5.98Z"/>
  <path class="st5" d="M518.47,264.75c-.33,0-.67,0-1,0l.5-.98.5.98Z"/>
  <path class="st0" d="M162.47,467.75v-1c.1.73,0,.95,0,1Z"/>
  <path class="st5" d="M144.47,99.75c-.33-.33-.69-.65-1-1l1,1Z"/>
  <path class="st5" d="M675.47,212.75c-1.82,2.32-2.92,5.32-6,6,1.88-1.89,3.31-4.74,6-6Z"/>
  <path class="st5" d="M642.47,245.75c-1.75,1.64-2.46,5.43-5,5,1.84-2.39,3.02-3.13,5-5Z"/>
  <path class="st5" d="M654.47,233.75c.24,2.13.13,2.24-2,2,.67-.67,1.34-1.33,2-2Z"/>
  <path class="st5" d="M668.47,219.75c-1.75,1.64-2.46,5.43-5,5,1.65-1.67,3.38-3.34,5-5Z"/>
  <path class="st5" d="M644.47,243.75c2.36-2.32,4.67-4.67,7-7-1.91,2.65-3.34,6.59-7,7Z"/>
  <path class="st5" d="M572.47,219.75l6-6c-1.96,2.08-4.08,3.98-6,6Z"/>
  <path class="st5" d="M661.47,226.75c.33-.34.67-.67,1-1l-1,1Z"/>
  <path class="st5" d="M656.47,231.75c.66-.67,1.34-1.33,2-2l-2,2Z"/>
  <path class="st3" d="M447.47,252.75c-2.84,3.33-6.84,8.54-11,10-2.21.77-4.15.89-6.46,1.05-23.51,1.57-54.27.83-78.09,0-1.9-.07-3.78.1-5.45-1.04,2.69-1.88,7.9-7.68,10-9,3.86-2.42,79.51-.98,91-1Z"/>
  <path class="st5" d="M365.47,243.75c3.16-3.18,5.64-7.07,10-9-3.01,2.91-6.4,6.98-10,9Z"/>
  <path class="st5" d="M392.47,217.75c2.46-2.42,5.05-6.46,7.33-8.7.81-.79,2.19-.87,2.67-1.3-2.6,4.03-6.67,6.71-10,10Z"/>
  <path class="st5" d="M407.47,202.75l-1,1c.19-.39-.15-1.4.02-2.02l.98,1.02Z"/>
  <path class="st5" d="M385.47,224.75l6-6c-2,1.98-3.98,4.01-6,6Z"/>
  <path class="st5" d="M478.47,223.75c.33-.33.67-.67,1-1l-1,1Z"/>
  <path class="st5" d="M382.47,227.75c.34-.33.66-.67,1-1l-1,1Z"/>
  <path class="st5" d="M488.47,213.75c.33-.34.67-.66,1-1l-1,1Z"/>
  <path class="st5" d="M464.47,237.75c.34-.33.66-.67,1-1l-1,1Z"/>
  <path class="st0" d="M270.47,252.75c28.65-.06,57.35.04,86,0v1c-2.1,1.32-7.31,7.12-10,9-.6.42-1.37.63-2,1h-87c3.18-3.85,8.46-5.97,10-11,1,0,2,0,3,0Z"/>
  <path class="st5" d="M281.47,241.75c10.62-9.72,20.44-20.19,31-30-8.04,9.95-17.56,18.85-26.98,27.52-1.23,1.13-2.06,2.5-4.02,2.48Z"/>
  <path class="st5" d="M278.47,244.75c-.82,3.2-4.43,7.21-8,7,1.33-3.62,6.04-5.3,8-7Z"/>
  <path class="st5" d="M185.47,243.75c-2.79,3.07-6.23,5.12-8,9l-2,1v-1c1.61-3.84,6.37-6.93,10-9Z"/>
  <path class="st5" d="M327.47,196.75c1.81-2.04,3.26-3.24,5-5-.97,2.31-2.15,4.92-5,5Z"/>
  <path class="st5" d="M365.47,158.75c-1.6,2.04-3.71,5.98-6,6,1.91-2.04,3.33-4.68,6-6Z"/>
  <path class="st5" d="M352.47,171.75c.55,2.58-1.74,2.08-3,3,.47-1.68,2.02-2.11,3-3Z"/>
  <path class="st5" d="M323.47,200.75c-1.57,1.94-.85.95-2,2l2-2Z"/>
  <path class="st5" d="M316.47,207.75c-.66,1.72-.8,3.42-3,3,.93-.85,1.81-1.92,3-3Z"/>
  <path class="st5" d="M326.47,197.75c-.15.17.33,1.35-.16,1.84s-1.65,0-1.84.16l2-2Z"/>
  <path class="st5" d="M355.47,168.75l2-2c-.67.69-1.34,1.33-2,2Z"/>
  <path class="st5" d="M353.47,170.75l1-1c-.34.33-.65.68-1,1Z"/>
  <path class="st5" d="M341.47,182.75l3-3c-1,.98-1.99,2.01-3,3Z"/>
  <path class="st5" d="M337.47,186.75l3-3c-.99.96-2.01,2.01-3,3Z"/>
  <path class="st5" d="M333.47,190.75l3-3c-1,1-2.02,2-3,3Z"/>
  <path class="st5" d="M317.47,206.75l3-3c-.92.85-1.85,1.95-3,3Z"/>
  <path class="st5" d="M186.47,242.75c.32-.34.62-.72,1-1-.31.35-.67.67-1,1Z"/>
  <path class="st3" d="M795.47,251.75l-11,11c-.67.01-1.33,0-2,0-23.64.32-47.36-.12-71,0l10-11c.33,0,.67,0,1,0,24.32-.05,48.68-.05,73,0Z"/>
  <path class="st5" d="M781.47,193.75c-5.42,5.36-11.08,11.33-17,16,5.4-5.44,10.18-12.29,17-16Z"/>
  <path class="st5" d="M784.47,190.75c-.67.65-1.33,1.34-2,2-.24-2.13-.13-2.24,2-2Z"/>
  <path class="st5" d="M733.47,240.75c-2.02,1.96-4.81,5.6-7,6,2.06-2.37,3.7-5.06,7-6Z"/>
  <path class="st5" d="M798.47,176.75c-3.97,3.98-7.98,8.02-12,12,3.7-4,6.5-10.13,12-12Z"/>
  <path class="st5" d="M815.47,159.75c-2.82,3.17-6.01,5.97-9,9,.67-4.95,7-5.44,8.17-9.91.41-.05.78.94.83.91Z"/>
  <path class="st5" d="M744.47,229.75c3.66-3.62,7.37-7.35,11-11l-11,11Z"/>
  <path class="st5" d="M740.47,233.75l2-2c-.66.66-1.35,1.34-2,2Z"/>
  <path class="st5" d="M737.47,236.75l1-1c-.33.34-.67.66-1,1Z"/>
  <path class="st5" d="M734.47,239.75l1-1c-.34.33-.66.67-1,1Z"/>
  <path class="st4" d="M136.47,250.75c.16.57-.15,1.43,0,2,.08.31-.08.69,0,1-17.3-1.19-13.9-9.47-15.01-22.49-.27-3.15-1.79-7.76-1.99-10.51-.03-.44,1.08-2.01,1-3,4.48-1.67,6.43-4.74,8-9,1.17,17.11,3.63,26.06,8,42Z"/>
  <path class="st5" d="M173.47,252.75c-6.74,2.06-28.95,1.55-37,1-.08-.31.08-.69,0-1h37Z"/>
  <path class="st5" d="M496.47,361.75c-18.47,19.51-38.91,37.09-58,56h-1c-.67,0-1.33,0-2,0h-85c-1.1-.05-2.52.31-3-1,20.07-17.86,39.43-37.72,59-56l90,1Z"/>
  <path class="st3" d="M343.47,418.75c-3.37,2.97-6.52,6.07-10,9l-8.5,3h-62.5c1.13-8.35-3.7-4.65-3.99-4.99-.23-.27-.64-5.78-1-7h86Z"/>
  <path class="st1" d="M503.47,353.75c-2.19,4.73-3.92,4.75-7,8l-90-1c2.22-2.07,4.29-6.84,7-7,29.97.24,60.08-.19,90,0Z"/>
  <path class="st3" d="M259.97,426.75c.65.33.65.67,0,1v-1Z"/>
  <path class="st3" d="M259.97,429.75c.65.33.65.67,0,1v-1Z"/>
  <path class="st5" d="M664.47,361.75c-17.84,19.48-37.97,36.72-57,55-.33,0-.67,0-1,0-27.98.06-56.02-.05-84,0,19.3-18.33,37.95-37.54,58-55h84Z"/>
  <path class="st3" d="M520.47,417.75c-3.18,1.8-10.14,8.98-14,12l-81-1c4.13-3.66,8.61-6.12,12-11h83Z"/>
  <path class="st5" d="M834.47,215.75l2.17,26.89c0,2.94.77,11.29-2.17,11.11-9.58-.59-29-1.98-37-2,9.57-9.38,19.04-19.03,29-28l8-8Z"/>
  <path class="st5" d="M228.47,377.75l12,59c-10.74,3.23-21.75,7.51-32,12l-11-59c10.72-4.85,19.83-8.33,31-12Z"/>
  <path class="st5" d="M213.47,280.75c2.4,10.42,2.14,22.14,6,32-10.7,3.3-23.58,8.42-34,13l-6-45c9.71-.94,23.97-.35,34,0Z"/>
  <path class="st1" d="M197.47,389.75l11,59c-2.24.98-4.99,3.59-8,4-3.61-19.66-7.41-39.33-11-59,2.79-1.37,4.97-2.63,8-4Z"/>
  <path class="st1" d="M179.47,280.75l6,45c-1.89.83-3.93,3.61-7,3l-6.07-38.51c1.03-6.01.52-8.85,7.07-9.49Z"/>
  <path class="st1" d="M144.47,515.75c.94.04,1.92-.28,2.83.14l10.05,45.29c-.48,1.91-11.48,4.22-12.95,3.16-3.06-15.44-4.81-31.7-5.93-47.59,2.06-.3,3.15-1.12,6-1Z"/>
  <path class="st1" d="M849.47,516.75l11.01,45.49c-2.11.49-11.97,3.47-12.99,2.49l-5.03-46.97c2.29-.41,5.29-.61,7-1Z"/>
  <path class="st0" d="M774.47,509.75c4.5,2.25,10.19,4.58,15,6s12.15,3.55,17,4l-3.01,51.99-19.99-.98.52,2.97-7.51.02c-4.75-1-18.02-3.32-18.86-8.79-.23-1.5.84-2.02.86-2.21,1.13,2.59,1.25-1.19,1.46-2.03,3.31-13.27,7.47-27.66,10.1-40.92.3-1.53,1.28-4.08-.56-5.05.15-.42.87-.72,1-1,.56-1.24,2.69-2.53,2-5,.68.31,1.33.67,2,1Z"/>
  <path class="st5" d="M793.47,280.75l7,37c-10.96,4.03-25.66,10.58-36,16l3.85-3.45-9.85-49.55c10.87-.87,23.86,0,35,0Z"/>
  <path class="st5" d="M811.47,375.75l7,33.99c-9.99.05-23.17.79-32.27,5.04-1.16.54-.15,2.34-1.71,1.96-2.17-8.79-1.68-18.65-5.01-26.99,10.88-4.74,19.95-10.74,32-14Z"/>
  <path class="st1" d="M758.47,280.75l9.85,49.55-3.85,3.45c-1.27.67-2.95,1.39-4,2-4.67-16.45-5.82-33.74-9.09-50.52.06-4.38,3.82-4.22,7.09-4.48Z"/>
  <path class="st2" d="M150.47,56.75c2.06,5.11,1.25,10.94,3.54,16.01.69,1.52-.13,2.46,2.46,1.99-2.48-9.29-2.71-18.53-.98-28.01.45.13.83,1,.98,1.01-1.11,6.92-1.26,12.08,0,19,3.95,21.66,24.8,34.9,45.98,26.48,5.18-2.06,9.37-5.69,12.02-10.48,10.76-12.96,8.44-32.48,0-46,3.82,3.26,4.09,5.98,6.68,10.85.71,1.34-.51,2.71,2.31,2.14,0-2.34-.44-5.05-1.26-7.23-.9-2.42-4.49-4.89-2.74-6.76,16.05,22.18,5.47,62.41-24.47,65.04-27.37,2.4-45.7-17.28-44.53-44.04ZM224.46,56.74v-3.99h-.98v3.99h.98Z"/>
  <path class="st0" d="M219.47,35.75c-1.76,1.87,1.83,4.35,2.74,6.76.82,2.18,1.27,4.89,1.26,7.23-2.82.56-1.6-.81-2.31-2.14-2.6-4.87-2.86-7.59-6.68-10.85-15.13-12.9-34.24-19.05-50.04-2.54-2.65,2.77-7.18,13.62-7.96,13.54-.15-.02-.53-.88-.98-1.01-1.73,9.48-1.5,18.72.98,28.01-2.59.48-1.77-.46-2.46-1.99-2.29-5.07-1.47-10.9-3.54-16.01,1.65-37.79,46.21-52.5,69-21Z"/>
  <path class="st0" d="M728.47,82.75c-20.58-29.18,3.55-72.96,40.8-62.3,1.56.45,6.39,2.41,7.49,3.26,1.27.98,1.27,2.65,1.71,3.04,3.61,3.18,6.23,4.74,9,9,.68,1.05,1.31,1.69,2,3,.39.74,4.58,9.72,1.51,8.99-3.71-7.03-8.22-16.64-16.51-18.99-2.18-1.46-6.03-3.55-8.56-3.93-29.36-4.43-47.2,22.54-36.44,48.93-.02.11-.9.35-.85,1.29.17,3.17,6.6,8.56-.15,7.71Z"/>
  <path class="st2" d="M774.47,28.75c8.29,2.35,12.8,11.96,16.51,18.99,3.07.73-1.13-8.25-1.51-8.99,2.56-.54,2.05,1.23,2.71,2.74,20.43,46.47-34.55,82.61-63.71,41.26,6.76.84.33-4.55.15-7.71-.05-.93.82-1.18.85-1.29,9.41,23.07,42.34,31.1,55,8,12.74-16.33,6.88-41.67-10-53Z"/>
  <path class="st2" d="M778.47,26.75c3.35-.01,8.95,5.67,9,9-2.77-4.26-5.39-5.82-9-9Z"/>
  <path class="st0" d="M189.47,393.75c3.59,19.67,7.39,39.34,11,59,.06.32-.06.68,0,1l-26,12c-2.37-19.73-5.71-39.27-8-59,8.51-5.23,13.89-8.52,23-13Z"/>
  <path class="st3" d="M795.47,474.75c4.44,1.89,6.89,1.83,11.51,2.98l-.51-1.98c.65.08,1.35-.06,2,0,.28.03.76.98,1,1-3.11,13.38-1.65,27.36-3,41-4.47-1.31-15.24.34-15.01-6l-1.99,3.99c-4.81-1.42-10.5-3.75-15-6,2.64-1.33-1.18-.22-1.09-2.43.26-6.02,3.97-19.05,5.57-25.59.89-3.62,1.7-9.65,4.51-11.99,4.17,1.47,7.97,3.28,12,5Z"/>
  <path class="st3" d="M80.47,470.75c7.19.77,13.48,3.41,22,4-.02.57-.94,1.98-1.01,3.45-.58,13.17.23,26.39-1,39.55l-15.99-2c-4.11-.95-7.96-1.76-12-3l-4.98-3.04,8.88-38.4c.33-.49,3.53-.61,4.1-.55Z"/>
  <path class="st5" d="M144.47,468.75c-2.16,1.43-4.76,1.38-7,2l1.99-1.02c-1.2-12.72-6.18-25.11-5.98-37.98l10.99,36.99Z"/>
  <path class="st1" d="M737.47,576.75l55,15c-18.48-4.56-36.83-9.3-55-15Z"/>
  <path class="st1" d="M721.47,570.75c4.86-.52,7.35,1.63,12.24,3.27.66.22,4.27.77,1.76,1.73-4.6-1.48-9.95-1.92-14-5Z"/>
  <path class="st1" d="M52.47,581.75l46,12c-14.48-2.54-32.23-6.93-46-12Z"/>
  <path class="st1" d="M19.47,571.75c.89-1.93,3.2-.43,4.52-.03,6.82,2.05,13.46,4.75,20.49,6.05-.14.44-.99.82-1.01.98-8.17-1.73-15.96-4.84-24-7Z"/>
  <path class="st1" d="M45.47,579.75c1.19-2.08,4.14.25,6.01.02-.15.44-1,.82-1.01.98-1.71-.1-3.38-.5-5-1Z"/>
  <path class="st0" d="M121.43,422.81c.16.26.15,2.83.05,2.93-.82.88-21.14,3.45-23.76,2.25-2.94-1.34-3.61-3.35-.23-4.69,3.64-1.44,22.51-2.81,23.95-.5Z"/>
  <path class="st2" d="M193.2,123.98c11.64-2.41,23.27,7.42,16.12,19.11-2.98,4.87-11.07,5.13-16.08,3.38-9.81-3.41-11.49-20.12-.04-22.49ZM205.69,135.02c0-3.77-3.06-6.83-6.83-6.83s-6.83,3.06-6.83,6.83,3.06,6.83,6.83,6.83,6.83-3.06,6.83-6.83Z"/>
  <rect class="st4" x="181.47" y="117.75" width="34" height="1"/>
  <path class="st0" d="M830.47,427.74c-3.27.14-6.26,1.7-9.51,2-1.72.16-23.06.99-19.49-3.98,1.32-1.84,26.88-4.03,28.99,1.98Z"/>
  <path class="st1" d="M435.47,417.75c-27.91,0-57.28,1.18-85,0h85Z"/>
  <path class="st2" d="M760.2,122.98c6.95-1.44,15.4.15,16.3,8.25,1.44,12.95-11.42,15.86-21.05,11.04-7.64-3.82-4.48-17.38,4.75-19.29ZM759.7,138.54c.37.27,5.56,1.28,6.33,1.26,7.46-.19,7.34-12.39-.13-13.02-5.61-.47-8.97,9.74-6.2,11.76Z"/>
  <polygon class="st5" points="194.46 565.76 181.48 569.75 181.47 562.75 194.46 565.76"/>
  <path class="st4" d="M806.47,475.75l.51,1.98c-4.62-1.14-7.08-1.09-11.51-2.98,3.72-.27,7.36.53,11,1Z"/>
  <rect class="st0" x="701.48" y="69.75" width=".98" height="3.99"/>
  <rect class="st2" x="701.98" y="126.25" width="7.99" height="1.01" transform="translate(578.91 832.66) rotate(-89.97)"/>
  <path class="st1" d="M214.47,36.75c8.44,13.52,10.76,33.04,0,46,2.9-5.24,5.15-11.98,4.99-18-8.98-.07-6.25,6.2-10.44,11.05-2.51,2.9-17.3,11.59-20.85,10.78-4.04-.92-3.43-6.53-3.71-6.84-.23-.26-2.87,1-4.26.82-.47-.06-7.37-2.62-7.58-2.96-.61-.96.37-3.4-1.06-5.43-1.13-1.61-4.35-1.89-4.87-2.64-2.38-3.42-2.16-11.44-2.23-15.19-.01-.66-1.71-.6-2.29-1.83-.95-1.99-2.26-9.06-3.73-4.31-1.94,6.3.29,12.55-1.97,18.54-1.26-6.92-1.11-12.08,0-19,.78.08,5.32-10.77,7.96-13.54,15.8-16.52,34.91-10.37,50.04,2.54ZM193.18,31.97c-10.16,2.3-6.2,24.93,8.58,20.57,7.81-2.31,7.16-24.13-8.58-20.57Z"/>
  <path class="st5" d="M156.47,66.75c2.27-5.99.03-12.24,1.97-18.54,1.47-4.76,2.78,2.32,3.73,4.31.58,1.22,2.28,1.17,2.29,1.83.07,3.75-.15,11.77,2.23,15.19.52.75,3.74,1.03,4.87,2.64,1.43,2.04.45,4.47,1.06,5.43.22.34,7.11,2.9,7.58,2.96,1.39.18,4.03-1.08,4.26-.82.28.31-.33,5.92,3.71,6.84,3.55.81,18.34-7.88,20.85-10.78,4.19-4.85,1.46-11.12,10.44-11.05.15,6.01-2.09,12.75-4.99,18-2.65,4.79-6.84,8.42-12.02,10.48-21.18,8.42-42.03-4.82-45.98-26.48Z"/>
  <rect class="st0" x="223.48" y="52.75" width=".98" height="3.99"/>
  <path class="st1" d="M774.47,28.75c16.88,11.33,22.74,36.67,10,53,2.26-4.12,4.5-9.26,3.99-14-8.73.87-10.05,10.91-17.06,14.42-3.46,1.73-11.97,3.09-15.65,1.8-3.21-1.12-3.39-3.14-5.07-4.18-5.52-3.43-7.81-2.63-11.63-10.11-3.09-6.05-1.48-18.22-.58-24.92-3.51-.91-2.2,5.27-3,6-.63.57-5.44-1.58-6.99-1,.89,3.77-.98,8.08-.9,11.39.11,4.84,2.9,7.42,1.9,12.61-10.77-26.4,7.08-53.36,36.44-48.93,2.54.38,6.38,2.47,8.56,3.93ZM775.2,36.04c-7.66-9.37-20.51-2.47-18.68,9.14,1.59,10.08,18.82,11.04,19.94.97.14-1.22-.61-9.31-1.26-10.11ZM739.46,43.74c.72-1.4-.63-2.67-.98-1.99-.72,1.4.63,2.67.98,1.99Z"/>
  <path class="st5" d="M729.47,73.75c1-5.19-1.79-7.77-1.9-12.61-.08-3.31,1.79-7.62.9-11.39,1.55-.58,6.36,1.58,6.99,1,.8-.73-.51-6.91,3-6-.9,6.7-2.51,18.87.58,24.92,3.82,7.49,6.1,6.68,11.63,10.11,1.69,1.05,1.86,3.06,5.07,4.18,3.68,1.29,12.2-.07,15.65-1.8,7.01-3.51,8.34-13.55,17.06-14.42.51,4.74-1.73,9.88-3.99,14-12.66,23.1-45.59,15.07-55-8Z"/>
  <circle class="st3" cx="198.86" cy="135.02" r="6.83"/>
  <path class="st3" d="M759.7,138.54c-2.77-2.02.59-12.23,6.2-11.76,7.47.63,7.6,12.83.13,13.02-.77.02-5.96-1-6.33-1.26Z"/>
  <path class="st4" d="M193.18,31.97c15.75-3.56,16.4,18.26,8.58,20.57-14.78,4.36-18.74-18.27-8.58-20.57Z"/>
  <path class="st4" d="M775.2,36.04c.65.8,1.4,8.89,1.26,10.11-1.12,10.07-18.35,9.11-19.94-.97-1.83-11.61,11.02-18.51,18.68-9.14Z"/>
  <path class="st5" d="M739.46,43.74c-.35.68-1.7-.59-.98-1.99.35-.68,1.7.59.98,1.99Z"/>
</svg>