<?xml version="1.0" encoding="UTF-8"?>
<svg id="Calque_1" xmlns="http://www.w3.org/2000/svg" version="1.1" viewBox="0 0 824.79 1717.92">
  <!-- Generator: Adobe Illustrator 30.0.0, SVG Export Plug-In . SVG Version: 2.1.1 Build 123)  -->
  <defs>
    <style>
      .st0 {
        opacity: .8;
      }

      .st1 {
        fill: #e2e1e1;
      }

      .st2 {
        fill: #010101;
      }
    </style>
  </defs>
  <g class="st0">
    <rect class="st1" x="3.5" y="3.5" width="817.79" height="1710.92" rx="140.75" ry="140.75"/>
    <path class="st2" d="M680.54,7c75.8,0,137.25,61.45,137.25,137.25v1429.42c0,75.8-61.45,137.25-137.25,137.25H144.25c-75.8,0-137.25-61.45-137.25-137.25V144.25C7,68.45,68.45,7,144.25,7h536.29M680.54,0H144.25c-38.53,0-74.76,15-102,42.25C15,69.5,0,105.72,0,144.25v1429.42c0,38.53,15,74.76,42.25,102,27.25,27.25,63.47,42.25,102,42.25h536.29c38.53,0,74.76-15,102-42.25,27.25-27.25,42.25-63.47,42.25-102V144.25c0-38.53-15-74.76-42.25-102C755.3,15,719.07,0,680.54,0h0Z"/>
  </g>
</svg>