<?xml version="1.0" encoding="UTF-8"?>
<svg id="Calque_1" xmlns="http://www.w3.org/2000/svg" version="1.1" viewBox="0 0 1080.45 2400.03">
  <!-- Generator: Adobe Illustrator 30.0.0, SVG Export Plug-In . SVG Version: 2.1.1 Build 123)  -->
  <defs>
    <style>
      .st0 {
        fill: #2f4626;
      }

      .st1 {
        fill: #558233;
      }

      .st2 {
        fill: #54733c;
      }

      .st3 {
        fill: #dab375;
      }

      .st4 {
        fill: #497836;
      }

      .st5 {
        fill: #f8f7f5;
      }

      .st6 {
        fill: #407134;
      }

      .st7 {
        fill: #4c8836;
      }

      .st8 {
        fill: #6fa048;
      }

      .st9 {
        fill: #5a5959;
      }

      .st10 {
        fill: #669a34;
      }

      .st11 {
        fill: #658746;
      }

      .st12 {
        fill: #568c3a;
      }

      .st13 {
        fill: #898987;
      }

      .st14 {
        fill: #b1acac;
      }
    </style>
  </defs>
  <path class="st11" d="M.45,2198.07v-1.2c-.15-.1-.29-.19-.45-.29.16.5.3,1,.45,1.49Z"/>
  <path class="st9" d="M542.04,2400.03V0H232.54l.13,2400.03h309.37ZM379.43,2088.07v-73.4h9.57v73.4h-9.57ZM389,2145.51v73.4h-9.57v-73.4h9.57ZM379.43,1950.84v-73.4h9.57v73.4h-9.57ZM379.43,1816.8v-73.4h9.57v73.4h-9.57ZM379.98,1680.61c-1.78-5.63-1.84-56.04-.53-63.26,1-5.51,3.41-8.93,9.55-8v76.59c-4.38.82-7.68-1.1-9.02-5.34ZM389,2346.66h0v6.29h-9.57v-73.4h0v-6.29h9.57v73.4ZM379.43,7.27h9.57v70.21h-9.57V7.27ZM379.43,138.12h9.57v76.59h-9.57v-76.59ZM379.43,275.35h9.57v73.4h-9.57v-73.4ZM379.43,409.39h9.57v73.4h-9.57v-73.4ZM379.43,543.43h9.57v70.21h-9.57v-70.21ZM379.43,674.27h9.57v73.4h-9.57v-73.4ZM379.43,808.31h9.57v73.4h-9.57v-73.4ZM379.43,942.35h9.57v73.4h-9.57v-73.4ZM379.43,1076.39h9.57v73.4h-9.57v-73.4ZM379.43,1210.43h9.57v73.4h-9.57v-73.4ZM379.43,1344.47h9.57v73.4h-9.57v-73.4ZM379.43,1478.51h9.57v73.4h-9.57v-73.4Z"/>
  <path class="st9" d="M860.98,2400.03l.13-2400.03h-309.5v2400.03h309.37ZM704.66,138.12h12.75v76.59h-12.75v-76.59ZM704.66,275.35h12.75v73.4h-12.75v-73.4ZM704.66,406.19c0-.64,10.47.43,12.75,0v71.81c0,3.38-9.05,6.08-12.75,4.79v-76.59ZM704.66,543.43h12.75v73.4h-12.75v-73.4ZM704.66,674.27c0-.64,10.47.43,12.75,0v71.81c0,3.38-9.05,6.08-12.75,4.79v-76.59ZM704.66,808.31h12.75v73.4h-12.75v-73.4ZM704.66,942.35h12.75v73.4h-12.75v-73.4ZM704.66,1076.39c0-.64,10.47.43,12.75,0v71.81c0,5.5-12.75,5.5-12.75,0v-71.81ZM704.66,1210.43h12.75v73.4h-12.75v-73.4ZM704.66,1341.28c3.7-1.29,12.75,1.41,12.75,4.79,0,10.07,2.58,69.31,0,71.81-.46.44-12.75.64-12.75,0v-76.59ZM704.66,1478.51h12.75v73.4h-12.75v-73.4ZM704.66,1609.36h12.75v76.59h-12.75v-76.59ZM704.66,1743.39h12.75v73.4h-12.75v-73.4ZM704.66,1877.43h12.75v73.4h-12.75v-73.4ZM704.66,2011.47h12.75v76.59h-12.75v-76.59ZM704.66,2145.51h12.75v76.59h-12.75v-76.59ZM704.66,2279.55h0v-4.7c0-5.5,12.75-5.5,12.75,0,0,10.07,2.58,69.32,0,71.81h0v9.48h-12.75v-76.59Z"/>
  <path class="st8" d="M882.35,2400.03h51.69c1.12-4.31,2.44-8.64,3.95-13.01.39-1.12,10.89-16.59,12.62-19.09,29.72-42.88,81.08-58.22,129.84-47.96v-51.63c-.77,2.72-1.68,5.4-2.74,8.03-4.03,10-2.37,11.58-12.73,6.35-.61,26.93-16.85-9.8-11.19-19.1l7.95,6.37c-5.56-31.57.5-28.79,12.79-3.19.21-10.67-2.48-24.81,5.93-32.56v-63.54c-8.71,2.92-17.55,4.56-26.08,4.61-12.46,9.52-54.01-3.97-67.01-11.29-21.98-12.39-48.23-47.9-54.36-73.36-1.37-5.67-2.82-10.2,1.22-15.34-6.24-13.19-10.97-49.89-8.8-64.67,3.85-26.18,21.96-58.89,40.67-77.37-14.06-8.33-33.74-14.67-35.16-32.03-.98-12.03-1.95-27.77-4.34-39.8-2.78-14.03-15.87-21.69-9.11-37.39,5.15-11.95,20.89-11.72,19.93-29.59-.25-4.73-5.42-15.89-5.68-23.99-.75-23.79,3.87-44.2,5.31-67.18.1-1.63-5.59.12-6.29-5.94-4.3-36.92,5.69-77.09-2.9-113.53-14.37-17.4-10.4-37.03-12.75-57.45-6.17-53.58-8.98-84.13,19.01-132.55,4.23-7.32,31.95-29.55,31.95-31.81,0-1.25-7.7-6.73-9.66-9.56-2.32-3.36-2.58-9.86-3.54-10.66-2.69-2.24-13.67,1.96-18.97-4.97-4.37-5.71-1.25-13.3-3.6-17.19-1.09-1.8-7.2-1.84-8.53-5.94-1.4-4.31,1.92-9.17,1.44-12.42-.63-4.27-4.55-7.59-4.21-12.1.54-7.06,10.54-15.43,11.29-20.23,1.36-8.72-11.98-18.62.6-33.93,5.63-6.86,23.16-7.52,31.79-10.49,5.4-1.86,11.93-9.65,18.34-10.19,10.71-.9,16.49,14.54,25.1,15.36,7.59.72,13.05-6.39,19-6.35,5.6.03,10.13,6.1,15.41,5.59,10.81-1.03,6.43-11.67,21.26.64,12.32,10.22,6.88,14.17,10.26,18.46.87,1.1,4.27,2.32,8.42,4.14v-40.39c-18.85,6.21-40.23,7.9-57.8,4.29-15.29-3.14-51.62-22.23-62.56-33.13-12.68-12.64-25.09-37.99-27.54-55.48-.68-4.86-4.49-12.78,1.68-15.98-3.72-9.72-12.88-49.44-12.08-58.32,2.12-23.45,27.11-71.88,43.96-88.49l-35.07-33.51c-8.35-19.89-28.74-40.99-31.06-61.24-.43-3.77,2.44-6.8,2.36-7.37-.53-4.05.37-8.62,0-12.77-.03-.36-2.91-.76-3.19-6.38-.1-2.12.02-4.26,0-6.38-.01-1.12,0-2.13,0-3.19-.21-35.76,14.85-86.56,44.64-108.51-10.55-12.95-4.7-31.4-6.85-42.33-1.19-6.05-7.84-10.13-9.03-16.91-2.47-14.07,6.42-25.8,6.04-37.8-.4-12.35-10.11-28.44-9.5-41.76.41-8.97,6.69-15.64,8.37-23.76,6.34-30.69-3.27-60.7-2.06-91.14.45-11.28,6.05-21.35,6.63-31.97.93-16.98-3.58-72.87,3.43-82.73,1.64-2.3,2.86-3.05,5.28-4.29,7.88-4.04,87.47-15.55,101.37-16.62,10.71-.83,21.8-1.38,32.98-1.79v-23.34c-2.37,1.5-4.88,2.59-7.77,2.75-8.5.46-20.22-9.14-33.12-4.63-10.24-15.48-42.53-22.64-44.73-41.95-.24-2.15-.24-26.14.02-28.34.88-7.45,9.39-9.59,9.51-15.95.14-7.42-12.93-19.17-3.18-30.41-13.03,1.2-16.12-8.69-22.69-13.99-18-14.49-39.99-42.74-46.81-64.84-2.26-7.34.2-15.84-.64-23.3-3.57-31.39-4.85-60.18,3-90.25l-51.69.03c4.95,799.82,3.47,1599.94,0,2400Z"/>
  <path class="st8" d="M1074.91,1337.71c.54.67,2.68,1.19,5.54,1.64v-13.89c-5.97,1.32-12.36,3.76-5.54,12.25Z"/>
  <path class="st8" d="M12.34,2297.65c2.29-1.38,4.52-2.66,6.65-3.82,18.91-10.29,47.11-21.02,70.46-19.14,20.58,1.66,67.38,21.23,81.74,34.66,1.88,1.76,31.17,36.94,32.5,39.14.1.17.23.47.37.85v-877.22c-.36,18.07-2.84,22.34-6.38,38.3-1.34,6.03.34,13.9-2.59,21.1-2.46,6.06-8.23,5.57-9.6,9.67-1.7,5.08.53,11.54-2.1,17.15-.77,1.64-21.17,23.14-24.18,26.14-43.48,43.3-112.42,43.64-158.76,8.18v52.8c9.49-7.84,25.42-.81,28.39-2.56,2.11-1.25,3.86-7.76,8.2-10.84,20.19-14.35,28.66,3.57,34.27,2.54,3.89-.72,6.66-9.48,12.65-8.88,4.17.42,9.07,6.73,14.25,8.22,9.98,2.86,26.93,2.41,34.35,7.1,9.91,6.27,10.1,27.06,15.03,34.42,3.12,4.65,15.44,6.74,17.76,19.23,1.71,9.2-3.99,12.51-4.43,18.27-.64,8.41,5.42,20.4,4.29,28.2-1.31,9.03-11.5,13.11-13.7,18.25-3.98,9.33-.54,26.51-16.71,31.35-8.34,2.49-17.56-6.7-16.87,2.1,7.84,1.94,5.2,8.34,8.48,11.38,2.65,2.46,17.09,8.41,19.31,13.46,1.8,4.1.33,9.16,1.79,12.53,5.51,12.69,14.37,21.79,10.56,37.66-2.03,8.48-18.78,28.32-27.2,30.53-4.65,1.22-9.58-1.86-13.63-.97-7.42,1.63-25.09,8.79-29.64,8.52-4.11-.25-7.06-4.73-10.03-5.12-4.21-.54-8.34,2.08-14.01.91-2.22-.46-33.36-27-34.19-29.75-5.76-19.08,17.1-42.15,10.59-55.16-4.45-8.89-27.47-1.67-39.5-11.53v391.57c8.08,5.28,5.62,2.68,5.93-5.03,1.44-35.92-4.51-79.88,3.19-113.34,6.02-26.15,14.03-24.08,26.78-41.81,16.2-22.54,28.13-48.41,50.45-64.51,10.54-4.6,30.26,1.27,39.98,6.63,2.9,1.6,24.18,18.95,26.25,21.53,3.48,4.36,5.99,9.18,7.91,14.41,7.08,19.29,3.39,74.25,1.65,97.22-3.01,39.64-9.79,90.72-28.66,126.09-2.18,4.09,0,9.9-9.57,9.57-1.03,1.01-2.15,2.45-3.19,3.19-2.66,1.9-3.46,2.12-6.38,3.19-5.19,1.91-7.57,2.22-12.75,3.19,1.48,8.97-2.17,6.14-9.57,6.38-15.47.5-30.49-4.46-47.83-3.19-.35.03-4.31,5.18-6.35,3.17-.72-.71.72-5.45-.02-6.36-.5-.62-7.03-1.05-9.57-3.19-3.08-2.59-3.84-3.52-6.38-6.38-.97-1.1-2.63-2.21-3.19-3.19-5.57-3.21-12.3-3.77-18.68-3.46v64.42c3.65-2.56,7.27-4.93,10.77-7.07.37-.26.74-.49,1.12-.69Z"/>
  <path class="st9" d="M882.35,2400.03c3.47-800.06,4.95-1600.18,0-2400l-11.87-.03,1.85,2400.03h10.03Z"/>
  <path class="st9" d="M204.06,93.44c7.24,4.73,1.76,13.44,0,19.15v1337.2c.67,6.84.14,15.26,0,22.34v877.22c2.37,6.28,9.89,39.43,11.9,50.68h7.23V45.57h-6.38c-1.04,17.42-3.94,33.4-12.75,47.87Z"/>
  <path class="st9" d="M223.19,45.57c-.46.03-.92.03-1.38.03.52.02.99.01,1.38-.03Z"/>
  <polygon class="st5" points="872.32 2400.03 872.32 .03 861.11 0 860.98 2400.03 872.32 2400.03"/>
  <rect class="st5" x="542.04" width="9.57" height="2400.03"/>
  <path class="st5" d="M223.19,39.18c0,2.13,0,4.26,0,6.38v2354.46h9.47L232.54,0h-9.34c0,12.25,0,24.43,0,35.99v3.19Z"/>
  <rect class="st5" x="379.43" y="138.12" width="9.57" height="76.59"/>
  <path class="st5" d="M389,1609.36c-6.13-.93-8.54,2.48-9.55,8-1.31,7.22-1.25,57.63.53,63.26,1.34,4.24,4.64,6.16,9.02,5.34v-76.59Z"/>
  <rect class="st5" x="379.43" y="942.35" width="9.57" height="73.4"/>
  <rect class="st5" x="379.43" y="1478.51" width="9.57" height="73.4"/>
  <rect class="st5" x="379.43" y="1743.39" width="9.57" height="73.4"/>
  <rect class="st5" x="379.43" y="409.39" width="9.57" height="73.4"/>
  <rect class="st5" x="379.43" y="275.35" width="9.57" height="73.4"/>
  <rect class="st5" x="379.43" y="1877.43" width="9.57" height="73.4"/>
  <rect class="st5" x="379.43" y="674.27" width="9.57" height="73.4"/>
  <rect class="st5" x="379.43" y="1210.43" width="9.57" height="73.4"/>
  <rect class="st5" x="379.43" y="1076.39" width="9.57" height="73.4"/>
  <rect class="st5" x="379.43" y="2014.66" width="9.57" height="73.4"/>
  <polygon class="st5" points="379.43 2279.55 379.43 2279.55 379.43 2352.95 389 2352.95 389 2346.66 379.43 2346.66 379.43 2279.55"/>
  <rect class="st5" x="379.43" y="808.31" width="9.57" height="73.4"/>
  <rect class="st5" x="379.43" y="1344.47" width="9.57" height="73.4"/>
  <rect class="st5" x="379.43" y="2145.51" width="9.57" height="73.4"/>
  <rect class="st5" x="379.43" y="7.27" width="9.57" height="70.21"/>
  <rect class="st5" x="379.43" y="543.43" width="9.57" height="70.21"/>
  <rect class="st5" x="704.66" y="2145.51" width="12.75" height="76.59"/>
  <path class="st5" d="M717.41,2346.66c-.46.44-12.75.64-12.75,0v-67.11h0v76.59h12.75v-9.48Z"/>
  <rect class="st5" x="704.66" y="138.12" width="12.75" height="76.59"/>
  <rect class="st5" x="704.66" y="2.52" width="12.75" height="76.59"/>
  <rect class="st5" x="704.66" y="2011.47" width="12.75" height="76.59"/>
  <rect class="st5" x="704.66" y="1609.36" width="12.75" height="76.59"/>
  <path class="st5" d="M717.41,746.08v-71.81c-2.28.43-12.75-.64-12.75,0v76.59c3.7,1.29,12.75-1.41,12.75-4.79Z"/>
  <path class="st5" d="M717.41,478v-71.81c-2.28.43-12.75-.64-12.75,0v76.59c3.7,1.29,12.75-1.41,12.75-4.79Z"/>
  <path class="st5" d="M717.41,1417.87c2.58-2.49,0-61.74,0-71.81,0-3.38-9.05-6.08-12.75-4.79v76.59c0,.64,12.29.44,12.75,0Z"/>
  <path class="st5" d="M717.41,1148.2v-71.81c-2.28.43-12.75-.64-12.75,0v71.81c0,5.5,12.75,5.5,12.75,0Z"/>
  <rect class="st5" x="704.66" y="1478.51" width="12.75" height="73.4"/>
  <rect class="st5" x="704.66" y="543.43" width="12.75" height="73.4"/>
  <rect class="st5" x="704.66" y="275.35" width="12.75" height="73.4"/>
  <rect class="st5" x="704.66" y="1743.39" width="12.75" height="73.4"/>
  <rect class="st5" x="704.66" y="1210.43" width="12.75" height="73.4"/>
  <rect class="st5" x="704.66" y="1877.43" width="12.75" height="73.4"/>
  <rect class="st5" x="704.66" y="942.35" width="12.75" height="73.4"/>
  <rect class="st5" x="704.66" y="808.31" width="12.75" height="73.4"/>
  <path class="st12" d="M1006.12,1788.22c12.35-1.76,15.94-11.49,31.8-10.01,10.79,1.01,12.31,10.09,22.18,10.16,6.06.04,13.28-4.81,20.34-6.43v-131.64c-49.64,7.81-110.28-6.62-136.83-42.37-6.44-8.67-6.7-13.12-15.77-24.11,8.59,36.44-1.4,76.61,2.9,113.53.7,6.06,6.39,4.3,6.29,5.94-1.43,22.98-6.06,43.38-5.31,67.18.26,8.1,5.42,19.26,5.68,23.99,20.81-23.17,40.2-2.16,68.7-6.24Z"/>
  <path class="st0" d="M971.62,2114.47c1.63,1.65.21,6.44,3.03,8.83,22.58,19.19,72.14,25.02,105.8,16.02v-11.28c-32.68,12.04-70.88,8.91-100.36-12.51-23.96-17.41-23.05-24.26-34.19-48.79-.74-1.62-6.33-1.44-7.78-9.56-1.6-8.97-6.3-37.98-5.06-45.95,2.92-18.72,26.91-65.83,42.69-77.82,34.05-25.89,72.41-28.55,104.7-16.16v-7.58c-6.56-3.09-13.22-6.32-15.49-6.71-26.03-4.5-43.86,2.59-66.96,9.57-5.82,1.76-38.89,14.72-41.39,12.78-.75-.58-.9-8.12-2.93-10.7-3.13-3.98-13.68-2.26-15.89-10.72-1.57-6.01,2.78-11,2.53-15.48-.29-5.33-2.82-18.11-3.61-27.6-1.47-17.52-9.91-15.65-11.64-20.49-5.81-16.28,9.49-17.31,15.16-25.51,4.79-6.92,10.17-38.86,25.88-23.56,3.79,3.69-.26,5.61.01,9.56,14.51-8.54,35.33.92,45.96.12,1.6-.12,7.94-19.21,25.7-16.24,9.07,1.52,5.76,10.51,17.6,12.95,3.32-3.75,6.28-3.81,9.57,0,1.1-.24,2.41.34,3.19,0,1.35-.6,4.51-8.23,11.65-8.88.23-.02.43-.02.66-.04v-6.79c-7.06,1.62-14.28,6.47-20.34,6.43-9.87-.07-11.4-9.15-22.18-10.16-15.86-1.49-19.45,8.24-31.8,10.01-28.5,4.07-47.89-16.94-68.7,6.24.96,17.86-14.78,17.63-19.93,29.59-6.76,15.69,6.33,23.36,9.11,37.39,2.39,12.04,3.35,27.77,4.34,39.8,1.42,17.37,21.1,23.7,35.16,32.03-18.71,18.47-36.82,51.18-40.67,77.37-2.17,14.78,2.56,51.48,8.8,64.67,9.51,20.1,26.05,27.71,37.4,39.17Z"/>
  <path class="st0" d="M1080.45,1179.85v-9.01c-22.09,6.7-46.21,7.41-67.17.37-8.95-3.01-44.54-24.75-51.62-31.32-15.68-14.57-12.22-22.63-18.17-38.64-.91-2.46-5.08-2.66-5.78-5.04-7.52-25.65-7.61-43.01.62-68.36,22.16-68.25,81.07-90.1,142.11-75.34v-7.77l-21.85-8.73c7.76-1.18,14.93-4.98,21.85-9.73v-8.25c-17.36,10.76-37.83,16.98-59.75,16.98-62.76,0-113.63-50.92-113.63-113.74s50.88-113.74,113.63-113.74c21.92,0,42.39,6.22,59.75,16.98v-6.61c-47.02-21.01-77.85-29.9-130.28,4.25-2.28,1.49-5.27,2.38-6.38,3.19-29.79,21.95-44.85,72.75-44.64,108.51v3.19c.02,2.12-.1,4.27,0,6.38l3.19,6.38c.37,4.15-.53,8.71,0,12.77,10.28-1.31,8.49,13.52,12.6,20.91,9.47,17.03,38.97,44.6,56.86,51.59,11.44,4.47,23.74,4.45,35.78,4.11-.4,2.58.61,8.92,0,9.54-1.07,1.09-23.51,4.14-29.66,7.17-.7.34-11.26,8.26-11.81,8.81-16.85,16.61-41.84,65.04-43.96,88.49-.8,8.87,8.36,48.6,12.08,58.32,21.43,56.05,88.5,80.77,146.22,68.35Z"/>
  <path class="st0" d="M967.77,1590.14c7.53,4.85,44.65,23.25,51.88,24.92,6.35,1.47,11.89-1.66,15.04-.97,5.99,1.31,11.47,8.06,19.25,7.74,3.65-.15,6.33-4,9.43-4.5,6.27-1,11.68-2.03,17.07-3.38v-9.05c-11.38,4.16-22.16,7.5-27.13,7.42-8.03-.13-10.94-4.64-16.21-5.49-4.24-.69-7.93,2.22-13.3.74-13.82-3.8-65.73-33.15-73.68-44.46-4.18-5.95-4.45-13.34-9.4-19.3-2.78-3.35-9.17-4.6-11.19-7.95-8.69-14.43-11.81-82.25-7.97-99.78.45-2.07,16.24-35.11,17.51-37.29,2.47-4.26,40.39-35.9,46.55-39.58,28.11-16.78,62.62-20.49,94.83-13.47v-6.39c-2.85-.45-4.99-.97-5.54-1.64-6.82-8.49-.43-10.93,5.54-12.25v-8.53c-4.73,2.37-10.4.83-11.96,2.36-1.62,1.59,1.35,13.96-5.36,15.3-2.82.56-9.84-3.43-15.56-3.03-6.44.45-29.77,2.31-33.63,3.34-.56.15-3.34,3.92-9.57,6.38-10.15,4.01-32.64,21.02-39.84,6.26-1.9-3.9-1.12-11.89-1.74-12.5-1.75-1.72-15.81,3.29-22.58-4.75-4.99-5.93,2.31-15.77.39-17.72-.93-.95-8.66.92-9.58-.02-1.45-1.49,2.96-10.01,2.29-13.82-2.73-15.45-12.12-8.04,7.28-24.47.62-.52,2.5.51,3.19,0,0-7.79-8.45-10.47-9.65-17.7-5.07-30.59,16.4-16.44,29.87-21.09,5.56-1.92,5.7-10.76,11.66-12.27,15.73-3.97,19.29,13.16,27.81,15.5,11.71,3.21,20.86-13.62,32.77.46,3.61-2.47,22.8-12.33,25.51-9.57-14.82-12.3-10.45-1.67-21.26-.64-5.29.5-9.81-5.56-15.41-5.59-5.95-.04-11.41,7.07-19,6.35-8.61-.82-14.39-16.26-25.1-15.36-6.41.54-12.93,8.33-18.34,10.19-8.64,2.97-26.16,3.63-31.79,10.49-12.58,15.31.77,25.21-.6,33.93-.75,4.8-10.76,13.17-11.29,20.23-.34,4.51,3.58,7.83,4.21,12.1.48,3.25-2.84,8.11-1.44,12.42,1.33,4.1,7.45,4.15,8.53,5.94,2.36,3.89-.76,11.47,3.6,17.19,5.3,6.94,16.29,2.74,18.97,4.97.97.81,1.22,7.31,3.54,10.66,1.96,2.83,9.66,8.31,9.66,9.56,0,2.26-27.72,24.48-31.95,31.81-27.99,48.42-25.18,78.97-19.01,132.55,16.23,22.68,28.54,48.22,52.67,63.76Z"/>
  <path class="st0" d="M1080.45,1259.84v-7.66c-4.15-1.82-7.55-3.04-8.42-4.14-3.39-4.29,2.05-8.24-10.26-18.46.33,4.27,2.47,24.06,3.61,25.11,1.36,1.26,8.68,2.16,15.07,5.15Z"/>
  <path class="st0" d="M931.04,90.25c12.82.9,14.26,19.9,19.03,27.22,14.11,21.64,54.37,38.87,76.5,50.93-4.57,12.5-10.65,22.61-25.38,23.97-9.75,11.23,3.31,22.99,3.18,30.41-.12,6.37-8.63,8.5-9.51,15.95-.26,2.19-.26,26.19-.02,28.34,2.2,19.31,34.49,26.47,44.73,41.95,12.91-4.5,24.62,5.09,33.12,4.63,2.89-.16,5.4-1.25,7.77-2.75v-8.14c-9.82,9.82-17.2-2-24.97-3.69-5.6-1.22-11.5,3.24-16.05.46-5.49-3.35-4.48-14.34-7.24-16.96-.67-.63-13.41-10.09-14.29-10.38-4.08-1.35-11.97,1.66-15.37-3-6.12-8.39,5.31-16.06,4.52-20.37-.53-2.88-6.61-6.37-5.87-10.01.72-3.57,14.75-8.04,15.84-13.25.53-2.52-30.06-39.83,12.82-26.82.23-8.58-2.6-22.67,6.39-27.21,13.58-6.85,15.9,6.88,22.38,9.79,4.07,1.83,8.64-1.73,13.5-1.03,2.69.39,5.41,4.74,7.8,5.15.18.03.35.03.52.04v-13.04c-6.12.28-10.97-.53-5.92-5.57.55-.55,2.81-1.33,5.92-2.23v-7.57c-39.76,9.72-85.66-1.99-122.18-46.25-7.63-9.25-26.32-39.98-24.18-50.53.43-2.13,6.39-1.83,6.7-3.93,1.01-6.94-6.76-15.6-6.35-22.07.12-1.9,4.18-21.41,7.13-34.31h-7.52c-7.85,30.07-6.57,58.86-3,90.25Z"/>
  <path class="st11" d="M942.45,680.4c-1.53-6.41-7.59-12.06-8.14-17.44-.87-8.62,6.65-20.6,6.39-31.64-.27-11.32-7.42-23.32-8.49-34.81-1.5-16.1,11.4-42.06,11.3-61.46-.04-8.78-5.44-14.89-5.85-22.21-1.66-29.79,3.69-46.59,6.09-73.17,1.16-12.87-4.51-74.85,3.03-79.94,44.15-9.57,88.82-13.33,133.66-16.41v-9.08c-11.18.42-22.27.97-32.98,1.79-13.9,1.07-93.49,12.58-101.37,16.62-2.42,1.24-3.64,1.99-5.28,4.29-7.02,9.86-2.5,65.75-3.43,82.73-.58,10.62-6.18,20.68-6.63,31.97-1.21,30.43,8.41,60.45,2.06,91.14-1.68,8.12-7.96,14.79-8.37,23.76-.61,13.32,9.1,29.4,9.5,41.76.39,12-8.51,23.74-6.04,37.8,1.19,6.78,7.84,10.86,9.03,16.91,2.15,10.93-3.7,29.38,6.85,42.33,1.11-.82,4.09-1.7,6.38-3.19-8.64-13.01-4.44-28.03-7.72-41.74Z"/>
  <path class="st2" d="M974.65,2123.3c-2.82-2.4-1.4-7.19-3.03-8.83-11.35-11.46-27.89-19.07-37.4-39.17-4.04,5.15-2.59,9.67-1.22,15.34,6.13,25.46,32.38,60.97,54.36,73.36,13,7.32,54.55,20.81,67.01,11.29,8.53-.05,17.36-1.69,26.08-4.61v-31.36c-33.66,9-83.21,3.16-105.8-16.02Z"/>
  <path class="st2" d="M934.23,1111.5c-6.17,3.19-2.36,11.11-1.68,15.98,2.46,17.49,14.86,42.84,27.54,55.48,10.94,10.9,47.27,29.99,62.56,33.13,17.57,3.61,38.96,1.92,57.8-4.29v-31.94c-57.72,12.42-124.79-12.31-146.22-68.35Z"/>
  <path class="st2" d="M1026.56,168.4c-22.13-12.06-62.39-29.3-76.5-50.93-4.78-7.32-6.21-26.32-19.03-27.22.85,7.45-1.62,15.96.64,23.3,6.82,22.1,28.81,50.35,46.81,64.84,6.58,5.29,9.67,15.19,22.69,13.99,14.73-1.36,20.81-11.47,25.38-23.97Z"/>
  <path class="st2" d="M1074.53,166.89c-5.05,5.03-.19,5.84,5.92,5.57v-7.8c-3.11.9-5.37,1.68-5.92,2.23Z"/>
  <path class="st2" d="M1007.58,948.72c.61-.62-.4-6.96,0-9.54-12.03.34-24.34.37-35.78-4.11-17.89-6.99-47.39-34.56-56.86-51.59-4.11-7.39-2.33-22.22-12.6-20.91.07.57-2.8,3.6-2.36,7.37,2.32,20.26,22.72,41.35,31.06,61.24l35.07,33.51c.55-.55,11.11-8.47,11.81-8.81,6.15-3.03,28.59-6.07,29.66-7.17Z"/>
  <path class="st2" d="M1058.6,936l21.85,8.73v-18.46c-6.92,4.75-14.09,8.55-21.85,9.73Z"/>
  <path class="st12" d="M1061.73,2269.98l-7.95-6.37c-5.66,9.3,10.58,46.03,11.19,19.1,10.36,5.23,8.71,3.65,12.73-6.35-.18-3.55-1.7-6.47-3.19-9.57-12.29-25.6-18.34-28.38-12.79,3.19Z"/>
  <path class="st1" d="M1074.52,2266.79c1.49,3.11,3.01,6.02,3.19,9.57,1.06-2.63,1.97-5.32,2.74-8.03v-34.1c-8.41,7.75-5.72,21.89-5.93,32.56Z"/>
  <path class="st2" d="M902.34,849.8l-3.19-6.38c.28,5.63,3.16,6.03,3.19,6.38Z"/>
  <path class="st2" d="M899.15,837.03v-3.19c0,1.07-.01,2.07,0,3.19Z"/>
  <path class="st12" d="M56.14,1332.05c36.78-4.2,77.82,4.83,106.47,28.38,3.39-19.75,2.66-39.12,3.17-59.04.49-18.99-3.18-14.36-3.3-16.16-.27-3.8,5.34-11.59,3.29-17.33l-6.31,6.35-3.28-28.74c-23.16,6.99-60.83-7.52-80.84-5.38-12.4,1.33-22.91,10.12-41.65,8.66-16.26-1.27-18.18-9.72-19.34-9.67-3,.15-.05,5.66-3.62,6.51-1.69.4-5.61.89-10.28,1.36v108.87c18.35-12.51,40.16-22.04,55.69-23.81Z"/>
  <path class="st0" d="M.45,2198.07v33.32c3.29-10.98,3.58-21.39,0-33.32Z"/>
  <path class="st0" d="M2.29,1670.66c1.89-7.22-.79-17.5,7.3-21.56,7.84-3.94,14.13,2.65,20.08,1.26,6.47-1.5,11.1-14.8,19.92-15.65,10.41-1.01,16.67,12.96,18.97,12.89,1.63-.05,5.22-7.64,9.42-8.27,5.08-.77,17.44,4.39,24.06,5.13.32.04,2.07-2.47,6.23-1.89,3.79.53,21.25,4.12,22.08,5.47,1.76,2.87-.64,9.38.3,13.25.86,3.54,7.64,2.95,9.17,7.57,1.37,4.14-.74,10.52.99,13.38,1.19,1.98,16.91,2.99,17.96,15.38.63,7.45-7.89,11.93-8.45,16-.58,4.15,5.91,7.69,6.01,12.23.11,5.06-6.62,7.45-6.58,12.73.02,2.29,8.65.17,6.47,6.35-2.48,5.25-12.37,7.77-14.51,11.27-3.61,5.89,7.14,19.1-8.71,26.44-10.59,4.91-22.69-9.65-23.04,8.67-20.83-11.98-37.54-8.89-57.1,3.51-3.93,2.49-4.61,9.12-6.93,9.46-5.65.84-10.29-5.53-15.77-6.52-12.01-2.16-29.6,5.6-29.48-15.12.03-4.66,7.79-10.63,5.68-13.67-.22-.31-3.03-.59-5.91-1.84v38.15c12.03,9.86,35.06,2.64,39.5,11.53,6.51,13.01-16.35,36.09-10.59,55.16.83,2.75,31.97,29.29,34.19,29.75,5.67,1.17,9.79-1.46,14.01-.91,2.97.38,5.92,4.87,10.03,5.12,4.55.27,22.21-6.88,29.64-8.52,4.05-.89,8.98,2.19,13.63.97,8.43-2.21,25.17-22.05,27.2-30.53,3.81-15.87-5.05-24.97-10.56-37.66-1.46-3.37.01-8.43-1.79-12.53-2.22-5.05-16.66-11-19.31-13.46-3.27-3.04-.63-9.44-8.48-11.38-.7-8.8,8.53.39,16.87-2.1,16.17-4.84,12.72-22.02,16.71-31.35,2.2-5.14,12.39-9.22,13.7-18.25,1.13-7.8-4.93-19.79-4.29-28.2.44-5.76,6.14-9.07,4.43-18.27-2.32-12.48-14.64-14.57-17.76-19.23-4.93-7.36-5.12-28.15-15.03-34.42-7.42-4.69-24.37-4.24-34.35-7.1-5.18-1.49-10.08-7.8-14.25-8.22-5.99-.6-8.76,8.16-12.65,8.88-5.6,1.04-14.08-16.89-34.27-2.54-4.34,3.08-6.08,9.6-8.2,10.84-2.97,1.75-18.91-5.28-28.39,2.56v30.22c.64-1.29,1.29-2.91,1.84-5.02ZM136.77,1821.86c5.3,8.03,11.3,23.87,13.09,33.23.17.89,3.31,1.83,2.7,7.01-.68,5.79-14.22,23.6-18.73,26.56-6.81,4.48-15.8-2.69-23.6-1.7-6.95.88-11.01,8.88-19.17,9.21-14.75.59-44.17-4.38-36.88-25.11-34.9,8.7-14.43-15.18-9.54-28.73.59-1.62-.57-4.67,0-6.38.79-2.37,3.11-2.98,3.19-3.19,5.98-17.31.53-34.1,25.51-40.14,14.87-3.6,54.71,16.03,63.43,29.25Z"/>
  <path class="st0" d="M.45,1688.76v14.36c1.63-2.82,2.73-6.21,2.74-10.78-1.07-1.36-1.97-2.54-2.74-3.58Z"/>
  <path class="st2" d="M45.21,1581.66c-18.12-4.48-32.68-11.07-44.76-20.09v31.09c46.34,35.46,115.28,35.12,158.76-8.18,3.01-3,23.41-24.51,24.18-26.14,2.63-5.61.41-12.07,2.1-17.15,1.37-4.1,7.14-3.61,9.6-9.67,2.93-7.2,1.25-15.08,2.59-21.1-30.97,55.4-89.22,86.88-152.48,71.24Z"/>
  <path class="st0" d="M178.56,1385.96c2.72,20.49,4.11,11.45,8.09,22.09,6.76,18.06,12.18,65.33,6.89,83.86-9.66,33.81-42.41,69.24-75.46,80.85-43.41,15.25-86.98,3.25-117.63-23.64v12.45c12.08,9.02,26.64,15.61,44.76,20.09,63.26,15.64,121.5-15.84,152.48-71.24,3.54-15.96,6.01-20.23,6.38-38.3.14-7.08.67-15.5,0-22.34-1.86-18.98-10.76-53.59-25.51-63.83Z"/>
  <path class="st0" d="M56.14,1332.05c-15.53,1.77-37.34,11.3-55.69,23.81v10.07c45.44-33.61,107.03-35.5,153.68-1.8,9.97,7.2,14.47,14.92,24.42,21.83-1.77-13.3-4.02-15.73-15.94-25.53-28.66-23.55-69.7-32.58-106.47-28.38Z"/>
  <path class="st0" d="M19.13,2244.45c.56.98,2.22,2.09,3.19,3.19l6.38,6.38c2.54,2.14,9.07,2.57,9.57,3.19l6.38,3.19c17.33-1.27,32.36,3.69,47.83,3.19-1.62-10.03,3.05-5.16,9.57-6.38,5.19-.97,7.57-1.28,12.75-3.19v-3.19c-40.47.03-92.91,20.18-98.8-36.75-2.42-23.37-3.59-122.72,1.45-142.07,3.63-13.91,17.68-21.43,25.33-32.09,10.75-14.99,34.85-61.87,51.57-63.53,23.99-2.37,65.72,29.06,65.07,55.8-5.24,58.51-1.09,151.08-29.34,203.62-4.14,7.7-11.53,7.94-15.3,15.01,2.13,0,4.25,0,6.38,0,1.04-.74,2.16-2.18,3.19-3.19,2.74-2.71,4.19-8.26,9.57-9.57,18.88-35.38,25.65-86.45,28.66-126.09,1.74-22.96,5.43-77.93-1.65-97.22-1.92-5.23-4.43-10.05-7.91-14.41-2.07-2.59-23.35-19.93-26.25-21.53-9.71-5.36-29.44-11.23-39.98-6.63-22.32,16.1-34.25,41.97-50.45,64.51-12.75,17.73-20.76,15.67-26.78,41.81,5.73,43.6-11.47,129.21,9.57,165.95Z"/>
  <path class="st11" d="M19.13,2244.45c-21.04-36.74-3.84-122.35-9.57-165.95-7.7,33.47-1.75,77.43-3.19,113.34-.31,7.72,2.15,10.32-5.93,5.03v1.2c3.58,11.93,3.29,22.35,0,33.32v9.6c6.38-.32,13.11.24,18.68,3.46Z"/>
  <path class="st11" d="M92.47,2263.59c7.39-.24,11.05,2.59,9.57-6.38-6.51,1.22-11.19-3.65-9.57,6.38Z"/>
  <path class="st11" d="M124.35,2247.64c9.57.33,7.38-5.48,9.57-9.57-5.37,1.32-6.82,6.86-9.57,9.57Z"/>
  <path class="st11" d="M38.28,2263.58c2.04,2.01,6-3.15,6.35-3.17l-6.38-3.19c.74.92-.7,5.65.02,6.36Z"/>
  <path class="st11" d="M114.79,2254.02c2.91-1.07,3.71-1.3,6.38-3.19-2.13,0-4.25,0-6.38,0v3.19Z"/>
  <path class="st11" d="M28.7,2254.02l-6.38-6.38c2.53,2.86,3.3,3.79,6.38,6.38Z"/>
  <path class="st8" d="M.45,548.16v5.87c.97-.27,1.89-.62,2.74-1.06-1-1.53-1.91-3.14-2.74-4.8Z"/>
  <path class="st8" d="M164.16,166.73c-5.43,6.03-17.49,4.89-17.49,16.07,24.93,4.58,47.8,74.05,47.78,97.34,0,10.65-7.03,33.26-9.52,46.28-1.76,9.17.59,15.01-4.02,26.31-3.03,7.44-27.65,47.8-32.79,53.33-6.91,7.44-54.13,27.7-63.78,28.75-22.08,2.4-62.59-11.05-83.89-24.83v102.41c2.2-2.95,5.19-5.45,9.12-7.26l1.3-1.3c.63-.83,1.27-1.75,1.89-1.89,4.44-1,11.09.76,15.94,0,1.04-.16,2.15.16,3.19,0,21.54-3.29,56.74-10.34,77.66-2.71,5.88,2.14,3.91,8.74,6.23,11.27,2.7,2.94,8.28,3.46,10.24,7.28,3.19,6.22-.16,14.68,2.08,18.8.89,1.63,7.41,1.95,9.01,3.66,1.03,1.11,2.25,1.9,3.19,3.19.45.62-.37,2.16,0,3.19.27.75,3.14,1.71,3.23,4.89.13,4.12-3.14,4.42-3.23,4.68-.34.91-2.67,1.94-3.19,3.19-.25.6-.06,2.18,0,3.19.06,1.06-.1,2.14,0,3.19.08.38.1.8.1,1.23,1.3,15.3-.24,29.2-.1,43.45.19,20.5,3.94,13.22,9.57,22.34l.77.77c.73.6,1.74,1.34,2.42,2.42.63,1-.53,4.91.71,7.27,2.55,4.86,8.63,8.17,8.75,13.3.15,6.11-6.85,25.49-8.69,32.8-2.95,11.73,3.07,19.12-10.46,27.88-6.5,4.21-13.1,3.82-18.67,6.85-18.8,10.22-26.44,18.2-49.6,17.29-7-.27-13.63-4.41-20.88-3.29-2.9,18.34-4.81,43.69-25.47,49.52-13.26,3.74-15.94,6.6-25.11,9.64v179.58c3.62-12.74,8.3-24.6,22.74-35.2,7.07-5.19,19.21-8.98,23.69-13,4.9-4.38,11.1-19.31,16.96-26.09,16.32-18.87,30.94-22.74,55.5-14.21,16.17,5.61,43.01,48.81,45.68,65.96,4.99,32.05-18.35,38.89-17.73,49.73.78,13.72,24.27,43.84,21.21,60.46-.45,2.47-19.96,41.23-22.35,44.9-5.71,8.74-17.73,14.25-20.09,18.19-7.1,11.87.97,39.76-19.93,43.88-18.59.29-85.92,10.03-94.96-8.87-6.78-14.19,6.82-35.83,3.36-41.48-2.1-3.43-7.65-6.67-14.08-10.16v136.05c4.67-.48,8.59-.96,10.28-1.36,3.58-.85.63-6.37,3.62-6.51,1.16-.06,3.08,8.4,19.34,9.67,18.74,1.47,29.25-7.33,41.65-8.66,20.01-2.14,57.68,12.37,80.84,5.38l3.28,28.74,6.31-6.35c2.05,5.74-3.56,13.54-3.29,17.33.13,1.81,3.79-2.83,3.3,16.16-.51,19.92.22,39.28-3.17,59.04,11.93,9.8,14.18,12.23,15.94,25.53,14.74,10.24,23.65,44.85,25.51,63.83V112.59c-6.01,19.47-11.13,24.62-24.71,38.3-6.41,6.46-8.35,8.23-15.19,15.84Z"/>
  <path class="st9" d="M216.82,45.57s.05-.07,0,0c0,0,2.96-.03,5,.03.46,0,.92,0,1.38-.03,0-2.13,0-4.26,0-6.38l-3.12-1.6,3.12-1.6c0-11.56,0-23.75,0-35.99h-7.23c.22,1.26.38,2.24.45,2.88,1.4,12.52,1.16,29.93.4,42.68Z"/>
  <path class="st0" d="M54.19,150.9c2.29,12.91-9.57.74-17.13,3.38-4.21,1.47-4.31,7.85-5.67,8.7-1.21.76-15.98,4.67-25.02,10.24-1.35.83-3.46,2.05-5.93,3.46v9.45c10.53-6.63,22.54-11.14,35.33-13.84,2.87-.61,5.55-4.44,7.91-4.84,1.47-.24,20.89,7.52,28.45,8.56,24.61,3.39,46.37,1.66,71.35,6.78-.5-1,1.02-4.2-.4-5.88l-41.02-19.62c14.85-6.61,40.83-10.36,53.95-17.82,11.12-6.33,41.47-35.24,48.05-46.05,8.82-14.47,11.71-30.45,12.75-47.87-.76,1.08-6.59,18.33-9.85,26.19-15.63,37.58-64.92,69.49-103.49,77.26-27.75,5.59-74.13-7.68-103.03-25.86v8.6c9.1,6.6,17.88,13.99,28.81,16.97,8.47,2.31,16.24,2.75,24.93,2.18Z"/>
  <path class="st0" d="M136.03,373.21c-32.91,25.97-102.36,24.61-134.49-2.07-.36-.3-.73-.62-1.1-.94v7.95c42.2,27.57,100.7,32.04,141.36-.75l43.12-50.99c2.49-13.02,9.51-35.63,9.52-46.28.02-23.29-22.85-92.75-47.78-97.34-1.03-.19-2.17.21-3.19,0,8.43,17.05,26.16,29.73,34.14,53.59,15.43,46.13-3.47,106.74-41.59,136.82Z"/>
  <path class="st2" d="M156.01,139.49c-13.12,7.46-39.1,11.21-53.95,17.82l41.02,19.62c1.42,1.67-.09,4.87.4,5.88,1.02.21,2.16-.19,3.19,0,0-11.18,12.06-10.04,17.49-16.07,6.85-7.61,8.79-9.38,15.19-15.84,13.59-13.69,18.7-18.84,24.71-38.3,1.76-5.71,7.24-14.42,0-19.15-6.58,10.81-36.93,39.72-48.05,46.05Z"/>
  <path class="st3" d="M943.76,439.67c-2.41,26.58-7.76,43.38-6.09,73.17.41,7.31,5.8,13.43,5.85,22.21.1,19.4-12.81,45.36-11.3,61.46,1.07,11.49,8.22,23.48,8.49,34.81.26,11.03-7.26,23.01-6.39,31.64.54,5.38,6.6,11.04,8.14,17.44,3.28,13.71-.92,28.73,7.72,41.74,52.43-34.15,83.26-25.26,130.28-4.25v-374.58c-44.84,3.09-89.5,6.85-133.66,16.41-7.53,5.1-1.86,67.08-3.03,79.94Z"/>
  <polygon class="st9" points="220.07 37.59 223.19 39.18 223.19 35.99 220.07 37.59"/>
  <path class="st12" d="M1080.45,1891.34v-2.39c-.69-2.09-3.38-3.95-9.12-5.21,2.95-4.02,6.53-7.95,9.12-11.71v-15.11c-1.47-1.22-3.44-2.39-6.06-3.52-2.25-7.53,2.84-7.81,6.06-9.73v-24.66c-5.47-5.64-12.64-11.08-12.31-21.37-.77.34-2.08-.24-3.19,0-1.91.41-7.62.4-9.57,0-11.84-2.44-8.53-11.44-17.6-12.95-17.76-2.97-24.1,16.12-25.7,16.24-10.62.8-31.45-8.65-45.96-.12-.27-3.94,3.77-5.87-.01-9.56-5.18,1.17-12.98-4.11-12.82,4.82.22,13,12.87,8.72,9.69,19.12-1.27,4.17-19.88.77-15.94,22.12.89,4.81,5.78,8.28,5.99,12.79.21,4.29-7.29,18.44,3.75,16.5,3.05-.53,13.65-7.2,15.62-5.1.43.45-.39,6.02,1.98,9.25,4.12,5.62,15.97,20.12,18.74,25.92,2.46,5.15.09,12.42,4.88,15.87,23.1-6.99,40.93-14.07,66.96-9.57,6.41-2.43,14.18-7.23,15.49-11.62Z"/>
  <path class="st4" d="M993.12,1896.67c-2.77-5.79-14.62-20.29-18.74-25.92-2.37-3.23-1.55-8.79-1.98-9.25-1.97-2.09-12.57,4.57-15.62,5.1-11.05,1.94-3.55-12.21-3.75-16.5-.22-4.5-5.11-7.97-5.99-12.79-3.94-21.35,14.67-17.95,15.94-22.12,3.18-10.4-9.47-6.12-9.69-19.12-.15-8.93,7.64-3.64,12.82-4.82-15.71-15.3-21.09,16.64-25.88,23.56-5.67,8.2-20.97,9.22-15.16,25.51,1.73,4.84,10.16,2.97,11.64,20.49.8,9.49,3.33,22.27,3.61,27.6.24,4.47-4.1,9.46-2.53,15.48,2.2,8.46,12.76,6.74,15.89,10.72,2.03,2.58,2.19,10.12,2.93,10.7,2.5,1.94,35.57-11.02,41.39-12.78-4.79-3.45-2.42-10.72-4.88-15.87Z"/>
  <path class="st4" d="M1080.45,1888.95v-16.92c-2.59,3.76-6.17,7.69-9.12,11.71,5.74,1.26,8.43,3.12,9.12,5.21Z"/>
  <path class="st4" d="M1074.39,1853.41c2.61,1.12,4.58,2.3,6.06,3.52v-13.24c-3.21,1.91-8.31,2.2-6.06,9.73Z"/>
  <path class="st4" d="M1064.95,1902.96c2.27.39,8.94,3.62,15.49,6.71v-18.33c-1.32,4.39-9.08,9.19-15.49,11.62Z"/>
  <path class="st4" d="M1068.14,1797.65c-.34,10.3,6.84,15.73,12.31,21.37v-30.29c-.22.01-.43.02-.66.04-7.14.65-10.29,8.28-11.65,8.88Z"/>
  <path class="st4" d="M1064.95,1797.65c-3.28-3.81-6.25-3.75-9.57,0,1.95.4,7.65.41,9.57,0Z"/>
  <path class="st1" d="M1016.67,891.04c-43.35,0-78.5-35.18-78.5-78.57s35.14-78.57,78.5-78.57c26.28,0,49.53,12.94,63.78,32.79v-42.19c-17.36-10.76-37.83-16.98-59.75-16.98-62.76,0-113.63,50.92-113.63,113.74s50.88,113.74,113.63,113.74c21.92,0,42.39-6.22,59.75-16.98v-59.78c-14.25,19.85-37.5,32.79-63.78,32.79Z"/>
  <path class="st10" d="M1017.19,1309.36c13.73,14.55,12.04,5.75,21.27,4.36,6.2-.94,23.5,2.69,19.79-11.8-2.37-9.29-14.05-5.19-15.6-11.67,6.93-.54,25.3-1.83,28.65-8.06,4.57-8.5-20.53-7.22-23.17-7.92-3.42-.91-3.15-6.41-5.55-7.88-4.12-2.53-10.85-.79-12.3-2.1-.64-.58-3.73-16.01-3.66-16.87.05-.63,8.37-7.4,9.64-8.26-11.91-14.08-21.06,2.75-32.77-.46-8.52-2.33-12.08-19.47-27.81-15.5-6.36,10.51-2.45,21.09-.01,31.89l-20.68-9.59c-3.75.15-.43,7.98-1.29,9.94,1.54-1.54,4.03-1.54,5.57,0,1.54,1.54,1.54,4.04,0,5.58s-4.03,1.54-5.57,0-1.54-4.04,0-5.58c-.65.1-4.95-1.16-6.2.24-1.91,2.15,6.61,10.91-3.7,18.58-.69.51-2.57-.52-3.19,0-5.35,20.06,16.61,13.09,20.93,22.33,3.84,8.22-11.8,17.25,15.48,22.92,5.08,1.05,13.83-.98,14.32-.46.93,1.01,6,18.7,13.04,22.22,6.23-2.46,9.01-6.23,9.57-6.38-10.56-13.33-.49-13.19,3.25-25.53Z"/>
  <path class="st4" d="M1036.26,1239.15c-1.26.86-9.59,7.63-9.64,8.26-.07.86,3.02,16.29,3.66,16.87,1.45,1.31,8.18-.43,12.3,2.1,2.4,1.47,2.13,6.97,5.55,7.88,2.64.71,27.74-.57,23.17,7.92-3.35,6.22-21.72,7.52-28.65,8.06,1.54,6.48,13.22,2.38,15.6,11.67,3.7,14.49-13.59,10.86-19.79,11.8-9.23,1.4-7.54,10.2-21.27-4.36-3.74,12.34-13.81,12.2-3.25,25.53,3.86-1.03,27.19-2.89,33.63-3.34,5.72-.4,12.74,3.6,15.56,3.03,6.71-1.34,3.75-13.71,5.36-15.3,1.56-1.53,7.23,0,11.96-2.36v-57.09c-6.39-2.99-13.71-3.88-15.07-5.15-1.14-1.06-3.28-20.84-3.61-25.11-2.71-2.76-21.9,7.1-25.51,9.57Z"/>
  <path class="st4" d="M991.34,1319.05c-.49-.53-9.24,1.51-14.32.46-27.28-5.66-11.64-14.7-15.48-22.92-4.32-9.25-26.28-2.27-20.93-22.33-19.4,16.43-10.01,9.02-7.28,24.47.67,3.8-3.73,12.33-2.29,13.82.92.95,8.64-.92,9.58.02,1.92,1.95-5.39,11.79-.39,17.72,6.77,8.04,20.83,3.03,22.58,4.75.62.61-.16,8.6,1.74,12.5,7.2,14.76,29.69-2.25,39.84-6.26-7.03-3.53-12.11-21.22-13.04-22.22Z"/>
  <path class="st1" d="M953.69,1261.02c1.54,1.54,4.03,1.54,5.57,0s1.54-4.04,0-5.58c-1.54-1.54-4.03-1.54-5.57,0-1.54,1.54-1.54,4.04,0,5.58Z"/>
  <path class="st1" d="M947.49,1255.68c1.25-1.4,5.55-.14,6.2-.24.86-1.96-2.46-9.79,1.29-9.94l20.68,9.59c-2.43-10.8-6.34-21.38.01-31.89-5.96,1.5-6.1,10.35-11.66,12.27-13.47,4.65-34.94-9.5-29.87,21.09,1.2,7.24,9.64,9.91,9.65,17.7,10.31-7.67,1.79-16.43,3.7-18.58Z"/>
  <path class="st1" d="M940.78,56.38c-.31,2.1-6.26,1.79-6.7,3.93-2.13,10.55,16.55,41.28,24.18,50.53,36.52,44.25,82.41,55.96,122.18,46.25v-36.05c-8.95,2.97-18.52,4.58-28.47,4.58-49.95,0-90.44-40.53-90.44-90.52,0-12.44,2.51-24.3,7.05-35.09h-27.03c-2.95,12.89-7.01,32.41-7.13,34.31-.41,6.47,7.36,15.13,6.35,22.07Z"/>
  <path class="st12" d="M11.79,1732.91c2.86,6.03,13.2,9.69,13.41,12.01.51,5.58-14.85,12.58,1.91,30.36,13.13,13.93,13.97,5.77,22.9,4.39,19.34-3,14.08-5.97,25.64-10.02,11.08-3.88,18.88,1.87,27.84-13.75,2.05-3.57.77-9.35,2.42-11.79,4.18-6.19,23.75-1.61,17.61-27.02-2.05-8.47-8.6-9.39-11.91-15.16l19.09,6.34c-1.32-23.5-10.4-46.63-38.23-41.49-1.49-9.68,2.16-5.04,7.28-6.21,4.94-1.13,1.29-12.43,2.27-16.11-6.62-.74-18.99-5.9-24.06-5.13-4.19.63-7.79,8.22-9.42,8.27-2.29.08-8.56-13.89-18.97-12.89-8.82.85-13.44,14.15-19.92,15.65-5.96,1.39-12.24-5.2-20.08-1.26-8.09,4.06-5.41,14.33-7.3,21.56-.55,2.11-1.19,3.73-1.84,5.02v13.07c.77,1.03,1.67,2.21,2.74,3.58,12.85,16.4,3.47,29.76,8.61,40.58Z"/>
  <path class="st4" d="M.69,1782.66c-.13,20.71,17.46,12.95,29.48,15.12,5.48.99,10.12,7.36,15.77,6.52,2.32-.34,3-6.97,6.93-9.46,19.56-12.4,36.26-15.49,57.1-3.51.34-18.32,12.44-3.76,23.04-8.67,15.84-7.34,5.1-20.55,8.71-26.44,2.14-3.5,12.03-6.01,14.51-11.27,2.18-6.18-6.45-4.06-6.47-6.35-.04-5.28,6.69-7.67,6.58-12.73-.1-4.54-6.59-8.08-6.01-12.23.56-4.07,9.08-8.55,8.45-16-1.05-12.4-16.77-13.41-17.96-15.38-1.72-2.86.39-9.24-.99-13.38-1.53-4.62-8.31-4.03-9.17-7.57-.94-3.88,1.47-10.39-.3-13.25-.84-1.36-18.29-4.94-22.08-5.47-4.17-.59-5.91,1.92-6.23,1.89-.98,3.68,2.67,14.99-2.27,16.11-5.12,1.17-8.77-3.47-7.28,6.21,27.83-5.14,36.91,17.98,38.23,41.49l-19.09-6.34c3.31,5.77,9.86,6.69,11.91,15.16,6.14,25.41-13.42,20.84-17.61,27.02-1.65,2.45-.37,8.23-2.42,11.79-8.96,15.62-16.76,9.87-27.84,13.75-11.56,4.05-6.3,7.02-25.64,10.02-8.93,1.38-9.77,9.54-22.9-4.39-16.76-17.78-1.4-24.77-1.91-30.36-.21-2.32-10.55-5.99-13.41-12.01-5.14-10.82,4.24-24.18-8.61-40.58,0,4.58-1.11,7.97-2.74,10.78v64.03c2.89,1.25,5.7,1.53,5.91,1.84,2.11,3.04-5.65,9.01-5.68,13.67Z"/>
  <path class="st12" d="M73.34,1792.61c-24.99,6.05-19.53,22.83-25.51,40.14l-3.19,3.19c-.57,1.71.59,4.76,0,6.38,6.95-.48,26.37,6.74,25.1,13.74-.72,3.99-9.44,7.41-4.57,15.09,4.49,7.08,38.78,10.28,46.47,8.19,11.91-3.23,23.8-21.9,38.22-24.26-1.8-9.36-7.8-25.2-13.09-33.23-8.71-13.22-48.55-32.85-63.43-29.25Z"/>
  <path class="st4" d="M65.17,1871.16c-4.87-7.68,3.85-11.1,4.57-15.09,1.27-7.01-18.15-14.22-25.1-13.74-4.89,13.55-25.36,37.44,9.54,28.73-7.29,20.73,22.13,25.7,36.88,25.11,8.16-.33,12.23-8.33,19.17-9.21,7.79-.99,16.78,6.18,23.6,1.7,4.51-2.96,18.04-20.78,18.73-26.56.61-5.18-2.53-6.12-2.7-7.01-14.41,2.36-26.31,21.03-38.22,24.26-7.69,2.08-41.98-1.11-46.47-8.19Z"/>
  <path class="st4" d="M44.64,1835.95l3.19-3.19c-.07.21-2.4.82-3.19,3.19Z"/>
  <path class="st1" d="M154.13,1364.13c-46.66-33.7-108.24-31.81-153.68,1.8v40.62c12.85-29.02,41.87-49.28,75.63-49.28,45.68,0,82.71,37.07,82.71,82.79s-37.03,82.79-82.71,82.79c-33.76,0-62.78-20.26-75.63-49.28v75.55c30.65,26.89,74.22,38.89,117.63,23.64,33.05-11.61,65.8-47.05,75.46-80.85,5.29-18.52-.13-65.8-6.89-83.86-3.98-10.65-5.37-1.6-8.09-22.09-9.95-6.91-14.45-14.62-24.42-21.83Z"/>
  <path class="st13" d="M130.08,2235.82c28.25-52.55,24.09-145.11,29.34-203.62.64-26.73-41.08-58.17-65.07-55.8-16.72,1.65-40.82,48.54-51.57,63.53-7.65,10.66-21.71,18.18-25.33,32.09-5.04,19.34-3.87,118.7-1.45,142.07,5.89,56.92,58.33,36.77,98.8,36.75,3.77-7.07,11.16-7.31,15.3-15.01ZM42.07,2197.56c-4.09-13.56,2.39-27.95,2.7-40.75.62-26.09-4.33-55.3,6.76-79.4,5.08-11.04,20.58-31.54,33.11-33.87,6.07-1.13,65.77.58,55.44,12.47-.79.91-6.29-1.4-6.18,1.7,17.54,25.1-3.38,63.46-8.68,90.27-2.95,14.96-3.43,55.5-8.91,64.49-10.07,16.51-69.43,1.08-74.25-14.91Z"/>
  <path class="st0" d="M51.02,738.08c7.25-1.12,13.88,3.01,20.88,3.29,23.16.91,30.81-7.07,49.6-17.29,5.57-3.03,12.17-2.63,18.67-6.85,13.53-8.77,7.51-16.16,10.46-27.88,1.84-7.31,8.84-26.7,8.69-32.8-.13-5.13-6.2-8.44-8.75-13.3-1.24-2.36-.08-6.27-.71-7.27l-2.42-2.42c-.34-.28-.62-.53-.77-.77-5.62-9.12-9.37-1.84-9.57-22.34l-19.05-4.73c6.95-4.52-.8-16.96-.11-17.59.43-.39,5.5,1.31,9.77-2.16,3.05-2.48,9.48-13.12,9.49-18.97-.03-.41-.06-.82-.1-1.23-.1-1.05.06-2.13,0-3.19l-3.13-1.6,3.13-1.59c.51-1.25,2.85-2.28,3.19-3.19v-9.57c-.37-1.03.45-2.57,0-3.19l-3.19-3.19c-1.6-1.72-8.12-2.03-9.01-3.66-2.24-4.12,1.11-12.58-2.08-18.8-1.96-3.82-7.54-4.34-10.24-7.28-2.31-2.52-.34-9.12-6.23-11.27-20.92-7.63-56.12-.58-77.66,2.71l-1.59,3.13-1.59-3.13c-4.86.76-11.51-1-15.94,0l-1.89,1.89c-.44.57-.88,1.1-1.3,1.3-3.92,1.81-6.92,4.31-9.12,7.26v35.77c.83,1.66,1.74,3.27,2.74,4.8-.85.44-1.77.79-2.74,1.06v20.38c.92,1.81,3.32,2.37,9.14-.67,4.34-2.27,10.02-13.68,17.74-1.58,3.69,5.77-4.02,16.66-1.76,19.04.64.67,8.57-.35,11.38,3.13,2.98,3.7-3.2,10.18-1.61,12.47.97,1.4,8.18,1.71,9.3,5.41,1.59,5.26-4.25,8.96-5.23,13.2-.7,3.03,2.25,7.29.62,10.57-2.07,4.16-8.9,4.77-10.48,7.21-3.59,5.53.97,15.75-9.53,20.78-7.83,3.75-14.16,4.49-19.56,3.9v10.89c.37.98.86,1.77,1.67,1.96,12.44,2.91,32.19-14.4,23.39,12.68-.52,1.61.35,4.4,0,6.38.63-.12,8.02,3.95,12.73,0,1.34,1.37-2.15,12.88-3.17,15.95,21.57.7,8.4,9.57,7.27,17.93-1.12,8.23,9.02,17.07-10.46,17.21-.64,7.2,7.26,9.4,6.57,17.25-.1,1.09-12.84,11.7-17.55,11.71-3.89,0-13.45-4.58-14.48-3.47-.9.97,1.56,10.08-5.23,12.38-.1.03-.36.09-.74.15v8.33c9.17-3.04,11.85-5.9,25.11-9.64,20.66-5.83,22.57-31.18,25.47-49.52ZM44.64,591.3c-.4-.75-5.76-2.42-7.78-6.45-3.23-6.46-2.62-17.77-9.5-22.53-5.57-3.86-13.89-2.36-14.65-2.95-1.01-.78,5.4-14.51-9.51-20.75,14.04-3.78.85-8.08.15-15.88-2-22.34,30.08-9.92,39.34-11.35,2.34-.36,1.8-6.19,3.9-6.48,4.52-.62,10.36,4.06,15.22,3.6,1.71-.16,1.15-10.09,12.72-6.6,2.23.67,1.82,6.45,3.81,6.47,3.12.03,6.98-3.86,11.81-2.73,5.81,1.35,9.48,13.4,13.45-.51,4.86,10.01,15.45,12.15,17.55,22.33.21,1-.11,2.15,0,3.19.39,3.63.38,9.13,0,12.77,16.59.91,3.69,18.31,9.03,28.08-20.39,11.09-22.31,38.12-50.48,26.17-2.16,1.55-6.13-2.19-12.75,6.38-.34,1.5-1.73,3.03-3.19,3.19-3.02.33-10.31.62-12.75,0-1.68-.43-2.23-2.04-3.19-3.19-5.15-6.17-2.16-10.85-3.19-12.77ZM35.74,673.17c1.07-3.78,5.62-4.91,5.71-5.28.46-1.87-.46-4.52,0-6.38,1.1-4.43,1.98-8.31,3.19-12.77.94-3.46,2.36-6.57,3.19-9.57.26-.95-.21-2.14,0-3.19.39-1.92-.32-4.37,0-6.38.24-1.47,1.72-2.76,3.19-3.19l3.22-15.96c14.28,12.07,11.16,3.97,19.15-4.74,11.2-12.2,9.86,2.23,13.23,4.2,4.77,2.79,10.97-2.35,14.09-1.87,3.61.56,3.15,8.48,6.57,9.06,9.17,1.55,36.51-14.85,20.27,12.49-.74,1.25.75,5.45,0,6.38,21.32-4.68,8.93,11.45,13.09,15.78,1.29,1.35,8.63-1.52,9.3,1.75,2.64,12.94-6.37,11.1-6.63,13.17-1.11,8.89,12.07,19.64-6.2,17.18,11.82,26.7-2.21,35.4-28.69,28.71.54,4.77-3.92,11.22-8.6,12.27-1.18.26-22.11.06-24.1-.18-2.88-.35-5.81-5.87-9.8-5.26-3.37.52-5.96,7.69-11.68,5.94-1.33-22.6-24.85-29.83-18.5-52.17Z"/>
  <path class="st2" d="M6.38,173.22c9.04-5.57,23.81-9.48,25.02-10.24,1.36-.86,1.46-7.24,5.67-8.7,7.56-2.64,19.42,9.53,17.13-3.38-8.69.58-16.46.14-24.93-2.18-10.93-2.98-19.71-10.37-28.81-16.97v36.9c1.45,2.29,3.32,4.28,5.93,4.57Z"/>
  <path class="st2" d="M84.34,434.8c9.66-1.05,56.87-21.31,63.78-28.75,5.14-5.53,29.76-45.9,32.79-53.33,4.6-11.3,2.26-17.14,4.02-26.31l-43.12,50.99c-40.67,32.79-99.16,28.32-141.36.75v31.83c21.3,13.77,61.81,27.23,83.89,24.83Z"/>
  <path class="st0" d="M14.52,1121.1c3.46,5.64-10.14,27.29-3.36,41.48,9.04,18.91,76.37,9.16,94.96,8.87,20.89-4.12,12.82-32.01,19.93-43.88,2.36-3.94,14.38-9.45,20.09-18.19,2.4-3.67,21.9-42.44,22.35-44.9,3.06-16.61-20.43-46.73-21.21-60.46-.62-10.84,22.72-17.69,17.73-49.73-2.67-17.15-29.51-60.35-45.68-65.96-24.56-8.53-39.18-4.66-55.5,14.21-5.86,6.78-12.07,21.71-16.96,26.09-4.49,4.01-16.63,7.81-23.69,13-14.44,10.6-19.12,22.46-22.74,35.2v23.67c6.67-20.58,6.16-42.48,27.23-54.37,33.72-19.03,20.46-13.99,42.55-40.39,14.05-16.8,33.12-19.71,52.68-8.22,8.13,4.77,34.19,47.05,35.76,56.78,4.53,28.12-9.14,24.22-16,39.95-7.31,16.76,19.43,47.78,16.69,70.67-.59,4.89-20.05,46.46-23.2,48.8-4.72,3.51-15.98,2.55-19.78,10.53-4.6,9.66,3.16,36.95-10.12,41.12-6.93,2.18-12.9-2.45-18.58-2.2-12.2.54-63.02,8.91-68.09-5.84-4.53-13.16,7.21-32.88,1.19-42.7-2.1-3.43-11.08-7.06-20.32-11.86v8.16c6.43,3.49,11.97,6.73,14.08,10.16Z"/>
  <path class="st11" d="M127.72,585.97c-4.27,3.47-9.34,1.77-9.77,2.16-.69.62,7.05,13.06.11,17.59l19.05,4.73c-.13-14.25,1.4-28.15.1-43.45,0,5.85-6.44,16.5-9.49,18.97Z"/>
  <path class="st11" d="M137.1,565.77c.04.41.07.82.1,1.23,0-.44-.03-.85-.1-1.23Z"/>
  <path class="st11" d="M143.53,551.51c-.1-3.18-2.96-4.15-3.23-4.89v9.57c.1-.27,3.36-.56,3.23-4.68Z"/>
  <path class="st11" d="M147.44,633.56l2.42,2.42c-.67-1.08-1.69-1.82-2.42-2.42Z"/>
  <path class="st11" d="M147.44,633.56l-.77-.77c.15.24.43.49.77.77Z"/>
  <path class="st11" d="M137.1,562.57c-.06-1.01-.25-2.59,0-3.19l-3.13,1.59,3.13,1.6Z"/>
  <path class="st11" d="M137.1,540.23l3.19,3.19c-.94-1.29-2.16-2.08-3.19-3.19Z"/>
  <path class="st2" d="M31.88,501.94c-1.04.16-2.15-.16-3.19,0l1.59,3.13,1.59-3.13Z"/>
  <path class="st2" d="M10.87,503.83l1.89-1.89c-.61.14-1.25,1.06-1.89,1.89Z"/>
  <path class="st2" d="M10.87,503.83l-1.3,1.3c.43-.2.86-.73,1.3-1.3Z"/>
  <path class="st8" d="M6.38,173.22c-2.61-.28-4.48-2.28-5.93-4.57v8.03c2.47-1.41,4.58-2.63,5.93-3.46Z"/>
  <path class="st10" d="M1016.67,733.9c-43.35,0-78.5,35.18-78.5,78.57s35.14,78.57,78.5,78.57c26.28,0,49.53-12.94,63.78-32.79v-91.55c-14.25-19.85-37.5-32.79-63.78-32.79Z"/>
  <path class="st10" d="M1051.97,125.61c9.95,0,19.52-1.61,28.47-4.58V0h-111.86c-4.54,10.79-7.05,22.65-7.05,35.09,0,49.99,40.49,90.52,90.44,90.52Z"/>
  <path class="st4" d="M12.34,2297.65c-.38.2-.76.43-1.12.69.37-.23.75-.46,1.12-.69Z"/>
  <path class="st10" d="M76.08,1522.85c45.68,0,82.71-37.07,82.71-82.79s-37.03-82.79-82.71-82.79c-33.76,0-62.78,20.26-75.63,49.28v67.02c12.85,29.02,41.87,49.28,75.63,49.28Z"/>
  <path class="st14" d="M133.91,2057.72c-.11-3.1,5.38-.79,6.18-1.7,10.32-11.89-49.37-13.6-55.44-12.47-12.53,2.33-28.03,22.83-33.11,33.87-11.09,24.1-6.14,53.31-6.76,79.4-.31,12.8-6.79,27.19-2.7,40.75,4.82,16,64.18,31.42,74.25,14.91,5.48-8.98,5.96-49.53,8.91-64.49,5.29-26.81,26.21-65.18,8.68-90.27Z"/>
  <path class="st12" d="M69.49,596.95c.76-.45,7.36-12.06,7.05-13.55-1.17-5.69-13.35-2.11-12.75-8.01,9.06,1.7,11.88-11.71,13.06-12.47,1.02-.65,15.01,6.73,20.41-6.7,2.69.76,2.16,9.31,1.68,11.17-.21.81-17.57,2.85-9.65,11.14,6.74,7.06,5.54-15.9,12.74.02,9.34-15.85,16.58-10.98,19.13-35.11.38-3.63.39-9.14,0-12.77l-3.12-1.6,3.12-1.6c-2.1-10.18-12.69-12.32-17.55-22.33-3.97,13.91-7.64,1.86-13.45.51-4.83-1.12-8.7,2.76-11.81,2.73-1.99-.02-1.58-5.79-3.81-6.47-11.58-3.49-11.01,6.44-12.72,6.6-4.85.46-10.7-4.22-15.22-3.6-2.1.29-1.57,6.12-3.9,6.48-9.27,1.44-41.34-10.99-39.34,11.35.7,7.8,13.89,12.1-.15,15.88,14.91,6.23,8.5,19.96,9.51,20.75.76.59,9.08-.91,14.65,2.95,6.88,4.77,6.28,16.07,9.5,22.53,2.01,4.03,7.37,5.69,7.78,6.45,12.66-9.87,10.73,13.93,24.86,5.65Z"/>
  <path class="st12" d="M17.5,683.83c-8.78-2.49-4.27,16.08-12.69,12.81-3.5-.54-.27-7.87-1.81-9.25-.19-.17-1.13-.4-2.56-.66v58.35c2.32-1.8,4.85-4.05,7.7-6.94,3.16-3.21,10.67-11.19,10.98-16-2.11-.1-4.26.17-6.37,0-.91-12.45-.35-19.89,12.74-22.35.35-1.99-.52-4.77,0-6.38-5.24-.22-4.7-8.66-8.01-9.6Z"/>
  <path class="st12" d="M95.65,690.23c1.7-1.37,2.41-8.9,6.41-11.17,4-2.27,11.56-.82,12.51-1.84,1.3-1.4-.79-7.41.32-10.09,1.62-3.9,8.87-1.49,6.34-10.44-.3-1.07-13.14-1.13-1.46-17.46,2.3-3.22,7.41-2.83,7.76-3.26.75-.93-.74-5.13,0-6.38l-25.48,3.22c2.73-16.1-7.2-7.07-17.1-9.56-2.69-.68-1.23-11.22-8.5-4.89-8.17,7.11-6.11,15.41-25.44,11.24h-3.19c-.32,2.01.39,4.46,0,6.38l3.14,1.61-3.14,1.58c-.83,3-2.25,6.11-3.19,9.57,6.09,5.49,5.34,15.44-3.19,12.77-.46,1.86.46,4.52,0,6.38,14.47,6.16,36.92,36.25,54.2,22.34Z"/>
  <path class="st4" d="M119.78,639.24c-11.68,16.33,1.16,16.39,1.46,17.46,2.53,8.95-4.72,6.54-6.34,10.44-1.11,2.68.97,8.69-.32,10.09-.95,1.02-8.5-.44-12.51,1.84-4,2.27-4.72,9.8-6.41,11.17,2.07,4.95,12.37,18.96,12.75,22.34,26.48,6.68,40.52-2.01,28.69-28.71,18.27,2.47,5.09-8.29,6.2-17.18.26-2.06,9.27-.22,6.63-13.17-.67-3.27-8.01-.41-9.3-1.75-4.16-4.34,8.23-20.47-13.09-15.78-.35.43-5.46.05-7.76,3.26Z"/>
  <path class="st4" d="M76.46,618.36c7.27-6.33,5.81,4.21,8.5,4.89,9.9,2.49,19.83-6.53,17.1,9.56l25.48-3.22c16.25-27.33-11.1-10.94-20.27-12.49-3.41-.58-2.95-8.5-6.57-9.06-3.12-.48-9.32,4.66-14.09,1.87-3.37-1.97-2.03-16.4-13.23-4.2-7.99,8.7-4.87,16.81-19.15,4.74l-3.22,15.96v3.19c19.33,4.17,17.28-4.12,25.44-11.24Z"/>
  <path class="st1" d="M51.02,607.25c2.44.62,9.73.33,12.75,0,.91-1.18,2.29-2.03,3.19-3.19,6.62-8.57,10.59-4.83,12.75-6.38.29-.21-1.37-5.55,2.12-6.42,4.96-1.24,12.32,1.77,17.27-1.37,4.1-2.6,1.99-9.78,2.93-11.36-7.2-15.92-5.99,7.04-12.74-.02-7.92-8.29,9.45-10.32,9.65-11.14.48-1.86,1.01-10.41-1.68-11.17-5.41,13.44-19.4,6.05-20.41,6.7-1.18.76-4,14.17-13.06,12.47-.59,5.91,11.58,2.32,12.75,8.01.31,1.49-6.29,13.11-7.05,13.55-14.13,8.28-12.2-15.52-24.86-5.65,1.03,1.92-1.96,6.6,3.19,12.77l3.19,3.19Z"/>
  <path class="st4" d="M3.01,687.39c1.53,1.38-1.69,8.71,1.81,9.25,8.41,3.27,3.9-15.3,12.69-12.81,3.31.94,2.77,9.37,8.01,9.6,8.8-27.08-10.95-9.77-23.39-12.68-.8-.19-1.29-.98-1.67-1.96v7.95c1.43.26,2.37.48,2.56.66Z"/>
  <path class="st4" d="M12.76,722.15c2.11.16,4.25-.11,6.37,0,3.36.16,14.77.69,15.88-.14.96-.72-.46-4.68.06-6.25,1.02-3.07,4.51-14.58,3.17-15.95-4.71,3.94-12.11-.13-12.73,0-13.09,2.46-13.65,9.89-12.74,22.35Z"/>
  <path class="st2" d="M47.83,635.98c-.21,1.06.26,2.24,0,3.19l3.14-1.58-3.14-1.61Z"/>
  <path class="st2" d="M51.02,626.4c-1.46.43-2.95,1.72-3.19,3.19h3.19v-3.19Z"/>
  <path class="st2" d="M63.77,607.25c1.46-.16,2.85-1.69,3.19-3.19-.89,1.16-2.28,2.01-3.19,3.19Z"/>
  <path class="st2" d="M51.02,607.25l-3.19-3.19c.96,1.15,1.5,2.76,3.19,3.19Z"/>
  <path class="st4" d="M121.16,530.66c-.11-1.04.21-2.19,0-3.19l-3.12,1.6,3.12,1.6Z"/>
  <path class="st13" d="M20.77,1114.64c6.02,9.82-5.72,29.54-1.19,42.7,5.08,14.74,55.89,6.37,68.09,5.84,5.68-.25,11.65,4.38,18.58,2.2,13.28-4.17,5.52-31.46,10.12-41.12,3.8-7.98,15.06-7.03,19.78-10.53,3.15-2.34,22.62-43.91,23.2-48.8,2.74-22.88-24-53.91-16.69-70.67,6.86-15.73,20.53-11.83,16-39.95-1.57-9.73-27.63-52.01-35.76-56.78-19.56-11.49-38.62-8.58-52.68,8.22-22.09,26.4-8.83,21.36-42.55,40.39-21.07,11.89-20.57,33.79-27.23,54.37v102.29c9.24,4.8,18.22,8.43,20.32,11.86ZM78.29,1153.15c-12.58,7.15-29.86,1.83-43.1-.29,1.57-9.8,1.09-28.66,7.66-35.18,1.44-1.43,24.31-15.7,25.82-15.86,23.19-2.48,34.32,37.3,9.62,51.33ZM53.16,945.99c6.06-.58,27.48,27.21,39.29,25.07,4.73-4.6-21.8-24.21-23.94-28.78-3.6-7.72,3.15-22.53,10.15-24.91,2.04-.69,28.23-4.4,29.43-3.52,2.28,1.66,18.07,47.96,18.81,53.29,1.94,13.91-6.52,22.91-5.85,37.3.68,14.66,16.66,48.64,16.21,54.24-.46,5.88-7.38,11.47-12.76,13.09-3.72,1.12-36.53,5.05-39.77,4.64-20.7-2.63-31.67-31.98-41.81-44.6-8.27-10.3-28.08-19.89-26.41-39.19,1.24-14.39,21.27-45.16,36.63-46.64Z"/>
  <path class="st12" d="M19.12,615.22c-12.24-.59-8.29-5.7-12.72-12.03-1.32-1.89-4.97-2.15-5.44-3.18-.19-.41-.35-.9-.5-1.44v37.07c2.11-1.35,4.17-2.85,6.14-4.54.83-.71,3.17-13.55,12.52-15.88Z"/>
  <path class="st12" d="M70.13,702.98c3.97-3.71-10.94-16.41-15.86-14.38.41,5.59,10.67,19.23,15.86,14.38Z"/>
  <path class="st14" d="M42.94,1031.82c10.14,12.62,21.1,41.97,41.81,44.6,3.24.41,36.05-3.52,39.77-4.64,5.37-1.62,12.29-7.21,12.76-13.09.44-5.6-15.53-39.58-16.21-54.24-.67-14.39,7.79-23.39,5.85-37.3-.74-5.33-16.53-51.63-18.81-53.29-1.2-.87-27.4,2.83-29.43,3.52-7,2.38-13.76,17.18-10.15,24.91,2.14,4.57,28.67,24.18,23.94,28.78-11.81,2.15-33.23-25.65-39.29-25.07-15.35,1.48-35.38,32.25-36.63,46.64-1.67,19.3,18.13,28.89,26.41,39.19Z"/>
  <path class="st14" d="M68.66,1101.82c-1.51.16-24.38,14.43-25.82,15.86-6.57,6.52-6.09,25.38-7.66,35.18,13.24,2.12,30.52,7.44,43.1.29,24.7-14.04,13.57-53.81-9.62-51.33Z"/>
  <polygon class="st5" points="379.43 2279.55 389 2279.55 389 2346.66 389 2346.66 389 2273.26 379.43 2273.26 379.43 2279.55"/>
  <rect class="st5" x="379.43" y="2279.55" width="9.57" height="67.11"/>
  <path class="st5" d="M717.41,2346.66h0c2.58-2.49,0-61.74,0-71.81,0-5.5-12.75-5.5-12.75,0v4.7h12.75v67.11Z"/>
  <path class="st5" d="M717.41,2346.66v-67.11h-12.75v67.11c0,.64,12.29.44,12.75,0Z"/>
  <path class="st0" d="M950.61,2367.93c-1.74,2.5-12.23,17.97-12.62,19.09-1.52,4.37-2.83,8.7-3.95,13.01h7.52c1.38-6.02,2.51-10.59,2.88-11.26.86-1.53,6.89-2.16,8.99-5.21,19.39-28.21,41.5-48.97,70.07-56.84v-5.67c5.39-.22,10.57-.64,13.87,2.94,4-.48,8.12-.72,12.37-.72,3.01-.6,5.97-.74,7.84.08.16.07.3.14.45.21,6.08.44,12.4,1.33,19.01,2.76,1.09.24,2.24.52,3.41.84v-7.19c-48.75-10.26-100.11,5.08-129.84,47.96Z"/>
  <path class="st0" d="M1058.03,2323.55c-.15-.07-.29-.14-.45-.21-1.87-.82-4.84-.68-7.84-.08,2.71,0,5.47.09,8.29.29Z"/>
  <path class="st0" d="M1023.5,2321.04v5.67c4.46-1.23,9.07-2.16,13.87-2.74-3.3-3.58-8.49-3.16-13.87-2.94Z"/>
  <path class="st1" d="M1058.03,2323.55c15.94,7.33,5.6,18.48,6.89,19.79.78.79,9.91-1.15,12.3,4.84,1.08.31,2.16.65,3.23,1v-22.03c-1.17-.31-2.32-.6-3.41-.84-6.61-1.43-12.93-2.33-19.01-2.76Z"/>
  <path class="st1" d="M1037.33,2345.79c.79-4.78,1.71-9.71,2.11-11.98l-15.96.02v-7.11c-28.55,7.87-50.67,28.63-70.06,56.84-2.1,3.05-8.13,3.68-8.99,5.21-.38.67-1.51,5.25-2.88,11.26h27.03c11.88-28.24,37.65-49.17,68.75-54.24Z"/>
  <path class="st1" d="M1039.45,2327.42c.97-1.25,5.68-3.24,10.29-4.16-4.24,0-8.37.24-12.37.72.81.89,1.52,2,2.08,3.44Z"/>
  <path class="st1" d="M1039.45,2327.42c-.57.73.34,4.42,0,6.38-.4,2.27-1.32,7.21-2.11,11.98,4.77-.78,9.65-1.19,14.64-1.19,8.76,0,17.23,1.25,25.24,3.58-2.39-5.99-11.52-4.05-12.3-4.84-1.29-1.3,9.04-12.46-6.89-19.79-2.82-.2-5.58-.3-8.29-.29-4.61.92-9.32,2.92-10.29,4.16Z"/>
  <path class="st1" d="M1039.45,2333.8c.34-1.96-.57-5.65,0-6.38-.56-1.44-1.26-2.56-2.08-3.44-4.79.58-9.41,1.5-13.87,2.74v7.11s15.95-.02,15.95-.02Z"/>
  <g>
    <path class="st6" d="M1053.94,1621.84c-7.78.32-13.26-6.43-19.25-7.74-3.15-.69-8.69,2.44-15.04.97-7.23-1.67-44.35-20.07-51.88-24.92-24.14-15.54-36.45-41.09-52.67-63.76,2.35,20.41-1.61,40.04,12.75,57.45,9.07,10.99,9.33,15.44,15.77,24.11,26.55,35.75,87.18,50.18,136.83,42.37v-36.34c-5.4,1.35-10.8,2.37-17.07,3.38-3.11.5-5.78,4.35-9.43,4.5Z"/>
    <path class="st6" d="M975.75,1933.42c-15.78,12-39.77,59.1-42.69,77.82-1.24,7.97,3.46,36.98,5.06,45.95,1.45,8.12,7.04,7.93,7.78,9.56,11.14,24.53,10.23,31.38,34.19,48.79,29.48,21.42,67.68,24.56,100.36,12.51v-40.78c-11.53,6.26-24.74,9.82-38.78,9.82-44.97,0-81.42-36.48-81.42-81.49s36.45-81.49,81.42-81.49c14.04,0,27.25,3.56,38.78,9.82v-26.67c-32.29-12.39-70.65-9.72-104.7,16.16Z"/>
    <path class="st6" d="M938.34,1027.85c-8.23,25.35-8.14,42.71-.62,68.36.7,2.38,4.86,2.58,5.78,5.04,5.95,16,2.49,24.06,18.17,38.64,7.07,6.58,42.67,28.31,51.62,31.32,20.96,7.04,45.07,6.33,67.17-.37v-44.17c-11.36,6.08-24.33,9.54-38.1,9.54-44.69,0-80.92-36.26-80.92-81s36.23-81,80.92-81c13.78,0,26.75,3.46,38.1,9.54v-31.24c-61.04-14.76-119.95,7.1-142.11,75.34Z"/>
    <path class="st6" d="M985.62,1359.21c-6.16,3.67-44.07,35.32-46.55,39.58-1.26,2.17-17.05,35.22-17.51,37.29-3.84,17.54-.72,85.35,7.97,99.78,2.02,3.35,8.4,4.6,11.19,7.95,4.95,5.96,5.22,13.35,9.4,19.3,7.95,11.32,59.87,40.66,73.68,44.46,5.38,1.48,9.06-1.43,13.3-.74,5.27.85,8.19,5.36,16.21,5.49,4.97.08,15.75-3.26,27.13-7.42v-77.86c-11.86,5.46-25.05,8.51-38.96,8.51-51.54,0-93.33-41.82-93.33-93.41s41.78-93.41,93.33-93.41c13.91,0,27.1,3.05,38.96,8.51v-11.51c-32.2-7.02-66.71-3.31-94.83,13.47Z"/>
    <path class="st6" d="M1040.7,204.83c8-.17,25.9-4.47,39.75-7.09v-12.25c-.17,0-.35,0-.52-.04-2.39-.4-5.11-4.76-7.8-5.15-4.87-.7-9.43,2.86-13.5,1.03-6.49-2.92-8.8-16.65-22.38-9.79-8.99,4.54-6.16,18.63-6.39,27.21-42.88-13.01-12.3,24.29-12.82,26.82-1.09,5.22-15.12,9.68-15.84,13.25-.74,3.64,5.34,7.14,5.87,10.01.79,4.3-10.64,11.97-4.52,20.37,3.39,4.66,11.29,1.65,15.37,3,.87.29,13.62,9.75,14.29,10.38,2.76,2.61,1.75,13.6,7.24,16.96,4.54,2.77,10.44-1.68,16.05-.46,7.77,1.69,15.16,13.51,24.97,3.69v-44.21c-1.37,1.08-2.86,2.35-4.52,3.88-4.01,3.7-7.13,11.36-9.99,13.08-11.51,6.95-24.01-.09-36.05-.19l6.39-25.47c-21.84-.11-8.63-13.52-9.61-23.85-.58-6.15-10.28-14.38-6.33-24.04,7.05-1.08,13.47,3.01,20.36,2.87Z"/>
    <path class="st6" d="M216.42,2.88c-.07-.64-.23-1.63-.45-2.88h-41.12c.26,2.87.4,5.78.4,8.73,0,52.47-42.5,95.01-94.92,95.01-33.53,0-62.99-17.4-79.88-43.66v63.08c28.9,18.18,75.28,31.46,103.03,25.86,38.57-7.77,87.86-39.68,103.49-77.26,3.27-7.85,9.09-25.11,9.85-26.19.05-.07.04-.11,0-.14.76-12.75.99-30.02-.41-42.54Z"/>
    <path class="st6" d="M136.03,373.21c38.12-30.08,57.02-90.7,41.59-136.82-7.98-23.86-25.71-36.54-34.14-53.59-24.98-5.12-46.73-3.39-71.35-6.78-7.56-1.04-26.98-8.8-28.45-8.56-2.36.39-5.03,4.23-7.91,4.84-12.79,2.7-24.8,7.21-35.33,13.84v46.94c13.35-25.6,40.1-43.08,70.94-43.08,44.18,0,79.99,35.85,79.99,80.06s-35.81,80.06-79.99,80.06c-30.85,0-57.59-17.49-70.94-43.08v63.16c.37.32.74.64,1.1.94,32.12,26.68,101.57,28.05,134.49,2.07Z"/>
    <path class="st6" d="M20,663.98c10.5-5.03,5.94-15.25,9.53-20.78,1.58-2.44,8.41-3.05,10.48-7.21,1.63-3.28-1.31-7.55-.62-10.57.98-4.25,6.82-7.94,5.23-13.2-1.12-3.7-8.33-4.01-9.3-5.41-1.58-2.3,4.59-8.77,1.61-12.47-2.81-3.49-10.74-2.46-11.38-3.13-2.26-2.38,5.45-13.27,1.76-19.04-7.73-12.09-13.41-.68-17.74,1.58-5.81,3.04-8.21,2.48-9.14.67v24.16c.15.54.31,1.03.5,1.44.48,1.03,4.12,1.28,5.44,3.18,4.43,6.34.48,11.44,12.72,12.03-9.35,2.33-11.7,15.17-12.52,15.88-1.97,1.7-4.04,3.19-6.14,4.54v32.24c5.4.59,11.73-.16,19.56-3.9Z"/>
    <path class="st6" d="M6.41,776.38c1.03-1.11,10.6,3.48,14.48,3.47,4.71,0,17.46-10.62,17.55-11.71.69-7.85-7.21-10.05-6.57-17.25,19.49-.13,9.35-8.98,10.46-17.21,1.13-8.36,14.3-17.22-7.27-17.93-.52,1.57.9,5.53-.06,6.25-1.12.83-12.52.3-15.88.14-.31,4.8-7.82,12.79-10.98,16-2.85,2.89-5.38,5.14-7.7,6.94v43.83c.37-.07.64-.12.74-.15,6.78-2.3,4.32-11.41,5.23-12.38Z"/>
    <path class="st6" d="M35.74,673.17c-6.35,22.34,17.17,29.57,18.5,52.17,5.72,1.75,8.31-5.42,11.68-5.94,3.99-.61,6.91,4.91,9.8,5.26,1.98.24,22.92.45,24.1.18,4.68-1.05,9.14-7.5,8.6-12.27-.38-3.38-10.69-17.39-12.75-22.34-17.29,13.91-39.73-16.18-54.2-22.34-.09.38-4.64,1.5-5.71,5.28ZM70.13,702.98c-5.19,4.85-15.45-8.79-15.86-14.38,4.91-2.02,19.82,10.68,15.86,14.38Z"/>
    <path class="st6" d="M130.19,571.51c-5.33-9.78,7.57-27.17-9.03-28.08-2.55,24.13-9.79,19.26-19.13,35.11-.93,1.58,1.17,8.75-2.93,11.36-4.95,3.15-12.31.14-17.27,1.37-3.49.87-1.84,6.21-2.12,6.42,28.16,11.95,30.08-15.08,50.48-26.17Z"/>
    <path class="st6" d="M44.64,648.74c-1.21,4.45-2.09,8.33-3.19,12.77,8.53,2.68,9.28-7.27,3.19-12.77Z"/>
    <path class="st6" d="M203.69,2348.5c-1.32-2.2-30.62-37.39-32.5-39.14-14.36-13.43-61.16-33-81.74-34.66-23.35-1.89-51.55,8.85-70.46,19.14-2.14,1.16-4.36,2.44-6.65,3.82-.37.22-.75.46-1.12.69-3.5,2.14-7.12,4.51-10.77,7.07v52c3.09-4.81,6.61-9.32,10.5-13.49,17.32-18.57,42-30.18,69.38-30.18,21.93,0,42.1,7.45,58.17,19.95,6.19,4.81,11.75,10.38,16.58,16.55,10.94,13.98,18.06,31.09,19.76,49.79h41.12c-2.01-11.25-9.53-44.4-11.9-50.68-.14-.38-.27-.68-.37-.85Z"/>
  </g>
  <path class="st10" d="M1077.39,2348.59c.31.97-.7,19.42-1.17,20.32-3.01,5.71-18.23,9.3-14.48,25.52-6.77.4-8.79-5.51-15.92-6.37-.85-7.17,1.76-17.05-.47-23.57-1.53-4.48-8.68-4.16-9.34-7.31-.26-1.23.46-6.22,1.32-11.39-31.1,5.07-56.87,26-68.75,54.24h111.86v-50.85c-1.07-.35-2.14-.69-3.23-1,.06.14.13.26.17.41Z"/>
  <path class="st10" d="M1037.33,2345.79c-.86,5.17-1.57,10.16-1.32,11.39.66,3.15,7.81,2.83,9.34,7.31,2.23,6.52-.38,16.4.47,23.57,7.13.85,9.15,6.77,15.92,6.37-3.76-16.23,11.46-19.81,14.48-25.52.47-.9,1.49-19.35,1.17-20.32-.05-.15-.12-.27-.17-.41-8.01-2.33-16.48-3.58-25.24-3.58-4.99,0-9.87.42-14.64,1.19Z"/>
  <g>
    <path class="st7" d="M960.26,2015.6c0,45.01,36.45,81.49,81.42,81.49,14.04,0,27.25-3.56,38.78-9.82v-143.34c-11.53-6.26-24.74-9.82-38.78-9.82-44.97,0-81.42,36.48-81.42,81.49Z"/>
    <path class="st7" d="M961.42,1055.2c0,44.73,36.23,81,80.92,81,13.78,0,26.75-3.46,38.1-9.54v-142.92c-11.36-6.08-24.33-9.54-38.1-9.54-44.69,0-80.92,36.26-80.92,81Z"/>
    <path class="st7" d="M948.16,1442.15c0,51.59,41.78,93.41,93.33,93.41,13.91,0,27.1-3.05,38.96-8.51v-169.8c-11.86-5.46-25.05-8.51-38.96-8.51-51.54,0-93.33,41.82-93.33,93.41Z"/>
    <path class="st7" d="M1040.7,204.83c-6.89.15-13.32-3.95-20.36-2.87-3.95,9.67,5.75,17.89,6.33,24.04.98,10.33-12.23,23.73,9.61,23.85l-6.39,25.47c12.04.1,24.55,7.14,36.05.19,2.86-1.73,5.99-9.38,9.99-13.08,1.66-1.53,3.15-2.8,4.52-3.88v-60.81c-13.86,2.61-31.75,6.92-39.75,7.09Z"/>
    <path class="st7" d="M.45,0v60.07c16.89,26.27,46.35,43.66,79.88,43.66,52.42,0,94.92-42.54,94.92-95.01,0-2.94-.14-5.85-.4-8.73H.45Z"/>
    <path class="st7" d="M71.39,350.12c44.18,0,79.99-35.85,79.99-80.06s-35.81-80.06-79.99-80.06c-30.85,0-57.59,17.49-70.94,43.08v73.96c13.35,25.6,40.1,43.08,70.94,43.08Z"/>
    <path class="st7" d="M138.5,2333.69c-16.07-12.5-36.25-19.95-58.17-19.95-27.39,0-52.06,11.61-69.38,30.18-3.88,4.16-7.4,8.67-10.5,13.49v42.62h174.4c-1.7-18.69-8.83-35.8-19.76-49.79-4.83-6.17-10.4-11.74-16.58-16.55Z"/>
  </g>
</svg>