<?xml version="1.0" encoding="UTF-8"?>
<svg id="Calque_1" xmlns="http://www.w3.org/2000/svg" version="1.1" viewBox="0 0 236.86 63.71">
  <!-- Generator: Adobe Illustrator 30.0.0, SVG Export Plug-In . SVG Version: 2.1.1 Build 123)  -->
  <defs>
    <style>
      .st0 {
        fill: #fff;
      }

      .st1 {
        fill: #cd551e;
      }

      .st2 {
        fill: #f8c68b;
      }

      .st3 {
        fill: #010101;
      }

      .st4 {
        fill: #f3911d;
      }
    </style>
  </defs>
  <g>
    <path class="st1" d="M2.26,45.3c0,6.55,5.31,11.87,11.87,11.87h208.45c6.55,0,11.87-5.31,11.87-11.87l2.43,5.68c0,7.03-5.7,12.72-12.72,12.72H12.72C5.7,63.71,0,58.01,0,50.98l2.26-5.68Z"/>
    <rect class="st4" x="2.26" y="2.7" width="232.18" height="54.47" rx="11.87" ry="11.87"/>
    <path class="st2" d="M222.57,5.7c4.89,0,8.87,3.98,8.87,8.87v30.74c0,4.89-3.98,8.87-8.87,8.87H14.12c-4.89,0-8.87-3.98-8.87-8.87V14.56c0-4.89,3.98-8.87,8.87-8.87h208.45M222.57,2.7H14.12C7.57,2.7,2.26,8.01,2.26,14.56v30.74c0,6.55,5.31,11.87,11.87,11.87h208.45c6.55,0,11.87-5.31,11.87-11.87V14.56c0-6.55-5.31-11.87-11.87-11.87h0Z"/>
    <path class="st3" d="M224.14,3c5.36,0,9.72,4.36,9.72,9.72v38.26c0,5.36-4.36,9.72-9.72,9.72H12.72c-5.36,0-9.72-4.36-9.72-9.72V12.72C3,7.36,7.36,3,12.72,3h211.42M224.14,0H12.72C5.7,0,0,5.7,0,12.72v38.26c0,7.03,5.7,12.72,12.72,12.72h211.42c7.03,0,12.72-5.7,12.72-12.72V12.72c0-7.03-5.7-12.72-12.72-12.72h0Z"/>
  </g>
  <g>
    <g>
      <path class="st0" d="M42.57,38.71c-1,0-1.82-.82-1.82-1.82v-17.39c0-1.01.82-1.82,1.82-1.82h5.06c2.66,0,4.66.62,5.94,1.83,1.29,1.23,1.94,2.92,1.94,5.02,0,1.24-.26,2.41-.77,3.51-.53,1.14-1.42,2.05-2.64,2.73-1.19.66-2.81,1-4.79,1h-.68c-.18,0-.32.15-.32.32v4.8c0,1-.82,1.82-1.82,1.82h-1.92ZM46.91,26.86c.99,0,1.76-.19,2.31-.56.46-.32.69-.86.69-1.64,0-1.04-.29-2.1-2.48-2.1h-.78c-.18,0-.32.15-.32.32v3.98h.6Z"/>
      <path class="st3" d="M47.64,18.42c2.48,0,4.28.54,5.42,1.63,1.14,1.09,1.71,2.58,1.71,4.47,0,1.13-.23,2.19-.7,3.19-.47.99-1.24,1.79-2.33,2.39-1.09.6-2.56.9-4.43.9h-.68c-.59,0-1.07.48-1.07,1.07v4.8c0,.59-.48,1.07-1.07,1.07h-1.92c-.59,0-1.07-.48-1.07-1.07v-17.39c0-.59.48-1.07,1.07-1.07h5.06M45.57,27.61h1.35c1.15,0,2.06-.23,2.73-.7.67-.47,1.01-1.22,1.01-2.26,0-1.9-1.08-2.85-3.23-2.85h-.78c-.59,0-1.07.48-1.07,1.07v4.73M47.64,16.92h-5.06c-1.42,0-2.57,1.15-2.57,2.57v17.39c0,1.42,1.15,2.57,2.57,2.57h1.92c1.42,0,2.57-1.15,2.57-2.57v-4.38h.25c2.14,0,3.83-.36,5.15-1.09,1.36-.76,2.36-1.79,2.96-3.07.56-1.19.84-2.48.84-3.82,0-2.31-.73-4.18-2.17-5.56-1.42-1.36-3.6-2.04-6.46-2.04h0ZM47.07,23.31h.36c1.73,0,1.73.68,1.73,1.35,0,.77-.26.95-.36,1.02-.39.27-.97.41-1.72.43v-2.8h0Z"/>
    </g>
    <g>
      <path class="st0" d="M59.8,38.71c-1.23,0-2.23-1-2.23-2.23v-16.58c0-1.23,1-2.23,2.23-2.23h1.09c1.23,0,2.23,1,2.23,2.23v13.16c0,.4.33.73.73.73h4.81c1.23,0,2.23,1,2.23,2.23v.47c0,1.23-1,2.23-2.23,2.23h-8.86Z"/>
      <path class="st3" d="M60.89,18.42c.82,0,1.48.66,1.48,1.48v13.16c0,.82.66,1.48,1.48,1.48h4.81c.82,0,1.48.66,1.48,1.48v.47c0,.82-.66,1.48-1.48,1.48h-8.86c-.82,0-1.48-.66-1.48-1.48v-16.58c0-.82.66-1.48,1.48-1.48h1.09M60.89,16.92h-1.09c-1.64,0-2.98,1.34-2.98,2.98v16.58c0,1.64,1.34,2.98,2.98,2.98h8.86c1.64,0,2.98-1.34,2.98-2.98v-.47c0-1.64-1.34-2.98-2.98-2.98h-4.81l.02-13.14c0-1.64-1.34-2.98-2.98-2.98h0Z"/>
    </g>
    <g>
      <path class="st0" d="M86.04,38.71c-.75,0-1.42-.51-1.63-1.25l-.93-3.24c-.03-.1-.11-.17-.19-.17h-5.26c-.09,0-.16.07-.19.17l-.93,3.24c-.21.74-.88,1.25-1.63,1.25h-2.15c-.54,0-1.04-.26-1.37-.71-.33-.46-.42-1.05-.25-1.59l5.82-17.63c.23-.71.88-1.18,1.61-1.18h3.4c.73,0,1.38.48,1.61,1.18l5.84,17.63c.18.54.09,1.14-.24,1.6-.32.45-.82.71-1.37.71h-2.14ZM80.62,24.46c-.13.51-.24.87-.31,1.08l-.93,3.23c-.03.12.02.21.04.24.03.04.08.08.15.08h2.21c.07,0,.12-.04.15-.08.02-.03.08-.12.04-.24l-.96-3.26c-.09-.32-.34-1.21-.35-1.22l-.05.17Z"/>
      <path class="st3" d="M82.34,18.34c.41,0,.77.27.9.67l5.84,17.63c.21.64-.25,1.32-.9,1.32h-2.14c-.42,0-.79-.29-.91-.71l-.93-3.24c-.12-.42-.49-.71-.91-.71h-5.26c-.42,0-.79.29-.91.71l-.93,3.24c-.12.42-.49.71-.91.71h-2.15c-.65,0-1.11-.67-.9-1.32l5.82-17.63c.13-.4.49-.67.9-.67h3.4M79.57,29.83h2.21c.64,0,1.1-.65.91-1.28l-.96-3.26c-.09-.31-.2-.7-.33-1.18-.14-.47-.27-.96-.41-1.45-.14-.49-.25-.92-.33-1.29-.09.36-.2.82-.35,1.35-.15.54-.28,1.05-.41,1.53-.13.48-.23.83-.3,1.03l-.94,3.26c-.18.64.27,1.28.91,1.28M82.34,16.84h-3.4c-1.05,0-1.99.68-2.32,1.7l-5.82,17.63c-.25.77-.12,1.62.35,2.27.46.64,1.2,1.02,1.98,1.02h2.15c1.08,0,2.05-.74,2.35-1.79l.82-2.86h4.42l.82,2.86c.3,1.06,1.27,1.79,2.35,1.79h2.14c.78,0,1.52-.38,1.98-1.02.47-.65.6-1.5.35-2.27l-5.84-17.63c-.34-1.01-1.27-1.7-2.32-1.7h0ZM80.28,28.33l.39-1.34.39,1.34h-.78Z"/>
    </g>
    <g>
      <path class="st0" d="M96.4,38.71c-.7,0-1.27-.57-1.27-1.27v-6.76l-5.86-11.13c-.21-.4-.2-.87.04-1.25.23-.39.64-.62,1.09-.62h3.2c.48,0,.93.28,1.14.71l3.15,6.39,3.17-6.39c.22-.44.65-.71,1.14-.71h3.17c.45,0,.86.23,1.09.62.23.39.24.86.03,1.25l-5.85,10.99v6.9c0,.7-.57,1.27-1.27,1.27h-2.97Z"/>
      <path class="st3" d="M105.37,18.42c.39,0,.65.42.46.77l-5.88,11.04c-.04.08-.06.16-.06.25v6.95c0,.29-.23.52-.52.52h-2.97c-.29,0-.52-.23-.52-.52v-6.82c0-.08-.02-.17-.06-.24l-5.88-11.18c-.18-.35.07-.77.46-.77h3.2c.2,0,.38.11.47.29l3.35,6.8c.1.19.28.29.47.29s.37-.1.47-.29l3.38-6.8c.09-.18.27-.29.47-.29h3.17M105.37,16.92h-3.17c-.77,0-1.47.43-1.81,1.12l-2.5,5.04-2.48-5.03c-.34-.7-1.04-1.13-1.81-1.13h-3.2c-.72,0-1.36.37-1.73.98-.37.61-.39,1.36-.06,1.99l5.77,10.97v6.57c0,1.12.91,2.02,2.02,2.02h2.97c1.12,0,2.02-.91,2.02-2.02v-6.71l5.76-10.83c.34-.63.32-1.38-.05-1.99-.37-.61-1.02-.98-1.73-.98h0Z"/>
    </g>
    <g>
      <path class="st0" d="M128.18,38.71c-.73,0-1.41-.4-1.77-1.03l-6.54-11.6c.04.89.08,1.77.11,2.66v7.94c0,1.12-.91,2.03-2.03,2.03h-1.06c-1.12,0-2.03-.91-2.03-2.03v-16.98c0-1.12.91-2.03,2.03-2.03h3.09c.73,0,1.4.39,1.76,1.03l6.53,11.51-.1-2.51v-8c0-1.12.91-2.03,2.03-2.03h1.09c1.12,0,2.03.91,2.03,2.03v16.98c0,1.12-.91,2.03-2.03,2.03h-3.12Z"/>
      <path class="st3" d="M131.3,18.42c.71,0,1.28.57,1.28,1.28v16.98c0,.71-.57,1.28-1.28,1.28h-3.12c-.46,0-.89-.25-1.11-.65l-7.96-14.12h-.11c.04.93.08,1.86.12,2.79.04.93.08,1.86.12,2.79v7.91c0,.71-.57,1.28-1.28,1.28h-1.06c-.71,0-1.28-.57-1.28-1.28v-16.98c0-.71.57-1.28,1.28-1.28h3.09c.46,0,.88.25,1.11.65l7.94,13.99h.08c-.02-.91-.04-1.81-.08-2.71-.04-.89-.07-1.79-.11-2.68v-7.97c0-.71.57-1.28,1.28-1.28h1.09M131.3,16.92h-1.09c-1.53,0-2.78,1.25-2.78,2.78v7.49l-5.03-8.86c-.49-.87-1.42-1.41-2.42-1.41h-3.09c-1.53,0-2.78,1.25-2.78,2.78v16.98c0,1.53,1.25,2.78,2.78,2.78h1.06c1.53,0,2.78-1.25,2.78-2.78v-7.54l5.02,8.91c.49.87,1.42,1.41,2.42,1.41h3.12c1.53,0,2.78-1.25,2.78-2.78v-16.98c0-1.53-1.25-2.78-2.78-2.78h0Z"/>
    </g>
    <g>
      <path class="st0" d="M145.65,38.98c-2.2,0-4.06-.46-5.53-1.37-1.47-.92-2.58-2.22-3.29-3.87-.69-1.6-1.04-3.48-1.04-5.6s.35-4,1.04-5.58c.71-1.63,1.82-2.92,3.29-3.83,1.46-.9,3.33-1.36,5.55-1.36s4.06.46,5.51,1.36c1.47.91,2.57,2.2,3.28,3.84.69,1.59,1.04,3.48,1.04,5.59s-.35,4-1.04,5.59c-.71,1.64-1.81,2.94-3.28,3.85-1.46.91-3.32,1.37-5.54,1.37ZM145.68,22.32c-1.46,0-2.47.46-3.1,1.41-.68,1.04-1.03,2.53-1.03,4.43s.35,3.37,1.03,4.42c.63.96,1.63,1.42,3.07,1.42s2.48-.46,3.09-1.42c.67-1.05,1.01-2.54,1.01-4.43s-.34-3.4-1.01-4.44c-.61-.95-1.61-1.41-3.07-1.41Z"/>
      <path class="st3" d="M145.68,18.12c2.07,0,3.78.42,5.12,1.24,1.34.83,2.33,2,2.99,3.5.65,1.5.98,3.27.98,5.29s-.33,3.79-.98,5.29c-.65,1.5-1.65,2.68-2.99,3.52-1.34.84-3.05,1.26-5.14,1.26s-3.78-.42-5.13-1.26c-1.35-.84-2.35-2.02-3-3.53-.65-1.51-.98-3.28-.98-5.31s.33-3.78.98-5.28c.65-1.5,1.65-2.66,3-3.49,1.35-.83,3.07-1.24,5.16-1.24M145.65,34.75c1.73,0,2.97-.59,3.72-1.76.75-1.18,1.12-2.79,1.12-4.83s-.37-3.67-1.12-4.84c-.75-1.17-1.98-1.75-3.7-1.75s-2.96.58-3.72,1.75c-.77,1.17-1.15,2.78-1.15,4.84s.38,3.65,1.15,4.83c.77,1.18,2,1.76,3.7,1.76M145.68,16.62c-2.36,0-4.36.49-5.94,1.47-1.61.99-2.82,2.39-3.59,4.17-.73,1.68-1.1,3.66-1.1,5.88s.37,4.21,1.1,5.9c.77,1.79,1.98,3.21,3.59,4.21,1.58.99,3.58,1.48,5.92,1.48s4.36-.5,5.94-1.49c1.59-1,2.79-2.41,3.57-4.19.73-1.69,1.1-3.67,1.1-5.89s-.37-4.2-1.1-5.89c-.77-1.78-1.97-3.19-3.57-4.18-1.58-.98-3.56-1.47-5.91-1.47h0ZM145.65,33.25c-1.55,0-2.14-.62-2.44-1.08-.6-.92-.91-2.27-.91-4.01s.3-3.11.9-4.02c.3-.46.89-1.08,2.47-1.08s2.14.61,2.43,1.06c.59.92.89,2.27.89,4.03s-.3,3.1-.89,4.02c-.29.46-.87,1.07-2.46,1.07h0Z"/>
    </g>
    <g>
      <path class="st0" d="M173.72,38.71c-.92,0-1.73-.63-1.96-1.52l-2.36-9.3c-.04-.16-.09-.38-.15-.67-.06.29-.12.52-.16.69l-2.33,9.28c-.23.9-1.03,1.53-1.96,1.53h-2.63c-.93,0-1.73-.63-1.96-1.53l-4.24-17c-.15-.61-.02-1.24.37-1.73.38-.49.96-.78,1.59-.78h1.36c.95,0,1.75.65,1.97,1.57l2.21,9.69c.06.25.13.55.21.9.06-.26.11-.48.16-.66l2.54-9.98c.23-.89,1.03-1.52,1.95-1.52h1.86c.92,0,1.73.63,1.96,1.52l2.54,9.99c.05.17.11.4.17.68l.19-.92,2.21-9.7c.21-.92,1.02-1.57,1.97-1.57h1.36c.63,0,1.21.28,1.59.78.39.49.52,1.12.37,1.73l-4.24,17c-.23.9-1.03,1.53-1.96,1.53h-2.63Z"/>
      <path class="st3" d="M180.59,18.42c.82,0,1.43.77,1.23,1.57l-4.24,17c-.14.56-.65.96-1.23.96h-2.63c-.58,0-1.09-.39-1.23-.96l-2.36-9.3c-.05-.2-.12-.5-.2-.9-.08-.4-.17-.84-.27-1.31-.1-.47-.18-.93-.25-1.35-.07-.43-.13-.76-.16-1-.02.24-.07.57-.15,1-.08.43-.17.88-.25,1.34-.09.47-.18.9-.27,1.31-.09.41-.16.72-.21.94l-2.33,9.27c-.14.56-.65.96-1.23.96h-2.63c-.58,0-1.09-.4-1.23-.96l-4.24-17c-.2-.8.41-1.57,1.23-1.57h1.36c.59,0,1.1.41,1.24.99l2.21,9.68c.11.42.22.95.35,1.59.12.64.24,1.28.35,1.92.11.64.19,1.18.24,1.61.05-.46.13-1,.24-1.63.11-.63.22-1.24.33-1.83.12-.59.22-1.05.31-1.38l2.54-9.99c.14-.56.65-.95,1.23-.95h1.86c.58,0,1.09.39,1.23.95l2.54,9.99c.09.31.19.77.31,1.37.12.6.23,1.22.34,1.86.11.64.19,1.18.24,1.61.05-.46.13-1,.24-1.63.11-.63.23-1.26.36-1.9.13-.64.25-1.17.33-1.59l2.21-9.68c.13-.58.64-.99,1.24-.99h1.36M180.59,16.92h-1.36c-1.3,0-2.41.88-2.7,2.15l-1.72,7.54-1.94-7.61c-.31-1.23-1.42-2.08-2.68-2.08h-1.86c-1.27,0-2.37.86-2.68,2.08l-1.94,7.61-1.72-7.55c-.29-1.27-1.4-2.15-2.7-2.15h-1.36c-.86,0-1.65.39-2.18,1.06s-.71,1.54-.5,2.37l4.24,17c.31,1.23,1.41,2.1,2.69,2.1h2.63c1.27,0,2.37-.86,2.68-2.09l1.77-7.02,1.78,7.03c.31,1.23,1.41,2.09,2.68,2.09h2.63c1.27,0,2.38-.86,2.69-2.1l4.24-17c.21-.83.02-1.7-.5-2.37s-1.32-1.06-2.18-1.06h0Z"/>
    </g>
    <g>
      <path class="st0" d="M207.34,38.7c-1.21,0-2.16-1.29-2.16-2.94v-.11c0-1.15.46-2.16,1.21-2.65l5.16-3.34c.3-.19.51-.72.52-1.31.02-.63-.18-1.22-.5-1.45l-5.28-3.87c-.69-.5-1.12-1.49-1.12-2.58,0-1.65.95-2.94,2.17-2.94.39,0,.77.14,1.1.4l10.17,8.01c.65.51,1.06,1.49,1.06,2.54v.21c0,1.11-.44,2.11-1.15,2.61l-10.17,7.09c-.31.22-.66.33-1.01.33Z"/>
      <path class="st3" d="M207.34,18.27c.21,0,.43.08.64.24l10.17,8.01c.47.37.77,1.13.77,1.95v.21c0,.86-.33,1.64-.83,1.99l-10.17,7.09c-.19.13-.39.2-.58.2-.74,0-1.41-.93-1.41-2.19v-.11c0-.88.34-1.68.87-2.02l5.16-3.34c1.13-.73,1.16-3.18.06-3.99l-5.28-3.87c-.49-.36-.81-1.13-.81-1.98,0-1.27.67-2.19,1.41-2.19M207.34,16.77h0c-1.63,0-2.91,1.62-2.91,3.69,0,1.34.53,2.53,1.42,3.19l5.28,3.87s.19.3.19.74c0,.46-.14.74-.2.79l-5.14,3.33c-.96.62-1.55,1.88-1.55,3.28v.11c0,2.07,1.28,3.69,2.91,3.69.5,0,1-.16,1.44-.47l10.17-7.09c.91-.63,1.47-1.87,1.47-3.22v-.21c0-1.29-.5-2.46-1.34-3.13l-10.17-8.01c-.47-.37-1.01-.56-1.57-.56h0Z"/>
    </g>
  </g>
</svg>