<?xml version="1.0" encoding="UTF-8"?>
<svg id="Calque_1" xmlns="http://www.w3.org/2000/svg" version="1.1" viewBox="0 0 74.98 23.13">
  <!-- Generator: Adobe Illustrator 30.0.0, SVG Export Plug-In . SVG Version: 2.1.1 Build 123)  -->
  <defs>
    <style>
      .st0 {
        fill: #fff;
      }

      .st1 {
        fill: #d3312e;
      }

      .st2 {
        fill: #010101;
      }

      .st3 {
        fill: #a12425;
      }
    </style>
  </defs>
  <rect class="st3" x="1.81" y="3.43" width="71.48" height="18.06" rx="9.03" ry="9.03"/>
  <path class="st1" d="M65.44,17.81H9.67c-4.34,0-7.86-3.52-7.86-7.86v-3.61c0-2.65,2.15-4.79,4.79-4.79h61.9c2.65,0,4.79,2.15,4.79,4.79v3.61c0,4.34-3.52,7.86-7.86,7.86Z"/>
  <path class="st2" d="M66.28,3c3.14,0,5.7,2.56,5.7,5.7v5.73c0,3.14-2.56,5.7-5.7,5.7H8.7c-3.14,0-5.7-2.56-5.7-5.7v-5.73c0-3.14,2.56-5.7,5.7-5.7h57.58M66.28,0H8.7C3.9,0,0,3.9,0,8.7v5.73c0,4.8,3.9,8.7,8.7,8.7h57.58c4.8,0,8.7-3.9,8.7-8.7v-5.73c0-4.8-3.9-8.7-8.7-8.7h0Z"/>
  <g>
    <g>
      <path class="st0" d="M25.07,16.08l-2.04-3.29h-.39v3.29h-2.56V6.76h2.87c1.26,0,2.18.23,2.81.71.65.5.98,1.25.98,2.23,0,.45-.09.85-.26,1.2-.17.34-.4.63-.68.86-.15.13-.32.24-.48.35l2.68,3.97h-2.93ZM22.86,10.56c.64,0,.93-.12,1.06-.22.1-.08.24-.23.24-.59s-.14-.49-.24-.55c-.15-.09-.46-.2-1.1-.2h-.18v1.57h.21Z"/>
      <path class="st2" d="M22.95,7.13c1.17,0,2.03.21,2.59.64.56.42.83,1.07.83,1.93,0,.39-.07.73-.22,1.03-.15.29-.34.54-.59.74-.24.2-.51.37-.79.5l2.52,3.73h-2.02l-2.04-3.29h-.97v3.29h-1.81V7.13h2.5M22.27,10.94h.59c.6,0,1.03-.1,1.29-.3.26-.2.39-.5.39-.89s-.14-.7-.41-.87c-.28-.17-.71-.26-1.3-.26h-.55v2.32M22.95,6.38h-3.25v10.07h3.31v-2.97l1.62,2.62.22.35h3.84l-.79-1.17-2.08-3.08c.07-.05.14-.1.2-.16.32-.27.58-.6.78-.98.2-.4.3-.86.3-1.36,0-1.11-.38-1.96-1.13-2.53-.7-.53-1.69-.79-3.04-.79h0ZM23.02,10.18v-.81c.48.02.66.11.71.14.05.03.06.14.06.23,0,.22-.07.27-.1.29-.03.02-.18.12-.67.14h0Z"/>
    </g>
    <g>
      <polygon class="st0" points="28 16.08 28 6.76 33.68 6.76 33.68 9 30.56 9 30.56 10.13 33.47 10.13 33.47 12.37 30.56 12.37 30.56 13.83 33.68 13.83 33.68 16.08 28 16.08"/>
      <path class="st2" d="M33.31,7.13v1.49h-3.12v1.88h2.9v1.49h-2.9v2.21h3.12v1.5h-4.93V7.13h4.93M34.06,6.38h-6.43v10.07h6.43v-3h-3.12v-.71h2.9v-2.99h-2.9v-.38h3.12v-2.99h0Z"/>
    </g>
    <g>
      <polygon class="st0" points="36.21 16.08 36.21 9.02 33.88 9.02 33.88 6.76 41.1 6.76 41.1 9.02 38.77 9.02 38.77 16.08 36.21 16.08"/>
      <path class="st2" d="M40.72,7.13v1.51h-2.33v7.06h-1.81v-7.06h-2.33v-1.51h6.47M41.47,6.38h-7.97v3.01h2.33v7.06h3.31v-7.06h2.33v-3.01h0Z"/>
    </g>
    <g>
      <path class="st0" d="M46.66,16.08l-2.04-3.29h-.39v3.29h-2.56V6.76h2.87c1.26,0,2.18.23,2.81.71.65.5.98,1.25.98,2.23,0,.45-.09.85-.26,1.19-.17.34-.4.63-.68.86-.15.13-.31.24-.48.35l2.68,3.97h-2.93ZM44.44,10.56c.64,0,.93-.12,1.06-.22.1-.08.24-.23.24-.59s-.14-.49-.24-.55c-.15-.09-.46-.2-1.1-.2h-.18v1.57h.21Z"/>
      <path class="st2" d="M44.54,7.13c1.17,0,2.03.21,2.59.64.56.42.83,1.07.83,1.93,0,.39-.07.73-.22,1.03-.15.29-.34.54-.59.74-.24.2-.51.37-.79.5l2.52,3.73h-2.02l-2.04-3.29h-.97v3.29h-1.81V7.13h2.5M43.86,10.94h.59c.6,0,1.03-.1,1.29-.3.26-.2.39-.5.39-.89s-.14-.7-.41-.87c-.28-.17-.71-.26-1.3-.26h-.55v2.32M44.54,6.38h-3.25v10.07h3.31v-2.97l1.62,2.62.22.35h3.84l-.79-1.17-2.08-3.08c.07-.05.14-.1.2-.16.32-.27.58-.6.78-.98.2-.4.3-.86.3-1.36,0-1.11-.38-1.96-1.13-2.53-.7-.53-1.69-.79-3.04-.79h0ZM44.61,10.18v-.81c.48.02.66.11.71.14.05.03.06.14.06.23,0,.22-.07.27-.1.29-.03.02-.18.12-.67.14h0Z"/>
    </g>
    <g>
      <polygon class="st0" points="51.35 16.08 51.35 12.52 48.26 6.76 51.08 6.76 52.63 9.83 54.18 6.76 57 6.76 53.9 12.46 53.9 16.08 51.35 16.08"/>
      <path class="st2" d="M56.37,7.13l-2.84,5.23v3.34h-1.8v-3.28l-2.84-5.29h1.97l1.78,3.53,1.79-3.53h1.96M57.63,6.38h-3.68l-.21.41-1.12,2.2-1.11-2.2-.21-.41h-3.68l.59,1.11,2.75,5.13v3.84h3.3v-3.9l2.75-5.06.6-1.11h0Z"/>
    </g>
  </g>
</svg>