<?xml version="1.0" encoding="UTF-8"?>
<svg id="Calque_1" xmlns="http://www.w3.org/2000/svg" version="1.1" viewBox="0 0 74.98 23.13">
  <!-- Generator: Adobe Illustrator 30.0.0, SVG Export Plug-In . SVG Version: 2.1.1 Build 123)  -->
  <defs>
    <style>
      .st0 {
        fill: #2f5a87;
      }

      .st1 {
        fill: #fff;
      }

      .st2 {
        fill: #3986c7;
      }

      .st3 {
        fill: #010101;
      }
    </style>
  </defs>
  <rect class="st0" x="1.81" y="3.43" width="71.48" height="18.06" rx="9.03" ry="9.03"/>
  <path class="st2" d="M6.6,1.55h61.9c2.64,0,4.79,2.15,4.79,4.79v3.61c0,4.34-3.52,7.86-7.86,7.86H9.67c-4.34,0-7.86-3.52-7.86-7.86v-3.61C1.81,3.7,3.96,1.55,6.6,1.55Z"/>
  <path class="st3" d="M66.28,3c3.14,0,5.7,2.56,5.7,5.7v5.73c0,3.14-2.56,5.7-5.7,5.7H8.7c-3.14,0-5.7-2.56-5.7-5.7v-5.73c0-3.14,2.56-5.7,5.7-5.7h57.58M66.28,0H8.7C3.9,0,0,3.9,0,8.7v5.73c0,4.8,3.9,8.7,8.7,8.7h57.58c4.8,0,8.7-3.9,8.7-8.7v-5.73c0-4.8-3.9-8.7-8.7-8.7h0Z"/>
  <g>
    <g>
      <path class="st1" d="M27.26,16.08s0-4.57,0-4.64l-1.53,4.64h-2.22l-1.35-4.4v4.4h-2.37V6.76h3.12l1.78,5.75,1.88-5.75h3.12v9.32h-2.44Z"/>
      <path class="st3" d="M29.33,7.13v8.57h-1.69v-4.06c0-.27,0-.58.02-.94.01-.35.02-.69.04-1,.01-.32.02-.55.03-.71h-.05l-2.21,6.71h-1.67l-2.06-6.72h-.05c0,.16.02.4.04.72.02.32.03.66.05,1.03.02.36.02.69.02.99v3.98h-1.62V7.13h2.47l2.03,6.55h.04l2.15-6.55h2.47M30.08,6.38h-3.77l-.17.52-1.43,4.37-1.35-4.36-.16-.53h-3.77v10.07h3.12v-2.28l.54,1.75.16.53h2.76l.17-.52.71-2.16v2.67h3.19V6.38h0Z"/>
    </g>
    <g>
      <polygon class="st1" points="31.11 16.08 31.11 6.76 36.79 6.76 36.79 9 33.67 9 33.67 10.13 36.58 10.13 36.58 12.37 33.67 12.37 33.67 13.83 36.79 13.83 36.79 16.08 31.11 16.08"/>
      <path class="st3" d="M36.42,7.13v1.49h-3.12v1.88h2.9v1.49h-2.9v2.21h3.12v1.5h-4.93V7.13h4.93M37.17,6.38h-6.43v10.07h6.43v-3h-3.12v-.71h2.9v-2.99h-2.9v-.38h3.12v-2.99h0Z"/>
    </g>
    <g>
      <path class="st1" d="M43.28,16.08l-3.12-5.42c.02.33.03.67.04,1v4.42h-2.37V6.76h2.88l3.12,5.38-.04-.94v-4.45h2.38v9.32h-2.9Z"/>
      <path class="st3" d="M45.8,7.13v8.57h-2.3l-3.73-6.48h-.05c.02.41.03.82.05,1.22.02.41.04.82.05,1.22v4.03h-1.62V7.13h2.29l3.72,6.42h.04c0-.4-.02-.8-.04-1.19-.02-.39-.03-.78-.05-1.18v-4.06h1.63M46.55,6.38h-3.13v4.3l-2.27-3.92-.22-.37h-3.47v10.07h3.12v-4.32l2.27,3.94.22.38h3.49V6.38h0Z"/>
    </g>
    <g>
      <path class="st1" d="M51.38,16.2c-1.23,0-2.19-.33-2.85-.98-.66-.65-1-1.51-1-2.57v-5.9h2.56v5.62c0,.59.11,1.01.32,1.22.21.21.55.32,1.02.32s.81-.11,1.01-.34c.21-.24.31-.65.31-1.22v-5.61h2.56v5.92c0,.65-.15,1.25-.44,1.78-.29.54-.74.97-1.33,1.28-.58.3-1.3.46-2.16.46Z"/>
      <path class="st3" d="M54.94,7.13v5.54c0,.59-.13,1.13-.39,1.6-.26.48-.65.85-1.18,1.13-.52.28-1.19.41-1.99.41-1.14,0-2-.29-2.59-.87-.59-.58-.89-1.35-.89-2.3v-5.52h1.81v5.24c0,.7.14,1.2.43,1.49.29.29.72.43,1.28.43s1.02-.16,1.29-.47c.27-.31.4-.8.4-1.46v-5.23h1.81M55.69,6.38h-3.31v5.98c0,.62-.14.88-.22.98-.15.17-.47.21-.72.21-.36,0-.61-.07-.75-.21-.05-.05-.21-.27-.21-.96v-5.99h-3.31v6.27c0,1.16.37,2.11,1.11,2.83.73.72,1.78,1.08,3.12,1.08.92,0,1.7-.17,2.34-.5.65-.34,1.15-.83,1.48-1.43.32-.59.48-1.25.48-1.96v-6.29h0Z"/>
    </g>
  </g>
</svg>