<?xml version="1.0" encoding="UTF-8"?>
<svg xmlns="http://www.w3.org/2000/svg" version="1.1" viewBox="0 0 64.31 23.06">
  <!-- Generator: Adobe Illustrator 30.0.0, SVG Export Plug-In . SVG Version: 2.1.1 Build 123)  -->
  <defs>
    <style>
      .st0 {
        mix-blend-mode: darken;
        opacity: .3;
      }

      .st0, .st1 {
        fill: #010101;
      }

      .st2 {
        fill: #f0f8fb;
      }

      .st3 {
        isolation: isolate;
      }
    </style>
  </defs>
  <g class="st3">
    <g id="Calque_1">
      <g>
        <g>
          <rect class="st2" x="1" y="1" width="62.31" height="21.06" rx="7.09" ry="7.09"/>
          <path class="st1" d="M56.22,2c3.36,0,6.09,2.73,6.09,6.09v6.88c0,3.36-2.73,6.09-6.09,6.09H8.09c-3.36,0-6.09-2.73-6.09-6.09v-6.88c0-3.36,2.73-6.09,6.09-6.09h48.13M56.22,0H8.09C3.62,0,0,3.62,0,8.09v6.88c0,4.47,3.62,8.09,8.09,8.09h48.13c4.47,0,8.09-3.62,8.09-8.09v-6.88c0-4.47-3.62-8.09-8.09-8.09h0Z"/>
        </g>
        <path class="st0" d="M63.57,12c.97,4.06-1.63,9.29-6.27,9.52-1.57.14-5.33.04-6.96.07,0,0-18.1,0-18.1,0H14.14c-1.66-.02-5.24.05-6.93-.04C2.47,21.41.02,16.06,1.01,12c.62,3.48,2.97,6.16,6.48,6.56,1.23.07,5.28.02,6.65.03,0,0,18.1,0,18.1,0h18.1c.72,0,5,0,5.66,0,3.8.01,6.9-2.75,7.57-6.59h0Z"/>
        <g>
          <path class="st1" d="M12.99,8.49c-.55,0-.98.21-1.27.62-.29.42-.44.99-.44,1.71s.14,1.29.41,1.69c.27.4.71.6,1.3.6.28,0,.56-.03.84-.1s.58-.15.9-.27v1.22c-.3.12-.6.21-.89.27-.29.06-.62.09-.98.09-.7,0-1.28-.15-1.73-.44-.46-.29-.79-.7-1.01-1.23s-.32-1.14-.32-1.85.12-1.3.37-1.83c.25-.53.61-.95,1.08-1.25.47-.3,1.06-.45,1.74-.45.34,0,.68.04,1.02.13.34.09.67.2.98.35l-.47,1.18c-.25-.12-.51-.23-.77-.32-.26-.09-.51-.13-.76-.13Z"/>
          <path class="st1" d="M22.37,10.79c0,.71-.12,1.33-.35,1.86-.23.53-.59.94-1.06,1.23-.48.29-1.09.44-1.83.44s-1.35-.15-1.83-.44c-.48-.29-.84-.71-1.07-1.24-.23-.53-.35-1.15-.35-1.86s.12-1.33.35-1.85.59-.93,1.07-1.22c.48-.29,1.09-.44,1.84-.44s1.35.15,1.82.44c.48.29.83.7,1.06,1.23.23.53.35,1.15.35,1.86ZM17.39,10.79c0,.72.14,1.28.41,1.69.27.41.71.62,1.32.62s1.06-.21,1.33-.62c.27-.41.4-.98.4-1.69s-.13-1.29-.4-1.7c-.27-.41-.71-.61-1.32-.61s-1.05.21-1.33.61c-.27.41-.41.98-.41,1.7Z"/>
          <path class="st1" d="M29.82,14.22h-1.83l-2.97-5.18h-.04c.01.33.03.65.04.98.02.33.03.65.04.98v3.22h-1.29v-6.85h1.82l2.96,5.13h.03c0-.32-.02-.64-.03-.95l-.04-.94v-3.24h1.3v6.85Z"/>
          <path class="st1" d="M32.96,14.22h-1.42v-6.85h3.91v1.19h-2.48v1.77h2.31v1.19h-2.31v2.71Z"/>
          <path class="st1" d="M39.33,14.22h-3.1v-.83l.83-.38v-4.43l-.83-.38v-.83h3.1v.83l-.83.38v4.43l.83.38v.83Z"/>
          <path class="st1" d="M42.48,7.37c.93,0,1.62.17,2.06.51.44.34.66.85.66,1.54,0,.31-.06.59-.18.82-.12.23-.27.43-.47.59-.19.16-.4.3-.63.4l2,2.98h-1.6l-1.62-2.63h-.77v2.63h-1.44v-6.85h1.99ZM42.38,8.56h-.44v1.85h.47c.48,0,.82-.08,1.03-.24.21-.16.31-.4.31-.71s-.11-.56-.33-.7c-.22-.14-.56-.21-1.04-.21Z"/>
          <path class="st1" d="M49.68,14.22l-1.64-5.37h-.04c0,.13.02.32.03.58.01.26.03.53.04.82s.02.55.02.79v3.19h-1.29v-6.85h1.97l1.61,5.24h.03l1.71-5.24h1.97v6.85h-1.35v-3.24c0-.22,0-.47.01-.75,0-.28.02-.55.03-.8,0-.25.02-.44.02-.57h-.04l-1.76,5.36h-1.33Z"/>
        </g>
      </g>
    </g>
  </g>
</svg>