<?xml version="1.0" encoding="UTF-8"?>
<svg xmlns="http://www.w3.org/2000/svg" version="1.1" viewBox="0 0 39.2 23.06">
  <!-- Generator: Adobe Illustrator 30.0.0, SVG Export Plug-In . SVG Version: 2.1.1 Build 123)  -->
  <defs>
    <style>
      .st0 {
        fill: #fff;
      }

      .st1 {
        mix-blend-mode: darken;
        opacity: .3;
      }

      .st1, .st2 {
        fill: #010101;
      }

      .st3 {
        fill: #e83b3b;
      }

      .st4 {
        fill: #d3312e;
      }

      .st5 {
        isolation: isolate;
      }
    </style>
  </defs>
  <g class="st5">
    <g id="Calque_1">
      <g>
        <g>
          <rect class="st4" x="1" y="1" width="37.2" height="21.06" rx="7.09" ry="7.09"/>
          <path class="st2" d="M31.11,2c3.36,0,6.09,2.73,6.09,6.09v6.88c0,3.36-2.73,6.09-6.09,6.09H8.09c-3.36,0-6.09-2.73-6.09-6.09v-6.88c0-3.36,2.73-6.09,6.09-6.09h23.02M31.11,0H8.09C3.62,0,0,3.62,0,8.09v6.88c0,4.47,3.62,8.09,8.09,8.09h23.02c4.47,0,8.09-3.62,8.09-8.09v-6.88c0-4.47-3.62-8.09-8.09-8.09h0Z"/>
        </g>
        <path class="st1" d="M38.75,12c.59,4.06-.99,9.29-3.82,9.52-.96.14-3.25.04-4.24.07,0,0-11.03,0-11.03,0h-11.03c-1.01-.02-3.19.05-4.22-.04C1.51,21.41.01,16.06.62,12c.38,3.48,1.81,6.16,3.95,6.56.75.07,3.22.02,4.05.03,0,0,11.03,0,11.03,0h11.03c.44,0,3.05,0,3.45,0,2.31.01,4.2-2.75,4.61-6.59h0Z"/>
        <path class="st3" d="M2.16,10.02C1.62,6.28,3.07,1.48,5.67,1.27c.88-.12,2.98-.03,3.9-.06,0,0,10.14,0,10.14,0h10.14c.93.02,2.93-.05,3.88.04,2.65.13,4.02,5.04,3.47,8.77-.35-3.2-1.66-5.66-3.63-6.02-.69-.06-2.96-.01-3.72-.03,0,0-10.14,0-10.14,0h-10.14c-.4,0-2.8,0-3.17,0-2.13-.01-3.86,2.53-4.24,6.05h0Z"/>
        <path class="st2" d="M31.11,2c3.36,0,6.09,2.73,6.09,6.09v6.88c0,3.36-2.73,6.09-6.09,6.09H8.09c-3.36,0-6.09-2.73-6.09-6.09v-6.88c0-3.36,2.73-6.09,6.09-6.09h23.02M31.11,0H8.09C3.62,0,0,3.62,0,8.09v6.88c0,4.47,3.62,8.09,8.09,8.09h23.02c4.47,0,8.09-3.62,8.09-8.09v-6.88c0-4.47-3.62-8.09-8.09-8.09h0Z"/>
        <g>
          <g>
            <path class="st0" d="M15.99,14.7l-3.36-4.98c0,.07.05.92.07,1.27v3.71s-2.12,0-2.12,0v-7.82h2.67l3.35,4.93c0-.07-.06-1.21-.06-1.21v-3.73s2.13,0,2.13,0v7.82h-2.69Z"/>
            <path class="st2" d="M18.43,7.13v7.32h-2.3l-3.73-5.53h-.05c.02.35.03.7.05,1.05.02.35.04.7.05,1.05v3.44h-1.62v-7.32h2.29l3.72,5.48h.04c0-.34-.02-.68-.04-1.01-.02-.33-.03-.67-.05-1v-3.46h1.63M18.93,6.63h-2.63v3.96l.02.34-2.77-4.09-.15-.22h-3.06v8.32h2.62v-3.94c0-.13-.01-.26-.02-.39l2.78,4.12.15.22h3.07V6.63h0Z"/>
          </g>
          <g>
            <path class="st0" d="M24.29,14.8c-.96,0-1.78-.17-2.41-.5-.65-.34-1.14-.82-1.45-1.43-.31-.6-.47-1.31-.47-2.1s.16-1.5.47-2.09c.31-.6.8-1.08,1.45-1.41.64-.33,1.45-.49,2.42-.49s1.77.17,2.41.49c.64.33,1.13.81,1.44,1.42.31.6.47,1.3.47,2.1s-.16,1.5-.47,2.1c-.31.61-.8,1.09-1.44,1.42-.63.33-1.45.5-2.42.5ZM24.3,8.56c-.69,0-1.17.18-1.47.56-.31.39-.46.95-.46,1.66s.16,1.26.46,1.66c.3.38.77.56,1.46.56s1.18-.18,1.47-.56c.3-.39.45-.95.45-1.66s-.15-1.27-.45-1.66c-.29-.38-.77-.56-1.46-.56Z"/>
            <path class="st2" d="M24.3,7.02c.93,0,1.69.16,2.29.47.6.31,1.05.75,1.34,1.31s.44,1.22.44,1.98-.15,1.42-.44,1.98c-.29.56-.74,1-1.34,1.32-.6.31-1.37.47-2.3.47s-1.69-.16-2.3-.47c-.6-.31-1.05-.75-1.34-1.32-.29-.57-.44-1.23-.44-1.99s.15-1.42.44-1.98c.29-.56.74-1,1.34-1.31.6-.31,1.37-.47,2.31-.47M24.29,13.25c.78,0,1.33-.22,1.67-.66.34-.44.5-1.04.5-1.81s-.17-1.38-.5-1.81c-.34-.44-.89-.66-1.66-.66s-1.32.22-1.67.66c-.34.44-.52,1.04-.52,1.81s.17,1.37.52,1.81c.34.44.9.66,1.66.66M24.3,6.52c-1.01,0-1.87.18-2.54.52-.69.36-1.22.87-1.56,1.52-.33.63-.49,1.37-.49,2.21s.17,1.58.49,2.22c.34.66.86,1.18,1.56,1.54.67.35,1.52.53,2.53.53s1.87-.18,2.54-.53c.69-.36,1.21-.88,1.55-1.53.33-.63.49-1.38.49-2.21s-.17-1.58-.49-2.21c-.34-.65-.86-1.17-1.55-1.53-.67-.35-1.52-.52-2.52-.52h0ZM24.29,12.75c-.6,0-1.02-.15-1.26-.47-.27-.35-.41-.85-.41-1.5s.14-1.16.41-1.5c.25-.31.66-.46,1.28-.46s1.02.15,1.26.46c.27.35.4.85.4,1.51s-.14,1.16-.4,1.51c-.24.31-.65.46-1.27.46h0Z"/>
          </g>
        </g>
      </g>
    </g>
  </g>
</svg>