<?xml version="1.0" encoding="UTF-8"?>
<svg id="Calque_1" xmlns="http://www.w3.org/2000/svg" version="1.1" viewBox="0 0 54.14 54.14">
  <!-- Generator: Adobe Illustrator 30.0.0, SVG Export Plug-In . SVG Version: 2.1.1 Build 123)  -->
  <defs>
    <style>
      .st0 {
        fill: #fff;
      }

      .st1 {
        fill: #e83b3b;
      }

      .st2 {
        fill: #d3312e;
      }

      .st3 {
        fill: #010101;
      }

      .st4 {
        fill: #a12425;
      }
    </style>
  </defs>
  <g>
    <path class="st2" d="M27.07,52.64c-14.1,0-25.57-11.47-25.57-25.57S12.97,1.5,27.07,1.5s25.57,11.47,25.57,25.57-11.47,25.57-25.57,25.57Z"/>
    <path class="st3" d="M27.07,3c13.29,0,24.07,10.78,24.07,24.07s-10.78,24.07-24.07,24.07S3,40.36,3,27.07,13.78,3,27.07,3M27.07,0C12.14,0,0,12.14,0,27.07s12.14,27.07,27.07,27.07,27.07-12.14,27.07-27.07S42,0,27.07,0h0Z"/>
  </g>
  <path class="st1" d="M2.15,21.96C6.08,8.81,22.16-2.34,35.93,2.21c13.66,4.88,21.19,22.91,14.16,35.73,3.32-12.67-3.31-27.25-15.48-31.96C22.41,2.06,8.19,11.52,2.15,21.96h0Z"/>
  <path class="st4" d="M52.77,31.76c-3.93,13.14-20.01,24.3-33.78,19.75C5.33,46.63-2.2,28.6,4.83,15.78c-3.32,12.67,3.31,27.25,15.48,31.96,12.2,3.91,26.42-5.55,32.45-15.99h0Z"/>
  <path class="st3" d="M27.07,3c13.29,0,24.07,10.78,24.07,24.07s-10.78,24.07-24.07,24.07S3,40.36,3,27.07,13.78,3,27.07,3M27.07,0C12.14,0,0,12.14,0,27.07s12.14,27.07,27.07,27.07,27.07-12.14,27.07-27.07S42,0,27.07,0h0Z"/>
  <g>
    <path class="st0" d="M40.18,37.06c-.29,0-.56-.17-.68-.44-2.57-5.76-7.92-6.62-10.88-6.62-.31,0-.58,0-.8.02v6.29c0,.29-.17.55-.43.68-.1.05-.21.07-.32.07-.17,0-.33-.06-.47-.17l-14.09-11.33c-.18-.14-.28-.36-.28-.59s.11-.44.29-.59l14.09-11.02c.13-.1.3-.16.46-.16.11,0,.22.02.33.08.26.13.42.39.42.67v5.07c4.44.4,7.83,2.03,10.11,4.86,4.12,5.12,3.04,12.24,2.99,12.54-.05.33-.31.58-.64.62-.03,0-.07,0-.1,0Z"/>
    <path class="st3" d="M27.07,13.96v5.76c15.61.91,13.11,16.58,13.11,16.58-2.8-6.28-8.74-7.07-11.56-7.07-.95,0-1.55.09-1.55.09v6.98l-14.09-11.33,14.09-11.02M27.07,12.46c-.33,0-.66.11-.92.32l-14.09,11.02c-.36.28-.57.71-.58,1.17,0,.46.2.89.56,1.18l14.09,11.33c.27.22.6.33.94.33.22,0,.44-.05.65-.15.52-.25.85-.78.85-1.35v-5.57s.03,0,.05,0c2.78,0,7.8.8,10.19,6.18.24.55.78.89,1.37.89.07,0,.13,0,.2-.01.66-.09,1.18-.6,1.29-1.25.05-.31,1.17-7.76-3.15-13.13-2.29-2.85-5.63-4.55-9.95-5.06v-4.39c0-.57-.33-1.1-.84-1.35-.21-.1-.43-.15-.66-.15h0Z"/>
  </g>
</svg>