<?xml version="1.0" encoding="UTF-8"?>
<svg id="Calque_1" xmlns="http://www.w3.org/2000/svg" version="1.1" viewBox="0 0 23.18 23.17">
  <!-- Generator: Adobe Illustrator 30.0.0, SVG Export Plug-In . SVG Version: 2.1.1 Build 123)  -->
  <defs>
    <style>
      .st0 {
        fill: #fff;
      }

      .st1 {
        fill: #872426;
      }

      .st2 {
        fill: #010101;
      }

      .st3 {
        fill: #e44846;
      }
    </style>
  </defs>
  <g id="Button_x5F_add">
    <rect class="st3" x="0" width="23.17" height="23.17" rx="6.22" ry="6.22"/>
    <path class="st1" d="M21.69,6.15c.45,2.71.71,5.72.93,8.46.59,3.38-1.67,6.92-5.17,7.56-1.01.22-2.09.11-3.05.16,0,0-2.82.03-2.82.03-1.72-.06-4.17.1-5.87-.18-2.91-.57-5.15-3.14-5.23-6.06-.06-1.1.26-3.24.3-4.33.2-1.88.38-3.76.7-5.64.45,2.71.72,5.72.93,8.46-.1,2.33,1.43,4.65,3.77,4.91,1.22.1,4-.04,5.4,0,1.4-.01,4.17.11,5.4.01,2.34-.26,3.88-2.58,3.78-4.91.21-2.74.49-5.75.93-8.46h0Z"/>
    <path class="st0" d="M16.95,2c2.33,0,4.22,1.89,4.22,4.22v10.73c0,2.33-1.89,4.22-4.22,4.22H6.22c-2.33,0-4.22-1.89-4.22-4.22V6.22c0-2.33,1.89-4.22,4.22-4.22h10.73M16.95,0H6.22C2.79,0,0,2.79,0,6.22v10.73c0,3.44,2.79,6.22,6.22,6.22h10.73c3.44,0,6.22-2.79,6.22-6.22V6.22C23.17,2.79,20.39,0,16.95,0h0Z"/>
    <path class="st2" d="M16.95,1c2.88,0,5.22,2.34,5.22,5.22v10.73c0,2.88-2.34,5.22-5.22,5.22H6.22c-2.88,0-5.22-2.34-5.22-5.22V6.22C1,3.34,3.34,1,6.22,1h10.73M16.95,0H6.22C2.79,0,0,2.79,0,6.22v10.73c0,3.44,2.79,6.22,6.22,6.22h10.73c3.44,0,6.22-2.79,6.22-6.22V6.22C23.17,2.79,20.39,0,16.95,0h0Z"/>
    <g>
      <path class="st0" d="M10.57,16.88c-.38,0-.7-.31-.7-.7v-2.87h-2.88c-.38,0-.7-.31-.7-.7v-2.04c0-.38.31-.7.7-.7h2.88v-2.89c0-.38.31-.7.7-.7h2.04c.38,0,.7.31.7.7v2.89h2.9c.38,0,.7.31.7.7v2.04c0,.38-.31.7-.7.7h-2.9v2.87c0,.38-.31.7-.7.7h-2.04Z"/>
      <path class="st2" d="M12.6,6.79c.11,0,.2.09.2.2v3.19c0,.11.09.2.2.2h3.2c.11,0,.2.09.2.2v2.04c0,.11-.09.2-.2.2h-3.2c-.11,0-.2.09-.2.2v3.17c0,.11-.09.2-.2.2h-2.04c-.11,0-.2-.09-.2-.2v-3.17c0-.11-.09-.2-.2-.2h-3.18c-.11,0-.2-.09-.2-.2v-2.04c0-.11.09-.2.2-.2h3.18c.11,0,.2-.09.2-.2v-3.19c0-.11.09-.2.2-.2h2.04M12.6,5.79h-2.04c-.66,0-1.2.54-1.2,1.2v2.39h-2.38c-.66,0-1.2.54-1.2,1.2v2.04c0,.66.54,1.2,1.2,1.2h2.38v2.37c0,.66.54,1.2,1.2,1.2h2.04c.66,0,1.2-.54,1.2-1.2v-2.37h2.4c.66,0,1.2-.54,1.2-1.2v-2.04c0-.66-.54-1.2-1.2-1.2h-2.4v-2.39c0-.66-.54-1.2-1.2-1.2h0Z"/>
    </g>
  </g>
</svg>