<?xml version="1.0" encoding="UTF-8"?>
<svg id="Calque_1" xmlns="http://www.w3.org/2000/svg" version="1.1" viewBox="0 0 74.98 23.13">
  <!-- Generator: Adobe Illustrator 30.0.0, SVG Export Plug-In . SVG Version: 2.1.1 Build 123)  -->
  <defs>
    <style>
      .st0 {
        fill: #2f5a87;
      }

      .st1 {
        fill: #fff;
      }

      .st2 {
        fill: #3986c7;
      }

      .st3 {
        fill: #010101;
      }
    </style>
  </defs>
  <rect class="st0" x="1.81" y="3.43" width="71.48" height="18.06" rx="9.03" ry="9.03"/>
  <path class="st2" d="M6.6,1.55h61.9c2.64,0,4.79,2.15,4.79,4.79v3.61c0,4.34-3.52,7.86-7.86,7.86H9.67c-4.34,0-7.86-3.52-7.86-7.86v-3.61C1.81,3.7,3.96,1.55,6.6,1.55Z"/>
  <path class="st3" d="M66.28,3c3.14,0,5.7,2.56,5.7,5.7v5.73c0,3.14-2.56,5.7-5.7,5.7H8.7c-3.14,0-5.7-2.56-5.7-5.7v-5.73c0-3.14,2.56-5.7,5.7-5.7h57.58M66.28,0H8.7C3.9,0,0,3.9,0,8.7v5.73c0,4.8,3.9,8.7,8.7,8.7h57.58c4.81,0,8.7-3.9,8.7-8.7v-5.73c0-4.8-3.9-8.7-8.7-8.7h0Z"/>
  <g>
    <g>
      <path class="st1" d="M18.82,16.23l-2.04-3.29h-.39v3.29h-2.56V6.91h2.87c1.26,0,2.18.23,2.81.71.65.5.98,1.25.98,2.23,0,.45-.09.85-.26,1.2-.17.34-.4.63-.68.86-.15.13-.32.24-.48.35l2.68,3.97h-2.93ZM16.6,10.71c.64,0,.93-.12,1.06-.22.1-.08.24-.23.24-.59s-.14-.49-.24-.55c-.15-.09-.46-.2-1.1-.2h-.18v1.57h.21Z"/>
      <path class="st3" d="M16.7,7.28c1.17,0,2.03.21,2.59.64.56.42.83,1.07.83,1.93,0,.39-.07.73-.22,1.03-.15.29-.34.54-.59.74-.24.2-.51.37-.79.5l2.52,3.73h-2.02l-2.04-3.29h-.97v3.29h-1.81V7.28h2.5M16.01,11.09h.59c.6,0,1.03-.1,1.29-.3.26-.2.39-.5.39-.89s-.14-.7-.41-.87c-.28-.17-.71-.26-1.3-.26h-.55v2.32M16.7,6.53h-3.25v10.07h3.31v-2.97l1.62,2.62.22.35h3.84l-.79-1.17-2.08-3.08c.07-.05.14-.1.2-.16.32-.27.58-.6.78-.98.2-.4.3-.86.3-1.36,0-1.11-.38-1.96-1.13-2.53-.7-.53-1.69-.79-3.04-.79h0ZM16.76,10.33v-.81c.48.02.66.11.71.14.05.03.06.14.06.23,0,.22-.07.27-.1.29-.03.02-.18.12-.67.14h0Z"/>
    </g>
    <g>
      <polygon class="st1" points="21.75 16.23 21.75 6.91 27.43 6.91 27.43 9.15 24.31 9.15 24.31 10.28 27.21 10.28 27.21 12.52 24.31 12.52 24.31 13.98 27.43 13.98 27.43 16.23 21.75 16.23"/>
      <path class="st3" d="M27.06,7.28v1.49h-3.12v1.88h2.9v1.49h-2.9v2.21h3.12v1.5h-4.93V7.28h4.93M27.81,6.53h-6.43v10.07h6.43v-3h-3.12v-.71h2.9v-2.99h-2.9v-.38h3.12v-2.99h0Z"/>
    </g>
    <g>
      <path class="st1" d="M30.74,16.35c-.96,0-1.83-.19-2.59-.55l-.21-.1v-2.5l.52.22c.4.17.81.33,1.24.47.4.13.79.2,1.18.2.46,0,.64-.1.7-.16.11-.1.16-.22.16-.38,0-.12-.04-.21-.12-.29-.12-.12-.29-.24-.5-.36-.24-.13-.52-.27-.84-.42-.21-.1-.43-.22-.67-.36-.25-.15-.5-.33-.73-.54-.25-.23-.45-.51-.6-.83-.16-.33-.24-.72-.24-1.17,0-.88.31-1.58.92-2.08.59-.48,1.38-.73,2.36-.73.48,0,.94.06,1.37.17.42.11.87.27,1.32.46l.34.15-.87,2.1-.34-.14c-.38-.15-.72-.27-1.02-.36-.28-.08-.57-.12-.86-.12-.25,0-.43.05-.55.15-.1.09-.15.19-.15.34,0,.18.07.3.24.41.26.17.65.38,1.17.62.46.22.86.45,1.18.68.35.26.63.56.82.91.2.36.3.8.3,1.31,0,.87-.32,1.58-.96,2.11-.61.51-1.48.76-2.57.76Z"/>
      <path class="st3" d="M31.31,7.16c.45,0,.87.05,1.28.16.4.1.83.25,1.27.44l-.59,1.42c-.39-.16-.74-.28-1.06-.37s-.63-.13-.96-.13c-.34,0-.61.08-.79.24-.18.16-.28.37-.28.62,0,.3.14.54.41.72.27.18.68.39,1.21.65.44.21.81.42,1.12.65.31.22.55.49.71.79.17.3.25.68.25,1.13,0,.76-.27,1.37-.82,1.82-.55.45-1.33.68-2.33.68-.9,0-1.71-.17-2.42-.52v-1.69c.41.18.83.34,1.27.49.44.15.87.22,1.3.22s.77-.09.95-.26c.19-.17.28-.39.28-.65,0-.22-.07-.4-.22-.55-.15-.15-.35-.29-.59-.43-.25-.13-.53-.27-.85-.43-.2-.1-.42-.21-.65-.34-.23-.13-.45-.3-.67-.49-.21-.2-.39-.43-.52-.71-.14-.28-.2-.62-.2-1.01,0-.77.26-1.37.78-1.79.52-.43,1.23-.64,2.12-.64M31.31,6.41c-1.07,0-1.94.27-2.6.81-.7.57-1.05,1.37-1.05,2.37,0,.51.09.95.28,1.34.17.36.41.68.69.94.25.23.52.43.81.59.25.14.48.26.69.37.31.15.59.28.82.41.18.09.32.19.41.29,0,.09,0,.11-.03.13,0,0,0,0,0,0,0,0-.11.06-.45.06s-.7-.06-1.06-.18c-.41-.14-.82-.3-1.21-.46l-1.05-.45v3.3l.42.2c.81.39,1.74.59,2.75.59,1.18,0,2.13-.29,2.81-.85.72-.59,1.09-1.42,1.09-2.4,0-.57-.12-1.08-.35-1.49-.22-.4-.53-.75-.93-1.04-.34-.25-.76-.49-1.24-.72-.5-.24-.88-.44-1.13-.6-.07-.04-.07-.05-.07-.09l-.47-.62.49.57s.11-.06.3-.06c.26,0,.51.03.76.1.28.08.61.2.98.34l.69.28.29-.69.59-1.42.28-.68-.68-.29c-.47-.21-.94-.37-1.38-.48-.47-.12-.96-.18-1.47-.18h0Z"/>
    </g>
    <g>
      <path class="st1" d="M38.87,16.35c-1.23,0-2.19-.33-2.85-.98-.66-.65-1-1.51-1-2.57v-5.9h2.56v5.62c0,.59.11,1.01.32,1.22.21.21.56.32,1.02.32s.81-.11,1.01-.34c.21-.24.31-.65.31-1.22v-5.61h2.56v5.92c0,.65-.15,1.25-.44,1.78-.29.54-.74.97-1.33,1.28-.58.3-1.3.46-2.16.46Z"/>
      <path class="st3" d="M42.43,7.28v5.54c0,.59-.13,1.13-.39,1.6-.26.48-.65.85-1.18,1.13-.52.28-1.19.41-1.99.41-1.14,0-2-.29-2.59-.87-.59-.58-.89-1.35-.89-2.3v-5.52h1.81v5.24c0,.7.14,1.2.43,1.49.29.29.72.43,1.28.43s1.02-.16,1.29-.47c.27-.31.4-.8.4-1.46v-5.23h1.81M43.18,6.53h-3.31v5.98c0,.62-.14.88-.22.98-.15.17-.47.21-.72.21-.36,0-.61-.07-.75-.21-.05-.05-.21-.27-.21-.96v-5.99h-3.31v6.27c0,1.16.37,2.11,1.11,2.83.73.72,1.78,1.08,3.12,1.08.92,0,1.7-.17,2.34-.5.65-.34,1.15-.83,1.48-1.43.32-.59.48-1.25.48-1.96v-6.29h0Z"/>
    </g>
    <g>
      <path class="st1" d="M51.62,16.23s0-4.57,0-4.64l-1.53,4.64h-2.22l-1.35-4.4v4.4h-2.37V6.91h3.12l1.78,5.75,1.88-5.75h3.12v9.32h-2.44Z"/>
      <path class="st3" d="M53.68,7.28v8.57h-1.69v-4.06c0-.27,0-.58.02-.94.01-.35.02-.69.04-1,.01-.32.02-.55.03-.71h-.05l-2.21,6.71h-1.67l-2.06-6.72h-.05c0,.16.02.4.04.72.02.32.03.66.05,1.03.02.36.02.69.02.99v3.98h-1.62V7.28h2.47l2.03,6.55h.04l2.15-6.55h2.47M54.43,6.53h-3.77l-.17.52-1.43,4.37-1.35-4.36-.16-.53h-3.77v10.07h3.12v-2.28l.54,1.75.16.53h2.76l.17-.52.71-2.16v2.67h3.19V6.53h0Z"/>
    </g>
    <g>
      <polygon class="st1" points="55.47 16.23 55.47 6.91 61.15 6.91 61.15 9.15 58.03 9.15 58.03 10.28 60.93 10.28 60.93 12.52 58.03 12.52 58.03 13.98 61.15 13.98 61.15 16.23 55.47 16.23"/>
      <path class="st3" d="M60.77,7.28v1.49h-3.12v1.88h2.9v1.49h-2.9v2.21h3.12v1.5h-4.93V7.28h4.93M61.52,6.53h-6.43v10.07h6.43v-3h-3.12v-.71h2.9v-2.99h-2.9v-.38h3.12v-2.99h0Z"/>
    </g>
  </g>
</svg>