<?xml version="1.0" encoding="UTF-8"?>
<svg id="Calque_1" xmlns="http://www.w3.org/2000/svg" version="1.1" viewBox="0 0 628.02 143.25">
  <!-- Generator: Adobe Illustrator 30.0.0, SVG Export Plug-In . SVG Version: 2.1.1 Build 123)  -->
  <defs>
    <style>
      .st0 {
        fill: #3a87c7;
      }

      .st1 {
        fill: #fff;
      }

      .st2 {
        fill: #010202;
      }

      .st3 {
        fill: #305b88;
      }
    </style>
  </defs>
  <g id="Text_x5F_wallet">
    <g>
      <rect class="st3" x="4.48" y="19.37" width="617.09" height="115.95" rx="22.42" ry="22.42"/>
      <rect class="st0" x="4.48" y="7.29" width="617.09" height="115.12" rx="22.36" ry="22.36"/>
      <path class="st2" d="M592.71,7.88c15.94,0,28.9,12.96,28.9,28.9v69.64c0,15.94-12.96,28.9-28.9,28.9H35.32c-15.94,0-28.9-12.96-28.9-28.9V36.78c0-15.94,12.96-28.9,28.9-28.9h557.39M589.37,0H38.65C17.3,0,0,17.03,0,38.04v67.17c0,21.01,17.3,38.04,38.65,38.04h550.72c21.35,0,38.65-17.03,38.65-38.04V38.04c0-21.01-17.3-38.04-38.65-38.04h0Z"/>
    </g>
  </g>
  <g>
    <g>
      <path class="st1" d="M248.25,94.42c-3.82,0-7.15-.73-9.89-2.16-2.86-1.49-4.78-3.46-5.7-5.85-.86-2.24-1.28-5.27-1.28-9.26v-4.79h12.39c-.51-.34-1.08-.71-1.72-1.12-3.44-2.22-5.67-3.8-6.83-4.83-1.25-1.12-2.28-2.66-3.08-4.58-.78-1.89-1.18-4.3-1.18-7.16,0-4.15.56-7.16,1.71-9.19,1.17-2.06,3.05-3.67,5.59-4.81,2.44-1.09,5.39-1.64,8.77-1.64,3.68,0,6.89.6,9.53,1.78,2.78,1.24,4.67,2.88,5.62,4.87.9,1.89,1.34,4.88,1.34,9.14v3.49h-13.58c.1.06.21.12.32.19,6.23,3.6,10.08,6.52,11.77,8.94,1.75,2.5,2.6,6.28,2.6,11.57,0,3.86-.48,6.67-1.45,8.6-1.01,2-2.93,3.66-5.69,4.95-2.65,1.24-5.76,1.86-9.24,1.86ZM246.85,79.97c0,2.27.28,2.8.29,2.82.03.04.22.12.6.12.48,0,.62-.16.73-.33.16-.24.42-.86.42-2.23,0-3.58-.65-4.58-.85-4.8-.21-.22-.57-.55-1.19-1.03v5.45ZM247.48,50.54c-.37,0-.47.12-.57.28-.14.22-.38.79-.38,2.11,0,1.76.28,2.64.51,3.07.07.14.3.48,1.01,1.04v-3.96c0-1.9-.21-2.44-.24-2.51,0,0,0,0,0,0-.03,0-.12-.03-.33-.03Z"/>
      <path d="M247.04,40.54c3.49,0,6.46.55,8.91,1.65,2.46,1.1,4.08,2.48,4.88,4.15.8,1.67,1.2,4.5,1.2,8.49v1.99h-12.47v-3.73c0-1.74-.16-2.85-.48-3.32-.32-.48-.85-.71-1.59-.71-.81,0-1.42.32-1.83.96s-.62,1.61-.62,2.92c0,1.68.23,2.94.7,3.79.45.85,1.71,1.88,3.79,3.07,5.98,3.45,9.74,6.29,11.29,8.5,1.55,2.22,2.33,5.79,2.33,10.71,0,3.58-.43,6.22-1.29,7.92-.86,1.7-2.52,3.12-4.99,4.27-2.47,1.15-5.34,1.72-8.61,1.72-3.59,0-6.66-.66-9.2-1.99-2.54-1.32-4.2-3.01-4.99-5.06-.79-2.05-1.18-4.96-1.18-8.72v-3.29h12.47v6.12c0,1.88.18,3.1.53,3.63.35.54.97.81,1.87.81s1.56-.34,1.99-1.02c.44-.68.65-1.7.65-3.04,0-2.96-.41-4.9-1.24-5.81-.85-.91-2.94-2.43-6.28-4.56-3.34-2.15-5.55-3.72-6.63-4.69-1.08-.97-1.98-2.32-2.7-4.04-.71-1.72-1.07-3.91-1.07-6.58,0-3.85.5-6.66,1.51-8.44,1.01-1.78,2.64-3.17,4.89-4.18,2.25-1,4.97-1.51,8.16-1.51M247.04,37.54c-3.6,0-6.75.59-9.38,1.77-2.84,1.27-4.96,3.1-6.28,5.44-1.28,2.26-1.9,5.51-1.9,9.92,0,3.1.42,5.63,1.3,7.73.88,2.13,2.05,3.85,3.46,5.12.9.81,2.38,1.9,4.52,3.34h-8.86v6.29c0,4.18.45,7.38,1.38,9.8,1.05,2.74,3.21,4.98,6.4,6.65,2.96,1.54,6.52,2.33,10.59,2.33,3.7,0,7.02-.67,9.88-2,3.08-1.43,5.23-3.33,6.4-5.63,1.09-2.14,1.62-5.18,1.62-9.27,0-5.61-.94-9.68-2.87-12.43-1.4-2-3.97-4.19-7.96-6.77h9.71v-4.99c0-4.49-.49-7.69-1.49-9.79-1.11-2.32-3.25-4.2-6.36-5.59-2.83-1.27-6.24-1.91-10.14-1.91h0Z"/>
    </g>
    <g>
      <polygon class="st1" points="286.56 93.36 286.56 72.25 285.54 72.25 285.54 93.36 269.12 93.36 269.12 40.09 285.54 40.09 285.54 58.07 286.56 58.07 286.56 40.09 302.99 40.09 302.99 93.36 286.56 93.36"/>
      <path d="M301.49,41.59v50.27h-13.43v-21.11h-4.02v21.11h-13.43v-50.27h13.43v17.98h4.02v-17.98h13.43M304.49,38.59h-36.87v56.27h36.87v-56.27h0Z"/>
    </g>
    <g>
      <path class="st1" d="M325.29,94.42c-2.94,0-5.63-.48-8-1.43-2.45-.98-4.45-2.47-5.95-4.44-1.5-1.97-2.4-4.14-2.69-6.47-.27-2.15-.4-5.76-.4-11.05v-8.6c0-5.08.13-8.75.38-10.9.27-2.35,1.14-4.53,2.58-6.48,1.44-1.95,3.4-3.46,5.83-4.49,2.36-1.01,5.14-1.52,8.24-1.52,2.94,0,5.63.48,8,1.43,2.45.98,4.45,2.47,5.95,4.44,1.5,1.97,2.4,4.14,2.69,6.47.26,2.14.39,5.75.39,11.05v8.6c0,5.15-.12,8.72-.38,10.9-.28,2.36-1.14,4.54-2.58,6.48-1.44,1.95-3.4,3.46-5.83,4.49-2.37,1.01-5.14,1.52-8.24,1.52ZM324.96,82.88s.09.03.3.03c.19,0,.27-.03.29-.04,0,0,.02-.03.04-.1.09-.29.31-1.37.31-5.16v-23.1c0-3.06-.24-3.8-.29-3.92.01-.01-.06-.04-.25-.04-.27,0-.33.08-.38.16,0,.01-.28.69-.28,3.81v23.47c0,3.92.23,4.77.28,4.9,0,0,0,0,0,0Z"/>
      <path d="M325.29,40.54c2.76,0,5.25.44,7.45,1.32,2.2.88,3.97,2.2,5.31,3.96,1.34,1.76,2.14,3.67,2.39,5.74.26,2.07.38,5.69.38,10.87v8.6c0,5.05-.12,8.63-.37,10.73-.25,2.1-1.01,4.02-2.3,5.76-1.29,1.74-3.02,3.07-5.21,4.01-2.19.93-4.74,1.4-7.65,1.4-2.76,0-5.25-.44-7.45-1.32-2.2-.88-3.97-2.2-5.31-3.96-1.34-1.76-2.14-3.67-2.39-5.75-.26-2.07-.38-5.69-.38-10.87v-8.6c0-5.05.12-8.63.37-10.73.24-2.1,1.01-4.02,2.3-5.76,1.29-1.74,3.02-3.07,5.21-4,2.19-.93,4.74-1.4,7.65-1.4M325.25,84.41c.91,0,1.5-.39,1.75-1.18.25-.79.38-2.66.38-5.62v-23.1c0-2.34-.13-3.84-.4-4.49-.27-.65-.81-.98-1.64-.98-.7,0-1.24.26-1.61.79-.37.53-.56,2.09-.56,4.67v23.47c0,2.92.12,4.72.37,5.4.24.68.81,1.02,1.71,1.02M325.29,37.54c-3.31,0-6.28.55-8.83,1.64-2.68,1.14-4.85,2.81-6.45,4.98-1.6,2.16-2.56,4.58-2.86,7.2-.26,2.24-.39,5.86-.39,11.07v8.6c0,5.35.13,9.02.41,11.23.32,2.59,1.32,5.01,2.98,7.19,1.67,2.19,3.88,3.85,6.58,4.93,2.55,1.02,5.43,1.53,8.56,1.53,3.31,0,6.28-.55,8.83-1.64,2.68-1.14,4.85-2.81,6.45-4.98,1.6-2.16,2.56-4.58,2.87-7.2.26-2.25.39-5.87.39-11.08v-8.6c0-5.35-.13-9.03-.41-11.23-.32-2.59-1.32-5.01-2.98-7.19-1.67-2.19-3.88-3.85-6.58-4.93-2.55-1.02-5.43-1.53-8.56-1.53h0Z"/>
    </g>
    <g>
      <path class="st1" d="M347.59,93.36v-53.27h15.02c3.83,0,6.72.29,8.84.89,2.22.63,3.95,1.59,5.12,2.84,1.17,1.24,1.96,2.76,2.38,4.52.38,1.63.57,4.02.57,7.31v4.38c0,3.46-.38,5.96-1.16,7.65-.84,1.81-2.35,3.2-4.51,4.13-2,.87-4.6,1.3-7.72,1.3h-2.1v20.24h-16.42ZM364.01,61.49c.51-.05.79-.18.89-.3.01-.02.38-.51.38-2.74v-4.13c0-1.85-.35-2.26-.36-2.26h0s-.2-.16-.91-.27v9.7Z"/>
      <path d="M362.61,41.59c3.66,0,6.47.28,8.43.84,1.97.56,3.44,1.37,4.43,2.42.99,1.05,1.66,2.33,2.01,3.83.35,1.5.53,3.83.53,6.97v4.38c0,3.21-.34,5.55-1.02,7.02-.68,1.47-1.93,2.6-3.75,3.38-1.82.79-4.19,1.18-7.13,1.18h-3.6v20.24h-13.43v-50.27h13.52M363.5,63.02c1.23,0,2.09-.3,2.57-.88.48-.59.72-1.82.72-3.68v-4.13c0-1.72-.28-2.84-.83-3.35-.55-.52-1.7-.78-3.44-.78v12.79c.38.02.71.03.99.03M362.61,38.59h-16.52v56.27h19.43v-20.24h.6c3.38,0,6.1-.47,8.32-1.43,2.51-1.09,4.28-2.73,5.28-4.88.87-1.89,1.3-4.59,1.3-8.28v-4.38c0-3.41-.2-5.91-.61-7.65-.47-2.01-1.39-3.76-2.74-5.2-1.36-1.45-3.31-2.55-5.8-3.26-2.26-.64-5.29-.95-9.25-.95h0Z"/>
    </g>
  </g>
</svg>