<?xml version="1.0" encoding="UTF-8"?>
<svg xmlns="http://www.w3.org/2000/svg" version="1.1" viewBox="0 0 39.2 23.06">
  <!-- Generator: Adobe Illustrator 30.0.0, SVG Export Plug-In . SVG Version: 2.1.1 Build 123)  -->
  <defs>
    <style>
      .st0 {
        mix-blend-mode: darken;
        opacity: .3;
      }

      .st0, .st1 {
        fill: #010101;
      }

      .st2 {
        fill: #f0f8fb;
      }

      .st3 {
        isolation: isolate;
      }
    </style>
  </defs>
  <g class="st3">
    <g id="Calque_1">
      <g>
        <g>
          <rect class="st2" x="1" y="1" width="37.2" height="21.06" rx="7.09" ry="7.09"/>
          <path class="st1" d="M31.11,2c3.36,0,6.09,2.73,6.09,6.09v6.88c0,3.36-2.73,6.09-6.09,6.09H8.09c-3.36,0-6.09-2.73-6.09-6.09v-6.88c0-3.36,2.73-6.09,6.09-6.09h23.02M31.11,0H8.09C3.62,0,0,3.62,0,8.09v6.88c0,4.47,3.62,8.09,8.09,8.09h23.02c4.47,0,8.09-3.62,8.09-8.09v-6.88c0-4.47-3.62-8.09-8.09-8.09h0Z"/>
        </g>
        <path class="st0" d="M38.75,12c.59,4.06-.99,9.29-3.82,9.52-.96.14-3.25.04-4.24.07,0,0-11.03,0-11.03,0h-11.03c-1.01-.02-3.19.05-4.22-.04C1.51,21.41.01,16.06.62,12c.38,3.48,1.81,6.16,3.95,6.56.75.07,3.22.02,4.05.03,0,0,11.03,0,11.03,0h11.03c.44,0,3.05,0,3.45,0,2.31.01,4.2-2.75,4.61-6.59h0Z"/>
        <g>
          <path class="st1" d="M13.83,10.14l1.61-3.01h1.76l-2.55,4.47v2.85h-1.62v-2.8l-2.55-4.52h1.77l1.59,3.01Z"/>
          <path class="st1" d="M22.59,14.45h-4.43v-7.32h4.43v1.27h-2.8v1.61h2.61v1.27h-2.61v1.89h2.8v1.28Z"/>
          <path class="st1" d="M28.73,12.42c0,.65-.25,1.17-.74,1.55-.49.39-1.19.58-2.1.58-.81,0-1.54-.15-2.18-.44v-1.44c.37.15.75.29,1.14.42.39.13.78.19,1.17.19s.69-.07.86-.22.25-.33.25-.56c0-.18-.07-.34-.2-.47-.13-.13-.31-.25-.53-.36s-.48-.23-.76-.36c-.18-.08-.37-.18-.58-.29-.21-.11-.41-.25-.6-.42-.19-.17-.35-.37-.47-.61-.12-.24-.18-.53-.18-.86,0-.66.23-1.17.7-1.53.47-.37,1.1-.55,1.91-.55.4,0,.78.04,1.15.13.36.09.74.22,1.14.38l-.53,1.21c-.35-.14-.67-.24-.95-.32-.28-.08-.57-.11-.86-.11-.31,0-.55.07-.71.21-.17.14-.25.31-.25.53,0,.26.12.46.37.62.24.15.61.33,1.09.55.4.18.73.36,1.01.55.28.19.49.42.64.68.15.26.23.58.23.96Z"/>
        </g>
      </g>
    </g>
  </g>
</svg>