<?xml version="1.0" encoding="UTF-8"?>
<svg id="Calque_1" xmlns="http://www.w3.org/2000/svg" version="1.1" viewBox="0 0 99.72 99.56">
  <!-- Generator: Adobe Illustrator 30.0.0, SVG Export Plug-In . SVG Version: 2.1.1 Build 123)  -->
  <defs>
    <style>
      .st0 {
        fill: #3c87c8;
      }

      .st1 {
        fill: #1d1d1b;
      }

      .st2 {
        fill: #fff;
      }

      .st3 {
        fill: #53a2da;
      }

      .st4 {
        fill: #2d7fbe;
      }

      .st5 {
        fill: #010101;
      }
    </style>
  </defs>
  <circle class="st0" cx="49.78" cy="49.78" r="46.78"/>
  <path class="st3" d="M1.35,39.84C8.99,14.3,38.42-5.83,65.18,3c26.54,9.48,43.01,42.99,29.33,67.9,6.45-24.63-6.43-52.96-30.08-62.12C40.72,1.18,13.08,19.56,1.35,39.84h0Z"/>
  <path class="st4" d="M99.72,58.89c-7.64,25.55-38.88,47.22-65.64,38.39C7.53,87.8-7.11,52.75,6.56,27.84.11,52.47,12.99,80.79,36.64,89.96c23.7,7.59,51.35-10.79,63.08-31.07h0Z"/>
  <path class="st5" d="M49.78,3c25.84,0,46.78,20.94,46.78,46.78s-20.94,46.78-46.78,46.78S3,75.62,3,49.78,23.94,3,49.78,3M49.78,0C22.33,0,0,22.33,0,49.78s22.33,49.78,49.78,49.78,49.78-22.33,49.78-49.78S77.23,0,49.78,0h0Z"/>
  <g>
    <path class="st2" d="M53.96,68.08V31.48h8.98v36.6h-8.98ZM36.62,68.08V31.48h8.89v36.6h-8.89Z"/>
    <path class="st1" d="M62.06,32.36v34.85h-7.23v-34.85h7.23M44.64,32.36v34.85h-7.14v-34.85h7.14M63.81,30.61h-10.73v38.35h10.73V30.61h0ZM46.39,30.61h-10.64v38.35h10.64V30.61h0Z"/>
  </g>
</svg>