<?xml version="1.0" encoding="UTF-8"?>
<svg id="Calque_1" xmlns="http://www.w3.org/2000/svg" version="1.1" viewBox="0 0 54.14 54.14">
  <!-- Generator: Adobe Illustrator 30.0.0, SVG Export Plug-In . SVG Version: 2.1.1 Build 123)  -->
  <defs>
    <style>
      .st0 {
        fill: #fff;
      }

      .st1 {
        fill: #ffda74;
      }

      .st2 {
        fill: #eebc2e;
      }

      .st3 {
        fill: #010101;
      }

      .st4 {
        fill: #fdcf32;
      }
    </style>
  </defs>
  <circle class="st4" cx="27.07" cy="27.07" r="24.07"/>
  <path class="st1" d="M2.15,21.96C6.08,8.81,22.16-2.34,35.93,2.21c13.66,4.88,21.19,22.91,14.16,35.73,3.32-12.67-3.31-27.25-15.48-31.96C22.41,2.06,8.19,11.52,2.15,21.96h0Z"/>
  <path class="st2" d="M52.77,31.76c-3.93,13.14-20.01,24.3-33.78,19.75C5.33,46.63-2.2,28.6,4.83,15.78c-3.32,12.67,3.31,27.25,15.48,31.96,12.2,3.91,26.42-5.55,32.45-15.99h0Z"/>
  <path class="st3" d="M27.07,3c13.29,0,24.07,10.78,24.07,24.07s-10.78,24.07-24.07,24.07S3,40.36,3,27.07,13.78,3,27.07,3M27.07,0C12.14,0,0,12.14,0,27.07s12.14,27.07,27.07,27.07,27.07-12.14,27.07-27.07S42,0,27.07,0h0Z"/>
  <g>
    <path class="st0" d="M35.93,40.69c-.94,0-2.05-.36-3.34-.77-1.68-.54-3.58-1.16-5.61-1.16s-3.92.62-5.58,1.16c-1.25.41-2.33.77-3.25.77-2.55,0-2.55-2.76-2.55-3.66,0-5.04,3.29-9.37,7.88-10.88-2.15-1.27-3.57-3.6-3.57-6.24,0-3.99,3.25-7.24,7.24-7.24s7.24,3.25,7.24,7.24c0,2.67-1.45,5.02-3.63,6.28,4.53,1.55,7.77,5.87,7.77,10.84,0,1.25-.2,2.11-.63,2.72-.44.62-1.11.94-1.98.94h0Z"/>
    <path class="st3" d="M27.15,13.41c3.58,0,6.49,2.91,6.49,6.49,0,3.34-2.52,6.08-5.76,6.45,5.54.42,9.9,5.03,9.9,10.68,0,2.22-.69,2.91-1.86,2.91-1.95,0-5.25-1.93-8.95-1.93s-6.93,1.93-8.83,1.93c-1.14,0-1.8-.69-1.8-2.91,0-5.69,4.43-10.33,10.03-10.68-3.22-.38-5.71-3.12-5.71-6.44,0-3.58,2.91-6.49,6.49-6.49M27.15,11.91c-4.41,0-7.99,3.58-7.99,7.99,0,2.4,1.07,4.58,2.77,6.05-4.19,1.95-7.08,6.2-7.08,11.07,0,3.65,1.8,4.41,3.3,4.41,1.03,0,2.17-.37,3.48-.8,1.61-.53,3.43-1.13,5.35-1.13s3.75.6,5.38,1.12c1.35.43,2.51.81,3.57.81,1.53,0,3.36-.77,3.36-4.41,0-4.81-2.84-9.04-6.97-11.02,1.74-1.47,2.83-3.67,2.83-6.1,0-4.41-3.58-7.99-7.99-7.99h0Z"/>
  </g>
</svg>