<?xml version="1.0" encoding="UTF-8"?>
<svg id="Calque_1" xmlns="http://www.w3.org/2000/svg" version="1.1" viewBox="0 0 54.14 54.14">
  <!-- Generator: Adobe Illustrator 30.0.0, SVG Export Plug-In . SVG Version: 2.1.1 Build 123)  -->
  <defs>
    <style>
      .st0 {
        fill: #fff;
      }

      .st1 {
        fill: #e83b3b;
      }

      .st2 {
        fill: #d3312e;
      }

      .st3 {
        fill: #010101;
      }

      .st4 {
        fill: #a12425;
      }
    </style>
  </defs>
  <g>
    <path class="st2" d="M27.07,52.64c-14.1,0-25.57-11.47-25.57-25.57S12.97,1.5,27.07,1.5s25.57,11.47,25.57,25.57-11.47,25.57-25.57,25.57Z"/>
    <path class="st3" d="M27.07,3c13.29,0,24.07,10.78,24.07,24.07s-10.78,24.07-24.07,24.07S3,40.36,3,27.07,13.78,3,27.07,3M27.07,0C12.14,0,0,12.14,0,27.07s12.14,27.07,27.07,27.07,27.07-12.14,27.07-27.07S42,0,27.07,0h0Z"/>
  </g>
  <path class="st1" d="M2.15,21.96C6.08,8.81,22.16-2.34,35.93,2.21c13.66,4.88,21.19,22.91,14.16,35.73,3.32-12.67-3.31-27.25-15.48-31.96C22.41,2.06,8.19,11.52,2.15,21.96h0Z"/>
  <path class="st4" d="M52.77,31.76c-3.93,13.14-20.01,24.3-33.78,19.75C5.33,46.63-2.2,28.6,4.83,15.78c-3.32,12.67,3.31,27.25,15.48,31.96,12.2,3.91,26.42-5.55,32.45-15.99h0Z"/>
  <path class="st3" d="M27.07,3c13.29,0,24.07,10.78,24.07,24.07s-10.78,24.07-24.07,24.07S3,40.36,3,27.07,13.78,3,27.07,3M27.07,0C12.14,0,0,12.14,0,27.07s12.14,27.07,27.07,27.07,27.07-12.14,27.07-27.07S42,0,27.07,0h0Z"/>
  <g>
    <path class="st0" d="M20.63,39.52c-1.1,0-2.13-.43-2.9-1.2l-1.12-1.12c-.77-.77-1.2-1.81-1.2-2.9s.43-2.13,1.2-2.9l4.32-4.32-4.32-4.32c-.78-.77-1.2-1.81-1.2-2.9s.43-2.13,1.2-2.9l1.12-1.12c.78-.77,1.81-1.2,2.9-1.2s2.13.43,2.9,1.2l4.32,4.32,4.32-4.32c.78-.78,1.81-1.2,2.9-1.2s2.13.43,2.9,1.2l1.12,1.12c.78.77,1.2,1.81,1.2,2.9s-.43,2.13-1.2,2.9l-4.32,4.32,4.32,4.32c.78.78,1.2,1.81,1.2,2.9s-.43,2.13-1.2,2.9l-1.12,1.12c-.77.78-1.81,1.2-2.9,1.2s-2.13-.43-2.9-1.2l-4.32-4.32-4.32,4.32c-.77.78-1.81,1.2-2.9,1.2Z"/>
    <path class="st3" d="M20.63,15.37c.86,0,1.72.33,2.37.98l4.85,4.85,4.85-4.85c.65-.65,1.51-.98,2.37-.98s1.72.33,2.37.98l1.12,1.12c1.31,1.31,1.31,3.43,0,4.74l-4.85,4.85,4.85,4.85c1.31,1.31,1.31,3.43,0,4.74l-1.12,1.12c-.65.65-1.51.98-2.37.98s-1.72-.33-2.37-.98l-4.85-4.85-4.85,4.85c-.65.65-1.51.98-2.37.98s-1.72-.33-2.37-.98l-1.12-1.12c-1.31-1.31-1.31-3.43,0-4.74l4.85-4.85-4.85-4.85c-1.31-1.31-1.31-3.43,0-4.74l1.12-1.12c.65-.65,1.51-.98,2.37-.98M20.63,13.87c-1.3,0-2.52.5-3.43,1.42l-1.12,1.12c-1.89,1.89-1.89,4.97,0,6.86l3.79,3.79-3.79,3.79c-1.89,1.89-1.89,4.97,0,6.86l1.12,1.12c.92.92,2.14,1.42,3.43,1.42s2.52-.5,3.43-1.42l3.79-3.79,3.79,3.79c.92.92,2.14,1.42,3.43,1.42s2.52-.5,3.43-1.42l1.12-1.12c1.89-1.89,1.89-4.97,0-6.86l-3.79-3.79,3.79-3.79c1.89-1.89,1.89-4.97,0-6.86l-1.12-1.12c-.92-.92-2.14-1.42-3.43-1.42s-2.52.5-3.43,1.42l-3.79,3.79-3.79-3.79c-.92-.92-2.14-1.42-3.43-1.42h0Z"/>
  </g>
</svg>