<?xml version="1.0" encoding="UTF-8"?>
<svg id="Calque_1" xmlns="http://www.w3.org/2000/svg" version="1.1" viewBox="0 0 54.14 54.14">
  <!-- Generator: Adobe Illustrator 30.0.0, SVG Export Plug-In . SVG Version: 2.1.1 Build 123)  -->
  <defs>
    <style>
      .st0 {
        fill: #3c87c8;
      }

      .st1 {
        fill: #fff;
      }

      .st2 {
        fill: #53a2da;
      }

      .st3 {
        fill: #2d7fbe;
      }

      .st4 {
        fill: #010101;
      }
    </style>
  </defs>
  <circle class="st0" cx="27.07" cy="27.07" r="24.07"/>
  <path class="st2" d="M2.15,21.96C6.08,8.81,22.16-2.34,35.93,2.21c13.66,4.88,21.19,22.91,14.16,35.73,3.32-12.67-3.31-27.25-15.48-31.96C22.41,2.06,8.19,11.52,2.15,21.96h0Z"/>
  <path class="st3" d="M52.77,31.76c-3.93,13.14-20.01,24.3-33.78,19.75C5.33,46.63-2.2,28.6,4.83,15.78c-3.32,12.67,3.31,27.25,15.48,31.96,12.2,3.91,26.42-5.55,32.45-15.99h0Z"/>
  <path class="st4" d="M27.07,3c13.29,0,24.07,10.78,24.07,24.07s-10.78,24.07-24.07,24.07S3,40.36,3,27.07,13.78,3,27.07,3M27.07,0C12.14,0,0,12.14,0,27.07s12.14,27.07,27.07,27.07,27.07-12.14,27.07-27.07S42,0,27.07,0h0Z"/>
  <g>
    <path class="st1" d="M24.84,39.52c-.34,0-.64-.23-.73-.56l-.38-1.5-1.09-.42-1.29.87c-.13.08-.27.13-.42.13-.19,0-.37-.07-.52-.21l-3.71-3.51c-.25-.24-.31-.63-.13-.93l.79-1.33-.48-1.06-1.52-.3c-.34-.07-.59-.37-.6-.72l-.14-5.11c0-.35.22-.66.56-.75l1.5-.38.42-1.09-.87-1.29c-.2-.29-.16-.68.08-.93l3.51-3.71c.15-.15.34-.23.55-.23.13,0,.26.03.38.1l1.33.79,1.06-.48.3-1.52c.07-.34.36-.6.71-.6,0,0,5.12-.14,5.13-.14.34,0,.64.23.73.56l.38,1.5,1.09.42,1.29-.86c.13-.09.27-.13.42-.13.19,0,.37.07.52.21l3.71,3.51c.25.24.31.63.13.93l-.79,1.33.48,1.06,1.52.3c.34.07.6.36.61.71l.14,5.11c0,.35-.22.66-.56.75l-1.5.38-.42,1.09.87,1.29c.2.29.16.68-.08.93l-3.51,3.71c-.15.15-.34.23-.54.23-.13,0-.26-.03-.38-.1l-1.33-.79-1.06.48-.3,1.52c-.07.34-.37.6-.72.61,0,0-5.12.14-5.13.14ZM27.07,23.05c-2.22,0-4.02,1.8-4.02,4.02s1.8,4.02,4.02,4.02,4.02-1.8,4.02-4.02-1.8-4.02-4.02-4.02Z"/>
    <path class="st4" d="M29.3,15.37l.48,1.88,1.81.69,1.61-1.08,3.71,3.51-.99,1.67.79,1.77,1.9.37.14,5.11-1.88.48-.69,1.81,1.08,1.61-3.51,3.71-1.67-.99-1.77.79-.37,1.9-5.11.14-.48-1.88-1.81-.69-1.61,1.08-3.71-3.51.99-1.67-.79-1.77-1.9-.37-.14-5.11,1.88-.48.69-1.81-1.08-1.61,3.51-3.71,1.67.99,1.77-.79.37-1.9,5.11-.14M27.07,31.84c2.63,0,4.77-2.13,4.77-4.77s-2.13-4.77-4.77-4.77-4.77,2.13-4.77,4.77,2.13,4.77,4.77,4.77M29.3,13.87s-.03,0-.04,0l-5.11.14c-.7.02-1.29.52-1.43,1.21l-.22,1.14-.35.16-1-.59c-.24-.14-.5-.21-.76-.21-.4,0-.8.16-1.09.47l-3.51,3.71c-.48.51-.55,1.28-.16,1.87l.65.97-.14.36-1.13.29c-.68.17-1.15.79-1.13,1.5l.14,5.11c.02.7.52,1.29,1.21,1.43l1.14.22.16.35-.59,1c-.36.6-.25,1.37.26,1.86l3.71,3.51c.29.27.66.41,1.03.41.29,0,.58-.08.84-.25l.97-.65.36.14.29,1.13c.17.67.77,1.13,1.45,1.13.01,0,.03,0,.04,0l5.11-.14c.7-.02,1.29-.52,1.43-1.21l.22-1.14.35-.16,1,.59c.24.14.5.21.76.21.4,0,.8-.16,1.09-.47l3.51-3.71c.48-.51.55-1.28.16-1.87l-.65-.97.14-.36,1.13-.29c.68-.17,1.15-.79,1.13-1.5l-.14-5.11c-.02-.7-.52-1.29-1.21-1.43l-1.14-.22-.16-.35.59-1c.36-.6.25-1.37-.26-1.86l-3.71-3.51c-.29-.27-.66-.41-1.03-.41-.29,0-.58.08-.84.25l-.97.65-.36-.14-.29-1.13c-.17-.67-.77-1.13-1.45-1.13h0ZM27.07,30.34c-1.8,0-3.27-1.47-3.27-3.27s1.47-3.27,3.27-3.27,3.27,1.47,3.27,3.27-1.47,3.27-3.27,3.27h0Z"/>
  </g>
</svg>