<?xml version="1.0" encoding="UTF-8"?>
<svg id="Calque_1" xmlns="http://www.w3.org/2000/svg" version="1.1" viewBox="0 0 699.94 341.78">
  <!-- Generator: Adobe Illustrator 30.0.0, SVG Export Plug-In . SVG Version: 2.1.1 Build 123)  -->
  <defs>
    <style>
      .st0 {
        fill: #a58b71;
      }

      .st1 {
        fill: #fbdf2c;
      }

      .st2 {
        fill: #f7a81b;
      }

      .st3 {
        fill: #ca4717;
      }

      .st4 {
        fill: #1f1e22;
      }

      .st5 {
        fill: #66544d;
      }

      .st6 {
        fill: #474e5f;
      }

      .st7 {
        fill: #eceaea;
      }

      .st8 {
        fill: #f6edae;
      }

      .st9 {
        fill: #ed6c1c;
      }

      .st10 {
        fill: #929397;
      }

      .st11 {
        fill: #f3ea98;
      }

      .st12 {
        fill: #8d7769;
      }

      .st13 {
        fill: #a0a0a3;
      }
    </style>
  </defs>
  <path class="st4" d="M263.83,328.5c-.41,2-1.72,2.74-3.43,3.53-2.88,1.32-44.65,10.43-46.94,9.71-4.96-1.56-11.77-22.26-12.44-27.77-4.53,2.39-17.61,14.54-21.56,15.13-3.03.45-30.85-8.44-33.66-10.48-11.55-8.34.16-20.84-.58-22.08-.63-1.06-18.45-6.76-17-16.37l-88.81-5.76,52.16-39.9c-10.88-12.08-7.68-32.1-12.34-44.68-2.33-6.3-27.7-30.49-33.97-38.13-2.02-2.46-14.6-17.21-12.84-19.14l154.66-24.44-5.81-31.39,39.53,6.97-5.8-55.81,95.09,47.43c1.2.35,2.3.58,3.5,0,1.95-.94,16.82-24.59,20.64-27.68,2.26-.47,28.88,24.04,39.54,23.19,3.58-.29,21.28-21.62,25.78-22.94,9.58-2.8,23.87,3.68,30.51,1.43L487.08,0l3.51,62.78,39.52-13.94-4.64,30.22c5.52.3,41.49-8.53,43.02-6.97.54.55-.53,9.93,0,10.47,3.38,3.43,83.23-15.93,95.35-12.79l-17.44,31.38c1.61,1.64,38.54,4.16,44.1,7.66,3.31,2.08,9.33,16.05,8.93,20.27-.3,3.13-6.69,20.45-9.17,22.45-1.89,1.52-34.54,14.53-36.5,14.48-3.42-.1-12.71-10.36-14.32-9.02.24,5.31-5.6,16.81-4.48,21.24,1.91,7.5,66.87,40.46,64.93,43.86l-89.53,34.93c31.92,23.76-25.08,54.76-42.48,41.87-6.12-4.54-8.56-17.35-19.16-10.47,10.32,8.66-3.72,31.86-12.49,33.5-6.23,1.17-9.11-5.55-15.36-4.41-.36,2.8-3.14,12.83-5.45,13.74-1.66.65-33.7.58-35.65-.07-3.11-1.03-6.44-10.25-9.54-12.55-1.05-.13-.4,6.15-1.59,7.46-1.58,1.74-33.74-1.17-39.17-1.56-2.08-.15-1.27-2.32-3.35-2.5-9.54-.82-26.89,2.01-34.92.05-4.5-1.1-3.31-4.39-5.86-6.94-1.19-.19.04,7.29-2.53,8.18-1.52.52-30.62.52-32.14,0l-6.02-17.5c-16.36,28.2-60.89,31.06-80.82,4.67-.74,5.34,1.01,13.07,0,18.02Z"/>
  <path class="st4" d="M67.03,188.66c1.23,1.16,13.83,29.07,13.96,30.8.34,4.48-5.05,20.7-9.87,22.16-5.7,1.72-40.7-2.44-47.18-4.64-5.07-1.72-22.82-19.57-23.87-23.88-.79-3.26,4.41-15.54,7.05-16.96,2.81-1.52,49.3-8.88,53.99-8.81,1.95.03,4.38-.12,5.92,1.34Z"/>
  <path class="st4" d="M152.22,105.8c-.15-.01-23.83-.89-30.32-2.83-4.5-1.35-22.99-23.91-23.13-27.96s7.73-20.18,14.15-20.11c4.34.05,33.27,8.67,36.4,11.34,1.82,1.55,13.08,17.45,13.33,19.32.51,3.9-6.98,20.57-10.43,20.24Z"/>
  <path class="st4" d="M590.27,38.04c-2.07,1.71-32.8,9.96-36.18,9.59-8.93-.98-12.39-11.23-10.98-18.86,1.05-5.71,29.01-20.19,34-19.46,1.82.27,15.86,10.25,16.42,11.65,1.04,2.6-1.16,15.34-3.26,17.07Z"/>
  <path class="st4" d="M83.88,293.31c1.26-1.18,25.09-6.42,27.56-5.54,1.55.55,12.16,13.64,12.58,15.46,2.05,8.99-9.49,22.98-17.68,22.36-1.24-.09-20.62-11.29-21.55-12.25-3.22-3.29-3.61-17.5-.91-20.03Z"/>
  <path class="st4" d="M680.93,171.14c3.05.03,10.19,8.98,10.44,12.15,1.68,21.45-36.72,8.65-24.01-5.95.65-.75,12.82-6.21,13.57-6.2Z"/>
  <path class="st4" d="M572.8,311.97c9.17,12.33-11.71,20.18-20.1,10.14.03-9.06,13.43-19.11,20.1-10.14Z"/>
  <path class="st9" d="M254.53,103.49c-19.12.31-38.47,4.92-56.97,9.3l-3.49-24.42,41.85,8.13-10.45-53.48,88.99,45.39c4.05-.2,19.1-28.51,24.08-27.77s44.98,34.3,49.12,34.46l91.29-78.82,2.35,60.47,36.03-13.95-4.64,29.06,44.17-9.29-2.31,11.61,86.04-12.77-25.84,35.76c-4.99,2.29-23.77-2.77-29.97-3.21l-.52-2.62,10.36-9.25c-17.51,4.2-35.14,6.61-52.92,7.21-1.32-1.02-1.21-2.43-.95-3.93-8.47,2.11-16.99,2.95-25.75,2.77-7.88-1.29-11.62-4.84-16.28-5.81l-2.19-1.29,1.57-13.93c-6.75,5.24-13.91,8.77-21.47,10.57-3.54-.65-8.55-1.95-11.63-2.33l-2.45-1.13-3.68-34.79-62.25,51.93-2.56-.9c-.86-2.04-3.68-8.44-5.43-9.1-4.07-1.53-20.24,1.67-25.97,2.12l-5.09-1.69c-4.5-4.6-9.11-8.89-13.83-12.86l-9.44,15.58-4.21,2.46c-5.37.9-15.45,1.2-19.77,5.81l-2.21,1.3-56.46-39.03,4.82,26.34-1.97,2.1Z"/>
  <path class="st7" d="M432.44,303.5c-.32-21.81,5.03-45.89,4.65-68.03l1.91-2.74c2.28-1.01,22.14.69,24.34,2.07,3.75,2.34,14.25,31.33,17.95,34.97,2.07,2.03,1.94-.47,2.27-1.75,1.37-5.28,1.2-31.94,2.35-33.13l29.08,1.17c-.74,12.09-3.21,24.06-4.66,36.05-2.26,2.62-2.64,4.56-1.16,5.81-1.36,10.07-1.83,20.15-3.49,30.23-.07.91-.27,2.26-.92,2.37-2.14.38-21.58,1.38-22.9,1.04l-1.76-2.25c-6.55-9.7-11.79-20.31-18.06-30.2l-2.88.59c-.84,7.94-1.09,15.9-2.32,23.79-.24.9-.61,2.25-1.31,2.33-2.85.3-21.25.31-22.36-.78-.39-.38-.6-.94-.75-1.55Z"/>
  <path class="st7" d="M354.53,301.17c-2.43-5.82-17.56-63.56-16.35-66.78l24.42-2.91,7.63,33.66c2.29-.28,4.85-39.31,19.8-26.79,3.57,2.99,5.21,22.5,9.84,26.77l6.93-34.36,25.65,2.99c-6.11,21.5-10.59,43.5-16.29,65.1l-1.2,2.39c-5.54,1.09-18.76,1.55-23.22-1.22-3.25-5.91-5.52-14.52-8.16-20.92-3.52,5.16-4.64,12.55-5.8,18.6l-1.16,1.16c-.08.37.07.79,0,1.16-2.94,3.45-15.35,3.68-20.34,3.36l-1.76-2.19Z"/>
  <path class="st2" d="M594.08,176.75c-2.48,1.75-6.68,5.95-9.3,8.14-.27,2.35.66,2.14,2.54,1.67l21.94-6.93,2.26,1.78c-2.06,14.66-5.12,29.69-8.14,44.19-.07.86-.36,2.27-.91,2.28-5.92.07-37.38-.92-40.88-2.21l-1.24-2.4c.95-8.92,4.32-19.4,4.65-27.91l-2.57-2.32c-1.11-.63-23.27-4.24-24.17,0-1.28,6.69-.34,16.46-2.33,23.26-.6.95-1.42,1.95-2.55,2.25-1.65.44-31.85-.49-34.2-1.04l-1.62-2.38c.45-8.82,2.53-19.79,3.49-29.07,2.05-6.02,3.48-12.21,4.27-18.55.09-.12,1.85-1.73,1.97-1.82,3.56-2.44,74.91,7.15,85.64,8.6l1.15,2.46Z"/>
  <path class="st7" d="M337.09,282.56c-8.91,27.46-43.38,38.04-63.96,16.28-1.13-1.61-5.76-8.81-5.85-9.99-.18-2.48,2.72-4.84,2.36-5.12-.41-.31-4.65.22-4.65-.01v-22.68c0-11.45,19.97-27.24,31.14-29.31,33.92-6.3,47.78,21.12,40.95,50.83Z"/>
  <path class="st7" d="M263.83,260.47c-6.08,3.2-12.94,5-20.59,5.38l-1.51,2.76c.55,14.48,5.58,30.42,5.81,43.03l-.86,2.53c-9.1,1.75-18.2,3.5-27.31,5.25l-2.06-1.97c-.47-6.47,1.45-3.36,3.48-9.3-.37-.33-2.62,1.58-3.91,1.1-2.31-.85-5.28-31.91-5.38-37.15l-2.36-1.85-18.84,4.3c-.99.27-1.64-.23-2.06-1.29-1.72-6.96-2.82-17.74-2.35-25,2.63-2.54,65.69-14.4,71.73-14.41,2.23,0,4.76-1.08,6.03,1.79.59,1.32.51,21.94.17,24.83Z"/>
  <path class="st1" d="M195.22,133.72l.58-2.7c19.38-6.39,40.42-11.57,61-12.31,12.77-.46,26.06-.16,33.77,11.52,5.78,8.09,6.13,18.98,3.49,27.91-.73,2.04-1.88,4.83-3.79,5.97-2.52,1.5-25.65,2.88-30.41,2.93l-1.85-1.92-1.66-2.34c4.71-14.24-13.45-15.34-23.07-14.74l2.21,14.59-1.89,2.5.37,5.29c-9.18,2-18.49,3.5-27.91,4.52l-2.69-1.66c-.28-12.12,5.39-5.32,13.95-11.04l-16.26,1.75c-3.12-9.92-4.44-19.96-5.83-30.24Z"/>
  <path class="st1" d="M548.73,129.07c-.35,3.8-3.55,28.4-4.51,29.55-1.58,1.92-11.23.1-12.94,4.16,11.18.88,23.92-1.14,34.88.01.82-1.14,1.84-1.81,2.66-.79,1.89-10.25,4.05-20.45,6.47-30.6.36-.18.71-.38,1.02-.62,1.68-1.29,37.13,2.15,42.15,2.83l1.18,2.43c-.66,5.66-2.89,25.17-5.32,28.98-2.33,3.66-16.51,9.08-20.26,11.72l-86.53-9.38c-1.81,6.5-2.15,13.17-6.5,18.68.68-6.57,1.55-13.2,2.33-19.77,1.49-1.79,2.32-3.82,2.49-6.07l4.23-34.63c.95-1.72,32.56.49,37.09,1.06l1.54,2.43Z"/>
  <path class="st2" d="M342.9,161.63c2.48,4.22,1.39,10.77-2.33,13.95,4.06,2.19,15.29,1.98,18.61-1.16-4.07-2.36-5.86-8.7-3.49-12.79.13-.9.47-2.26,1.11-2.29,3.74-.17,31.79.43,33.33,1.08.87.36,1.27,1.45,1.6,2.38,3.41,12.08,8.13,28.4,9.3,40.7,1.28,3.25-1.43,4.41-4.28,5.13-9.77.48-19.49,1.11-29.18,1.87.08,3.79-2.58,7.92-4.92,3.47-.33-1.21.26-3.27,0-4.65l-1.16-1.16c-.21-1.05.19-2.42,0-3.49-.37-3.37-1.46-6.1-3.27-8.17l-22.97,2.28c-.17,1.96-.42,3.18-2.84,3.57-.18.63.15,1.61,0,2.33l-1.16,2.33c-.08.37.08.79,0,1.16.1,3.62-7.72,4.23-9.3,1.16-3.26-4.34-19.03-14.97-20.38-18.66-.79-2.16,2.16-13.07,2.94-16.22,3.39-3.27,5.69-7.8,6.88-13.59,2.92-3.25,23.9-1.9,29.26-1.24l2.23,2.04Z"/>
  <path class="st2" d="M294.06,158.14c-1.21,4.09-2.1,6.38-4.66,9.88-3.45,4.7-8.83,7.52-12.77,11.62,7.62,8.99,17.11,15.81,25.57,23.86l-1.13,2.47c-2.82,1.45-19.26,7.03-22.89,7.97-8.44,2.19-10.87,2.45-16.82-4.31-1.67-1.9-3.18-3.96-4.51-6.13-2.82-3.56-5.91-7.4-9.3-10.47-.9.35-2.01.48-2.45-.21-2.36-3.75-4,1-4.53,3.7,1.3,5.83,3.3,11.53,4.65,17.44.05.91,0,2.3-.63,2.47-4.78,1.31-27.04,5.58-31.03,5.35l-2.06-2.01c-2.86-12.4-7.86-34.37-8.14-46.51,8.35-2.64,19.4-1.92,27.58-4.44,2.78-.86,3.13.53,2.65-3.7,3.56.49,5.23,5.88,2.33,8.14,1.31-.23,2.3.47,2.96,2.11,6.74-1.96,12.73-4.99,17.97-9.09-1.5-1.87-.87-2.51,1.16-1.16,7.78-2.35,24.9-.65,33.21-3.35,2.26-.73,1.75-2.01,2.84-3.63Z"/>
  <path class="st1" d="M492.91,119.77c-1.59,9.89-7.65,19.16-9.32,29.07-5.39-3.1-35.94-11.21-38.26-5.07-1.08,3.19,1.19,4.35,2.23,6.23,7.28,4.43,14.7,8.65,22.28,12.67l-.19,1.29-4.31,2.3c-16.71.77-37.49.93-52.67-5.79-6.26-6.06-7.53-6.07-9.3-15.12-1.89-7.41,1.57-10.44,8.14-12.79-.5-2.35-4.42-.62-5.81-1.16,19.95-26.91,55.6-23.55,84.96-14.62l2.25,2.99Z"/>
  <path class="st2" d="M469.65,163.95c.33-1.66,1.15-1.25,2.33,0h2.33c11.96,7.97,17.76,9.37,16.28,26.75-12.67,30.58-54.73,24.55-79.95,14.69l-1.45-3.06c-1.12-7.2-1.7-12.46,0-19.77l1.96-1.96,22.77,7.37c7.78,3.29,13.88,3.04,18.29-.76-2.53-8.07-30.27-17.77-39.54-26.75,17.81,3.86,38.5,3.35,56.98,3.49Z"/>
  <path class="st1" d="M382.44,119.77c1.02,3.33,6.83,28.2,6.55,29.69-.59,3.2-7.68,3.49-7.71,4.61,2.28,3.01,6.91-.9,9.17.72.79.57.88,6.58,1.29,8.01l-36.05-1.16c-3.4-2.54-5.63-6.54-6.71-11.98l-3.49,11.31-2.59.67c-6.33,1.41-24.91-1.87-29.51-.07-2.27.89-1.86,15.87-8.86,12.86,1.78-7.19,5.97-15.28,8.14-22.09,3.46-5.48,5.88-11.56,7.25-18.22l2.05-1.55c-2.92-2.31,1.48-7.92,4.37-9.72,5.5-3.43,45.15-5.11,54.06-5.11l2.04,2.04Z"/>
  <path class="st2" d="M138.24,196.51c5.24,9.1,16.77,9.65,26.11,9.83l2.09.83c1.11,5.11,2.57,10.08,4.36,14.92.38,1.49,1.42,2.93,1.18,4.66l14.5-3.52c1.32.34.3,2.61.6,3.51l-2.45,3.11c-17.66,4.9-36.75,9.57-54.85,4.34-8.25-2.38-21.32-7.44-24.1-15.59-2.51.33-5.23-1.61-8.14-5.81-1.21-2.98-3.94-7.16-3.49-10.47,7.57-4.18,15.45-7.74,23.63-10.68l-1.54-.95c-7.31-.4-13.74,2.98-20.93,3.49-3.3-3.22-3.62-9.65,0-12.79l2.9-1.49c12.13,1.81,24.34,1.92,36.64.32-1.37,7.26.38,10.54,3.49,16.28Z"/>
  <path class="st1" d="M118.47,141.86c10.39,6.73,20.76,13.49,30.22,21.53.35,1.05-12.49,9.14-13.94,16.84-1.03,2.16-1.68,2.26-3.96,2.42-11.59.78-24.88,2.74-35.58-1.25-4.31-3.78-.12-19.02,2.79-23.72l3.03-.7c-1.56-2.33-.37-4.79,3.56-7.38,3.06-2.88,10.35-9.53,13.88-7.74Z"/>
  <path class="st1" d="M182.43,126.74c1.52,9.28,1.83,18.65,3.49,27.9-8.06-1.6-27,6.54-32.86,5.64-3.05-.47-24.89-17.48-28.77-20.74.19-1.37.62-2.7,1.62-3.69,6.11-6,45.73-14.51,53.39-11.55,1.3.5,2.36,1.26,3.13,2.45Z"/>
  <path class="st2" d="M394.07,110.46l66.89-55.8,4.05,40.68c-27.33-3.37-50.49.51-69.2,22.09-1.54.08-1.36-6.07-1.74-6.97Z"/>
  <path class="st2" d="M310.34,112.79c-1.91,2.03-3.51,11.51-5.23,11.6-12.62-18.24-29.69-21.24-50.58-20.9l-6.4-33.72,62.22,43.02Z"/>
  <path class="st13" d="M569.66,253.49c5.48-.03,10.9.35,16.28,1.16,7.98,3.85,15.92,7.95,22.07,14.54-.24,1.91-34.61,12.64-36.56,12.28s-12.08-12.7-12.28-14.66c-.61-5.92,6.85-10.58,10.49-13.32Z"/>
  <polygon class="st3" points="671.98 215.14 626.64 227.91 632.49 195.37 671.98 215.14"/>
  <path class="st6" d="M665.01,133.72c.79,3.6-8.72,19.27-11.04,23.23-1.11.12-15.96-14.08-16.32-15.13-1.21-3.55,8.64-26.12,9.92-31.36,1.21,0,2.5.49,3.42,1.25,1.45,1.19,15.34,18.35,15.43,19.59l-1.41,2.41Z"/>
  <path class="st3" d="M187.08,226.75c.71,2.16,2.63,4.89.46,7.12-.74.76-17.8,5.51-20.41,6.07-26.16,5.6-45.32,5.03-62.61-16.68-1.96-3.36-1.57-4.91,1.16-4.65,26.54,21.64,50.41,17.01,81.4,8.14Z"/>
  <path class="st3" d="M490.58,190.7c-2.8,32.84-51.39,32.93-74.42,23.83-8.42-3.33-5.54-2.93-6.98-12.2,26.66,10.61,63.26,16.38,81.4-11.63Z"/>
  <path class="st8" d="M290.58,130.23c-13.71-19.2-76.1-3.88-95.35,3.49-.18-1.33-2.57-4.2-2.19-6.32,26.52-7.75,80.12-28.19,97.54,2.83Z"/>
  <path class="st8" d="M405.7,131.39c-3.73-1.45,5.99-12.48,7.57-13.94,16.99-15.64,47.87-13.13,68.5-6.9,4.06,1.23,8.03,2.85,12.25,3.45.82,2.15-.86,4.17-1.11,5.76-21.66-5.64-45.13-11.96-66.72-2.18-7.53,3.41-12.99,10.3-20.49,13.81Z"/>
  <path class="st13" d="M647.57,110.46c1.87-1.61,36.42,2.81,38.5,4.24.81.56,4.69,8.77,4.05,9.76l-25.11,9.25c-.65-2.95-15.49-18.54-17.44-23.26Z"/>
  <path class="st2" d="M195.22,194.19c3.57,6.26,5.59,18.3,6.98,25.58.58,4.14-9.48,6.64-10.47,2.33-.27,0-.86-2.4-2.88-2.41-2.56,0-13.93,4.05-14.55,3.57-1.06-6.38-2.76-11.96-2.34-18.61l.9-1.53c7.5-1.78,14.43-5.25,20.84-9.49l1.52.56Z"/>
  <path class="st2" d="M515,108.14l29.07-5.8c.48.42-1.88,5.15-1.15,5.8,2.24,2,52.04-9.52,59.3-9.28l-17.44,15.1c-2.73-.19-11.57-1.18-13.14-.94-2.58.4-6.16,4.84-8.26,4.34-1.15-.27-4.03-6.89-8.26-6.89h-17.44c-5.61,0-16.82-1.37-22.68-2.33Z"/>
  <path class="st8" d="M566.17,162.79l8.19-38.33,46.47,4.6c1.11,2.62-.99,5.47-1.17,6.98l-42.95-3.41-5.91,32.47c-1.98.83-4.17-2.27-4.63-2.32Z"/>
  <path class="st8" d="M382.44,119.77c-11.1,2.01-48.99.84-56.38,5.86-.33.23-3.53,5.74-4.09,6.94-1.57,2.63-2.73,3.01-3.49,1.16,1.17-3.42,1.19-14.53,5.43-16.09l55.55-5.85c2.1.66,2.38,6.03,2.98,7.99Z"/>
  <path class="st8" d="M503.38,166.28c1.87-15.83,2.86-31.85,5.98-47.51l40.45,3.38c1.33,2.5-.96,5.57-1.09,6.91l-37.19-2.31c-1.99,11.72-1.49,25.34-4.61,36.72-.76,2.77,1.15,3.25-3.55,2.79Z"/>
  <path class="st12" d="M153.35,303.49c-2.78-3.03,10.83-9.17,13.18-10.66,7.9-5.03,7.86-11.83,19.04-4.68,3.78,2.42,4.84,3.61,3.21,8.31-4.49,12.93-24.82,7.68-35.42,7.03Z"/>
  <path class="st8" d="M124.29,139.53c-1.83-1.54-7.2-2.54-6.98-6.97,20.75-7.76,42.59-13.95,65.13-12.81.25,2.22-.35,4.87,0,6.98-18.92-.99-41.88,2.41-58.14,12.79Z"/>
  <path class="st3" d="M603.38,225.58c-.39,1.88-.78,10.07-1.81,10.51l-42.38-4.71c-.73-1.61,1.17-3.28,1.17-3.48v-1.16c.04-1.15-.12-2.35,0-3.49l43.03,2.33Z"/>
  <path class="st3" d="M121.96,258.16c2.5,2.57-7.56,3.32-8.74,3.44-12.01,1.24-24.63.16-36.59,2.35l24.03-18.43,21.31,12.64Z"/>
  <path class="st0" d="M416.17,56.98c-3.74,12.24-22.82,25.3-36.05,22.07,10.22-10.13,19.58-25.74,36.05-22.07Z"/>
  <path class="st2" d="M362.67,103.49c-10.83.85-21.84,1.7-32.56,3.49l13.37-22.07,19.19,18.58Z"/>
  <path class="st3" d="M302.2,203.49c1.83,1.74,7.23,2.66,6.97,6.97l-38.96,10.5c-2.63-.43-10.8-14.24-13.36-17.47,12.08,20.38,27.86,1.53,45.35,0Z"/>
  <path class="st3" d="M535.94,216.28c-4.5,15.4-26.71,5.85-38.38,6.98.09-2.7-.13-5.45,0-8.15l38.37,1.16Z"/>
  <path class="st9" d="M56.84,140.7c-2.58-1.12,1-1.99,1.83-2.24,3.58-1.12,33.92-4.61,35.38-3.56-3.43,4.94-7.56,9.84-10.47,15.1l-2.02,1.76c-8.75-2.68-17.02-6.03-24.72-11.06Z"/>
  <path class="st12" d="M533.32,282.77c2.91-.45,13.37,5.2,12.98,8.34-.19,1.5-11.27,11.08-13.07,11.04-1.29-.03-12.06-6.9-12.45-9.71,0-2.17,11.27-9.48,12.55-9.68Z"/>
  <path class="st3" d="M401.05,203.49c.17,1.75,3.12,2.28-.71,5.7-2.7,2.41-34.86,11.95-36.49,10.59.41-2.17-.64-3.9-1.17-5.82,4.31.82.8-4.28,4.22-5.66s20.34-1.09,25.26-1.47c1.53-.12,9.86-.24,8.89-3.33Z"/>
  <path class="st13" d="M547.56,238.38c3.2,1.39,5.91,3.33,8.14,5.81,2.06,7.31-1.33,5.5-2.33,8.14-1.02,3.74-17.98,5.09-19.63,3.9-1.45-1.04-3.4-13.93-1.3-15.53,5.21-1.41,9.55-2.73,15.12-2.33Z"/>
  <path class="st6" d="M532.45,240.7l2.33,13.94,18.6-2.31c-4.97,13.15-4.79,14.65-21.04,12.25-1.17-.65-2.95-21.64-2.22-24.45.4-1.55,1.83.71,2.33.58Z"/>
  <path class="st6" d="M273.13,298.84c22.67,17.56,52.61,9.38,63.96-16.28-6.95,30.27-46,41.89-63.96,16.28Z"/>
  <path class="st6" d="M167.31,255.82c9.67,14.62-2.64,21.86-13.95,29.06.69-3.71-.97-10.85,0-13.95-.39-.42-.74-.85-.94-1.35-.4-.98,12.23-14.48,14.89-13.77Z"/>
  <path class="st10" d="M153.36,270.94l-18.6-1.17.55-2.35,30.41-13.8c2.7-.86,1.16,1.54,1.6,2.2-1.07,3.52-13.65,14.13-13.95,15.12Z"/>
  <path class="st2" d="M498.72,102.32c-7.26-1.52-14.87-3.32-22.09-4.65l24.41-15.12-2.31,19.77Z"/>
  <path class="st3" d="M245.22,213.96c.36,1.55,3.24,4.23,2.33,6.97l-34.88,5.83c.16-2.43-.63-4.68-1.17-6.98l33.72-5.81Z"/>
  <path class="st11" d="M101.03,156.98c-3.98,6.67-5.53,16.76-5.81,24.42-.16,4.24.11,8.54,0,12.79-.38.03-.78.01-1.16,0-.87.5-1.69.85-2.33,0-3.09-9.27-3.26-20.67-1.16-30.23,4.71-10.78,8.2-13.11,10.47-6.98Z"/>
  <path class="st8" d="M118.47,141.86c-4.96,4.14-14.17,9.63-17.44,15.12-9.26-4.45-4.38,4.55-10.47,6.98,1.6-7.28,10.9-22.43,17.52-26.1s6.45,1.45,10.39,4.01Z"/>
  <path class="st1" d="M452.21,187.21c.54,1.72,2.41,3.38-.77,4.46-11.02,3.76-31.12-7.03-42.25-9.11.29-1.23,1.03-5.71,1.73-5.8,12.46,6.44,27.12,10.96,41.29,10.45Z"/>
  <path class="st6" d="M247.55,311.64c.04,1.91.13,3.85-.06,5.75-4.77-.04-27.72,8.22-30.18,5.88-.24-.23.1-4.53,0-5.82l30.23-5.81Z"/>
  <path class="st1" d="M611.52,181.4l-34.88,9.89c2.44-2.5,5.47-4.18,8.13-6.4,6.08,2.08,27.37-15.79,28.75-7.56.16.96-1.84,2.93-2,4.07Z"/>
  <path class="st6" d="M505.7,308.15c-.35,2.11.26,4.77,0,6.98-5.72-1.07-17.7,1.53-22.48-.2-2.87-1.04-2.21-4.29-3.11-5.62l25.58-1.16Z"/>
  <path class="st3" d="M83.59,150c-.79,1.43-1.19,9.88-4.04,9.28l-22.7-18.59,26.75,9.3Z"/>
  <path class="st6" d="M456.86,303.5c-.33,2.13.25,4.76,0,6.98l-24.43-1.16c-.03-1.93.03-3.88,0-5.82h24.42Z"/>
  <path class="st6" d="M416.16,298.84c-.41,1.55-.46,6.49-1.89,7.05-11.29-1.74-16.6,4.87-22.53-5.88l24.42-1.16Z"/>
  <path class="st1" d="M138.24,196.51c4.78,9.83,23.84,4.94,27.95,7.52,2.84,1.78,3.76,14.76,4.61,18.06-4.01-1.73-4.17-12.29-4.67-12.78-2.63-2.58-18.96,3.68-27.89-12.81Z"/>
  <path class="st3" d="M332.44,202.33c.51-1.76-.14-4.78,2.04-5.8l25.18-2.41c1.5.57,1.52,8.72,1.85,10.54-2.09-.79-.73-5.37-1.16-5.82-.97-1.02-24.3,3.15-27.91,3.5Z"/>
  <path class="st3" d="M538.26,193.03c.37-1.91.22-4.42,2.86-4.71,5.78-.64,17.26,3.68,23.89,2.38-.02,1.54.05,3.11,0,4.66l-26.75-2.33Z"/>
  <path class="st6" d="M376.63,300.01c-2.17,10.99-10.69,4.18-20.19,5.65-2.56-.68-1.44-3.37-1.91-4.48l22.09-1.16Z"/>
  <path class="st10" d="M188.24,273.26l22.69-5.82c3.83-.48.55,3.72.57,4.66l-23.26,4.65c-.18-1.09.24-2.53,0-3.49Z"/>
  <path class="st3" d="M202.2,219.77c.19,1,4.04,3.2,1.79,6.99-1.03,1.74-8.28,3.32-10.46,4.67l-1.8-9.34c4.29.13,6.64-.98,10.47-2.33Z"/>
  <path class="st1" d="M171.97,204.65c0-.11-1.27-.85-1.03-1.58.91-2.76,19.34-7.84,22.67-11.1,2.72-.81,1.15,1.41,1.61,2.22-6.76,5.08-14.15,10.86-23.26,10.47Z"/>
  <path class="st10" d="M263.83,260.47c-.8,6.79-15.51,5.88-22.09,8.14-.02-.55-2.09-2.81-1.17-4.65l23.26-3.49Z"/>
  <path class="st3" d="M331.27,208.14c-.41,1.96.62,8.45-1.96,9.35-2.27.79-7.96-.62-10.83-.06,1.4-1.22,3.13-7.87,3.49-8.13.44-.32,7.78-.9,9.3-1.16Z"/>
  <path class="st10" d="M585.94,254.66c-3.66,1.59-17.21,2.92-16.28-1.16.57-.43.35-4.48,5.04-4.36,2.79.07,8.63,4.26,11.24,5.52Z"/>
  <path class="st11" d="M321.97,132.56c-2.75,5.91-2.57,17.47-9.3,19.77,2.01-6.33,3.62-12.24,5.81-18.61l3.49-1.16Z"/>
  <path class="st11" d="M471.98,162.79c.68.35.67.74,0,1.16-.77-.03-1.55,0-2.33,0-7.23-7.46-16.7-4.21-22.09-13.95,8.93,2.87,16.55,7.88,24.42,12.79Z"/>
  <path class="st1" d="M116.15,190.7c3.3-1.53,6.46-5.33,5.78,1.11l-27.87,10.52c.45-3.32,17.22-9.37,22.09-11.63Z"/>
  <path class="st6" d="M510.35,272.1c-.27,2.28-.93,4.13-1.16,5.81l-13.95,2.91,15.11-8.73Z"/>
  <path class="st9" d="M105.68,218.61l-1.16,4.65c-3.09-3.88-4.43-4.2-6.98-10.47,4,.82,5.66,3.8,8.14,5.81Z"/>
  <path class="st3" d="M247.55,193.03c-2.87,2.18-7.98-.58-6.98,3.49-.91-4.06-1.94-8.71,5.18-6.83,1.81.48,1.5,3.06,1.8,3.34Z"/>
  <path class="st10" d="M555.7,244.19c-3.6.05-7.79-1.76-8.14-5.81,6.21.45,6.28-.79,8.14,5.81Z"/>
  <path class="st11" d="M411.51,132.56c-4.34,4.68-9.56,4.57-8.14,12.79-1.73-8.8-1.72-11.44,8.14-12.79Z"/>
  <path class="st2" d="M94.05,194.19c-.18,0-1.8,2.51-2.33,0h2.33Z"/>
  <path class="st3" d="M331.27,206.98l1.16-2.33c-.35,1.67-1.14,2.2-1.16,2.33Z"/>
  <path class="st1" d="M474.3,163.95c-.23,1.86-1.89.02-2.33,0v-1.16c.72.45,1.62.69,2.33,1.16Z"/>
  <path class="st3" d="M362.67,209.31c-.01-.08-1.01-.41-1.16-1.16l1.16,1.16Z"/>
  <path class="st6" d="M376.63,298.84c.1-.48.71-.93,1.16-1.16-.09.49-.69.95-1.16,1.16Z"/>
  <path class="st2" d="M560.35,227.91c0-.39-.01-.78,0-1.16v1.16Z"/>
  <path class="st13" d="M41.73,196.51c4.05.43,7.61,13.51,4.65,16.28-3.38.42-7.42,4.42-13.05,3.25-5.17-1.08-15.74-12.17-21.82-13.73,9.41-4.25,20.17-4.45,30.22-5.8Z"/>
  <path class="st6" d="M53.36,213.96l-2.06-1.71,2.97-16.83,2.58-1.23c.19,0,1.09-1.48,2.61-1.04,7.32,10.71,19.21,26.42,7.27,38.22-1.56.08-10.97-15.95-13.37-17.42Z"/>
  <path class="st10" d="M56.84,194.19l-3.49,19.77c-2.01-1.22-4.7-1.45-6.98-1.16l-4.65-16.28c5.35-.72,9.21-2.23,15.12-2.33Z"/>
  <path class="st10" d="M135.68,80.8c-3.63-.94-20.35-4.83-26.42-6.24-1.15-.27-1.76-1.51-1.28-2.58,1.29-2.88,3.58-7.95,4.64-10.01.49-.94,1.53-1.44,2.57-1.22,5.48,1.16,22.29,4.75,27.29,6.32.92.29,1.34,1.35.88,2.2l-5.87,10.75c-.35.65-1.1.97-1.81.78Z"/>
  <path class="st13" d="M588.26,20.94c1.85,2.24-13.75,7.81-15.82,8.03-6.55.69-16.87-1.61-23.7-2.25,14.4-6.35,24.16-17.44,39.52-5.78Z"/>
  <path class="st10" d="M117.31,303.48c-3.85,0-6.76,2.64-10.74,2.13-1.53-.2-18.51-8.55-16-10.25,13.11-1.35,21.49-9.01,26.75,8.12Z"/>
  <path class="st10" d="M678.68,175.76c5.53-.43,10.85,9.6-1.17,7.69-9.5-1.51-4.07-7.29,1.17-7.69Z"/>
  <path class="st5" d="M561.52,311.64c8.43-1.74,12.23,5.19,1.92,4.49l-1.92-4.49Z"/>
  <path class="st4" d="M304.14,255.05c17.07.18,13.42,33.97-6.87,30.76-17.41-2.75-9.12-30.93,6.87-30.76Z"/>
  <path class="st4" d="M258.02,165.12c-.82.25-.87.92-1.16,1.16-.89,2.78-17.47,9.04-18.65,8.67-.97-.3-1.75-.8-2.29-1.69-.71-2.61-1.75-5.51-2.33-8.14-1.35-6.18-1.36-13.51-3.48-19.76,13.33.12,35.11.25,27.9,19.76Z"/>
  <path class="st4" d="M355.69,161.63c1.22,4.16,2.52,8.57,3.49,12.79.02.57-.02,1.11-.24,1.57-.42.87-17.55,2.03-18.36-.41.48-4.77,1.21-9.32,2.33-13.95.42-1.74,5.42-18.75,6.4-18.62,1.72,6.27,4.57,12.41,6.4,18.62Z"/>
  <path class="st1" d="M359.18,174.42c.14.61,1.96,1.58,1.16,3.48l-20.92,1.16c-.44-1.35,1.09-2.75,1.16-3.48l18.61-1.16Z"/>
  <path class="st1" d="M256.85,166.28c-.36.3-.69,3.3-3.56,5.16-2.39,1.55-15.71,7.98-17.36,6.47-.27-1.42.32-3.44,0-4.66l20.93-6.98Z"/>
</svg>